<svg xmlns="http://www.w3.org/2000/svg" width="324.647" height="156.414" viewBox="0 0 324.647 156.414">
  <g id="Floral" transform="translate(0 -0.588)">
    <g id="Vector_Smart_Object" data-name="Vector Smart Object" transform="translate(-803.02 -81.756)">
      <g id="Group_1156" data-name="Group 1156">
        <path id="Path_1218" data-name="Path 1218" d="M803.928,93.055c5.169,7.365,11.715,13.638,18.218,19.859q31.715,30.342,63.435,60.685a21.409,21.409,0,0,0,6.428,4.766c3.925,1.6,8.352.748,12.557.22,26.908-3.377,53.526,7.6,77.173,20.858s46.208,29.183,72.1,37.234c-32.636-.555-67.116-1.631-94.752-18.978-7.257-4.555-13.836-10.129-21.137-14.616A168.866,168.866,0,0,0,919.2,193.6L887.177,179.05" fill="none" stroke="#484f5b" stroke-miterlimit="10" stroke-width="2.22"/>
        <path id="Path_1219" data-name="Path 1219" d="M1051.792,237.691c-56.754-16.358-107.211-54.2-165.993-60" fill="none" stroke="#484f5b" stroke-miterlimit="10" stroke-width="2.22"/>
        <path id="Path_1220" data-name="Path 1220" d="M1030.5,235.1a32.029,32.029,0,0,1-6.039-7.864" fill="none" stroke="#484f5b" stroke-miterlimit="10" stroke-width="2.22"/>
        <path id="Path_1221" data-name="Path 1221" d="M1023.425,234.953q-3.975-5.6-8.447-10.835" fill="none" stroke="#484f5b" stroke-miterlimit="10" stroke-width="2.22"/>
        <path id="Path_1222" data-name="Path 1222" d="M1014.074,234.9a87.5,87.5,0,0,1-12.639-16.571" fill="none" stroke="#484f5b" stroke-miterlimit="10" stroke-width="2.22"/>
        <path id="Path_1223" data-name="Path 1223" d="M1001.5,232.282c-1.268-.069-2.152-1.245-2.841-2.312q-5.487-8.521-10.115-17.552" fill="none" stroke="#484f5b" stroke-miterlimit="10" stroke-width="2.22"/>
        <path id="Path_1224" data-name="Path 1224" d="M990.056,231.11a27.052,27.052,0,0,1-3.678-5.015q-6.66-10.714-13.323-21.433" fill="none" stroke="#484f5b" stroke-miterlimit="10" stroke-width="2.22"/>
        <path id="Path_1225" data-name="Path 1225" d="M977.4,227.074a143.325,143.325,0,0,1-20.553-28.888" fill="none" stroke="#484f5b" stroke-miterlimit="10" stroke-width="2.22"/>
        <path id="Path_1226" data-name="Path 1226" d="M960.421,218.873c-4.023-3.166-6.746-7.658-9.38-12.047q-4.448-7.4-8.891-14.8" fill="none" stroke="#484f5b" stroke-miterlimit="10" stroke-width="2.22"/>
        <path id="Path_1227" data-name="Path 1227" d="M941.945,205.524a67.913,67.913,0,0,1-13.027-18.741" fill="none" stroke="#484f5b" stroke-miterlimit="10" stroke-width="2.22"/>
        <path id="Path_1228" data-name="Path 1228" d="M927.325,196.794a65.881,65.881,0,0,1-9.782-12.643" fill="none" stroke="#484f5b" stroke-miterlimit="10" stroke-width="2.22"/>
        <path id="Path_1229" data-name="Path 1229" d="M914.726,191.411q-3.538-4.976-7.079-9.95" fill="none" stroke="#484f5b" stroke-miterlimit="10" stroke-width="2.22"/>
        <path id="Path_1230" data-name="Path 1230" d="M925.148,177.494l-11.715,4.848" fill="none" stroke="#484f5b" stroke-miterlimit="10" stroke-width="2.22"/>
        <path id="Path_1231" data-name="Path 1231" d="M937.234,181.222a93.238,93.238,0,0,0-15.18,2.767" fill="none" stroke="#484f5b" stroke-miterlimit="10" stroke-width="2.22"/>
        <path id="Path_1232" data-name="Path 1232" d="M949.344,184.382a180.1,180.1,0,0,0-17.847,4.112" fill="none" stroke="#484f5b" stroke-miterlimit="10" stroke-width="2.22"/>
        <path id="Path_1233" data-name="Path 1233" d="M961.518,188.677a146.027,146.027,0,0,0-19.284,3.708" fill="none" stroke="#484f5b" stroke-miterlimit="10" stroke-width="2.22"/>
        <path id="Path_1234" data-name="Path 1234" d="M972.3,193.936a66.158,66.158,0,0,0-17.91,2.987" fill="none" stroke="#484f5b" stroke-miterlimit="10" stroke-width="2.22"/>
        <path id="Path_1235" data-name="Path 1235" d="M985.714,200.538a106.648,106.648,0,0,1-15.644,2.674" fill="none" stroke="#484f5b" stroke-miterlimit="10" stroke-width="2.22"/>
        <path id="Path_1236" data-name="Path 1236" d="M997.9,209.178a78.871,78.871,0,0,0-12.525,1.7" fill="none" stroke="#484f5b" stroke-miterlimit="10" stroke-width="2.22"/>
        <path id="Path_1237" data-name="Path 1237" d="M1013.154,218.143a34.168,34.168,0,0,1-8.976.32" fill="none" stroke="#484f5b" stroke-miterlimit="10" stroke-width="2.22"/>
        <path id="Path_1238" data-name="Path 1238" d="M1023.958,224.81l-6.735.047" fill="none" stroke="#484f5b" stroke-miterlimit="10" stroke-width="2.22"/>
        <path id="Path_1239" data-name="Path 1239" d="M886.641,179.48l-2.77-3.655a235.624,235.624,0,0,0,15.144,38.194c1.362-6.848-.644-13.959-3.674-20.25s-7.075-12.051-10.173-18.311c-2.334-4.717-4.8-10.314-9.913-11.594" fill="none" stroke="#484f5b" stroke-miterlimit="10" stroke-width="2.22"/>
        <path id="Path_1240" data-name="Path 1240" d="M844.2,90.754q19.554,26.081,39.111,52.162c4.34,5.787,8.887,11.756,15.269,15.166,7.23,3.865,15.8,3.925,23.98,4.48a173.38,173.38,0,0,1,83.388,28.167c11.459,7.569,22.139,16.58,34.8,21.912,4.489,1.888,9.445,3.306,14.2,2.246,6.4-1.431,10.946-6.925,15.14-11.969a325.779,325.779,0,0,1,49.873-48.388" fill="none" stroke="#484f5b" stroke-miterlimit="10" stroke-width="2.22"/>
        <path id="Path_1241" data-name="Path 1241" d="M1126.984,137.016l-45.8,35.687c-12.028,9.373-25.446,19.22-40.69,18.67-17.405-.626-31.043-14.436-46.59-22.287-6.586-3.328-13.691-5.638-19.969-9.517-9.3-5.749-16.208-14.565-23.327-22.866A337.5,337.5,0,0,0,892.6,83.243" fill="none" stroke="#484f5b" stroke-miterlimit="10" stroke-width="2.22"/>
        <path id="Path_1242" data-name="Path 1242" d="M1121.713,130.861a325.474,325.474,0,0,1-59.861,43.478c-5.22,2.947-10.7,5.809-16.675,6.359s-12.585-1.744-15.491-6.985c-5.635-10.165,5.011-24.632-2.088-33.839-6.319-8.2-19.162-3.572-29.5-4.216-13.014-.808-23.263-10.933-32.2-20.414L938.709,86.409" fill="none" stroke="#484f5b" stroke-miterlimit="10" stroke-width="2.22"/>
      </g>
    </g>
  </g>
</svg>
