<svg xmlns="http://www.w3.org/2000/svg" width="137.093" height="180.995" viewBox="0 0 137.093 180.995">
  <path id="Shape" d="M293.918,540.2c3.083,0,3.077,4.8,0,4.8S290.841,540.2,293.918,540.2Zm-3.7-2.412a3.14,3.14,0,0,1-1.873-2.794q-.047-1.266-.094-2.534a3.141,3.141,0,0,1,.428-1.59l.491-.637a3.14,3.14,0,0,1,1.386-.811l.835-.112a3.238,3.238,0,0,1,3.141,3.151l-.095,2.534a3.032,3.032,0,0,1-.416,1.543c-.158.207-.318.413-.476.619a3.038,3.038,0,0,1-1.345.786l-.81.11-.093,0A2.281,2.281,0,0,1,290.218,537.783Zm-11.459-11.155c4.23,0,4.223,6.584,0,6.584S274.535,526.629,278.759,526.629Zm7.58-22.952c4.411,0,4.4,6.866,0,6.866S281.934,503.677,286.339,503.677ZM263.6,466.271c3.626,0,3.62,5.643,0,5.643S259.979,466.271,263.6,466.271ZM245.911,446c3.626,0,3.621,5.643,0,5.643S242.292,446,245.911,446Zm-12.633-11.873c2.6,0,2.595,4.044,0,4.044S230.684,434.122,233.278,434.122Zm-12.633-3.659a.612.612,0,0,1,0,1.223A.612.612,0,0,1,220.645,430.464ZM209,428.646l-.617-.478a3.065,3.065,0,0,1-.783-1.349q-.055-.406-.109-.813a2.947,2.947,0,0,1,1.873-2.794,2.283,2.283,0,0,1,1.174-.263l2.526.188a2.828,2.828,0,0,1,1.444.392l.579.448a2.869,2.869,0,0,1,.735,1.266c.034.254.067.508.1.762a2.942,2.942,0,0,1-2.859,2.869l-2.526.187A3.02,3.02,0,0,1,209,428.646Zm-6.043-18.369c3.929,0,3.922,6.114,0,6.114S199.037,410.277,202.958,410.277Zm-20.213-7.509c3.807,0,3.8,5.925,0,5.925S178.944,402.768,182.745,402.768Zm15.16,1.368a.941.941,0,0,1,0-1.881h2.527a.941.941,0,0,1,0,1.881Zm-35.3-12.217c4.626,0,4.619,7.2,0,7.2S157.983,391.919,162.6,391.919Zm17.617-3.513c2.719,0,2.714,4.233,0,4.233S177.5,388.407,180.219,388.407Zm7.58-3.381c3.807,0,3.8,5.926,0,5.926S184,385.025,187.8,385.025Zm-17.46-10.975c4.317,0,4.31,6.72,0,6.72S166.028,374.051,170.339,374.051Zm17.46-2.539a1.27,1.27,0,0,1,0,2.539A1.27,1.27,0,0,1,187.8,371.512ZM172.638,364c4.775,0,4.766,7.43,0,7.43S167.872,364,172.638,364Z" transform="translate(-159.135 -363.997)" fill="#4b505c"/>
</svg>
