<svg xmlns="http://www.w3.org/2000/svg" width="132.001" height="116.001" viewBox="0 0 132.001 116.001">
  <g id="Vector_Smart_Object" data-name="Vector Smart Object" transform="translate(-976.867 -45.167)">
    <g id="Group_1181" data-name="Group 1181">
      <g id="Group_1157" data-name="Group 1157">
        <path id="Path_1243" data-name="Path 1243" d="M977.587,47.274c2.4,10.6,5.5,21.27,11.125,30.678a46.66,46.66,0,0,0,10.028,12.031c4.519,3.764,9.732,6.13,15.25,8.074,6.012,2.117,12.072,4.039,17.224,7.911,4.738,3.562,8.62,8.09,12.915,12.138a41.275,41.275,0,0,0,15.135,9.46c6.207,2.115,12.8,3.083,18.814,5.75,11.152,4.943,19.333,14.447,26.662,23.843.953,1.224,1.9,2.455,2.84,3.686a.7.7,0,0,0,1.215-.707c-4.619-10.815-14.131-18.49-21.943-26.936a64.468,64.468,0,0,1-10.051-13.9c-2.59-4.962-4.6-10.191-6.823-15.321a66.23,66.23,0,0,0-7.836-14.252,31.657,31.657,0,0,0-13.089-10.093c-5.992-2.486-12.475-3.391-18.814-4.572a94.022,94.022,0,0,1-17.975-5.115,88.228,88.228,0,0,1-31-21.1c-1.063-1.122-2.076-2.287-3.105-3.439-.6-.665-1.59.183-1.2.921A76.673,76.673,0,0,0,995.48,69.444c7.431,6.167,16.068,10.47,24.8,14.481,8.771,4.028,17.747,7.86,25.653,13.464a59.184,59.184,0,0,1,11.013,10.185c3.441,4.077,6.487,8.463,9.821,12.627a76.4,76.4,0,0,0,12.807,12.622c4.845,3.764,10.019,6.972,15.144,10.328.646.423,1.245-.607.6-1.028-8.984-5.885-18.1-12.207-25.18-20.349-6.854-7.884-12.2-16.96-20.52-23.5-15.044-11.83-34.528-15.919-49.95-27.147a67.683,67.683,0,0,1-21.4-25.561l-1.2.919C984.8,56,995.261,63.665,1006.28,68.968a89.153,89.153,0,0,0,17.294,6.239c6.285,1.549,12.75,2.241,19.012,3.884,5.945,1.56,11.466,4.137,15.782,8.581,3.753,3.865,6.4,8.629,8.652,13.471,2.36,5.069,4.32,10.309,6.672,15.38a61.884,61.884,0,0,0,8.824,14.117c7.537,8.9,17.433,16.011,23.178,26.327a41.327,41.327,0,0,1,1.883,3.878c.4-.236.811-.471,1.215-.707-7.107-9.346-14.538-19-24.668-25.29-5.383-3.343-11.3-5.1-17.382-6.693-6.279-1.646-12.31-3.564-17.485-7.609-4.582-3.577-8.392-8.005-12.623-11.965a48.858,48.858,0,0,0-6.773-5.421,44.432,44.432,0,0,0-8.266-4.031c-5.921-2.269-12.139-3.869-17.58-7.217a41.659,41.659,0,0,1-11.535-10.85c-6.561-8.888-10.2-19.555-13.143-30.076q-.545-1.946-1.055-3.9a.362.362,0,0,0-.7.192Z" fill="#484f5b"/>
      </g>
      <g id="Group_1158" data-name="Group 1158">
        <path id="Path_1244" data-name="Path 1244" d="M986.828,55.879a13.343,13.343,0,0,1,1.219,2.143c.375.712.731,1.436,1.083,2.161.72,1.482,1.36,2.977,1.931,4.52a.4.4,0,1,0,.738-.308q-1.01-2.245-2.026-4.487c-.334-.735-.679-1.466-1.029-2.193a18.39,18.39,0,0,1-1.08-2.32c-.234-.746-1.367-.177-.837.484Z" fill="#484f5b"/>
      </g>
      <g id="Group_1159" data-name="Group 1159">
        <path id="Path_1245" data-name="Path 1245" d="M993.225,60.992a55.872,55.872,0,0,0,4.287,9.582c.223.4.829.044.612-.356a68.165,68.165,0,0,1-4.146-9.43c-.167-.467-.913-.271-.753.2Z" fill="#484f5b"/>
      </g>
      <g id="Group_1160" data-name="Group 1160">
        <path id="Path_1246" data-name="Path 1246" d="M1000.628,65.169a40.275,40.275,0,0,0,5.63,11.446c.325.454,1.085.018.757-.439a38.74,38.74,0,0,1-5.634-11.214c-.148-.476-.9-.273-.753.207Z" fill="#484f5b"/>
      </g>
      <g id="Group_1161" data-name="Group 1161">
        <path id="Path_1247" data-name="Path 1247" d="M1010.365,70.247a30.463,30.463,0,0,0,4.871,10.3c.378.517,1.252.007.866-.5A28.312,28.312,0,0,1,1011.252,70a.46.46,0,0,0-.887.244Z" fill="#484f5b"/>
      </g>
      <g id="Group_1162" data-name="Group 1162">
        <path id="Path_1248" data-name="Path 1248" d="M1019.185,73.934a29.868,29.868,0,0,0,1.8,6.112,27.08,27.08,0,0,0,3.25,5.552c.377.5,1.234.017.853-.5a26.656,26.656,0,0,1-3.113-5.44,24.923,24.923,0,0,1-1.779-6c-.093-.648-1.141-.389-1.007.275Z" fill="#484f5b"/>
      </g>
      <g id="Group_1163" data-name="Group 1163">
        <path id="Path_1249" data-name="Path 1249" d="M1028.255,75.752a26.224,26.224,0,0,0,1.786,7.328,33.349,33.349,0,0,0,3.482,6.7c.384.57,1.317.028.926-.537a30.252,30.252,0,0,1-3.456-6.551,42.018,42.018,0,0,1-1.8-7.07.482.482,0,0,0-.942.127Z" fill="#484f5b"/>
      </g>
      <g id="Group_1164" data-name="Group 1164">
        <path id="Path_1250" data-name="Path 1250" d="M1035.328,77.166c2.295,2.671,3.53,5.89,4.641,9.178,1.026,3.031,2.016,6.412,4.057,8.951.332.413.972-.116.722-.556a34.794,34.794,0,0,1-2.358-4.69c-.625-1.611-1.191-3.243-1.788-4.864-1.126-3.057-2.415-6.18-4.792-8.5-.317-.31-.764.151-.482.48Z" fill="#484f5b"/>
      </g>
      <g id="Group_1165" data-name="Group 1165">
        <path id="Path_1251" data-name="Path 1251" d="M1042.933,79.185c2.855,2.913,4.239,6.789,5.209,10.663.519,2.071.939,4.166,1.445,6.239a20.074,20.074,0,0,0,2.093,5.949c.258.4.955.151.8-.338-.679-2.167-1.555-4.234-2.122-6.446-.553-2.161-.976-4.354-1.553-6.51-1-3.732-2.475-7.4-5.224-10.2-.414-.423-1.063.225-.649.646Z" fill="#484f5b"/>
      </g>
      <g id="Group_1166" data-name="Group 1166">
        <path id="Path_1252" data-name="Path 1252" d="M1051.671,81.85c2.714,3.921,3.571,8.626,3.947,13.286.351,4.371-.024,9.25,2.4,13.113.351.557,1.23.054.889-.517-2.447-4.105-1.937-9.473-2.464-14.062-.5-4.336-1.4-8.664-3.9-12.33-.365-.537-1.25-.028-.877.509Z" fill="#484f5b"/>
      </g>
      <g id="Group_1167" data-name="Group 1167">
        <path id="Path_1253" data-name="Path 1253" d="M1059.786,88.844c5.246,8.888,1.345,19.933,5.406,29.223.263.605,1.148.083.889-.517-4-9.275-.234-20.269-5.5-29.168a.459.459,0,0,0-.792.461Z" fill="#484f5b"/>
      </g>
      <g id="Group_1168" data-name="Group 1168">
        <path id="Path_1254" data-name="Path 1254" d="M1069.013,106.232c2.434,5.741-1.193,12.594,2.206,18.06a.557.557,0,0,0,.963-.559c-3.159-5.536.037-12.188-2.423-17.934-.219-.508-.959-.068-.746.434Z" fill="#484f5b"/>
      </g>
      <g id="Group_1169" data-name="Group 1169">
        <path id="Path_1255" data-name="Path 1255" d="M1076.491,120.277a24.207,24.207,0,0,0,1.855,10.865.554.554,0,1,0,1.018-.428,22.3,22.3,0,0,1-2.12-10.436c.017-.484-.724-.478-.753,0Z" fill="#484f5b"/>
      </g>
      <g id="Group_1170" data-name="Group 1170">
        <path id="Path_1256" data-name="Path 1256" d="M982.031,63.2c.438,1.752,2.235,2.833,3.86,3.335a14.855,14.855,0,0,0,3.148.509,29.237,29.237,0,0,1,3.818.521.555.555,0,0,0,.295-1.069c-2.109-.587-4.367-.236-6.5-.7a5.617,5.617,0,0,1-4.048-2.839c-.165-.321-.657-.094-.571.24Z" fill="#484f5b"/>
      </g>
      <g id="Group_1171" data-name="Group 1171">
        <path id="Path_1257" data-name="Path 1257" d="M986.407,73.862c1.874,1.914,5.111,1.384,7.513,1.205a38.487,38.487,0,0,1,10.145.066c.736.14,1.052-.982.312-1.122a32.6,32.6,0,0,0-9.119.017c-1.529.14-3.063.3-4.6.319A4.847,4.847,0,0,1,987,73.273a.417.417,0,0,0-.59.589Z" fill="#484f5b"/>
      </g>
      <g id="Group_1172" data-name="Group 1172">
        <path id="Path_1258" data-name="Path 1258" d="M991.64,81.9c.031,1.571,2.156,1.77,3.348,1.848a19.847,19.847,0,0,0,6.311-.8c2.128-.559,4.213-1.268,6.363-1.744a21.974,21.974,0,0,1,6.678-.255c.573.044.586-.746.126-.925-3.321-1.287-7.476.2-10.676,1.2a50.7,50.7,0,0,1-5.478,1.5c-1.267.244-5.925,1.023-6.25-.884-.041-.24-.429-.181-.423.057Z" fill="#484f5b"/>
      </g>
      <g id="Group_1173" data-name="Group 1173">
        <path id="Path_1259" data-name="Path 1259" d="M1000.708,90.568c3.387,2.337,8.112-.509,11.4-1.722,4.638-1.709,9.492-3.033,14.458-2.113.731.137,1.052-.962.31-1.122-4.432-.956-8.876.1-13.07,1.567-2.148.753-4.244,1.639-6.368,2.455-2,.768-4.378,1.525-6.326.255-.43-.281-.816.4-.4.681Z" fill="#484f5b"/>
      </g>
      <g id="Group_1174" data-name="Group 1174">
        <path id="Path_1260" data-name="Path 1260" d="M1012.3,97.918c4.331.284,8.448-2.073,12.328-3.67,2.072-.853,4.131-1.761,6.227-2.553,1.675-.633,3.9-1.311,5.467-.083.538.421,1.312-.314.768-.764-3.051-2.538-7.437.194-10.438,1.491-2.339,1.013-4.678,2.032-7.034,3.009A16.359,16.359,0,0,1,1012.3,97c-.59-.037-.588.877,0,.916Z" fill="#484f5b"/>
      </g>
      <g id="Group_1175" data-name="Group 1175">
        <path id="Path_1261" data-name="Path 1261" d="M1022.883,101.149c8.474,2.222,15.94-5.427,24.345-3.428.8.19,1.143-1.032.341-1.229-8.527-2.1-15.946,5.875-24.39,3.588a.555.555,0,0,0-.3,1.069Z" fill="#484f5b"/>
      </g>
      <g id="Group_1176" data-name="Group 1176">
        <path id="Path_1262" data-name="Path 1262" d="M1033.985,107.354c6.979,5.643,14.948-3.956,22.256-.672.711.319,1.336-.725.618-1.052-3.612-1.65-7.374-.5-10.9.784-3.608,1.312-8,2.815-11.407.21-.417-.317-.978.4-.566.729Z" fill="#484f5b"/>
      </g>
      <g id="Group_1177" data-name="Group 1177">
        <path id="Path_1263" data-name="Path 1263" d="M1040.733,114.166c2.835,2.645,6.752,1.484,9.995.393,3.768-1.264,8.134-2.174,11.74.022a.611.611,0,0,0,.62-1.052c-3.116-1.846-6.83-1.659-10.225-.76-3.513.932-8.194,3.708-11.46.731-.447-.408-1.115.249-.67.666Z" fill="#484f5b"/>
      </g>
      <g id="Group_1178" data-name="Group 1178">
        <path id="Path_1264" data-name="Path 1264" d="M1048.806,120.192c2.354,1.6,5.381,1.082,7.938.288,3.1-.96,6.237-2.542,9.542-1.593a.618.618,0,0,0,.328-1.191c-6.02-1.87-11.566,4.7-17.5,1.97a.3.3,0,0,0-.308.526Z" fill="#484f5b"/>
      </g>
      <g id="Group_1179" data-name="Group 1179">
        <path id="Path_1265" data-name="Path 1265" d="M1055.824,126.152c5.667,1.9,11.362-1.453,17.094-.947.809.07.811-1.2,0-1.261-5.625-.43-11.256,2.987-16.8,1.124-.688-.231-.985.853-.3,1.084Z" fill="#484f5b"/>
      </g>
      <g id="Group_1180" data-name="Group 1180">
        <path id="Path_1266" data-name="Path 1266" d="M1067.8,129.708a25.239,25.239,0,0,0,8.5-1.346c.634-.212.354-1.226-.278-1a22.125,22.125,0,0,1-8.22,1.211c-.733-.028-.736,1.122,0,1.135Z" fill="#484f5b"/>
      </g>
    </g>
  </g>
</svg>
