<svg xmlns="http://www.w3.org/2000/svg" width="201.037" height="80.012" viewBox="0 0 201.037 80.012">
  <path id="Shape" d="M1305.955,211.032c5.8,0,5.785,8.951,0,8.951S1300.17,211.032,1305.955,211.032Zm25.236.329c3.2,0,3.194,4.943,0,4.943S1328,211.361,1331.191,211.361Zm-132.908-.5-1.683-.094a1.962,1.962,0,0,1-.993-.267l-.4-.306a1.96,1.96,0,0,1-.506-.864l-.07-.521a1.892,1.892,0,0,1,1.209-1.789,1.493,1.493,0,0,1,.758-.169q.841-.046,1.683-.094a2.066,2.066,0,0,1,1.04.281l.417.32a2.051,2.051,0,0,1,.53.905c.024.182.05.364.074.545a2.131,2.131,0,0,1-1.995,2.053Zm42.06-9.273c5.009,0,5,7.74,0,7.74S1235.34,201.586,1240.342,201.586Zm42.06-4.882c2.655,0,2.651,4.1,0,4.1S1279.75,196.7,1282.4,196.7Zm-116.086-5.539c3.32,0,3.315,5.128,0,5.128S1163,191.165,1166.316,191.165Zm156.462-3.584c3.622,0,3.615,5.6,0,5.6S1319.163,187.581,1322.779,187.581Zm-55.518-7.814a.56.56,0,0,1,0,1.119A.56.56,0,0,1,1267.26,179.767Zm68.978-6.521c4.828,0,4.82,7.46,0,7.46S1331.418,173.245,1336.238,173.245Zm-34.351,2.041a1.869,1.869,0,0,1-1.123-1.662q-.023-.837-.047-1.675a1.86,1.86,0,0,1,.256-.941q.147-.188.293-.377a1.881,1.881,0,0,1,.826-.481c.166-.022.332-.043.5-.067a2.091,2.091,0,0,1,1.325.547,2.073,2.073,0,0,1,.549,1.319q-.024.838-.048,1.675a1.8,1.8,0,0,1-.248.918l-.286.368a1.824,1.824,0,0,1-.806.468l-.486.065h-.056A1.367,1.367,0,0,1,1301.887,175.287Zm-6.026-17.349c2.958,0,2.953,4.569,0,4.569S1292.909,157.937,1295.86,157.937Zm31.965-6.288c6.761,0,6.749,10.444,0,10.444S1321.077,151.649,1327.826,151.649Zm33.648-11.678c4.526,0,4.519,6.995,0,6.995S1356.954,139.972,1361.474,139.972Z" transform="translate(-1163.829 -139.972)" fill="#4b505c"/>
</svg>
