<svg xmlns="http://www.w3.org/2000/svg" width="189.663" height="153.668" viewBox="0 0 189.663 153.668">
  <g id="Vector_Smart_Object" data-name="Vector Smart Object" transform="translate(-639.629 -236.636)">
    <g id="Group_1182" data-name="Group 1182">
      <path id="Path_1267" data-name="Path 1267" d="M828.678,389.692l-35.3-35.336c-7.366-7.373-14.862-14.926-19.483-24.276-3.28-6.638-4.993-13.962-8.213-20.631-8.861-18.357-27.774-29.424-46.21-38.042s-38.139-16.356-51.832-31.437c11.7,15.952,16.414,36.258,28.415,51.981,18.21,23.859,49.391,32.86,78.385,40.453" fill="none" stroke="#484f5b" stroke-miterlimit="10" stroke-width="1.734"/>
      <path id="Path_1268" data-name="Path 1268" d="M674.087,246.969c26.16,35.14,73.691,49.456,99.063,85.173" fill="none" stroke="#484f5b" stroke-miterlimit="10" stroke-width="1.734"/>
      <path id="Path_1269" data-name="Path 1269" d="M770.951,328.2c-12.162-11.4-13.875-30.831-25.788-42.5" fill="none" stroke="#484f5b" stroke-miterlimit="10" stroke-width="1.734"/>
      <path id="Path_1270" data-name="Path 1270" d="M762.906,319.672c-4.718-4.367-9.471-8.769-13.245-13.978-3.836-5.292-6.573-11.295-10.014-16.855s-7.8-10.849-13.726-13.6" fill="none" stroke="#484f5b" stroke-miterlimit="10" stroke-width="1.734"/>
      <path id="Path_1271" data-name="Path 1271" d="M740.175,301.032c-5.74-4.077-9.077-10.646-12.476-16.82s-7.418-12.533-13.778-15.547" fill="none" stroke="#484f5b" stroke-miterlimit="10" stroke-width="1.734"/>
      <path id="Path_1272" data-name="Path 1272" d="M728.844,291.7c-13.368-5.407-18.058-23-30.833-29.686" fill="none" stroke="#484f5b" stroke-miterlimit="10" stroke-width="1.734"/>
      <path id="Path_1273" data-name="Path 1273" d="M707.293,278.125c-8.728-6.287-13.329-17.077-21.922-23.55" fill="none" stroke="#484f5b" stroke-miterlimit="10" stroke-width="1.734"/>
      <path id="Path_1274" data-name="Path 1274" d="M753.5,372.842q-4.614-15.309-9.226-30.622c-.862-2.861-1.77-5.808-3.68-8.1-3.014-3.624-7.893-4.942-12.387-6.341-13.231-4.12-25.9-10.713-35.714-20.511-10.652-10.63-17.445-24.417-25.583-37.083a193.613,193.613,0,0,0-26.673-32.928" fill="none" stroke="#484f5b" stroke-miterlimit="10" stroke-width="1.734"/>
      <path id="Path_1275" data-name="Path 1275" d="M746.221,369.4l-7.15-23.3a27.825,27.825,0,0,0-3.189-7.6c-4.7-6.931-14.15-8.105-22.2-10.383A60.278,60.278,0,0,1,685.428,310.5c-2.317-2.58-4.5-5.435-7.558-7.058s-7.368-1.577-9.486,1.17c-2.986,3.874.2,9.243,2.271,13.677,4.959,10.63,2.851,23.206-.9,34.324s-9.072,21.871-10.425,33.529" fill="none" stroke="#484f5b" stroke-miterlimit="10" stroke-width="1.734"/>
    </g>
  </g>
</svg>
