<svg xmlns="http://www.w3.org/2000/svg" width="117.41" height="131.008" viewBox="0 0 117.41 131.008">
  <path id="Shape" d="M1437.392,865.063a.468.468,0,0,1,0,.935A.468.468,0,0,1,1437.392,865.063Zm-5.066-18.475a.468.468,0,0,1,0,.935A.468.468,0,0,1,1432.326,846.588Zm-10.13-8.06c3.432,0,3.426,5.3,0,5.3S1418.768,838.528,1422.2,838.528Zm8.066-7.293a.409.409,0,0,1,.376-.572.374.374,0,0,1,.348.222,1.93,1.93,0,0,1,.5-.1,1.995,1.995,0,1,1-1.221.451Zm-19.885-8.507c3.231,0,3.225,4.986,0,4.986S1407.151,822.729,1410.377,822.729Zm9.286-10.886c3.191,0,3.184,4.924,0,4.924S1416.478,811.842,1419.663,811.842Zm7.6-11.632c3.029,0,3.023,4.675,0,4.675S1424.237,800.211,1427.26,800.211Zm-27.014-3.078c2.665,0,2.661,4.113,0,4.113S1397.586,797.133,1400.246,797.133Zm-13.507-1.712c2.7,0,2.7,4.176,0,4.176S1384.038,795.421,1386.739,795.421Zm16.884-6.6c4.725,0,4.717,7.293,0,7.293S1398.907,788.825,1403.623,788.825Zm-16.884-6.341a1.591,1.591,0,0,1,0,3.18A1.591,1.591,0,0,1,1386.739,782.483Zm-26.17-3.076a.468.468,0,0,1,0,.935A.468.468,0,0,1,1360.569,779.407Zm18.572-.809a.437.437,0,0,1,0,.873A.437.437,0,0,1,1379.141,778.6Zm-6.219-.934a.32.32,0,0,1-.091-.14.328.328,0,0,1-.038-.168c-.031-.28-.062-.559-.094-.84a.507.507,0,0,1,.156-.374.534.534,0,0,1,.752,0,.391.391,0,0,1,.111.17.4.4,0,0,1,.046.2c-.031.281-.063.56-.094.84a.431.431,0,0,1-.06.221l-.069.088a.443.443,0,0,1-.31.128h-.014A.45.45,0,0,1,1372.922,777.664Zm13.817-10.827c3.837,0,3.83,5.921,0,5.921S1382.909,766.837,1386.739,766.837Zm-16.884-1.862a1.465,1.465,0,0,1,0,2.929A1.465,1.465,0,0,1,1369.855,764.975Zm-19.417-4.233c3.029,0,3.024,4.675,0,4.675S1347.415,760.742,1350.438,760.742Zm32.08-10.328c4.442,0,4.434,6.855,0,6.855S1378.083,750.415,1382.518,750.415Zm-31.234-1.741c3.432,0,3.426,5.3,0,5.3S1347.855,748.674,1351.283,748.674Zm10.975-1.3c2.948,0,2.943,4.549,0,4.549S1359.314,747.369,1362.258,747.369Zm-40.523-6.623a1.341,1.341,0,0,1,0,2.68A1.341,1.341,0,0,1,1321.735,740.746Zm23.639-4.23a1.372,1.372,0,0,1,0,2.742A1.372,1.372,0,0,1,1345.374,736.516Zm17.727-1.526c2.665,0,2.661,4.114,0,4.114S1360.441,734.99,1363.1,734.99Z" transform="translate(-1320.434 -734.99)" fill="#4b505c"/>
</svg>
