<svg xmlns="http://www.w3.org/2000/svg" width="78.997" height="151.685" viewBox="0 0 78.997 151.685">
  <g id="Floral" transform="translate(-0.001 2.995)">
    <g id="Vector_Smart_Object" data-name="Vector Smart Object" transform="translate(-772.904 -239.955)">
      <g id="Group_1074" data-name="Group 1074">
        <path id="Path_1133" data-name="Path 1133" d="M846.756,388.047a253.68,253.68,0,0,1-32.373-146.922c14.829,27.961,12.7,61.47,10.19,93.006" fill="none" stroke="#48505b" stroke-miterlimit="10" stroke-width="2.407"/>
        <path id="Path_1134" data-name="Path 1134" d="M823.968,333.054c-5.6-11.5-11.195-23-17.566-34.093-7.85-13.665-16.838-26.639-25.814-39.6,3.973,13.7,8.128,27.433,14.537,40.179s15.231,24.565,27.026,32.622" fill="none" stroke="#48505b" stroke-miterlimit="10" stroke-width="2.407"/>
        <path id="Path_1135" data-name="Path 1135" d="M822.742,330.451a99.6,99.6,0,0,1,18.094-32.841,52.833,52.833,0,0,1-17.168,33.6" fill="none" stroke="#48505b" stroke-miterlimit="10" stroke-width="2.407"/>
        <path id="Path_1136" data-name="Path 1136" d="M813.638,246.872a467.518,467.518,0,0,1,9.38,81.471" fill="none" stroke="#48505b" stroke-miterlimit="10" stroke-width="2.407"/>
        <path id="Path_1137" data-name="Path 1137" d="M783.193,264.986a270.064,270.064,0,0,0,39.97,66.886" fill="none" stroke="#48505b" stroke-miterlimit="10" stroke-width="2.407"/>
        <path id="Path_1138" data-name="Path 1138" d="M773.8,318a115.265,115.265,0,0,0,54.269,33.35" fill="none" stroke="#48505b" stroke-miterlimit="10" stroke-width="2.407"/>
        <path id="Path_1139" data-name="Path 1139" d="M850.7,319.577a121.777,121.777,0,0,1-14.089,48.587" fill="none" stroke="#48505b" stroke-miterlimit="10" stroke-width="2.407"/>
      </g>
    </g>
  </g>
</svg>
