<svg xmlns="http://www.w3.org/2000/svg" width="282.956" height="231.891" viewBox="0 0 282.956 231.891">
  <g id="Brush" transform="translate(3.279 47.478)">
    <g id="Vector_Smart_Object" data-name="Vector Smart Object" transform="matrix(0.926, 0.377, -0.376, 0.927, -52.9, -198.887)">
      <g id="Group_1155" data-name="Group 1155" opacity="0.5">
        <g id="Group_1154" data-name="Group 1154" opacity="0.9">
          <g id="Group_1153" data-name="Group 1153" opacity="0.9">
            <g id="Group_1075" data-name="Group 1075">
              <path id="Path_1140" data-name="Path 1140" d="M385.442,74.028c-.883-1.342-2.229-1.515-2.741-3.353l3.313-1.543C387.135,71.165,387.889,74.325,385.442,74.028Z" fill="#eec4bb"/>
            </g>
            <g id="Group_1076" data-name="Group 1076">
              <path id="Path_1141" data-name="Path 1141" d="M390.452,119.9c-1.381.832-2.614,1.751-3.925,2.7a23.786,23.786,0,0,0-3.074.695l-.727.347c-1.425.37-2.783.871-4.212,1.238-.888.433-1.852.9-2.728,1.356l-.748-.431a21.475,21.475,0,0,1-2.287,1.969,11.33,11.33,0,0,1-1.43-.734,22.589,22.589,0,0,0-.534,2.542l-2.716,1.374c.074.13.218.384.358.635-2.084,1.222-4.1,2.562-6.109,3.912-3.695,1.638-7.4,3.273-11.04,5.04l-1.1-1.868-2.3,1.221,1.106,1.865c-1.914,1.159-3.8,2.552-5.61,3.88L341.1,146.9c-3.469-1.055-1.5.993-2.275,1.257-1.236-.137-2.48-.276-3.8-.371l-1.1.608-2.967.156c-4.54,2.917-7.946,3.749-12.013,6.085a25.591,25.591,0,0,1-4.522,3.5c-1.813,1.007-3.866,1.441-5.907.138-.516,2.675-2.614,3.092-4.084,4.141-1.12-1.854-1.8-.265-2.979-.568l-1.473.89-2.244,1.359c-.692.435-1.458.915-2.225,1.4l-7.37,4.613a23.2,23.2,0,0,0-2.947.993,22.825,22.825,0,0,0-2.2,2.234c-.748.668-1.418,1.445-2.17,2.107-.579,1.069-1.159,1.97-1.745,2.867l-.382.247a36.055,36.055,0,0,0-2.84,2.711,43.129,43.129,0,0,0-3.215,2.961,18.379,18.379,0,0,0-2.625.846c.629,2.719-1.36,3.2-2.829,3.487-1.845,1.6-3.693,3.2-5.629,4.689-.233,1.2-.377,2.523-.527,3.675-.668-.594-1.425-1.306-2.02-1.949-1.784,1.538-3.537,2.958-5.288,4.542.877,1.155,1.667,2.2,2.54,3.349-.7,1.9.34,4,.411,4.835-.72.681-1.35,1.479-2.068,2.16-3.257,1.048-5.442,1.169-4.917,3.45-1.335,1.637-2.642,3.163-4.041,4.712-3.374.49-4.646,1.78-3.311,3.311-.5.367-.939.684-1.445,1.053l-3.474,2.534c-3.1.285-1.983,2.384-1.908,3.043-.928.7-1.854,1.4-2.713,2.048l-3.421,2.591c-2.293,1.013-.831,2.08-1.856,3.222-.919.151-1.909.36-2.995.455l-.644.486c1.114,2.585-.767,2.973-1.824,3.247l-.633.5c1.262,2.323-.258,2.594-1.1,2.705.349.825.7,1.653,1.078,2.645a35.953,35.953,0,0,0-3.6.989l-2.034,1.6c.372.826.791,1.752,1.166,2.58-.986.218-1.969.44-2.886.608a43.264,43.264,0,0,0-4.151,2.425c-1.172-1.116-2.419-2.3-3.59-3.421a26.091,26.091,0,0,0,.336-2.883l.349-.282c1.158.917,2.222,1.73,3.449,2.6.561-.444,1.052-.834,1.964-1.556-.126-1.92,1.473-2.259,1.329-3.8a18.111,18.111,0,0,0,2.981-.509c.59-.825,1.269-1.542,1.855-2.373.158-.65.338-1.391.5-2.043-1.611-3.15-.06-3.265.529-4.1-.371-.442-.835-.993-1.305-1.552l.71-.551a37.126,37.126,0,0,1,3.543-1.792c1.806-.642.643-3.025.155-4.468a21.29,21.29,0,0,1,1.624-2.145,9.4,9.4,0,0,1,1.826-.474c-.079-.67-.138-1.165-.2-1.666,2.372-1.231,4.7-2.517,7.117-3.534-.123-1.159-.23-2.156-.262-3.208l3.586-1.009a27.906,27.906,0,0,0,2.321-2.591l1.092-.8-.806-1.024a37.308,37.308,0,0,1,3.583-1.719l.8,1.021c2.568-.808,1.092-2.553,1.916-3.85a22.92,22.92,0,0,1,2.07-2.344c-2.87-2.4-5.1-1.711-4.423.638l-.741.523c-1.37-.285-2.552-.474-3.911-.737-.626-5.831,3.967-4.236,4.628-7.547,2.481-1.392-1.074-6.668,3.407-5.757,2.89-.271,3.891-1.51,2.8-3.569,1.94-1.68,3.968-3.4,6.081-5.006,1.992,1.62,1.458-.638,2.621-.908.421-3.519,2.672-4.523,4.923-5.5,2.272-.961,4.558-1.879,5.08-5.33,3.017.449,2.843-1.681,4.034-3.5,1.311-.682,2.706-1.245,4.1-1.812-.642-4.934,5.516-.4,6.989-3.724,1.325-.494,2.575-.933,3.739-1.5,1.3-1.324,1.933-5.135,3.7-3.173,1.239-1.113,3.71,1.761,4.94-.5,1.074-2.838,4.918-3.3,4.9-6.157,4,.46,6.327-6.545,11.229-5.162.816-3.474,5.621-4.256,8.387-6.361l1.9-1.1c.76,1.4,1.633.554,2.2.253.48-.435,1.577-.216,1.213-1.5-.689-.946.816-.949,3.366.61.078.124.229.368.379.614-.181,1.1-.283,2.146-.466,3.4,2.091,1.15,2.883.716,4.509,1.468-.22-.706-.519-1.366-.739-2.071a26.541,26.541,0,0,0,.854-2.785l2.929,1.511c2.8.269-.474-2.874.5-4.244l5.191,1.088c2.029-2.249,5.732-.592,6.862-3.654.9.825,1.729,1.7,2.551,2.571a17.061,17.061,0,0,0,1.944-1.852c1.416-.427,2.833-.85,4.177-1.4-.367-2.262,1.432-4.2,3.024-1.595l3.855-1.955c.213-1.436.411-2.772.625-4.209-1.841-1.981-.922-4.233.639-4.218.663.65,1.406,1.381,2.066,2.031l.976-1.958c.834.386,1.679.607,2.512,1l1.529-.776c.8-.416,1.529-.773,2.343-1.161a7.063,7.063,0,0,0,2.117-3.283c-.481-.889-.9-1.653-1.311-2.419.092-1.164.167-2.167.177-3.3,1.854-1.542,4.155-.894,6.233-1.422,3.286.007,3.929,3.555,5.205,5.193l1.941-.949c1,1.122,2.006,2.086,3.087,3.18C393.749,118.3,392.042,119.276,390.452,119.9Z" fill="#eec4bb"/>
            </g>
            <g id="Group_1077" data-name="Group 1077">
              <path id="Path_1142" data-name="Path 1142" d="M353.607,78.342c-.784,2.315-1.907,2.218-3.5,1.069C350.628,77.222,351.747,74.907,353.607,78.342Z" fill="#eec4bb"/>
            </g>
            <g id="Group_1078" data-name="Group 1078">
              <path id="Path_1143" data-name="Path 1143" d="M353.294,96.461c.018.8-.113,1.518-.173,2.365-3.642.721-4.721,4.842-9.1,4.642,1.2,4.9,3.866,4.353,4.484,7.123.661,2.087-1.183,1.267-1.273,2.958.142.248.215.375.361.628A22.643,22.643,0,0,0,349.886,120c-.671.851-1.342,1.7-2.015,2.71-1.449-.864-2.909-1.56-4.367-2.426-1.271-3.092,1.612-2.327.16-4.833.339-.695.635-1.3.972-1.994-4.339-1.624-6.271.395-8.535,1.271-.93-.487-2.014-1.053-2.942-1.54-.2-.883-.469-1.886-.58-2.809.347-.509.847-.945,1.194-1.452,1.487-.959,2.9-2.04,4.308-3.121.667-.519,1.1-1.076,1.681-1.554-.395-1.423-.868-2.814-1.269-4.076.466-1.065.842-2.1,1.315-3.153a32.592,32.592,0,0,0,3.465-.149c1.618-.176,1.738-1.861,2.537-2.919l.75-.381c1.612-.179,3.24-.52,4.7-.777Z" fill="#f3d7d0"/>
            </g>
            <g id="Group_1079" data-name="Group 1079">
              <path id="Path_1144" data-name="Path 1144" d="M371.827,77.983l-4.628,4.65-3.834,3.323-.753.368c-1.036-.942-2.144-2.009-3.253-3.079-2.13.4.586,3.255-.02,4.681-1.289.954-2.741,1.8-4.094,2.824-.8.088-1.455.257-2.343.388-.958-.97-2.075-2.025-3.194-3.077-1.989.855-4.322,1.884-3.148,5.508l-.75.381c-.8,1.058-.919,2.743-2.537,2.919a32.592,32.592,0,0,1-3.465.149c-.473,1.058-.849,2.089-1.315,3.153l-2.8,1.494a6.073,6.073,0,0,0,2.386,4.136c-1.411,1.081-2.822,2.163-4.308,3.121-1.173-2-2.338-3.995-3.511-6-5.473-2.479-6.334,4.175-11.734,4.073-5.463.4-6.88,5.82-12.155,5.129,4.811-5.647,11.931-7.685,15.147-12.4.152.254.225.375.371.622,2.388-2.26,6.631-1.9,9.582-4.3,1.317-1.849,2.106-4.074,4.338-1.5.664-.347,1.321-.714,1.995-1.049a3.76,3.76,0,0,1,.393-1.02,23.228,23.228,0,0,1,3.205-.823c-.642-1.137-1.137-2.015-1.71-3.029a8.411,8.411,0,0,0,1.916-4.872l8.493-4.348c1.6,1.15,2.72,1.246,3.5-1.069,6.334-1.78,12.493-3.626,18.751-5.229C372.172,74.794,372.076,76.435,371.827,77.983Z" fill="#e29288"/>
            </g>
            <g id="Group_1080" data-name="Group 1080">
              <path id="Path_1145" data-name="Path 1145" d="M341.611,83.758a8.411,8.411,0,0,1-1.916,4.872c.573,1.014,1.068,1.892,1.71,3.029a23.228,23.228,0,0,0-3.205.823,3.76,3.76,0,0,0-.393,1.02c-.674.335-1.331.7-1.995,1.049-2.232-2.576-3.021-.35-4.338,1.5-2.951,2.4-7.194,2.041-9.582,4.3-.146-.247-.219-.368-.371-.622-3.216,4.712-10.337,6.75-15.147,12.4,5.275.691,6.692-4.729,12.155-5.129,5.4.1,6.261-6.552,11.734-4.073,1.173,2,2.338,4,3.511,6-.347.508-.847.943-1.194,1.452a29.34,29.34,0,0,0-3-.693c-1.381.409.622,1.963.172,3.024-1.07.562-2.046,1.1-3.1,1.685L320,118.1c-.531,1.624-2.612,1.952-3.926,3.01a24.467,24.467,0,0,0-3.029.038c-3.1-.586-4.127-.294-4.314.809a33.566,33.566,0,0,1-3.333-.409,15.2,15.2,0,0,0-.841,2.167,30.182,30.182,0,0,0-3.441.317c-.658,1.225-1.321,2.443-2.057,3.541-1.047.435-2.253.8-3.378,1.292l-1.916,1.155c-3.4-2.849-.337,2.57-3.833,2.316a7.037,7.037,0,0,1,.311,1.332c-.008,3.049-2.953,2.793-3.751,3.954l-3.515-.41c-.875.367-1.759.559-2.639.924-.872,1.045-1.8,2.164-2.675,3.209l-.391.25c-1.5.776-3.01,1.379-4.6,2.036-2.7,1.353-1.707,3.125-2.469,4.968-3.032.2-2.357,2-3.14,2.665-2.852.3-3.477.716-4.1,1.123-1.716,1.122-3.512,2.3-5.229,3.42-.05.9.317,2.214-.308,2.624l-.781.506a23.24,23.24,0,0,1-2.684.9c-1.273.135-4.087-.088-4.373,2.22-1.714.815-3.352,1.578-4.9,2.463-1.024,1.918-2.1,2.824-3.275,4.673-.82,1.088-1.642,2.164-2.449,3.418-4.216,1.519-3.484,4.039-5.765,5.644l-2.328,4.3c-.877,1.144-1.671,2.244-2.469,3.335-.894-.244-1.1,1.3-2.2,1.559-5.5,1.7-7.039,4.269-7.712,7.446a41.435,41.435,0,0,0-2.682,3.763l-2.165,1.591c-3.01.11-2.506,1.179-2.876,2.188l.823,1.012-3.169,2.411a3.049,3.049,0,0,1,.089.837c-.845.283-1.675.732-2.522,1.012a7.379,7.379,0,0,0-.276,1.12,24.04,24.04,0,0,0-2.042,2.458,9.892,9.892,0,0,0-1.868.511,19.49,19.49,0,0,0-1.654,2.2l-4.135,3.27c.688-2.758-.264-6.055,2.742-4.929.633-.686,1.176-1.482,1.753-2.091a4.895,4.895,0,0,1,3.822-3.819l-1.545-3.185,1.481-1.126c-1.887-2.742-.389-2.975.338-3.71a22.645,22.645,0,0,0-.632-2.248c.543-.964,1.089-1.918,1.71-2.937,1.222.167,3.2,1.726,3.819.562-1.771-2.647-6.767-7.046-3.516-8.718,3.333-1.55,5.115-5.369,9.1-6.689-.066-1.916-.626-3.863,1.586-4.554.99,1.426,1.81.488,2.425.053,1.682-1.366.756-3.187,3.117-3.981a8.938,8.938,0,0,1,1.213.031c-.165-2.539-.842-3.124-.258-4.069-2.914-.237-2.359.961-3.064,1.282l-.7.493-3.034.557,2.24-1.592-2.289-4.4,1.162-.827a24.869,24.869,0,0,1,6.958.218l.771-.548c.166-1.358.339-2.544.591-3.79.326-.045.734.029,1.056-.017l1.106-2.326,2.278-1.556a2.916,2.916,0,0,1-.038-.852l2.282-1.55a20.724,20.724,0,0,1,2.737-.12l2.393,3.269a13.449,13.449,0,0,0,1.555.691l.392-.269c.393-2.016.882-3.921,1.285-5.945a7.313,7.313,0,0,0-1.158-.793c1.647-.961,3.343-1.691,4.926-2.571a31.118,31.118,0,0,0,1.124-3.16c1.605-.527,3.282-1.115,5.043-1.575,1.777-3.4,3.336-5.5,6.017-4.791,1.531-.788,3.056-1.413,4.664-2.087.4-.25.8-.505,1.121-.7a9.516,9.516,0,0,1,1.2-1.609c.884-.046,1.688-.043,2.653-.137a10.854,10.854,0,0,0-.428-3.838,38.344,38.344,0,0,0,3.861-1.577c3.737-2.771,7.553-5.6,11.369-8.43,1.14-1.028.693-3.466,1.921-4.549l.815-.493,3.47.487,5.5-3.2a41.461,41.461,0,0,1,3.229-2.711l1.558-.91Q312.7,97.621,328,90.038c3.975,1.973,2.112-.308,2.42-1.293,2.544-.889,5.2-1.764,7.858-2.63C339.378,85.384,340.5,84.485,341.611,83.758Z" fill="#df837a"/>
            </g>
            <g id="Group_1081" data-name="Group 1081">
              <path id="Path_1146" data-name="Path 1146" d="M339.763,104.249c-.582.479-1.014,1.035-1.681,1.554a6.073,6.073,0,0,1-2.386-4.136l2.8-1.494C338.9,101.435,339.368,102.826,339.763,104.249Z" fill="#eec4bb"/>
            </g>
            <g id="Group_1082" data-name="Group 1082">
              <path id="Path_1147" data-name="Path 1147" d="M376.9,115.706a7.063,7.063,0,0,1-2.117,3.283c-.815.388-1.541.745-2.343,1.161l-1.529.776c.047.458.177.88.3,1.468-.958-.806-1.921-1.617-2.808-2.465l-.976,1.958c-.66-.65-1.4-1.381-2.066-2.031-1.561-.015-2.48,2.237-.639,4.218-.213,1.437-.411,2.774-.625,4.209l-3.855,1.955c-1.591-2.608-3.391-.667-3.024,1.595-1.345.548-2.762.971-4.177,1.4a17.061,17.061,0,0,1-1.944,1.852c-.822-.871-1.647-1.747-2.551-2.571-1.13,3.063-4.833,1.405-6.862,3.654l-5.191-1.088c-.975,1.37,2.3,4.514-.5,4.244l-2.929-1.511a26.541,26.541,0,0,1-.854,2.785c.22.7.519,1.365.739,2.071a7.671,7.671,0,0,0-.413,1.052c-1.389-.879-2.7-1.805-4.1-2.52.1-1.383.054-2.677.086-4.016-2.55-1.558-4.055-1.556-3.366-.61.364,1.284-.734,1.065-1.213,1.5-.562.3-1.435,1.143-2.2-.253l-1.9,1.1c-2.766,2.105-7.571,2.887-8.387,6.361-4.9-1.383-7.225,5.623-11.229,5.162.017,2.853-3.827,3.319-4.9,6.157-1.23,2.258-3.7-.617-4.94.5-1.764-1.962-2.395,1.849-3.7,3.173-1.165.564-2.414,1-3.739,1.5-1.473,3.322-7.631-1.21-6.989,3.724-1.393.568-2.788,1.13-4.1,1.812-1.191,1.817-1.017,3.947-4.034,3.5-.522,3.45-2.808,4.369-5.08,5.33-2.251.981-4.5,1.985-4.923,5.5-1.163.271-.629,2.528-2.621.908-2.113,1.61-4.141,3.326-6.081,5.006,1.091,2.059.089,3.3-2.8,3.569-4.481-.911-.926,4.364-3.407,5.757-.661,3.311-5.254,1.716-4.628,7.547,1.359.262,2.541.452,3.911.737l.741-.523c-.676-2.348,1.552-3.037,4.423-.638a22.92,22.92,0,0,0-2.07,2.344c-.593,1.3-1.347,2.528-1.916,3.85l-.8-1.021a37.308,37.308,0,0,0-3.583,1.719l.806,1.024-1.092.8a16.462,16.462,0,0,1-1.594,2.058l-.727.533-3.586,1.009a20.985,20.985,0,0,0,.99,2.675l-.728.533c-2.419,1.017-4.745,2.3-7.117,3.534.059.5.117,1,.2,1.666a9.4,9.4,0,0,0-1.826.474l-1.285-1.56c-1.074-.453-2.133-.741-3.218-1.2-.188-.943-.466-2-.728-2.887,1.177-2.712.816-7.345,2.385-9.622,2.437,1.412,2.46-.737,4.818-1.745l-.905-1.13c1.575-1.69,3.226-3.435,4.714-5.242,1.884-.124-.28-2.129-.222-3.241l1.777-1.3a68.749,68.749,0,0,0,2.056-6.634,65.555,65.555,0,0,0,11.4-8.768c3.381-3.109,6.477-6.474,9.8-10.132,1.9-1.625,4.148,1.337,5.137-3.442.763-.673,1.526-1.511,2.287-2.188,4.016-.721,5.366-2.638,7.919-1.891,1.5-2.188-.612-3.918.166-4.253.543-.353,1-.654,1.545-1.009,2.843-.272,2.326-1.984,2.944-2.715,3.013-.018,2.18-1.716,2.974-1.87l.391-.246,4.532-2.848,1.094-.686c1.5-.088,3.071-.225,4.49-.426,1.417-1.026,2.834-2.217,4.253-3.241l1.894-1.144.315.483c4.815-1.041,9.2-5.758,13.264-6.221.976-2.74,4.294-2.827,5.732-4.155,1.941,1.881,2.442-.42,4.165.089.873-.332,1.736-.5,2.605-.834,2.856-.94,5.32-4.286,8.807-2.419.753-1.574,1.58-3.029,2.416-4.479.538.36,1.148.844,1.841,1.288l1.915-1.066c.524.7.872,2.168,1.729,2.186,1.759-1.319,1.749-2.753,1.709-5.69,1.1.071,2.13.014,3.075.006.5-.593,1.071-1.062,1.568-1.656-.056-.978-.117-2.038-.173-3.019,1.458.866,2.918,1.563,4.367,2.426.674-1.014,1.345-1.858,2.015-2.71a24.623,24.623,0,0,0,2.379-2.082l.734-.368,3.174-1.621,2.611,1.105c1.806-1.239,2.632-4.258,5.843-2.976,1.861-.773,3.851-1.494,5.794-2.11,1.46-.55,3.453,1.212,5.168,1.339C376,114.052,376.419,114.817,376.9,115.706Z" fill="#eab2a8"/>
            </g>
            <g id="Group_1083" data-name="Group 1083">
              <path id="Path_1148" data-name="Path 1148" d="M343.664,115.449a16.319,16.319,0,0,1-2.312.407c-1.738-.057-.734,2.031-.49,3.537a18.358,18.358,0,0,0-2.636.586c-.124,1.052-.1,2.184-.22,3.233l1.028,1.74c.04,2.937.05,4.371-1.709,5.69-.858-.018-1.205-1.483-1.729-2.186l-1.915,1.066c-.693-.444-1.3-.928-1.841-1.288-.835,1.45-1.663,2.9-2.416,4.479-3.487-1.867-5.95,1.479-8.807,2.419-.869.335-1.732.5-2.605.834-1.723-.509-2.223,1.792-4.165-.089-1.438,1.328-4.756,1.415-5.732,4.155-4.069.463-8.449,5.181-13.264,6.221l-.315-.483-1.894,1.144c-1.418,1.024-2.836,2.216-4.253,3.241-1.418.2-2.99.338-4.49.426l-1.094.686-4.532,2.848-.391.246c-.794.153.039,1.851-2.974,1.87-.618.731-.1,2.443-2.944,2.715-.543.354-1,.656-1.545,1.009-.778.335,1.329,2.065-.166,4.253-2.554-.748-3.9,1.169-7.919,1.891-.762.677-1.524,1.515-2.287,2.188-.989,4.779-3.236,1.817-5.137,3.442-3.327,3.658-6.423,7.024-9.8,10.132a65.555,65.555,0,0,1-11.4,8.768,68.749,68.749,0,0,1-2.056,6.634l-1.777,1.3c-.059,1.112,2.106,3.117.222,3.241-1.488,1.807-3.14,3.552-4.714,5.242l.905,1.13c-2.357,1.009-2.381,3.157-4.818,1.745-1.569,2.277-1.208,6.909-2.385,9.622.262.89.54,1.944.728,2.887,1.085.455,2.144.742,3.218,1.2l1.285,1.56a21.29,21.29,0,0,0-1.624,2.145c.488,1.443,1.651,3.826-.155,4.468A37.126,37.126,0,0,0,219,233.592l-.71.551c-.75.226-1.411.561-2.162.786-1.378,2.558-1.663,5.543-4.186,7.7-1.637,1.674-3.4,3.2-4.949,4.844l-.349.282-1.335-1.529a18.823,18.823,0,0,1,1.088-2.726c-.474-.546.305-1.711-1.092-2.637-2.091,2.548-5.78-.719-6.876,2.022-.4.512-.626,1.072-1.022,1.584l-5.675.155,3.578-4.6c2.439-3.148,5.632-6.574,10-7.067,2.16-.964-.533-4.549,1.184-5.345.612-3.223,1.191-6.51,2.64-9.213-.452-1.112-.826-2.277-1.205-3.452a25.247,25.247,0,0,0,2.035-2.446l.3-.219,5.056.509-2-4.476c-1.117-.054-2.31-.057-3.5-.057l-1.287-1.565a3.049,3.049,0,0,0-.089-.837l3.169-2.411c.992-.391,1.967-.952,2.96-1.342a11.085,11.085,0,0,1-.907-1.857l2.165-1.591a41.435,41.435,0,0,1,2.682-3.763c.672-3.177,2.212-5.744,7.712-7.446,1.093-.257,1.3-1.8,2.2-1.559.8-1.091,1.591-2.191,2.469-3.335,1.3-.741,2.691-1.373,4.082-2,1.759-2.133,3.46-4.194,5.222-6.33.789-.184,1.492-.486,2.278-.674,1.431-.1.771-1.921,1.368-2.675,2.576-1.984,5.156-3.972,7.806-6.012,1.728-1.892,3.6-3.6,5.441-5.337l-.423-.589.781-.506c.955-.1,1.983-.265,3.1-.3,1.31-1.2,3.522-1.613,4.018-3.492l1.61.678,1.325-3.459c.8-.16,1.508-.438,2.3-.6.141-.94-.365-2.331.428-2.659.876-.036,1.672-.028,2.626-.116.876-.205,1.1-1.034,1.483-1.786a43.387,43.387,0,0,0,4.191-1.78l2.205-1.381-.729-1.084a19.434,19.434,0,0,1,1.886-2.03l.4.6a17.454,17.454,0,0,1,1.912-2l2.31-1.4c.8-1.161,3.742-.906,3.751-3.954l3.893.181c.248-1.672,2.463-1.5,2.639-3.286l3.015,1.427c.172-.936.345-1.7.437-2.592a41.105,41.105,0,0,1,3.928-1.443l-.388-.613c.724-.421,1.527-.887,2.253-1.307l3.858-2.241c.233.373.46.739.69,1.111-.636,3.709-2.391,4.726-4.553,5.984l.693,1.1c4.52-.279,6.322-3.658,8.827-2.606,3.5-1.179,9.039-3.22,11.218-7.1l2.947,1.507c.255-.469.5-.776.757-1.245.948-.2,1.746-.48,2.7-.674l-1.406-2.365c.085-1.846.179-3.862.264-5.711l-2.26-1.088c.451-1.06-1.552-2.615-.172-3.024a29.34,29.34,0,0,1,3,.693c.112.922.381,1.925.58,2.809.927.487,2.011,1.053,2.942,1.54,2.264-.876,4.2-2.9,8.535-1.271C344.3,114.15,344,114.754,343.664,115.449Z" fill="#e7a298"/>
            </g>
            <g id="Group_1084" data-name="Group 1084">
              <path id="Path_1149" data-name="Path 1149" d="M343.677,123.3c-.5.594-1.067,1.063-1.568,1.656-.946.008-1.972.066-3.075-.006l-1.028-1.74c.124-1.049.1-2.181.22-3.233a18.358,18.358,0,0,1,2.636-.586,27.125,27.125,0,0,1,2.642.889C343.56,121.263,343.621,122.323,343.677,123.3Z" fill="#eec4bb"/>
            </g>
            <g id="Group_1085" data-name="Group 1085">
              <path id="Path_1150" data-name="Path 1150" d="M204.129,171a9.288,9.288,0,0,0-1.01,1.639c-1.635.848-3.352,1.752-4.9,2.711-.451-.565-.9-1.13-1.265-1.584-1.077.794-2.232,1.645-3.308,2.44a6.294,6.294,0,0,0-1.667-.547c-.976-2.731,1.206-4.313,3.619-3.586l-.88-1.867c1.948-1.252,3.979-2.389,6.01-3.529,1.48-.9,2.967-1.642,4.442-2.549.971,1.084,2.011,2.111,2.967,3.026C206.778,168.512,205.412,169.7,204.129,171Z" fill="#eec4bb"/>
            </g>
            <g id="Group_1086" data-name="Group 1086">
              <path id="Path_1151" data-name="Path 1151" d="M196.935,253.063c4.7,4.184-4.837,3.759,2.167,8.86l2.671,2.3,1.841,2.044c-.7.552-1.3,1.077-1.976,1.651.462.918.873,1.736,1.333,2.655-.294,1.387-.586,2.772-.778,4.26a16.218,16.218,0,0,1-5.149-3.79,16.742,16.742,0,0,1,.651-2.45c-1.205-1.056-2.513-2.223-3.656-3.344l-.391-.427-2.339-2.566c-.755.638-1.577,1.334-2.333,1.971-.555-.474-1.183-.893-1.742-1.366-1.547-1.154-2.925-2.252-4.406-3.463a42.986,42.986,0,0,1,2.83-3.344l.342-.3,2.338,2.569a13.41,13.41,0,0,1,1.94.258c.212-1.508.524-2.91.742-4.419-1.632-1.272-3.2-2.6-4.859-4.036-.1-.11-.292-.324-.485-.537-.706-.918-1.345-1.9-1.976-2.873-.739-.137-1.575-.38-2.4-.618-1.04-1.016-2.054-1.863-3.094-2.876l-.485-.536c.339-.858.743-1.782,1.1-2.626,1.187-1.158,3.71.7,5.25,1.867l2.315,2.587c.621.421,1.176.9,1.8,1.328.418,1.15.84,2.3,1.329,3.392l2.119,1.819c.218.377.365.815.682,1.3C193.857,252.59,195.3,252.717,196.935,253.063Z" fill="#e29288"/>
            </g>
            <g id="Group_1087" data-name="Group 1087">
              <path id="Path_1152" data-name="Path 1152" d="M206.923,271.78l-3.951-1.21c-.46-.919-.872-1.737-1.333-2.655.679-.573,1.279-1.1,1.976-1.651.883.583,1.668,1.059,2.622,1.591A31.513,31.513,0,0,0,206.923,271.78Z" fill="#eec4bb"/>
            </g>
            <g id="Group_1088" data-name="Group 1088">
              <path id="Path_1153" data-name="Path 1153" d="M171.451,255.4c1.993,1.339,3.986,2.68,6.041,3.963q.45.486.886.957a17.97,17.97,0,0,0,1.133,1.888c2.035,2.061,4.237,4.17,6.445,6.284,1.884,1.239,4.5,2.62,3.345,3.6l-1.025.865-2.856-3.07c-2.919-1.7-6.3-1.864-6.731-6.044-4.05-1.3-8.752-4.7-7.939-7.858-1.421-2.2-2.743-4.3-4.233-6.447l1.053-.9a13.945,13.945,0,0,1,1.615.526C169.924,251.19,170.6,253.273,171.451,255.4Z" fill="#eec4bb"/>
            </g>
            <g id="Group_1089" data-name="Group 1089">
              <path id="Path_1154" data-name="Path 1154" d="M387.2,113.759c-1.276-1.638-1.919-5.186-5.205-5.193,1.167-.89,2.407-1.652,3.576-2.544,2.124.922,5.035,5.136,3.571,6.788Z" fill="#f3d7d0"/>
            </g>
            <g id="Group_1090" data-name="Group 1090">
              <path id="Path_1155" data-name="Path 1155" d="M373.1,80.42c.407,1.4.813,2.8,1.184,4.074-2.025,6.122-3.407-1.882-5.459,1.207l-2.007.984-3.453-.727,3.834-3.323,4.628-4.65Z" fill="#f3d7d0"/>
            </g>
            <g id="Group_1091" data-name="Group 1091">
              <path id="Path_1156" data-name="Path 1156" d="M359.34,87.927c.067,2.86,3.672,6.572-.064,6.305-1.8-.568-2.681-2.379-4.029-3.481C356.6,89.726,358.051,88.882,359.34,87.927Z" fill="#f3d7d0"/>
            </g>
            <g id="Group_1092" data-name="Group 1092">
              <path id="Path_1157" data-name="Path 1157" d="M376.7,130.476c-.633.324-1.269.646-2.61-.3l-2.311,1.172a16.8,16.8,0,0,1-1.955,1.8,17.358,17.358,0,0,0-1.391-1.563c-.141-.251-.285-.505-.358-.635l2.716-1.374a22.589,22.589,0,0,1,.534-2.542,11.33,11.33,0,0,0,1.43.734,21.475,21.475,0,0,0,2.287-1.969l.748.431C376.086,127.7,376.316,129.046,376.7,130.476Z" fill="#f3d7d0"/>
            </g>
            <g id="Group_1093" data-name="Group 1093">
              <path id="Path_1158" data-name="Path 1158" d="M360.321,104.57c-1.423,3.318-3.19,3.9-4.675,2.382C357.117,103.928,358.309,102.834,360.321,104.57Z" fill="#f3d7d0"/>
            </g>
            <g id="Group_1094" data-name="Group 1094">
              <path id="Path_1159" data-name="Path 1159" d="M338.275,86.115c-2.657.866-5.314,1.741-7.858,2.63l-1.554-.8a13.963,13.963,0,0,0-.866,2.1q-15.289,7.591-30.252,15.881c-.508-1.372-.972-2.622-1.48-3.993,3.177-1.207,6.635-1.751,7.593-5.118,3.494-.294,3.875-4.821,6.945-6.206.763.906,1.162,2.5,2.2,2.751,3.024-1.211,1.838-8.881,6.882-5.369.967-1.175,1.781-2.431,2.679-3.731a31.24,31.24,0,0,1,3.5-.232,12.589,12.589,0,0,1,1.488.677c1.067-.24,2.06-.606,3.126-.847,1.582-.671,2.039-5.277,4.837-1.677.4-1.021.738-2.17,1.738-2.521.658,1.942,2.445,1.835,4.364,4.1C340.5,84.485,339.378,85.384,338.275,86.115Z" fill="#f3d7d0"/>
            </g>
            <g id="Group_1095" data-name="Group 1095">
              <path id="Path_1160" data-name="Path 1160" d="M351.281,140.542l-2.3,1.218-1.106-1.865,2.3-1.221Z" fill="#f3d7d0"/>
            </g>
            <g id="Group_1096" data-name="Group 1096">
              <path id="Path_1161" data-name="Path 1161" d="M343.374,145.641c-.2,2.267-.763,3.4-2.271,1.259Z" fill="#f3d7d0"/>
            </g>
            <g id="Group_1097" data-name="Group 1097">
              <path id="Path_1162" data-name="Path 1162" d="M333.926,148.394c-2.759,6.291-8.027,5.934-11.945,8.493-3.608,4.692-10.876,8.109-16.3,10.516-1.1-.854-1.55.261-2.25.511a2.991,2.991,0,0,0,.018.833c-3.356,3.139-7.186,5.2-10.847,7.414a39.6,39.6,0,0,0-5.222,3.647,21.132,21.132,0,0,0-4.26,5.006c-1.35-.667-1.988.608-2.9,1.032-1.123,3.836-6.288,5.093-9.278,7.857.582,2.922-3.622,2.8-4.149,5.253-2.1,1.077-3.287,3.089-4.614,4.917-1.311,1.85-2.777,3.5-5.509,3.827-.071-.832-1.112-2.934-.411-4.835-.873-1.152-1.663-2.193-2.54-3.349,1.75-1.584,3.5-3,5.288-4.542.594.643,1.352,1.355,2.02,1.949.151-1.152.294-2.474.527-3.675,1.936-1.485,3.784-3.085,5.629-4.689,1.469-.29,3.458-.767,2.829-3.487a18.379,18.379,0,0,1,2.625-.846,43.129,43.129,0,0,1,3.215-2.961,36.055,36.055,0,0,1,2.84-2.711l.382-.247c.586-.9,1.166-1.8,1.745-2.867.752-.661,1.423-1.439,2.17-2.107a22.825,22.825,0,0,1,2.2-2.234,23.2,23.2,0,0,1,2.947-.993l7.37-4.613c.767-.481,1.533-.961,2.225-1.4l2.244-1.359,1.473-.89c1.179.3,1.859-1.286,2.979.568,1.47-1.049,3.568-1.466,4.084-4.141,2.041,1.3,4.094.869,5.907-.138a25.591,25.591,0,0,0,4.522-3.5c4.067-2.336,7.473-3.167,12.013-6.085Z" fill="#f3d7d0"/>
            </g>
            <g id="Group_1098" data-name="Group 1098">
              <path id="Path_1163" data-name="Path 1163" d="M292.958,109.54l-5.5,3.2-3.47-.487c-1.215-3.476,2.89-2.188,2-5.182-.018-2.161,3.032-1.1,4.73-1.083l2.8-1.631c.374.957,1.261.939,2.667,2.468A41.461,41.461,0,0,0,292.958,109.54Z" fill="#f3d7d0"/>
            </g>
            <g id="Group_1099" data-name="Group 1099">
              <path id="Path_1164" data-name="Path 1164" d="M269.887,125.728a38.344,38.344,0,0,1-3.861,1.577l-1.932-.32c-1.2,2.3.99,3.824-.293,4.295a9.516,9.516,0,0,0-1.2,1.609c-.319.2-.724.455-1.121.7-1.608.674-3.133,1.3-4.664,2.087-2.681-.706-4.24,1.388-6.017,4.791-1.762.46-3.438,1.048-5.043,1.575a31.118,31.118,0,0,1-1.124,3.16c-1.583.88-3.279,1.61-4.926,2.571l-4.467,3.047a20.724,20.724,0,0,0-2.737.12l-2.282,1.55a2.916,2.916,0,0,0,.038.852l-2.278,1.556c-1.573-.682-3.137-1.187-4.712-1.86-1.3.176-.459,2.091-1.83,2.168l-3.035,2.149-2.181,1.547a27.449,27.449,0,0,0,1.275,2.458l-1.162.827c-1.352.43-2.707.851-4.226,1.224-1.218,1.228-2.384,2.372-3.668,3.51l-.307.225c-.955-.915-2-1.942-2.967-3.026.342-.966.661-2.112,1-3.234a3.951,3.951,0,0,1,2.633-.984,31.439,31.439,0,0,1,1.777-3.029c-.007-1.589,1.695-1.733,2.536-2.686.781-.555,1.562-1.108,2.268-1.609,3.469-1.775,6.88-3.6,10.314-5.4a7.953,7.953,0,0,1,.36-1.123c1.526-.516,3.043-1.03,4.653-1.426l1.5-1.023c3.166.29,4.038-.126,4.156-1.263.545-.55,1.017-1.2,1.569-1.738,2.268-.279-1.375-2.9.234-3.612,1.07.508,2.135.847,3.2,1.353,1.2-.784,5.193.4,3.1-2.894a3.845,3.845,0,0,0,3.834-2.516c1.935-.233,1.837-.862,2.6-3.441,2.307,2.816,2.7,2.393,2.352-.635,4.223.066,6.953-2.679,8.886-4.758,1.374-.35,3.635-.576,2.745-2.581,2.975-2.249,5.529-2.711,7.822-5.645-2.893-2.479,1.011-2.814,1.979-2.722,3.681,2.668,4.734-2.708,8.486-.412-1.227,1.083-.781,3.52-1.921,4.549C277.439,120.126,273.623,122.957,269.887,125.728Z" fill="#f3d7d0"/>
            </g>
            <g id="Group_1100" data-name="Group 1100">
              <path id="Path_1165" data-name="Path 1165" d="M254.607,209.86c-.5,2.3-2.614,4.66-4.917,3.45C249.165,211.029,251.35,210.908,254.607,209.86Z" fill="#f3d7d0"/>
            </g>
            <g id="Group_1101" data-name="Group 1101">
              <path id="Path_1166" data-name="Path 1166" d="M245.65,218.022c.059,2.1-1.957,3.579-3.311,3.311C241,219.8,242.276,218.512,245.65,218.022Z" fill="#f3d7d0"/>
            </g>
            <g id="Group_1102" data-name="Group 1102">
              <path id="Path_1167" data-name="Path 1167" d="M240.894,222.387c-.112,2.585-1.119,3.318-2.656,3.548-.946.678-1.809,1.319-2.727,2.029-.075-.659-1.2-2.758,1.908-3.043Z" fill="#f3d7d0"/>
            </g>
            <g id="Group_1103" data-name="Group 1103">
              <path id="Path_1168" data-name="Path 1168" d="M232.8,230.012c-.049,2.761-1.04,3.51-2.5,3.71a33.607,33.607,0,0,0-1.855,3.215c-.724,1.08-1.5,2.234-2.226,3.317-2.137,1.471-1.216,4.631-3.971,6.6a31.122,31.122,0,0,1-2.067,3.457c-.739.772-2.149.223-3.248.72-.375-.827-.794-1.754-1.166-2.58l2.034-1.6a35.953,35.953,0,0,1,3.6-.989c-.375-.992-.729-1.821-1.078-2.645.841-.112,2.361-.382,1.1-2.705l.633-.5c1.057-.273,2.939-.661,1.824-3.247l.644-.486c1.085-.095,2.075-.3,2.995-.455,1.025-1.141-.437-2.209,1.856-3.222Z" fill="#f3d7d0"/>
            </g>
            <g id="Group_1104" data-name="Group 1104">
              <path id="Path_1169" data-name="Path 1169" d="M212.188,256.674c3.53,4.025-.522,3.964-1.831,5.03.725,2.954-2.709,3.882-.364,6.632-.876,1.271-1.647.407-3.756-.48-.954-.532-1.739-1.007-2.622-1.591,1.056-1.612,2.021-3.328,2.919-4.991l1.038-.84.342-.282c.084-.441.333-.83.485-1.33C209.7,258.143,210.894,257.352,212.188,256.674Z" fill="#f3d7d0"/>
            </g>
            <g id="Group_1105" data-name="Group 1105">
              <path id="Path_1170" data-name="Path 1170" d="M206.923,271.78c1.271,1.009,2.866,2.124,2.331,2.576a8.447,8.447,0,0,1,1.379,4.13c-2.043-.166-4.258-2.082-7.954-3.124l2.13,3.5c-3.4-3.187-4.564,1.012-6.462-.783l-.985-1.066c-1.785-.763-3.946-1.4-5.211-1.843-.982-1.06-1.965-2.119-2.851-3.075,1.156-.982-1.46-2.364-3.345-3.6-2.208-2.114-4.41-4.223-6.445-6.284a17.97,17.97,0,0,1-1.133-1.888l4.451-.922c1.481,1.211,2.859,2.309,4.406,3.463.559.473,1.187.892,1.742,1.366,1.227.691,2.543,1.432,3.767,2.119l4.3,4.7a16.218,16.218,0,0,0,5.149,3.79c.192-1.487.484-2.873.778-4.26Z" fill="#f3d7d0"/>
            </g>
            <g id="Group_1106" data-name="Group 1106">
              <path id="Path_1171" data-name="Path 1171" d="M159.271,238.428c1.018,1.792,1.452,2.947.519,3.171-2.237.188-3.689-1.232-5.092-2.881-.2-1.732,1.61-2.128,3.106-1.882Z" fill="#f3d7d0"/>
            </g>
            <g id="Group_1107" data-name="Group 1107">
              <path id="Path_1172" data-name="Path 1172" d="M362.612,86.326c0,1.772-2.087,3.593-3.272,1.6.605-1.426-2.11-4.285.02-4.681C360.468,84.317,361.576,85.384,362.612,86.326Z" fill="#eab2a8"/>
            </g>
            <g id="Group_1108" data-name="Group 1108">
              <path id="Path_1173" data-name="Path 1173" d="M352.9,91.139c.729,1.9-.854,1.732-1.642,1.655-1.46.257-3.088.6-4.7.777-1.174-3.625,1.159-4.653,3.148-5.508C350.828,89.115,351.945,90.17,352.9,91.139Z" fill="#eab2a8"/>
            </g>
            <g id="Group_1109" data-name="Group 1109">
              <path id="Path_1174" data-name="Path 1174" d="M219,233.592a37.126,37.126,0,0,1,3.543-1.792c1.806-.642.643-3.025.155-4.468.488,1.443,1.651,3.826-.155,4.468A37.126,37.126,0,0,0,219,233.592Z" fill="#eab2a8"/>
            </g>
            <g id="Group_1110" data-name="Group 1110">
              <path id="Path_1175" data-name="Path 1175" d="M219.592,235.695c-.589.833-2.14.947-.529,4.1-.158.652-.338,1.392-.5,2.043-.586.832-1.265,1.549-1.855,2.373a18.111,18.111,0,0,1-2.981.509c.144,1.539-1.455,1.878-1.329,3.8l-2.311,1.835a7.3,7.3,0,0,0-3.451-2.592l.349-.282c1.545-1.642,3.311-3.17,4.949-4.844,2.523-2.16,2.808-5.146,4.186-7.7.75-.225,1.412-.56,2.162-.786C218.756,234.7,219.221,235.252,219.592,235.695Z" fill="#eab2a8"/>
            </g>
            <g id="Group_1111" data-name="Group 1111">
              <path id="Path_1176" data-name="Path 1176" d="M203.615,266.265l-1.841-2.044,1.272-3.649c.325-1.377,1.974.07,3.488.7C205.636,262.937,204.67,264.653,203.615,266.265Z" fill="#eab2a8"/>
            </g>
            <g id="Group_1112" data-name="Group 1112">
              <path id="Path_1177" data-name="Path 1177" d="M381.938,71.032c.587,4.674-3.4,3.826-5.279,5.5-.816-1.373-1.783-2.839-2.685-4.176Z" fill="#e29288"/>
            </g>
            <g id="Group_1113" data-name="Group 1113">
              <path id="Path_1178" data-name="Path 1178" d="M330.417,88.745c-.308.985,1.555,3.266-2.42,1.293a13.963,13.963,0,0,1,.866-2.1Z" fill="#e29288"/>
            </g>
            <g id="Group_1114" data-name="Group 1114">
              <path id="Path_1179" data-name="Path 1179" d="M332.014,113.8c-.085,1.849-.179,3.865-.264,5.711l1.406,2.365c-.951.194-1.749.472-2.7.674-.259.469-.5.776-.757,1.245l-2.947-1.507c-2.179,3.876-7.717,5.917-11.218,7.1-2.505-1.052-4.307,2.327-8.827,2.606l-.693-1.1c2.162-1.259,3.916-2.276,4.553-5.984-.23-.371-.457-.738-.69-1.111l-3.858,2.241c-.725.42-1.529.886-2.253,1.307l.388.613a41.105,41.105,0,0,0-3.928,1.443c-.092.893-.265,1.656-.437,2.592l-3.015-1.427c-.176,1.789-2.391,1.614-2.639,3.286l-3.893-.181a7.037,7.037,0,0,0-.311-1.332c3.5.254.428-5.165,3.833-2.316l1.916-1.155c1.126-.491,2.331-.857,3.378-1.292.736-1.1,1.4-2.316,2.057-3.541a30.182,30.182,0,0,1,3.441-.317,15.2,15.2,0,0,1,.841-2.167,33.566,33.566,0,0,0,3.333.409c.187-1.1,1.216-1.4,4.314-.809-.027.844-.057,1.677-.149,2.407,3.4.565,2.211-2.066,3.179-2.444,1.314-1.058,3.395-1.385,3.926-3.01l6.654-3.706c1.052-.589,2.028-1.123,3.1-1.685Z" fill="#e29288"/>
            </g>
            <g id="Group_1115" data-name="Group 1115">
              <path id="Path_1180" data-name="Path 1180" d="M284.183,139.02a17.454,17.454,0,0,0-1.912,2l-.4-.6a19.434,19.434,0,0,0-1.886,2.03l.729,1.084-2.205,1.381a43.387,43.387,0,0,1-4.191,1.78c-.384.752-.607,1.581-1.483,1.786-.954.088-1.75.08-2.626.116.762-1.843-.227-3.615,2.469-4.968,1.587-.657,3.094-1.26,4.6-2.036l.391-.25c.87-1.045,1.8-2.164,2.675-3.209.88-.364,1.764-.557,2.639-.924l3.515.41Z" fill="#e29288"/>
            </g>
            <g id="Group_1116" data-name="Group 1116">
              <path id="Path_1181" data-name="Path 1181" d="M266.026,127.3a10.854,10.854,0,0,1,.428,3.838c-.965.093-1.769.091-2.653.137,1.283-.47-.905-2,.293-4.295Z" fill="#e29288"/>
            </g>
            <g id="Group_1117" data-name="Group 1117">
              <path id="Path_1182" data-name="Path 1182" d="M257.07,159.525c-1.845,1.741-3.713,3.445-5.441,5.337-2.65,2.04-5.23,4.028-7.806,6.012-.6.753.063,2.577-1.368,2.675-.785.188-1.488.49-2.278.674-1.762,2.136-3.463,4.2-5.222,6.33-1.392.624-2.781,1.256-4.082,2l2.328-4.3c2.28-1.6,1.548-4.124,5.765-5.644.808-1.254,1.629-2.33,2.449-3.418,1.179-1.849,2.251-2.754,3.275-4.673,1.551-.885,3.188-1.648,4.9-2.463.286-2.308,3.1-2.085,4.373-2.22a23.24,23.24,0,0,0,2.684-.9Z" fill="#e29288"/>
            </g>
            <g id="Group_1118" data-name="Group 1118">
              <path id="Path_1183" data-name="Path 1183" d="M226.875,157.23c-.322.046-.729-.028-1.056.017-.252,1.246-.425,2.432-.591,3.79l-.771.548a24.869,24.869,0,0,0-6.958-.218,27.449,27.449,0,0,1-1.275-2.458l2.181-1.547,3.035-2.149c1.371-.077.53-1.992,1.83-2.168,1.575.673,3.138,1.178,4.712,1.86Z" fill="#e29288"/>
            </g>
            <g id="Group_1119" data-name="Group 1119">
              <path id="Path_1184" data-name="Path 1184" d="M223.437,169.921l-.77.55-.444-.58c-2.361.794-1.435,2.615-3.117,3.981-.615.435-1.435,1.373-2.425-.053-2.212.691-1.651,2.638-1.586,4.554-3.989,1.32-5.77,5.139-9.1,6.689-3.251,1.672,1.745,6.071,3.516,8.718-.622,1.164-2.6-.395-3.819-.562-.621,1.019-1.167,1.973-1.71,2.937a22.645,22.645,0,0,1,.632,2.248c-.727.735-2.225.968-.338,3.71l-1.481,1.126,1.545,3.185a4.895,4.895,0,0,0-3.822,3.819c-.577.61-1.12,1.405-1.753,2.091-3.006-1.126-2.054,2.171-2.742,4.929l-.728.573-3.741-2.389c-1.031,1.366-1.986,2.677-2.922,4.154-.162,1.231-.254,2.4-.314,3.748a17.493,17.493,0,0,0-1.618,2.228l1.329,1.525a15.2,15.2,0,0,0-.406,2.2l-3.07,2.511c.554,2.164,1.039,4.38,1.7,6.643l-1,.813c-2.618-2.528-2.947-2.068-3.3-1.778-.061,1.175,1.547,2.285,2.439,3.421.484,1.1.259,2.216-.325,1.013-1.54-1.171-4.063-3.025-5.25-1.867-.358.844-.763,1.768-1.1,2.626-2.134.106-2.7.579-3.262,1.058l-2.391,2.026c-.975-1.066-1.855-2.027-2.83-3.095a15.87,15.87,0,0,0,.435-2.267c-2.282-2.231-4.573-4.466-6.885-6.863l-.487-.534,1-.848.357-.3c1.333-.758,2.667-1.514,3.9-2.375l.725-.592,2.025-1.662c.024-.953-.651-2.271.1-2.7l1.372-1.133c1.134.008,2.24-.151,3.442-.2,1.133-1.12,3.124-1.821,3.64-3.928-1.071-.812-2.247-1.7-3.318-2.514-1.279.674-2.484,1.292-3.672,2.075-.439-2.065,1.781-2.955.186-4.636,1.121-1.293,2.159-2.538,3.389-3.71,1.607-2.749,1.972-5.8,4.282-9.657-2.559,2.391-4.087.465-5.526-.049a10.886,10.886,0,0,0-.575-2.132,27.5,27.5,0,0,1,3.106-.611c-1.128-1.325-2.159-2.537-3.19-3.749.41-.7.916-1.281,1.331-1.974a17.542,17.542,0,0,0,1.773,1.356c2.011-3.241,6.122.481,6.228-3.244l-.464-.558,2.882-2.195,2.05-3.2c-.584-1.012-1.169-2.025-1.829-2.976l5.09-3.891,4.981,3.118c.883,2.6-3.615,2.033-1.134,5.229l2.877.534c.661-.685,1.835-1.038,1.2-2.731,3.186-3.289,5.426-5.8,8.272-8.62l4.43-3.257c.7-.333,1.487-.558,2.188-.887.994-.883,1.978-1.932,2.972-2.814l3.034-.557.7-.493c.706-.321.151-1.519,3.064-1.282C222.595,166.8,223.272,167.382,223.437,169.921Z" fill="#db766d"/>
            </g>
            <g id="Group_1120" data-name="Group 1120">
              <path id="Path_1185" data-name="Path 1185" d="M218.625,166.592l-2.24,1.592c-.994.882-1.978,1.931-2.972,2.814l-3.28-1.9c.375.959.713,1.821,1.092,2.786l-4.43,3.257c-1.279-.854-2.481-1.765-3.675-2.506a9.288,9.288,0,0,1,1.01-1.639c1.283-1.3,2.649-2.485,4.006-3.844l.307-.225c1.285-1.139,2.451-2.283,3.668-3.51,1.519-.373,2.875-.794,4.226-1.224Z" fill="#e29288"/>
            </g>
            <g id="Group_1121" data-name="Group 1121">
              <path id="Path_1186" data-name="Path 1186" d="M226.208,187.442c-5.5,1.7-7.039,4.269-7.712,7.446C219.169,191.712,220.709,189.145,226.208,187.442Z" fill="#e29288"/>
            </g>
            <g id="Group_1122" data-name="Group 1122">
              <path id="Path_1187" data-name="Path 1187" d="M194.45,185.958c-2.481-3.2,2.017-2.631,1.134-5.229L190.6,177.61a13.527,13.527,0,0,1,1.374-1.953,6.294,6.294,0,0,1,1.667.547c.727.9,1.365,1.691,2.177,2.7,2.3-.788.444-3.552,2.4-3.554,1.551-.959,3.268-1.863,4.9-2.711,1.194.741,2.4,1.652,3.675,2.506-2.847,2.817-5.087,5.331-8.272,8.62.64,1.692-.534,2.045-1.2,2.731Z" fill="#df837a"/>
            </g>
            <g id="Group_1123" data-name="Group 1123">
              <path id="Path_1188" data-name="Path 1188" d="M198.217,175.347c-1.953,0-.1,2.765-2.4,3.554-.812-1.006-1.451-1.8-2.177-2.7,1.077-.8,2.232-1.646,3.308-2.44C197.314,174.217,197.766,174.782,198.217,175.347Z" fill="#e29288"/>
            </g>
            <g id="Group_1124" data-name="Group 1124">
              <path id="Path_1189" data-name="Path 1189" d="M214.557,202.1c-.993.391-1.968.952-2.96,1.342l-.823-1.012c.37-1.009-.134-2.078,2.876-2.188A11.085,11.085,0,0,0,214.557,202.1Z" fill="#e29288"/>
            </g>
            <g id="Group_1125" data-name="Group 1125">
              <path id="Path_1190" data-name="Path 1190" d="M215.308,212.789l-5.056-.509-.3.219a25.247,25.247,0,0,1-2.035,2.446c.524,1.06,1.049,2.119,1.5,3.234-1.409,2.32-.389,5.949-3.152,7.76,2.322,2.037-2.575,1.478.531,4-1.12,6.781-10.441,3.932-11.366,10.911-.681.741-2.215,1.065-2.014,2.389,1.736,1.006,2.674-.124,3.985,1.228l1.434,1.627c-.612,1.076-1.181,2.073-1.794,3.15a13.284,13.284,0,0,1-2.328-.716l-2.988-3.907c-.914-5.412-.971-7.984.848-9.657.4-1.073.773-2.316,1.081-3.5a33.155,33.155,0,0,1-3.367.885c-.859-.981-1.812-2.071-2.67-3.051a15.2,15.2,0,0,1,.406-2.2l2.084-1.68a18.464,18.464,0,0,1,2.58-1.109c1.172-2.032,1.538-4.158,3.07-5.926l-.469-.551.728-.573,4.135-3.27a19.49,19.49,0,0,1,1.654-2.2,9.892,9.892,0,0,1,1.868-.511,24.04,24.04,0,0,1,2.042-2.458A7.379,7.379,0,0,1,206,207.7c.847-.279,1.676-.728,2.522-1.012l1.287,1.565c1.193,0,2.385,0,3.5.057Z" fill="#e29288"/>
            </g>
            <g id="Group_1126" data-name="Group 1126">
              <path id="Path_1191" data-name="Path 1191" d="M179.728,200.834c-2.31,3.859-2.675,6.908-4.282,9.657-1.23,1.172-2.268,2.417-3.389,3.71,1.6,1.681-.625,2.571-.186,4.636,1.188-.783,2.393-1.4,3.672-2.075,1.071.811,2.247,1.7,3.318,2.514-.516,2.107-2.508,2.807-3.64,3.928-1.2.047-2.308.206-3.442.2l-1.372,1.133c-.752.426-.077,1.744-.1,2.7l-2.025,1.662c-.675-1.148-1.413-2.4-2.152-3.66l-2.095,1.741-.287.243-1.356-1.5-2.81-3.117c-2.852-2.319-3.748-2.318-4.4-3.469a15.4,15.4,0,0,1,.4-2.248L159,218.555c1.54-1.264,3.534-2.151,2.834-4.942l-2.306-2.6,3.9-3.21c.943-1.521,1.912-2.876,2.95-4.295a4.922,4.922,0,0,1,2.346-3.551c.817-1.391,1.734-2.666,2.649-3.949l2.172-1.72c1.031,1.212,2.061,2.424,3.19,3.749a27.5,27.5,0,0,0-3.106.611,10.886,10.886,0,0,1,.575,2.132C175.641,201.3,177.168,203.226,179.728,200.834Z" fill="#df837a"/>
            </g>
            <g id="Group_1127" data-name="Group 1127">
              <path id="Path_1192" data-name="Path 1192" d="M159.529,211.018l2.306,2.6c.7,2.791-1.294,3.678-2.834,4.942l-3.419-1.674c.527-.981,1.1-2.047,1.629-3.028C156.711,212.581,158.671,211.912,159.529,211.018Z" fill="#e29288"/>
            </g>
            <g id="Group_1128" data-name="Group 1128">
              <path id="Path_1193" data-name="Path 1193" d="M168.281,228.894l-.725.592c-1.237.861-2.571,1.617-3.9,2.375.006-1.525.011-3.053.095-4.642l.287-.243,2.095-1.741C166.868,226.493,167.606,227.746,168.281,228.894Z" fill="#e29288"/>
            </g>
            <g id="Group_1129" data-name="Group 1129">
              <path id="Path_1194" data-name="Path 1194" d="M159.581,222.6l2.81,3.117c-1.347.193-2.618.329-3.8.573a17.21,17.21,0,0,1-1.1-1.916c-.83-1.759-1.491-3.478-2.317-5.243C155.833,220.28,156.728,220.278,159.581,222.6Z" fill="#e29288"/>
            </g>
            <g id="Group_1130" data-name="Group 1130">
              <path id="Path_1195" data-name="Path 1195" d="M162.783,233.546c-1.579,2.294-1.488,4.874-3.512,4.882l-1.467-1.592c-.3-.879-.774-1.81-1.149-2.631,1.876-.456,3.776-.742,5.642-1.193Z" fill="#e29288"/>
            </g>
            <g id="Group_1131" data-name="Group 1131">
              <path id="Path_1196" data-name="Path 1196" d="M376.659,76.528c-.768,1.162-1.455,2.277-2.286,3.3l-1.272.589-1.273-2.436c.248-1.549.344-3.19.531-4.871l1.615-.76C374.876,73.689,375.843,75.155,376.659,76.528Z" fill="#e7a298"/>
            </g>
            <g id="Group_1132" data-name="Group 1132">
              <path id="Path_1197" data-name="Path 1197" d="M316.076,121.108c-.968.378.223,3.01-3.179,2.444.092-.73.123-1.563.149-2.407A24.467,24.467,0,0,1,316.076,121.108Z" fill="#e7a298"/>
            </g>
            <g id="Group_1133" data-name="Group 1133">
              <path id="Path_1198" data-name="Path 1198" d="M203.994,249.912c-.985,1.737-.8,4.387.307,6.84l3.271,3.682-1.038.84c-1.515-.632-3.163-2.079-3.488-.7l-1.272,3.649-2.671-2.3c-7-5.1,2.534-4.675-2.167-8.86-.459.565-.826,1.235-1.289,1.8-.9-1.683-2.294-1.48-3.335-2.5-.317-.487-.464-.925-.682-1.3l2.737-2.238.35-.285a13.284,13.284,0,0,0,2.328.716c3.558,3.063,4.106.564,5.3.149A6.7,6.7,0,0,0,203.994,249.912Z" fill="#e7a298"/>
            </g>
            <g id="Group_1134" data-name="Group 1134">
              <path id="Path_1199" data-name="Path 1199" d="M163.747,227.218c-.084,1.589-.089,3.117-.095,4.642l-.357.3c-1.544-1.931-3.158-3.947-4.7-5.875,1.177-.244,2.448-.381,3.8-.573Z" fill="#e7a298"/>
            </g>
            <g id="Group_1135" data-name="Group 1135">
              <path id="Path_1200" data-name="Path 1200" d="M193.649,264.819l.391.427c-.409.347-.887.752-1.3,1.1-1.225-.688-2.54-1.429-3.767-2.119.756-.638,1.579-1.334,2.333-1.971Z" fill="#e7a298"/>
            </g>
            <g id="Group_1136" data-name="Group 1136">
              <path id="Path_1201" data-name="Path 1201" d="M213.413,171c-.7.329-1.487.554-2.188.887-.379-.966-.717-1.828-1.092-2.786Z" fill="#df837a"/>
            </g>
            <g id="Group_1137" data-name="Group 1137">
              <path id="Path_1202" data-name="Path 1202" d="M187.342,184.478l-2.05,3.2-2.882,2.195.464.558c-.106,3.725-4.216,0-6.228,3.244a17.542,17.542,0,0,1-1.773-1.356c1.483-2.832,1.986-4.915,4.1-5.817,2.207-1.688,4.336-3.317,6.54-5C186.173,182.453,186.757,183.466,187.342,184.478Z" fill="#df837a"/>
            </g>
            <g id="Group_1138" data-name="Group 1138">
              <path id="Path_1203" data-name="Path 1203" d="M194.466,204.31l-2.134,1.673c-1.074-.26-2.166-.685-3.168-1-4.826,1.419-3.1,7.052-8.066,7.3l-.944-1.1c1.04-1.381,2.014-2.7,2.967-4.19,1.464-2.631,5.17-4.664,8.191-6.464Z" fill="#df837a"/>
            </g>
            <g id="Group_1139" data-name="Group 1139">
              <path id="Path_1204" data-name="Path 1204" d="M195.761,218.386c-1.531,1.768-1.9,3.894-3.07,5.926a18.464,18.464,0,0,0-2.58,1.109l-2.084,1.68-1.329-1.525a17.493,17.493,0,0,1,1.618-2.228c.06-1.345.152-2.517.314-3.748.936-1.476,1.891-2.788,2.922-4.154l3.741,2.389Z" fill="#df837a"/>
            </g>
            <g id="Group_1140" data-name="Group 1140">
              <path id="Path_1205" data-name="Path 1205" d="M193.657,231.471c.524,3.118-.038,3.577-1.081,3.5-1.819,1.673-1.762,4.244-.848,9.657l-3.547,1.218c-.623-.426-1.179-.907-1.8-1.328l-2.315-2.587c.584,1.2.809.082.325-1.013-.893-1.136-2.5-2.246-2.439-3.421.357-.29.686-.751,3.3,1.778l1-.813c-.663-2.263-1.148-4.479-1.7-6.643l3.07-2.511c.858.981,1.81,2.071,2.67,3.051A33.155,33.155,0,0,0,193.657,231.471Z" fill="#df837a"/>
            </g>
            <g id="Group_1141" data-name="Group 1141">
              <path id="Path_1206" data-name="Path 1206" d="M185.675,249.59l-.7.586c.338,1.839.686,3.743,1.022,5.58l-.342.3a42.986,42.986,0,0,0-2.83,3.344l-4.451.922q-.437-.471-.886-.957c-2.054-1.282-4.048-2.623-6.041-3.963-.848-2.125-1.527-4.208-2.268-6.231a13.945,13.945,0,0,0-1.615-.526l-1.053.9c-2.728.043-4.226-3.051-6.205-4.777-.165-1-.356-2.163-.52-3.162.933-.225.5-1.38-.519-3.171,2.024-.008,1.933-2.588,3.512-4.882,2.311,2.4,4.6,4.632,6.885,6.863a15.87,15.87,0,0,1-.435,2.267c.975,1.067,1.855,2.029,2.83,3.095l2.391-2.026c.562-.479,1.128-.952,3.262-1.058l.485.536c1.039,1.013,2.053,1.86,3.094,2.876.83.239,1.665.481,2.4.618C184.331,247.694,184.969,248.672,185.675,249.59Z" fill="#df837a"/>
            </g>
            <g id="Group_1142" data-name="Group 1142">
              <path id="Path_1207" data-name="Path 1207" d="M197.7,268.59a16.742,16.742,0,0,0-.651,2.45l-4.3-4.7c.409-.346.887-.751,1.3-1.1C195.182,266.368,196.49,267.534,197.7,268.59Z" fill="#df837a"/>
            </g>
            <g id="Group_1143" data-name="Group 1143">
              <path id="Path_1208" data-name="Path 1208" d="M240.865,148.571c-.4,2.025-.891,3.929-1.285,5.945l-.392.269a13.449,13.449,0,0,1-1.555-.691l-2.393-3.269,4.467-3.047A7.313,7.313,0,0,1,240.865,148.571Z" fill="#db766d"/>
            </g>
            <g id="Group_1144" data-name="Group 1144">
              <path id="Path_1209" data-name="Path 1209" d="M194.716,248.532l-.35.285-2.737,2.238-2.119-1.819c-.49-1.091-.911-2.242-1.329-3.392l3.547-1.218Z" fill="#db766d"/>
            </g>
            <g id="Group_1145" data-name="Group 1145">
              <path id="Path_1210" data-name="Path 1210" d="M190.964,258c-.275.233-.481.409-.686.585a13.41,13.41,0,0,0-1.94-.258L186,255.755c-.336-1.836-.685-3.741-1.022-5.58l.7-.586c.194.213.386.427.485.537,1.661,1.433,3.228,2.764,4.859,4.036C191.006,255.5,190.9,256.725,190.964,258Z" fill="#db766d"/>
            </g>
            <g id="Group_1146" data-name="Group 1146">
              <path id="Path_1211" data-name="Path 1211" d="M206.641,247.758a26.091,26.091,0,0,1-.336,2.883c1.172,1.118,2.419,2.3,3.59,3.421l-2.353,1.911c-.074.992.766,1.808.856,2.849-.152.5-.4.889-.485,1.33l-.342.282-3.271-3.682c-1.1-2.453-1.292-5.1-.307-6.84a6.7,6.7,0,0,1-1.649-.515l-1.675,1.365c-.487,1.889-2.52,0-3.626-1.514.612-1.077,1.181-2.075,1.794-3.15l-1.434-1.627c.4-.512.626-1.072,1.022-1.584,1.1-2.74,4.785.526,6.876-2.022,1.4.926.618,2.091,1.092,2.637a18.823,18.823,0,0,0-1.088,2.726Z" fill="#eab2a8"/>
            </g>
            <g id="Group_1147" data-name="Group 1147">
              <path id="Path_1212" data-name="Path 1212" d="M209.9,254.062l2.293,2.612c-1.294.678-2.491,1.469-3.79,2.149-.091-1.041-.93-1.857-.856-2.849Z" fill="#eec4bb"/>
            </g>
            <g id="Group_1148" data-name="Group 1148">
              <path id="Path_1213" data-name="Path 1213" d="M341.1,146.9l-2.275,1.257C339.608,147.893,337.635,145.844,341.1,146.9Z" fill="#f3d7d0"/>
            </g>
            <g id="Group_1149" data-name="Group 1149">
              <path id="Path_1214" data-name="Path 1214" d="M216.932,251.028a5.321,5.321,0,0,1-4.744,5.645l-2.293-2.612a43.264,43.264,0,0,1,4.151-2.425C214.962,251.468,215.946,251.246,216.932,251.028Z" fill="#f3d7d0"/>
            </g>
            <g id="Group_1150" data-name="Group 1150">
              <path id="Path_1215" data-name="Path 1215" d="M219.815,222.433c-.131,2.828-.922,3.43-1.717,4.034C213.144,222.788,216.879,221.579,219.815,222.433Z" fill="#eab2a8"/>
            </g>
            <g id="Group_1151" data-name="Group 1151">
              <path id="Path_1216" data-name="Path 1216" d="M343.5,120.282a27.125,27.125,0,0,0-2.642-.889c-.244-1.505-1.248-3.594.49-3.537a16.319,16.319,0,0,0,2.313-.407C345.116,117.955,342.233,117.19,343.5,120.282Z" fill="#eab2a8"/>
            </g>
            <g id="Group_1152" data-name="Group 1152">
              <path id="Path_1217" data-name="Path 1217" d="M270.208,148.6c-.794.328-.287,1.719-.428,2.659-.791.16-1.5.438-2.3.6l-1.325,3.459-1.61-.678c-.5,1.879-2.709,2.288-4.018,3.492-1.116.036-2.144.2-3.1.3.625-.41.258-1.726.308-2.624,1.717-1.122,3.513-2.3,5.229-3.42.625-.407,1.25-.822,4.1-1.123C267.85,150.6,267.175,148.8,270.208,148.6Z" fill="#e29288"/>
            </g>
          </g>
        </g>
      </g>
    </g>
  </g>
</svg>
