<svg xmlns="http://www.w3.org/2000/svg" width="200" height="196.207" viewBox="0 0 200 196.207">
  <g id="Vector_Smart_Object" data-name="Vector Smart Object" transform="translate(-1414.861 -429.861)">
    <g id="Group_165" data-name="Group 165">
      <path id="Path_175" data-name="Path 175" d="M1561.165,564.461c-4.424-48.448,15.406-98.51,51.818-130.825a241.492,241.492,0,0,1-51.638,130.812" fill="none" stroke="#48505b" stroke-miterlimit="10" stroke-width="3.154"/>
      <path id="Path_176" data-name="Path 176" d="M1611.973,435.061c-29.312,60.63-56.627,123.8-62.579,190.868" fill="none" stroke="#48505b" stroke-miterlimit="10" stroke-width="3.154"/>
      <path id="Path_177" data-name="Path 177" d="M1553.941,586.75c-21.6-10.316-34.443-32.542-51.771-49.041-22.534-21.451-52.7-33.071-82.9-40.588,12.114,14.151,24.393,28.451,39.578,39.252,20.562,14.627,45.267,22.018,69.474,29.172" fill="none" stroke="#48505b" stroke-miterlimit="10" stroke-width="3.154"/>
      <path id="Path_178" data-name="Path 178" d="M1423.16,499.564c30.95,24.955,70,38.668,99.806,64.976" fill="none" stroke="#48505b" stroke-miterlimit="10" stroke-width="3.154"/>
      <path id="Path_179" data-name="Path 179" d="M1435.316,502.246q4.042,5.517,8.082,11.034" fill="none" stroke="#48505b" stroke-miterlimit="10" stroke-width="3.154"/>
      <path id="Path_180" data-name="Path 180" d="M1445.436,506.022a45.086,45.086,0,0,0,7.132,12.941" fill="none" stroke="#48505b" stroke-miterlimit="10" stroke-width="3.154"/>
      <path id="Path_181" data-name="Path 181" d="M1452.618,507.932a174.655,174.655,0,0,0,9.448,17.287" fill="none" stroke="#48505b" stroke-miterlimit="10" stroke-width="3.154"/>
      <path id="Path_182" data-name="Path 182" d="M1464.515,512.259a70.14,70.14,0,0,0,8.668,18.154" fill="none" stroke="#48505b" stroke-miterlimit="10" stroke-width="3.154"/>
      <path id="Path_183" data-name="Path 183" d="M1477.011,518.458a68.041,68.041,0,0,0,7.482,18.75" fill="none" stroke="#48505b" stroke-miterlimit="10" stroke-width="3.154"/>
      <path id="Path_184" data-name="Path 184" d="M1490.892,527.542a98.608,98.608,0,0,0,6.071,17.281" fill="none" stroke="#48505b" stroke-miterlimit="10" stroke-width="3.154"/>
      <path id="Path_185" data-name="Path 185" d="M1502.4,538.529a138.484,138.484,0,0,0,5.115,12.976" fill="none" stroke="#48505b" stroke-miterlimit="10" stroke-width="3.154"/>
      <path id="Path_186" data-name="Path 186" d="M1439.156,520.116a78.18,78.18,0,0,0,18.233,1.6" fill="none" stroke="#48505b" stroke-miterlimit="10" stroke-width="3.154"/>
      <path id="Path_187" data-name="Path 187" d="M1453.962,531.321a47.713,47.713,0,0,0,18.2-.274" fill="none" stroke="#48505b" stroke-miterlimit="10" stroke-width="3.154"/>
      <path id="Path_188" data-name="Path 188" d="M1466.963,541.482a54.759,54.759,0,0,0,18.145-2.61" fill="none" stroke="#48505b" stroke-miterlimit="10" stroke-width="3.154"/>
      <path id="Path_189" data-name="Path 189" d="M1481.807,549.686a90.121,90.121,0,0,0,16.7-2.288" fill="none" stroke="#48505b" stroke-miterlimit="10" stroke-width="3.154"/>
      <path id="Path_190" data-name="Path 190" d="M1499.037,556.248a53.077,53.077,0,0,0,11.5-2.373" fill="none" stroke="#48505b" stroke-miterlimit="10" stroke-width="3.154"/>
      <path id="Path_191" data-name="Path 191" d="M1601.279,444.8a80.806,80.806,0,0,0-1.041,17.234" fill="none" stroke="#48505b" stroke-miterlimit="10" stroke-width="3.154"/>
      <path id="Path_192" data-name="Path 192" d="M1595.886,451.4a69.426,69.426,0,0,0-4.711,29.749" fill="none" stroke="#48505b" stroke-miterlimit="10" stroke-width="3.154"/>
      <path id="Path_193" data-name="Path 193" d="M1585.144,466.345c-3.222,5.831-3,12.875-2.689,19.531q.327,6.978.65,13.959" fill="none" stroke="#48505b" stroke-miterlimit="10" stroke-width="3.154"/>
      <path id="Path_194" data-name="Path 194" d="M1576.832,480.08c-4.613,12.263-3.184,25.863-1.691,38.88" fill="none" stroke="#48505b" stroke-miterlimit="10" stroke-width="3.154"/>
      <path id="Path_195" data-name="Path 195" d="M1567.454,505.07a220.76,220.76,0,0,0,.177,32.5" fill="none" stroke="#48505b" stroke-miterlimit="10" stroke-width="3.154"/>
      <path id="Path_196" data-name="Path 196" d="M1611.623,450.183q-6.272,7.129-12.54,14.262" fill="none" stroke="#48505b" stroke-miterlimit="10" stroke-width="3.154"/>
      <path id="Path_197" data-name="Path 197" d="M1609.445,458.667c-.978,3.174-1.991,6.417-3.973,9.083-3.916,5.263-11,7.479-14.794,12.837" fill="none" stroke="#48505b" stroke-miterlimit="10" stroke-width="3.154"/>
      <path id="Path_198" data-name="Path 198" d="M1607.211,467.782" fill="none" stroke="#48505b" stroke-miterlimit="10" stroke-width="3.156"/>
      <path id="Path_199" data-name="Path 199" d="M1606.728,470.65a28.21,28.21,0,0,1-6.185,14.422c-4.692,5.7-11.389,9.3-17.5,13.452" fill="none" stroke="#48505b" stroke-miterlimit="10" stroke-width="3.154"/>
      <path id="Path_200" data-name="Path 200" d="M1600.528,490.112a35.079,35.079,0,0,1-9.817,15.674c-4.853,4.457-10.959,7.536-15.21,12.569" fill="none" stroke="#48505b" stroke-miterlimit="10" stroke-width="3.154"/>
      <path id="Path_201" data-name="Path 201" d="M1591.414,515.59" fill="none" stroke="#48505b" stroke-miterlimit="10" stroke-width="3.156"/>
      <path id="Path_202" data-name="Path 202" d="M1589.874,518.408a28.907,28.907,0,0,1-9.445,11.182c-4.21,2.956-9.318,4.882-12.465,8.951" fill="none" stroke="#48505b" stroke-miterlimit="10" stroke-width="3.154"/>
    </g>
  </g>
</svg>
