<svg id="Floral" xmlns="http://www.w3.org/2000/svg" width="269" height="137" viewBox="0 0 269 137">
  <g id="Vector_Smart_Object" data-name="Vector Smart Object" transform="translate(-2080.632 -994.216)">
    <g id="Group_186" data-name="Group 186">
      <g id="Group_166" data-name="Group 166">
        <path id="Path_203" data-name="Path 203" d="M2082.731,1130.9c26.62-23.141,54.619-45.021,85.853-61.652,26.256-13.976,54.393-24.569,79.315-40.979,13.485-8.881,25.716-19.546,35.21-32.67.472-.656-.309-1.578-1.037-1.349-32.1,10.2-66.215,21.354-91.384,44.724a102.954,102.954,0,0,0-17.7,21.467,1.257,1.257,0,0,0,2.17,1.265c17.118-29.576,49.138-45.639,80.226-56.758,8.979-3.211,18.067-6.109,27.176-8.927-.347-.451-.694-.9-1.041-1.349-17.711,24.105-44.406,38.766-70.829,51.481-13.431,6.464-27.088,12.5-40.339,19.324a345.35,345.35,0,0,0-43.395,26.774c-15.964,11.479-31.138,24.01-45.932,36.945-1.175,1.023.539,2.722,1.705,1.7Z" fill="#484f5b"/>
      </g>
      <g id="Group_167" data-name="Group 167">
        <path id="Path_204" data-name="Path 204" d="M2174.842,1063.211a184.809,184.809,0,0,0-10.434-64.6c-.38-1.056-2.1-1.278-2.374,0-4.891,22.356-3.3,46.211,6.7,67.009.631,1.319,2.542.167,1.948-1.136-9.2-20.356-12.2-43.488-6.274-65.218h-2.374a236.9,236.9,0,0,1,10.643,63.94,1.083,1.083,0,0,0,2.165,0Z" fill="#484f5b"/>
      </g>
      <g id="Group_168" data-name="Group 168">
        <path id="Path_205" data-name="Path 205" d="M2280.835,996.156c-3.658,1.441-7.014,3.829-10.434,5.758q-5.355,3.019-10.781,5.913c-7.361,3.946-14.773,7.8-22.13,11.758-14.555,7.825-29,16.013-42.245,25.947a153.1,153.1,0,0,0-20.613,18.36c-.669.727.414,1.816,1.087,1.09,22.736-24.6,53.013-38.962,82.032-54.662,3.967-2.146,7.921-4.318,11.843-6.547,3.842-2.184,8.189-4.209,11.516-7.144.2-.18-.012-.576-.276-.472Z" fill="#484f5b"/>
      </g>
      <g id="Group_169" data-name="Group 169">
        <path id="Path_206" data-name="Path 206" d="M2162.953,1004.946a255.886,255.886,0,0,0,7.487,60.926c.117.493.874.284.757-.209a265.521,265.521,0,0,1-7.111-60.717.567.567,0,0,0-1.133,0Z" fill="#484f5b"/>
      </g>
      <g id="Group_170" data-name="Group 170">
        <path id="Path_207" data-name="Path 207" d="M2176.823,1084.8c2.784,0,2.793-4.326,0-4.326s-2.792,4.326,0,4.326Z" fill="#484f5b"/>
      </g>
      <g id="Group_171" data-name="Group 171">
        <path id="Path_208" data-name="Path 208" d="M2188.658,1088.365c3.031,0,3.035-4.7,0-4.7s-3.031,4.7,0,4.7Z" fill="#484f5b"/>
      </g>
      <g id="Group_172" data-name="Group 172">
        <path id="Path_209" data-name="Path 209" d="M2185.276,1078.373l.849-.05a1.2,1.2,0,0,0,.614-.138,1.129,1.129,0,0,0,.514-.33,1.194,1.194,0,0,0,.334-.514,1.247,1.247,0,0,0,.134-.614l-.054-.426a1.577,1.577,0,0,0-.414-.706l-.322-.25a1.569,1.569,0,0,0-.807-.217l-.849-.05a1.264,1.264,0,0,0-.631.142,1.5,1.5,0,0,0-.874.873,1.263,1.263,0,0,0-.142.635l.063.434a1.6,1.6,0,0,0,.422.727l.334.259a1.687,1.687,0,0,0,.828.225Z" fill="#484f5b"/>
      </g>
      <g id="Group_173" data-name="Group 173">
        <path id="Path_210" data-name="Path 210" d="M2199.651,1086.018a1.694,1.694,0,0,0,0-3.386,1.694,1.694,0,0,0,0,3.386Z" fill="#484f5b"/>
      </g>
      <g id="Group_174" data-name="Group 174">
        <path id="Path_211" data-name="Path 211" d="M2219.094,1077.041a1.159,1.159,0,0,0,0-2.317,1.159,1.159,0,0,0,0,2.317Z" fill="#484f5b"/>
      </g>
      <g id="Group_175" data-name="Group 175">
        <path id="Path_212" data-name="Path 212" d="M2231.777,1085.768a1.441,1.441,0,0,0,0-2.881,1.441,1.441,0,0,0,0,2.881Z" fill="#484f5b"/>
      </g>
      <g id="Group_176" data-name="Group 176">
        <path id="Path_213" data-name="Path 213" d="M2251.925,1074.895l-.811.877a1.013,1.013,0,0,0-.28.434,1.212,1.212,0,0,0,0,1.04,1.013,1.013,0,0,0,.28.434l.272.209a1.346,1.346,0,0,0,.681.184l.36-.046a1.38,1.38,0,0,0,.594-.346l.878-.814a1.011,1.011,0,0,0,.288-.447,1.041,1.041,0,0,0,.121-.539,1.017,1.017,0,0,0-.121-.535,1,1,0,0,0-.288-.451l-.28-.217a1.391,1.391,0,0,0-.706-.192l-.372.05a1.436,1.436,0,0,0-.615.359Z" fill="#484f5b"/>
      </g>
      <g id="Group_177" data-name="Group 177">
        <path id="Path_214" data-name="Path 214" d="M2268.132,1074.01c3.026,0,3.031-4.7,0-4.7s-3.035,4.7,0,4.7Z" fill="#484f5b"/>
      </g>
      <g id="Group_178" data-name="Group 178">
        <path id="Path_215" data-name="Path 215" d="M2234.314,1062.627c3.591,0,3.6-5.578,0-5.578s-3.6,5.578,0,5.578Z" fill="#484f5b"/>
      </g>
      <g id="Group_179" data-name="Group 179">
        <path id="Path_216" data-name="Path 216" d="M2250.374,1061.215a1.381,1.381,0,0,0,0-2.76,1.381,1.381,0,0,0,0,2.76Z" fill="#484f5b"/>
      </g>
      <g id="Group_180" data-name="Group 180">
        <path id="Path_217" data-name="Path 217" d="M2280.81,1064.781a1.569,1.569,0,0,0,0-3.136,1.569,1.569,0,0,0,0,3.136Z" fill="#484f5b"/>
      </g>
      <g id="Group_181" data-name="Group 181">
        <path id="Path_218" data-name="Path 218" d="M2305.331,1066.844c2.5,0,2.5-3.883,0-3.883a1.943,1.943,0,0,0,0,3.883Z" fill="#484f5b"/>
      </g>
      <g id="Group_182" data-name="Group 182">
        <path id="Path_219" data-name="Path 219" d="M2222.475,1068.456a1.865,1.865,0,0,0,0-3.729,1.865,1.865,0,0,0,0,3.729Z" fill="#484f5b"/>
      </g>
      <g id="Group_183" data-name="Group 183">
        <path id="Path_220" data-name="Path 220" d="M2217.4,1089.163c2.968,0,2.972-4.606,0-4.606s-2.972,4.606,0,4.606Z" fill="#484f5b"/>
      </g>
      <g id="Group_184" data-name="Group 184">
        <path id="Path_221" data-name="Path 221" d="M2325.618,1061.9c2.667,0,2.671-4.138,0-4.138s-2.667,4.138,0,4.138Z" fill="#484f5b"/>
      </g>
      <g id="Group_185" data-name="Group 185">
        <path id="Path_222" data-name="Path 222" d="M2347.6,1065.312c2.7,0,2.709-4.2,0-4.2s-2.708,4.2,0,4.2Z" fill="#484f5b"/>
      </g>
    </g>
  </g>
</svg>
