<svg xmlns="http://www.w3.org/2000/svg" width="313.997" height="322" viewBox="0 0 313.997 322">
  <g id="Brush" transform="translate(-0.001 0.001)">
    <g id="Vector_Smart_Object" data-name="Vector Smart Object" transform="translate(-475.032 -837.772)">
      <g id="Group_164" data-name="Group 164" opacity="0.62" style="mix-blend-mode: multiply;isolation: isolate">
        <g id="Group_163" data-name="Group 163" opacity="0.9">
          <g id="Group_162" data-name="Group 162" opacity="0.9">
            <g id="Group_84" data-name="Group 84">
              <path id="Path_97" data-name="Path 97" d="M785.838,843.795c-.775-1.774-2.691-2.143-2.735-4.488l5.5-1.535C789.439,840.435,789.308,844.457,785.838,843.795Z" fill="#eec5bb"/>
            </g>
            <g id="Group_85" data-name="Group 85">
              <path id="Path_98" data-name="Path 98" d="M777.664,900.888c-2.107.917-4.037,1.959-6.08,3.03a38.738,38.738,0,0,0-4.4.608l-1.091.37-6.127,1.193a42.847,42.847,0,0,0-4.074,1.545l-.929-.551a37.046,37.046,0,0,1-3.56,2.449,13.613,13.613,0,0,1-1.809-.944,29.254,29.254,0,0,0-1.268,3.185c-1.3.548-2.721,1.142-4.02,1.686.074.165.221.484.366.8-3.111,1.508-6.174,3.124-9.187,4.821-5.3,2.268-10.63,4.532-15.905,6.961l-1.252-2.291-3.369,1.676,1.272,2.278a69.748,69.748,0,0,0-8.137,5.469c-1.114.645-2.228,1.293-3.231,1.875-4.641-.937-2.144,1.441-3.235,1.868-1.681-.027-3.379-.054-5.191-.01-.453.259-1.013.585-1.577.91-1.413.195-2.7.376-4.121.571-6.406,4.488-11.046,6.266-16.761,10.008a52.367,52.367,0,0,1-6.335,5.385c-2.45,1.75-5.221,2.809-7.983,1.626-.715,3.6-3.557,4.656-5.557,6.387-1.533-2.11-2.46.114-4.074.027-.634.48-1.376,1.042-2.01,1.525-1.054.81-2.04,1.5-3.054,2.352-.909.779-1.913,1.643-2.919,2.51l-9.694,8.308a39.617,39.617,0,0,0-3.933,2.224,37.683,37.683,0,0,0-2.849,3.6c-.923,1.152-1.735,2.419-2.664,3.558-.661,1.616-1.339,3-2.02,4.391l-.48.46c-1.208,1.414-2.4,3.044-3.48,4.576-1.4,1.6-2.674,3.316-3.946,5.029a30.252,30.252,0,0,0-3.4,2.08c1.225,3.309-1.268,4.75-3.131,5.745-2.148,2.869-4.3,5.732-6.58,8.476-.1,1.656-.064,3.417-.064,4.962a31.353,31.353,0,0,1-2.976-1.639c-2.131,2.708-4.033,5.409-5.919,8.3,1.362,1.092,2.594,2.073,3.953,3.158-.473,2.792,1.315,5.016,1.594,6.051-.758,1.209-1.376,2.526-2.134,3.733-3.9,2.856-6.671,4.058-5.463,6.706-1.362,2.684-2.429,5.392-3.765,8.063-4.04,2.358-5.265,4.677-3.164,5.93-.523.726-.973,1.354-1.5,2.086l-3.6,5.016c-3.832,1.982-1.678,4.109-1.393,4.888-.879,1.408-1.762,2.819-2.577,4.122-1.084,1.737-2.238,3.581-3.258,5.214-2.436,2.583-.292,3.091-1.141,5.107-1.067.712-2.2,1.542-3.49,2.291l-.617.978c2.221,2.557.2,4.186-.933,5.177l-.544,1.011c2.406,2.15.732,3.407-.211,4.062.742.82,1.49,1.636,2.332,2.641-1.4,1.122-2.587,2.224-3.845,3.437-.6,1.115-1.148,2.12-1.752,3.235l2.429,2.453c-1.084.87-2.171,1.74-3.164,2.536a43.256,43.256,0,0,0-3.681,5.678c-1.842-.608-3.822-1.26-5.664-1.865a37.975,37.975,0,0,0-.929-3.823l.272-.585c1.738.376,3.322.689,5.11.961.406-.934.9-1.7,1.668-3.168-.926-2.291.832-3.716.04-5.536a27.556,27.556,0,0,0,3.325-2.5c.362-1.394.879-2.711,1.238-4.112-.074-.921-.158-1.952-.232-2.872-3.148-2.977-1.359-4.089-.993-5.506l-2.148-1.169.624-1.139a49.332,49.332,0,0,1,3.7-4.357c1.99-1.861-.248-4.193-1.329-5.742a37.1,37.1,0,0,1,1.265-3.685,14.856,14.856,0,0,1,2.067-1.67l-.792-2.019c2.53-2.933,4.775-6.017,7.607-8.567-.483-1.408-.9-2.62-1.235-3.948l4.218-3.219a48.4,48.4,0,0,0,2.188-4.566l1.148-1.609-1.289-.9c1.218-1.408,2.654-2.819,4-4.115l1.275.907c2.943-2.4.762-3.823,1.493-5.913a40.591,40.591,0,0,1,2.134-4.021c-4.215-1.7-6.949.3-5.55,2.983-.336.413-.587.726-.839,1.038-1.856.3-3.342.7-5.124,1.075-2.319-7.334,4.147-7.492,4.235-12.142,2.9-3.034-2.772-8.2,3.2-9.225,3.668-1.774,4.7-3.884,2.892-6.084,2.258-3.1,4.714-6.225,7.248-9.286,2.879,1.24,1.829-1.482,3.322-2.355.034-4.811,2.866-7.146,5.681-9.424,2.933-2.19,5.939-4.243,6.3-8.98,4.1-.588,3.661-3.313,5.1-6.175,1.7-1.4,3.52-2.684,5.335-3.964-1.245-6.316,7.52-2.419,9.342-7.253,1.785-1.085,3.473-2.066,5.033-3.185,1.715-2.157,2.456-7.394,4.909-5.372,1.651-1.865,5.033,1.112,6.751-2.116,1.493-3.971,6.8-5.6,6.815-9.323,5.5-.437,8.792-10.344,15.68-9.477,1.349-4.663,8.11-6.672,12.09-9.965l2.711-1.807c.94,1.676,2.2.39,3.04-.054.721-.625,2.245-.5,1.869-2.093-.872-1.109,1.262-1.337,4.667.3l.463.732c-.372,1.428-.624,2.785-1.01,4.411,2.809,1.182,3.956.524,6.137,1.273-.275-.863-.537-1.69-.812-2.55a39.646,39.646,0,0,0,1.493-3.682c1.225.487,2.668,1.065,3.9,1.555,3.842-.01-.329-3.632,1.191-5.523,2.309.242,4.725.5,7.036.742,3.127-3.087,8.1-1.162,10.134-5.137,1.128.988,2.141,2.046,3.141,3.1a29.69,29.69,0,0,0,2.99-2.466c2.027-.628,4.053-1.246,5.993-2.022-.124-2.862,2.7-5.463,4.449-2.164l5.765-2.419c.591-1.784,1.154-3.484,1.748-5.271-2.154-2.489-.376-5.322,1.809-5.3l2.433,2.563c.624-.853,1.174-1.609,1.8-2.466,1.074.494,2.194.776,3.258,1.273.728-.306,1.57-.662,2.3-.968a34.177,34.177,0,0,1,3.547-1.347,10.97,10.97,0,0,0,3.819-3.907c-.443-1.135-.826-2.11-1.2-3.087.44-1.435.815-2.678,1.141-4.082,3.047-1.8,6.114-.84,9.167-1.354,4.6.235,4.456,4.717,5.765,6.854l2.946-1.035c1.044,1.468,2.164,2.782,3.342,4.267C782.594,899.211,779.99,900.223,777.664,900.888Z" fill="#eec5bb"/>
            </g>
            <g id="Group_86" data-name="Group 86">
              <path id="Path_99" data-name="Path 99" d="M736.989,846.876c-1.913,2.9-3.564,2.748-5.617,1.27C732.838,845.4,735.278,842.495,736.989,846.876Z" fill="#eec5bb"/>
            </g>
            <g id="Group_87" data-name="Group 87">
              <path id="Path_100" data-name="Path 100" d="M731.328,869.963c-.181,1.021-.557,1.942-.859,3.024-5.493,1.018-8.06,6.282-14.412,6.165.624,6.162,4.637,5.389,4.9,8.869.483,2.59-1.963,1.68-2.429,3.874l.389.783c.859,4.838,1.493,6.074,2.114,7.321-1.1,1.142-2.2,2.274-3.329,3.622-1.882-1-3.822-1.781-5.735-2.775-1.245-3.86,2.715-3.111,1.121-6.215.614-.917,1.158-1.73,1.768-2.647-5.869-1.73-9.05,1.048-12.466,2.375-1.252-.534-2.715-1.162-3.966-1.7a29.779,29.779,0,0,1-.315-3.551c.6-.689,1.409-1.3,2.01-1.986,2.342-1.381,4.6-2.913,6.862-4.445,1.07-.736,1.809-1.5,2.752-2.17-.275-1.811-.661-3.571-.97-5.174.913-1.414,1.668-2.832,2.617-4.206,1.778-.01,3.47-.171,5.161-.326,2.426-.286,3.023-2.436,4.476-3.817l1.2-.514c2.423-.286,4.9-.776,7.107-1.149C730.019,866.922,730.64,868.364,731.328,869.963Z" fill="#f3d7d0"/>
            </g>
            <g id="Group_88" data-name="Group 88">
              <path id="Path_101" data-name="Path 101" d="M764.229,847.161c-2.856,1.629-5.513,3.719-8.392,5.584-2.278,1.374-4.433,2.671-6.711,4.042l-1.225.433c-1.235-1.226-2.543-2.61-3.855-3.995-3.292.427-.141,4.116-1.473,5.886-2.178,1.189-4.637,2.083-6.869,3.484-1.2.131-2.194.366-3.53.561-1.134-1.216-2.49-2.536-3.849-3.85-3.161,1.162-6.9,2.573-6.1,7.166l-1.2.514c-1.453,1.381-2.05,3.531-4.476,3.817-1.691.154-3.382.316-5.161.326-.95,1.374-1.7,2.792-2.617,4.206-1.419.719-2.842,1.435-4.389,2.217a5.864,5.864,0,0,0,2.607,5.127c-2.262,1.532-4.52,3.064-6.862,4.445-1.315-2.466-2.621-4.919-3.933-7.388-7.543-2.6-10.177,5.987-17.888,6.86-8.02,1.475-10.892,8.815-18.512,8.876,7.9-8.228,18.539-12.3,24.15-18.884.174.313.255.46.426.763,4-3.212,10.194-3.229,15.043-6.662,2.332-2.547,4.007-5.54,6.691-2.405,1.057-.507,2.077-1.1,3.171-1.542a5.8,5.8,0,0,1,.842-1.317,44.393,44.393,0,0,1,4.976-1.193c-.661-1.428-1.171-2.526-1.762-3.8,3.027-3,3.627-4.593,4.164-6.336,4.674-2.006,9.207-3.948,13.882-5.95,2.054,1.478,3.7,1.629,5.617-1.27q7.52-1.562,14.956-3.1l7.372-1.5c2.473-.427,4.99-.719,7.473-1.078C765.887,843.257,765.148,845.276,764.229,847.161Z" fill="#e29388"/>
            </g>
            <g id="Group_89" data-name="Group 89">
              <path id="Path_102" data-name="Path 102" d="M717.49,854.1c-.537,1.744-1.138,3.333-4.164,6.336.591,1.273,1.1,2.372,1.762,3.8a44.393,44.393,0,0,0-4.976,1.193,5.8,5.8,0,0,0-.842,1.317c-1.094.444-2.114,1.035-3.171,1.542-2.684-3.135-4.359-.141-6.691,2.405-4.849,3.434-11.043,3.45-15.043,6.662-.171-.3-.252-.45-.426-.763-5.61,6.585-16.247,10.657-24.15,18.884,7.62-.061,10.493-7.4,18.512-8.876,7.711-.873,10.345-9.461,17.888-6.86,1.312,2.469,2.617,4.922,3.933,7.388-.6.685-1.409,1.3-2.01,1.986a40.52,40.52,0,0,0-4.235-.588c-2.087.669.544,2.456-.305,3.86-1.674.8-3.158,1.643-4.741,2.594-3.319,1.942-6.634,3.884-10.077,5.9-.993,2.2-4.027,2.963-6.06,4.556a40.411,40.411,0,0,0-4.382.561c-4.4-.2-5.845.5-6.235,1.972-1.46.138-3.141.218-4.708.218a24.053,24.053,0,0,0-1.409,3.05c-1.711.3-3.329.766-4.949,1.22-1.054,1.767-2.107,3.521-3.251,5.133-1.537.82-3.3,1.586-4.953,2.5-.946.658-1.839,1.388-2.762,2.076-4.657-2.812-.594,3.521-5.5,4.2a7.549,7.549,0,0,1,.386,1.68c-.128,4.042-4.258,4.559-5.426,6.333-1.695.175-3.268.336-4.959.507-1.252.749-2.513,1.27-3.772,2.019-1.252,1.66-2.51,3.517-3.711,5.214l-.54.47c-2.074,1.566-4.161,2.9-6.362,4.344-3.738,2.768-2.319,4.771-3.329,7.485-4.228,1.361-3.235,3.5-4.3,4.653-3.869,1.545-4.691,2.369-5.516,3.168l-6.909,6.736c0,1.22.607,2.819-.218,3.625-.413.4-.718.7-1.03,1-1.047.783-2.325,1.545-3.611,2.315-1.752.7-5.637,1.626-5.708,4.9-2.2,1.895-4.3,3.692-6.275,5.614-1.131,3.057-2.453,4.774-3.788,7.8-.96,1.841-1.916,3.665-2.825,5.715-5.345,4.159-3.862,7.22-6.573,10.539l-2.231,6.954c-.9,1.989-1.745,3.853-2.587,5.718-1.218.161-1.208,2.288-2.557,3.242-6.607,5.406-7.969,9.753-8.02,14.339-.872,2.147-1.836,4.4-2.476,6.521-.809,1.166-1.658,2.3-2.352,3.37-3.7,2.012-2.755,3.131-2.906,4.7l1.336.826c-1.044,1.683-2.084,3.366-3.2,5.17a3.881,3.881,0,0,1,.372,1.045c-.963.9-1.859,2.019-2.829,2.923a11.064,11.064,0,0,0,.01,1.643,45.38,45.38,0,0,0-1.772,4.519,17.318,17.318,0,0,0-2.171,1.858,22.909,22.909,0,0,0-1.265,3.981l-3.785,7.1c-.2-4.075-2.547-7.8,1.5-8.349.5-1.344.883-2.755,1.433-3.914a9.222,9.222,0,0,1,3.58-7.458l-2.926-3.212c.523-.853.98-1.586,1.507-2.443-3.208-2.426-1.4-3.7-.711-5.147a25.153,25.153,0,0,0-1.47-2.6c.416-1.64.826-3.269,1.272-5.039,1.6-.544,4.463.259,4.99-1.639-2.966-2.436-10.566-5.221-6.741-9.457,3.949-4.109,5.355-10.334,10.214-14.5-.507-2.54-1.745-4.915,1.067-7.1,1.591,1.354,2.507-.359,3.248-1.283,1.983-2.765.419-4.7,3.419-7.079a13.8,13.8,0,0,1,1.621-.625c-.674-3.336-1.674-3.759-1.06-5.362-3.926,1.283-2.98,2.607-3.862,3.43l-.842,1.055c-1.356.84-2.594,1.609-3.96,2.452.94-1.176,1.782-2.234,2.718-3.41-1.352-1.65-2.59-3.165-3.832-4.683l1.419-1.781a37.2,37.2,0,0,1,9.335-3.575c.372-.467.654-.816.936-1.169,0-1.945.03-3.672.181-5.51.443-.228,1.013-.336,1.45-.564l1.232-3.706c1.013-1.125,2.027-2.251,2.939-3.262a3.579,3.579,0,0,1-.151-1.136c1.013-1.122,1.929-2.133,2.946-3.259a33.417,33.417,0,0,1,3.728-1.532c1.171,1.048,2.466,2.211,3.634,3.259a15.567,15.567,0,0,0,2.191.171c.2-.222.4-.443.5-.554l1.094-8.721a7.123,7.123,0,0,0-1.654-.517c2.1-2.16,4.51-3.823,6.634-5.738.574-1.535.913-3.091,1.369-4.767,2.208-1.428,4.513-2.963,6.936-4.354,2.309-5.369,4.325-8.99,8.171-9.067,2.168-1.653,4.322-3.077,6.6-4.6.56-.487,1.131-.984,1.584-1.374a18.332,18.332,0,0,1,1.691-2.62c1.252-.4,2.386-.7,3.748-1.179a13.053,13.053,0,0,0-.591-5.029c1.832-1.115,3.765-2.328,5.47-3.575,5.4-5.033,11.13-9.951,16.771-14.974,1.7-1.74,1.221-4.888,3.064-6.739.362-.272.721-.548,1.2-.917,1.644-.091,3.409-.185,5.047-.275,2.872-1.949,5.624-3.81,8.375-5.674,1.674-1.549,3.235-3.02,5.016-4.428.748-.5,1.624-1.1,2.376-1.606a433.514,433.514,0,0,1,47.551-26c5.439,2.127,3.194-.638,3.882-1.965,3.933-1.512,8.154-2.772,12.375-3.995C713.692,856.245,715.661,855.13,717.49,854.1Z" fill="#de847a"/>
            </g>
            <g id="Group_90" data-name="Group 90">
              <path id="Path_103" data-name="Path 103" d="M709.735,880.509c-.943.675-1.681,1.435-2.752,2.17a5.864,5.864,0,0,1-2.607-5.127c1.547-.783,2.97-1.5,4.389-2.217C709.074,876.937,709.46,878.7,709.735,880.509Z" fill="#eec5bb"/>
            </g>
            <g id="Group_91" data-name="Group 91">
              <path id="Path_104" data-name="Path 104" d="M760.038,894.659a10.97,10.97,0,0,1-3.819,3.907,34.177,34.177,0,0,0-3.547,1.347c-.725.306-1.567.662-2.3.968a18.114,18.114,0,0,0,.081,1.858c-1.144-1.025-2.3-2.053-3.339-3.131-.624.857-1.174,1.613-1.8,2.466l-2.433-2.563c-2.184-.017-3.963,2.815-1.809,5.3-.594,1.787-1.158,3.487-1.748,5.271l-5.765,2.419c-1.745-3.3-4.574-.7-4.449,2.164-1.94.776-3.966,1.394-5.993,2.022a29.69,29.69,0,0,1-2.99,2.466c-1-1.055-2.013-2.113-3.141-3.1-2.033,3.974-7.006,2.049-10.134,5.137-2.312-.245-4.728-.5-7.036-.742-1.52,1.892,2.651,5.513-1.191,5.523-1.228-.49-2.671-1.068-3.9-1.555a39.646,39.646,0,0,1-1.493,3.682c.275.86.537,1.687.812,2.55a11.087,11.087,0,0,0-.681,1.394,57.127,57.127,0,0,0-5.456-2.667c.289-1.777.356-3.427.547-5.144-3.406-1.64-5.54-1.411-4.667-.3.376,1.589-1.148,1.468-1.869,2.093-.842.444-2.1,1.73-3.04.054l-2.711,1.807c-3.98,3.292-10.741,5.3-12.09,9.965-6.889-.867-10.184,9.041-15.68,9.477-.01,3.719-5.322,5.352-6.815,9.323-1.718,3.229-5.1.252-6.751,2.116-2.453-2.022-3.194,3.215-4.909,5.372-1.56,1.119-3.248,2.1-5.033,3.185-1.822,4.835-10.587.937-9.342,7.253-1.815,1.28-3.637,2.56-5.335,3.964-1.443,2.862-1,5.587-5.1,6.175-.359,4.737-3.366,6.79-6.3,8.98-2.815,2.278-5.647,4.613-5.681,9.424-1.493.873-.443,3.595-3.322,2.355-2.533,3.061-4.99,6.188-7.248,9.286,1.805,2.2.775,4.31-2.892,6.084-5.973,1.028-.3,6.192-3.2,9.225-.087,4.65-6.553,4.808-4.235,12.142,1.782-.376,3.268-.779,5.124-1.075.252-.312.5-.625.839-1.038-1.4-2.684,1.336-4.687,5.55-2.983a40.591,40.591,0,0,0-2.134,4.021c-.473,1.949-1.178,3.88-1.493,5.913l-1.275-.907c-1.349,1.3-2.785,2.708-4,4.115l1.289.9-1.148,1.609a28.385,28.385,0,0,1-1.423,3.494c-.309.43-.537.753-.765,1.072l-4.218,3.219a22.008,22.008,0,0,0,2,2.879c-.228.319-.456.638-.762,1.068-2.832,2.55-5.077,5.634-7.607,8.567l.792,2.019a14.856,14.856,0,0,0-2.067,1.67c-.748-.444-1.5-.887-2.091-1.243-1.466.054-2.859.309-4.342.373-.544-1.1-1.231-2.285-1.846-3.276.554-4.193-1.376-10.008-.161-13.946,3.423.4,2.913-2.355,5.617-4.992l-1.456-.958c1.547-3.077,3.178-6.272,4.587-9.464,2.352-1.2-.906-2.641-1.117-4.139.638-.9,1.195-1.687,1.916-2.7.252-3.205,1.04-6.934,1.144-9.813a125.193,125.193,0,0,0,13.1-17.4c4.033-5.641,7.667-11.493,11.587-17.866,2.356-2.987,5.55-.161,6.459-6.793.936-1.226,1.973-2.58,2.909-3.806,5.382-2.567,7.04-5.634,10.546-5.644,1.832-3.484-1.138-4.965-.114-5.715.7-.685,1.3-1.267,2.007-1.952,3.872-1.4,3.121-3.423,3.936-4.609,4.161-1.065,2.946-3.01,4.04-3.487l.53-.457c2.01-1.737,4.027-3.474,6.147-5.3.426-.366.956-.823,1.483-1.28,2.057-.615,4.194-1.324,6.134-2.046,1.956-1.777,4.023-3.655,5.983-5.432l2.658-2.026.429.541c6.728-2.667,12.821-10.186,18.694-11.54,1.557-3.766,6.231-4.593,8.342-6.625,2.567,2.049,3.443-1.058,5.8-.746,1.242-.611,2.456-1.008,3.688-1.619,4.121-1.676,8.026-6.316,12.7-4.418,1.245-2.137,2.59-4.132,3.953-6.131.708.39,1.5.934,2.409,1.414,1.641-.961,2.231-1.3,2.819-1.646.638.843.93,2.694,2.117,2.6,2.6-1.979,2.866-3.685,3.272-7.445,1.56,0,3.027-.155,4.369-.242.809-.793,1.695-1.435,2.5-2.231.094-1.23.195-2.614.289-3.847,1.913.995,3.852,1.774,5.735,2.775,1.131-1.347,2.228-2.479,3.329-3.622,1.255-.82,2.55-1.885,3.745-2.832l1.127-.474,4.886-2.08,3.47,1.367c2.825-1.572,4.7-5.4,8.932-3.793a76.568,76.568,0,0,1,8.674-2.6c2.225-.591,4.584,1.717,6.966,1.989C759.212,892.549,759.595,893.524,760.038,894.659Z" fill="#e9b2a8"/>
            </g>
            <g id="Group_92" data-name="Group 92">
              <path id="Path_105" data-name="Path 105" d="M713.091,894.629a28.563,28.563,0,0,1-3.372.716c-2.476.077-1.426,2.671-1.346,4.576a32.735,32.735,0,0,0-3.869.971c-.362,1.357-.513,2.8-.869,4.142.423.763.846,1.522,1.178,2.13-.406,3.759-.674,5.466-3.272,7.445-1.188.091-1.48-1.76-2.117-2.6-.587.343-1.178.685-2.819,1.646-.909-.48-1.7-1.025-2.409-1.414-1.362,2-2.708,3.995-3.953,6.131-4.674-1.9-8.58,2.741-12.7,4.418-1.232.611-2.446,1.008-3.688,1.619-2.359-.312-3.235,2.8-5.8.746-2.111,2.032-6.785,2.859-8.342,6.625-5.872,1.354-11.966,8.873-18.694,11.54l-.429-.541-2.658,2.026c-1.96,1.777-4.027,3.655-5.983,5.432-1.939.722-4.077,1.431-6.134,2.046-.527.457-1.057.914-1.483,1.28-2.121,1.828-4.137,3.565-6.147,5.3l-.53.457c-1.094.477.121,2.422-4.04,3.487-.815,1.186-.064,3.212-3.936,4.609-.7.685-1.305,1.267-2.007,1.952-1.023.749,1.946,2.231.114,5.715-3.507.01-5.164,3.077-10.546,5.644-.936,1.226-1.973,2.58-2.909,3.806-.909,6.632-4.1,3.806-6.459,6.793-3.919,6.373-7.553,12.226-11.587,17.866a125.193,125.193,0,0,1-13.1,17.4c-.1,2.879-.893,6.608-1.144,9.813-.721,1.015-1.278,1.8-1.916,2.7.211,1.5,3.47,2.936,1.117,4.139-1.409,3.192-3.04,6.387-4.587,9.464l1.456.958c-2.7,2.637-2.194,5.389-5.617,4.992-1.215,3.937.715,9.753.161,13.946.614.991,1.3,2.18,1.846,3.276,1.483-.064,2.876-.319,4.342-.373.594.356,1.342.8,2.091,1.243a37.1,37.1,0,0,0-1.265,3.685c1.081,1.549,3.319,3.88,1.329,5.742a49.332,49.332,0,0,0-3.7,4.357l-.624,1.139c-.8.756-1.443,1.592-2.245,2.348-.631,4.115.221,8.05-1.909,12.34-1.235,3.141-2.852,6.118-3.856,9.212l-.272.585c-.789-.366-1.584-.732-2.218-1.025a20.353,20.353,0,0,1,.087-4.136c-.785-.37-.319-2.332-2.359-2.58-1.534,4.515-7.033,2.987-7.134,7.193-.228.921-.242,1.784-.47,2.7l-6.5,4.173,2.084-8.339c.785-2.825,1.486-5.99,3.027-8.718a19.544,19.544,0,0,1,5.876-7c2.208-2.63-2.4-5.463-.651-7.613-.45-4.519-1.174-9.262-.171-13.606-.926-1.152-1.772-2.422-2.624-3.709a47.693,47.693,0,0,0,1.745-4.452l.3-.47,6.429-2.453c-1.305-1.555-2.587-3.074-3.9-4.63-1.4.615-2.882,1.354-4.365,2.1-.594-.356-1.346-.806-2.094-1.253a3.881,3.881,0,0,0-.372-1.045c1.114-1.8,2.154-3.487,3.2-5.17,1.111-1.132,2.151-2.483,3.262-3.612a11.263,11.263,0,0,1-1.691-1.912c.695-1.065,1.544-2.2,2.352-3.37.641-2.117,1.6-4.374,2.476-6.521.05-4.586,1.413-8.933,8.02-14.339,1.349-.954,1.339-3.081,2.557-3.242.842-1.865,1.688-3.729,2.587-5.718,1.567-1.673,3.265-3.242,4.969-4.8,1.926-3.729,3.664-7.448,5.7-11.14,1.04-.622,1.94-1.357,2.97-1.979,1.909-.806.762-2.906,1.46-4.193,3.191-3.853,6.386-7.714,9.667-11.675a100.086,100.086,0,0,1,6.872-9.447l-.628-.6c.312-.3.617-.6,1.03-1,1.3-.538,2.694-1.179,4.214-1.687,1.7-2.143,4.678-3.585,5.221-6.3.664.074,1.336.151,2.235.255l1.57-5.167c1.1-.5,2.09-1.126,3.188-1.619.164-1.29-.581-2.946.517-3.665,1.221-.363,2.329-.638,3.654-1.1,1.211-.581,1.5-1.757,2.017-2.893,1.866-1.146,3.933-2.469,5.778-3.833.97-.837,2.054-1.771,3.027-2.607-.346-.406-.678-.8-1.02-1.2a30.02,30.02,0,0,1,2.607-3.349l.557.669a33.176,33.176,0,0,1,2.752-3.2c1.138-.87,2.164-1.66,3.3-2.53,1.168-1.774,5.3-2.291,5.426-6.333l5.463-.884c.426-2.288,3.507-2.7,3.855-5.113,1.332.363,2.886.789,4.215,1.152.312-1.26.617-2.3.822-3.487,1.883-1.058,3.745-1.891,5.721-2.8-.2-.286-.4-.571-.5-.716,1.067-.716,2.255-1.512,3.322-2.231,1.9-1.273,3.913-2.624,5.691-3.817l.869,1.31c-1.252,5.033-3.808,6.743-6.979,8.876l.9,1.28c6.412-1.361,9.238-6.182,12.66-5.332,5.05-2.258,13.254-5.614,16.848-11.016,1.255.48,2.715,1.038,3.966,1.519.453-.628.789-1.1,1.245-1.73,1.366-.4,2.53-.88,3.9-1.27-.517-.91-1.117-1.969-1.634-2.883.4-2.406.906-4.952,1.366-7.341-1.074-.41-2.017-.766-3.084-1.173.849-1.4-1.782-3.192.305-3.86a40.52,40.52,0,0,1,4.235.588,29.779,29.779,0,0,0,.315,3.551c1.252.534,2.715,1.162,3.966,1.7,3.416-1.327,6.6-4.105,12.466-2.375C714.249,892.9,713.7,893.712,713.091,894.629Z" fill="#e6a298"/>
            </g>
            <g id="Group_93" data-name="Group 93">
              <path id="Path_106" data-name="Path 106" d="M711.682,904.691c-.805.8-1.691,1.438-2.5,2.231-1.342.087-2.809.242-4.369.242-.332-.608-.755-1.367-1.178-2.13.356-1.347.507-2.785.869-4.142a32.735,32.735,0,0,1,3.869-.971,34.6,34.6,0,0,1,3.6.924C711.876,902.077,711.776,903.461,711.682,904.691Z" fill="#eec5bb"/>
            </g>
            <g id="Group_94" data-name="Group 94">
              <path id="Path_107" data-name="Path 107" d="M520.34,1017.234a18.147,18.147,0,0,0-.95,2.866c-1.95,2.174-3.99,4.482-5.8,6.76-.725-.48-1.453-.961-2.033-1.347-1.231,1.764-2.55,3.659-3.782,5.426a7.214,7.214,0,0,0-2.282.363c-2.03-3.124.564-6.662,3.889-7.226-.57-.716-1.013-1.27-1.587-1.986,2.282-2.956,4.7-5.809,7.12-8.651,1.788-2.127,3.493-4.156,5.278-6.282,1.507.894,3.09,1.666,4.537,2.342C523.212,1012.168,521.783,1014.691,520.34,1017.234Z" fill="#eec5bb"/>
            </g>
            <g id="Group_95" data-name="Group 95">
              <path id="Path_108" data-name="Path 108" d="M539.664,1129.353c7.355,1.9-3.859,7.972,6.6,9.336l4.151.954c.966.38,2.1.827,3.077,1.213-.57,1.119-.9,2.187-1.356,3.346.993.793,1.862,1.482,2.856,2.275.409,1.868.819,3.722,1.4,5.621-4.543.181-6.191-.39-7.661-.921a24.843,24.843,0,0,1-.57-3.4c-1.879-.423-3.933-.907-5.778-1.451l-.658-.239-3.919-1.441c-.507,1.327-1.057,2.775-1.564,4.1-.866-.171-1.782-.218-2.647-.386-2.319-.269-4.423-.591-6.7-.971.426-2.1.846-4.2,1.44-6.242l.232-.621,3.916,1.455a16.454,16.454,0,0,1,2.285-1.1c-.487-2.039-.953-3.988-1.44-6.024-2.46-.4-4.876-.917-7.449-1.488l-.812-.319c-1.252-.632-2.456-1.391-3.654-2.153-.893.38-1.946.7-3,1.025l-4.906-1.31-.812-.313c-.037-1.35-.087-2.859-.013-4.186.879-2.358,4.664-1.865,6.99-1.508l3.862,1.576c.916.081,1.778.286,2.7.37,1,1.142,2.017,2.275,3.084,3.282,1.03.239,2.255.517,3.288.756.426.313.8.749,1.389,1.125C535.889,1130.912,537.621,1130.059,539.664,1129.353Z" fill="#e29388"/>
            </g>
            <g id="Group_96" data-name="Group 96">
              <path id="Path_109" data-name="Path 109" d="M559.945,1145.231c-1.856.467-3.3.83-4.953,1.246-.993-.793-1.862-1.482-2.856-2.275.46-1.159.785-2.227,1.356-3.346,1.289.108,2.413.151,3.758.151A29.422,29.422,0,0,0,559.945,1145.231Z" fill="#eec5bb"/>
            </g>
            <g id="Group_97" data-name="Group 97">
              <path id="Path_110" data-name="Path 110" d="M512.069,1151.171c2.933.1,5.862.212,8.828.218l1.487.5a17.717,17.717,0,0,0,2.245,1.451c3.345.974,6.9,1.881,10.466,2.792,2.748.1,6.379-.151,5.61,1.861l-.688,1.781c-1.648-.537-3.137-1.025-4.792-1.562-4.141.114-8.016,2.5-10.674-2.248-5.214,1.5-12.278,1.042-12.976-3.514-2.728-1.609-5.292-3.185-8.063-4.7l.738-1.969a16.123,16.123,0,0,1,2.09-.618C508.2,1147.122,510.025,1149.2,512.069,1151.171Z" fill="#eec5bb"/>
            </g>
            <g id="Group_98" data-name="Group 98">
              <path id="Path_111" data-name="Path 111" d="M774.906,892.989c-1.309-2.137-1.168-6.618-5.765-6.854l5.745-2.936c2.721,1.391,5.486,6.907,2.966,8.755Z" fill="#f3d7d0"/>
            </g>
            <g id="Group_99" data-name="Group 99">
              <path id="Path_112" data-name="Path 112" d="M765.259,850.306c.114,1.774.228,3.548.332,5.147-4.963,7.576-4.352-2.56-8.362,1.236l-3.255,1.152c-1.658-.359-3.191-.7-4.849-1.055,2.278-1.371,4.433-2.667,6.711-4.042,2.879-1.865,5.537-3.954,8.392-5.584C764.773,848.821,765.044,849.647,765.259,850.306Z" fill="#f3d7d0"/>
            </g>
            <g id="Group_100" data-name="Group 100">
              <path id="Path_113" data-name="Path 113" d="M742.572,859.111c-.765,3.591,3.456,8.376-1.96,7.9-2.473-.763-3.241-3.017-4.909-4.411C737.935,861.194,740.395,860.3,742.572,859.111Z" fill="#f3d7d0"/>
            </g>
            <g id="Group_101" data-name="Group 101">
              <path id="Path_114" data-name="Path 114" d="M756.213,912.989a2.936,2.936,0,0,1-3.49-.42c-1.171.494-2.352.988-3.406,1.435a27.614,27.614,0,0,1-3.043,2.224,17.843,17.843,0,0,0-1.6-1.969c-.144-.316-.292-.635-.366-.8,1.3-.544,2.718-1.139,4.02-1.686a29.254,29.254,0,0,1,1.268-3.185,13.613,13.613,0,0,0,1.809.944,37.046,37.046,0,0,0,3.56-2.449l.929.551C755.978,909.492,756,911.185,756.213,912.989Z" fill="#f3d7d0"/>
            </g>
            <g id="Group_102" data-name="Group 102">
              <path id="Path_115" data-name="Path 115" d="M739.388,880.173c-2.862,4.243-5.51,5-7.285,3.1C734.945,879.41,736.952,877.989,739.388,880.173Z" fill="#f3d7d0"/>
            </g>
            <g id="Group_103" data-name="Group 103">
              <path id="Path_116" data-name="Path 116" d="M711.863,857.277c-4.221,1.223-8.443,2.483-12.375,3.995l-2.117-.874a23,23,0,0,0-1.765,2.839,433.514,433.514,0,0,0-47.551,26c-.57-1.713-1.087-3.262-1.658-4.979l3.594-1.72a37.015,37.015,0,0,0,3.476-1.65,10.684,10.684,0,0,0,4.956-5.029c5.231-1.068,6.583-7.132,11.4-9.561.956,1.062,1.255,3.111,2.738,3.249,2.325-1.119,3.446-4.082,4.889-6.276,1.419-2.217,3.117-3.722,6.51-1.737,1.711-1.656,3.218-3.4,4.865-5.214,1.742-.3,3.48-.6,5.288-.732a15.464,15.464,0,0,1,2.057.712l4.852-1.471c2.517-1.025,4.493-6.921,7.734-2.466.883-1.334,1.7-2.832,3.312-3.336.453,2.466,3.174,2.234,5.419,5.066C715.661,855.13,713.692,856.245,711.863,857.277Z" fill="#f3d7d0"/>
            </g>
            <g id="Group_104" data-name="Group 104">
              <path id="Path_117" data-name="Path 117" d="M719.58,926.041c-1.04.517-2.195,1.089-3.349,1.663l-1.272-2.278,3.369-1.676Z" fill="#f3d7d0"/>
            </g>
            <g id="Group_105" data-name="Group 105">
              <path id="Path_118" data-name="Path 118" d="M708.094,933.173c-.513,2.926-1.382,4.428-3.231,1.875C705.866,934.467,706.98,933.818,708.094,933.173Z" fill="#f3d7d0"/>
            </g>
            <g id="Group_106" data-name="Group 106">
              <path id="Path_119" data-name="Path 119" d="M694.86,937.816A19.964,19.964,0,0,1,686.9,945.9c-2.97,1.69-6.144,2.805-8.862,4.814-5.258,6.484-14.828,12.777-22.19,17.178-1.51-.823-2.1.719-3.05,1.213a3.65,3.65,0,0,0,.037,1.062,125.279,125.279,0,0,1-14.117,12.783,62.241,62.241,0,0,0-6.748,6.309,36.426,36.426,0,0,0-5.047,8.019c-1.849-.383-2.543,1.5-3.7,2.375-1.02,5.352-7.771,8.752-11.083,13.663,1.238,3.544-4.214,5.107-4.48,8.486-2.53,2.261-3.745,5.312-5.1,8.218-1.245,3-2.721,5.782-6.107,7.465-.279-1.035-2.067-3.259-1.594-6.051-1.359-1.085-2.59-2.066-3.953-3.158,1.886-2.893,3.788-5.594,5.919-8.3a31.353,31.353,0,0,0,2.976,1.639c0-1.545-.037-3.306.064-4.962,2.285-2.745,4.433-5.607,6.58-8.476,1.862-.994,4.355-2.436,3.131-5.745a30.252,30.252,0,0,1,3.4-2.08c1.272-1.713,2.544-3.434,3.946-5.029,1.084-1.532,2.272-3.161,3.48-4.576l.48-.46c.681-1.388,1.359-2.775,2.02-4.391.93-1.139,1.742-2.405,2.664-3.558a37.683,37.683,0,0,1,2.849-3.6,39.617,39.617,0,0,1,3.933-2.224l9.694-8.308c1.007-.867,2.01-1.73,2.919-2.51,1.013-.853,2-1.542,3.054-2.352.634-.484,1.376-1.045,2.01-1.525,1.614.087,2.54-2.137,4.074-.027,2-1.73,4.842-2.785,5.557-6.387,2.762,1.183,5.533.124,7.983-1.626a52.367,52.367,0,0,0,6.335-5.385c5.714-3.743,10.355-5.52,16.761-10.008C692.159,938.193,693.448,938.011,694.86,937.816Z" fill="#f3d7d0"/>
            </g>
            <g id="Group_107" data-name="Group 107">
              <path id="Path_120" data-name="Path 120" d="M640.662,895.274c-2.752,1.865-5.5,3.726-8.375,5.674-1.638.091-3.4.185-5.047.275-1.443-4.283,4.47-3.672,3.48-7.415.211-2.876,4.587-2.274,7.07-2.688,1.513-1.021,2.9-1.962,4.292-2.9.433,1.183,1.731.931,3.6,2.624C643.9,892.254,642.336,893.725,640.662,895.274Z" fill="#f3d7d0"/>
            </g>
            <g id="Group_108" data-name="Group 108">
              <path id="Path_121" data-name="Path 121" d="M606.2,923.854c-1.7,1.246-3.637,2.459-5.47,3.575-.906.1-1.822.2-2.735.3-1.711,3.565,1.393,4.791-.423,5.91a18.332,18.332,0,0,0-1.691,2.62c-.453.39-1.023.887-1.584,1.374-2.278,1.518-4.433,2.943-6.6,4.6-3.845.077-5.862,3.7-8.171,9.067-2.423,1.391-4.728,2.926-6.936,4.354-.456,1.676-.8,3.232-1.369,4.767-2.124,1.915-4.537,3.578-6.634,5.738l-5.768,6.363a33.417,33.417,0,0,0-3.728,1.532c-1.017,1.125-1.933,2.137-2.946,3.259a3.579,3.579,0,0,0,.151,1.136c-.913,1.011-1.926,2.137-2.939,3.262-2.242-.114-4.453.007-6.708-.084-1.788.9-.309,3.118-2.151,3.974l-3.725,4.646c-.862,1.082-1.815,2.274-2.674,3.349a25.656,25.656,0,0,0,2.124,2.637l-1.419,1.781c-1.742,1.351-3.49,2.7-5.469,4.075-1.446,2.352-2.815,4.576-4.258,6.914l-.349.5c-1.446-.675-3.03-1.448-4.537-2.342.245-1.542.4-3.343.688-5.053a7.943,7.943,0,0,1,3.392-2.879c.507-1.747,1.242-3.521,1.893-5.174-.275-2.17,2-3.353,2.983-5.147.97-1.209,1.933-2.419,2.805-3.514l6.57-6.618,6.8-6.37a13.421,13.421,0,0,1,.372-1.72c2.047-1.5,4.087-2.977,6.258-4.337.617-.685,1.339-1.478,1.956-2.164,4.376-1.2,5.52-2.2,5.574-3.82.678-1.041,1.312-2.127,2.057-3.111,3.171-1.418-2.114-3.292.117-5,1.534.195,3.05.168,4.574.373,1.651-1.619,7.295-1.794,4.191-5.335a7.868,7.868,0,0,0,5.255-5.147c2.694-1.176,2.523-1.989,3.5-5.863,3.329,2.856,3.886,2.14,3.362-1.8,6.047-1.589,9.922-6.34,12.7-9.907,1.96-1.008,5.168-2.167,3.936-4.559a46.538,46.538,0,0,1,6.07-4.952,26.16,26.16,0,0,0,5.469-5.342c-4.057-2.382,1.641-4.126,3.037-4.314,5.151,2.406,7.036-5.187,12.274-3.265-1.842,1.851-1.366,5-3.064,6.739C617.331,913.9,611.6,918.821,606.2,923.854Z" fill="#f3d7d0"/>
            </g>
            <g id="Group_109" data-name="Group 109">
              <path id="Path_122" data-name="Path 122" d="M594.322,1041.218c-.111,3.172-2.235,7.149-5.463,6.706C587.652,1045.276,590.427,1044.073,594.322,1041.218Z" fill="#f3d7d0"/>
            </g>
            <g id="Group_110" data-name="Group 110">
              <path id="Path_123" data-name="Path 123" d="M585.095,1055.987c.664,2.661-1.406,5.567-3.164,5.93C579.83,1060.663,581.055,1058.345,585.095,1055.987Z" fill="#f3d7d0"/>
            </g>
            <g id="Group_111" data-name="Group 111">
              <path id="Path_124" data-name="Path 124" d="M580.434,1064c.6,3.336-.43,4.771-2.282,5.866a43.072,43.072,0,0,0-2.711,4.038c-.285-.779-2.439-2.906,1.393-4.888Z" fill="#f3d7d0"/>
            </g>
            <g id="Group_112" data-name="Group 112">
              <path id="Path_125" data-name="Path 125" d="M572.864,1078.029c.879,3.528-.054,5.019-1.755,6.1-.433,1.666-.856,3.336-1.134,5.083-.5,1.757-1.04,3.635-1.547,5.4-1.993,3.1.413,6.528-2.037,10.62a49.693,49.693,0,0,1-1.02,5.527c-.554,1.4-2.439,1.589-3.537,2.879l-2.429-2.453c.6-1.115,1.151-2.12,1.752-3.235,1.258-1.213,2.446-2.315,3.845-3.437-.842-1-1.591-1.821-2.332-2.641.943-.655,2.617-1.912.211-4.062l.544-1.011c1.134-.991,3.154-2.62.933-5.177l.617-.978c1.292-.749,2.423-1.579,3.49-2.291.849-2.016-1.3-2.523,1.141-5.107C570.626,1081.61,571.78,1079.766,572.864,1078.029Z" fill="#f3d7d0"/>
            </g>
            <g id="Group_113" data-name="Group 113">
              <path id="Path_126" data-name="Path 126" d="M558.8,1123.568c5.876,2.654,1.258,5.174.262,7.331,2.211,3.1-1.268,6.46,2.708,8.214-.4,2.086-1.688,1.559-4.52,1.895-1.346,0-2.47-.044-3.758-.151.453-2.637.755-5.349,1.007-7.962l.792-1.707.262-.571c-.111-.591-.01-1.23-.067-1.938C556.6,1126.965,557.694,1125.278,558.8,1123.568Z" fill="#f3d7d0"/>
            </g>
            <g id="Group_114" data-name="Group 114">
              <path id="Path_127" data-name="Path 127" d="M559.945,1145.231c1.919.349,4.245.608,3.9,1.505a10.147,10.147,0,0,1,3.7,3.968c-2.309,1.166-5.741.386-10.345,1.693,1.352.857,2.842,1.807,4.194,2.667-5.416-1.428-4.47,4.331-7.516,3.544l-1.651-.561c-2.376.356-5.1,1.149-6.741,1.532l-4.785-1.589c.768-2.012-2.862-1.764-5.61-1.861-3.564-.91-7.12-1.818-10.466-2.792a17.717,17.717,0,0,1-2.245-1.451c1.476-1.471,3.037-3.027,4.506-4.5,2.278.38,4.382.7,6.7.971.866.168,1.782.215,2.647.386l5.278-.158,7.211,2.59c1.47.531,3.117,1.1,7.661.921-.577-1.9-.987-3.753-1.4-5.621C556.643,1146.061,558.09,1145.7,559.945,1145.231Z" fill="#f3d7d0"/>
            </g>
            <g id="Group_115" data-name="Group 115">
              <path id="Path_128" data-name="Path 128" d="M489.717,1139.456c2.05,1.475,3.117,2.6,2.171,3.649-2.453,2.069-4.819,1.458-7.241.5-1.091-2.063.782-4.085,2.607-5Z" fill="#f3d7d0"/>
            </g>
            <g id="Group_116" data-name="Group 116">
              <path id="Path_129" data-name="Path 129" d="M747.9,857.22c-.557,2.231-4.171,4.431-5.329,1.891,1.332-1.77-1.819-5.459,1.473-5.886C745.357,854.609,746.666,855.994,747.9,857.22Z" fill="#e9b2a8"/>
            </g>
            <g id="Group_117" data-name="Group 117">
              <path id="Path_130" data-name="Path 130" d="M732.174,863.156c.55,2.416-1.711,2.244-2.845,2.167-2.2.373-4.684.863-7.107,1.149-.792-4.593,2.943-6,6.1-7.166C729.684,860.62,731.039,861.94,732.174,863.156Z" fill="#e9b2a8"/>
            </g>
            <g id="Group_118" data-name="Group 118">
              <path id="Path_131" data-name="Path 131" d="M557.3,1090.537a49.332,49.332,0,0,1,3.7-4.357c1.99-1.861-.248-4.193-1.329-5.742,1.081,1.549,3.319,3.88,1.329,5.742A49.332,49.332,0,0,0,557.3,1090.537Z" fill="#e9b2a8"/>
            </g>
            <g id="Group_119" data-name="Group 119">
              <path id="Path_132" data-name="Path 132" d="M558.824,1092.845c-.366,1.418-2.154,2.53.993,5.506.074.921.158,1.952.232,2.872-.359,1.4-.876,2.718-1.238,4.112a27.556,27.556,0,0,1-3.325,2.5c.792,1.821-.966,3.245-.04,5.536-.654,1.243-1.393,2.456-1.936,3.746a7.419,7.419,0,0,0-5.114-.954l.272-.585c1-3.094,2.621-6.071,3.856-9.212,2.131-4.29,1.278-8.224,1.909-12.34.8-.756,1.45-1.592,2.245-2.348Z" fill="#e9b2a8"/>
            </g>
            <g id="Group_120" data-name="Group 120">
              <path id="Path_133" data-name="Path 133" d="M553.492,1140.857c-.976-.386-2.111-.833-3.077-1.213-.084-1.818-.158-3.45-.242-5.268-.268-1.895,2.3-1.243,4.325-1.482C554.247,1135.508,553.945,1138.219,553.492,1140.857Z" fill="#e9b2a8"/>
            </g>
            <g id="Group_121" data-name="Group 121">
              <path id="Path_134" data-name="Path 134" d="M781.839,839.663c-.936,5.876-6.486,4.361-9.9,6.225-.7-1.791-1.6-3.712-2.453-5.466C773.7,840.163,777.768,839.915,781.839,839.663Z" fill="#e29388"/>
            </g>
            <g id="Group_122" data-name="Group 122">
              <path id="Path_135" data-name="Path 135" d="M699.488,861.271c-.688,1.327,1.557,4.092-3.882,1.965a23,23,0,0,1,1.765-2.839Z" fill="#e29388"/>
            </g>
            <g id="Group_123" data-name="Group 123">
              <path id="Path_136" data-name="Path 136" d="M696.656,893.554c-.46,2.389-.97,4.935-1.366,7.341.517.914,1.117,1.972,1.634,2.883-1.369.39-2.533.87-3.9,1.27-.456.632-.792,1.1-1.245,1.73-1.252-.48-2.711-1.038-3.966-1.519-3.594,5.4-11.8,8.759-16.848,11.016-3.423-.85-6.248,3.971-12.66,5.332l-.9-1.28c3.171-2.133,5.728-3.843,6.979-8.876l-.869-1.31c-1.778,1.193-3.8,2.543-5.691,3.817-1.067.719-2.255,1.515-3.322,2.231.1.144.3.43.5.716-1.976.907-3.839,1.74-5.721,2.8-.2,1.189-.51,2.227-.822,3.487-1.329-.363-2.882-.789-4.215-1.152-.349,2.412-3.429,2.825-3.855,5.113l-5.463.884a7.549,7.549,0,0,0-.386-1.68c4.906-.675.842-7.008,5.5-4.2.923-.689,1.815-1.418,2.762-2.076,1.658-.91,3.416-1.676,4.953-2.5,1.144-1.613,2.2-3.366,3.251-5.133,1.621-.454,3.238-.917,4.949-1.22a24.053,24.053,0,0,1,1.409-3.05c1.567,0,3.248-.081,4.708-.218.389-1.475,1.835-2.177,6.235-1.972-.144,1.1-.305,2.167-.5,3.165,4.8.1,3.439-3.057,4.882-3.726,2.033-1.592,5.067-2.355,6.06-4.556,3.443-2.016,6.758-3.958,10.077-5.9,1.584-.951,3.067-1.791,4.741-2.594C694.639,892.788,695.582,893.144,696.656,893.554Z" fill="#e29388"/>
            </g>
            <g id="Group_124" data-name="Group 124">
              <path id="Path_137" data-name="Path 137" d="M626.2,936.9a33.176,33.176,0,0,0-2.752,3.2l-.557-.669a30.02,30.02,0,0,0-2.607,3.349c.342.4.674.793,1.02,1.2-.973.837-2.057,1.77-3.027,2.607-1.846,1.364-3.913,2.688-5.778,3.833-.517,1.135-.805,2.311-2.017,2.893-1.326.457-2.433.732-3.654,1.1,1.01-2.715-.409-4.717,3.329-7.485,2.2-1.441,4.288-2.778,6.362-4.344l.54-.47c1.2-1.7,2.46-3.555,3.711-5.214,1.258-.749,2.52-1.27,3.772-2.019,1.691-.171,3.265-.333,4.959-.507C628.367,935.236,627.341,936.026,626.2,936.9Z" fill="#e29388"/>
            </g>
            <g id="Group_125" data-name="Group 125">
              <path id="Path_138" data-name="Path 138" d="M600.731,927.428a13.053,13.053,0,0,1,.591,5.029c-1.362.484-2.5.783-3.748,1.179,1.815-1.119-1.289-2.345.423-5.91C598.909,927.627,599.825,927.529,600.731,927.428Z" fill="#e29388"/>
            </g>
            <g id="Group_126" data-name="Group 126">
              <path id="Path_139" data-name="Path 139" d="M589.484,974.191a100.086,100.086,0,0,0-6.872,9.447c-3.282,3.961-6.476,7.821-9.667,11.675-.7,1.287.45,3.386-1.46,4.193-1.03.622-1.929,1.357-2.97,1.979-2.037,3.692-3.775,7.411-5.7,11.14-1.7,1.556-3.4,3.124-4.969,4.8l2.231-6.954c2.711-3.319,1.228-6.38,6.573-10.539.909-2.049,1.866-3.874,2.825-5.715,1.336-3.024,2.658-4.74,3.788-7.8,1.973-1.922,4.077-3.719,6.275-5.614.07-3.276,3.956-4.2,5.708-4.9,1.285-.769,2.564-1.532,3.611-2.315Z" fill="#e29388"/>
            </g>
            <g id="Group_127" data-name="Group 127">
              <path id="Path_140" data-name="Path 140" d="M548.127,985.412c-.436.229-1.007.336-1.45.564-.151,1.838-.181,3.565-.181,5.51-.282.353-.564.7-.936,1.169a37.2,37.2,0,0,0-9.335,3.575,25.656,25.656,0,0,1-2.124-2.637c.859-1.075,1.812-2.268,2.674-3.349L540.5,985.6c1.842-.857.362-3.071,2.151-3.974,2.255.091,4.466-.03,6.708.084Z" fill="#e29388"/>
            </g>
            <g id="Group_128" data-name="Group 128">
              <path id="Path_141" data-name="Path 141" d="M545.644,1004.528c-.279.349-.557.7-.926,1.162l-.695-.538c-3,2.375-1.436,4.314-3.419,7.079-.742.924-1.658,2.637-3.248,1.283-2.812,2.18-1.574,4.556-1.067,7.1-4.859,4.169-6.265,10.395-10.214,14.5-3.825,4.236,3.775,7.021,6.741,9.457-.527,1.9-3.386,1.1-4.99,1.639-.446,1.771-.856,3.4-1.272,5.039a25.153,25.153,0,0,1,1.47,2.6c-.688,1.445-2.5,2.721.711,5.147-.527.857-.983,1.589-1.507,2.443l2.926,3.212a9.222,9.222,0,0,0-3.58,7.458c-.55,1.159-.933,2.57-1.433,3.914-4.043.548-1.695,4.273-1.5,8.349-.268.5-.466.874-.668,1.25-1.882-.195-3.543-.366-5.426-.558-.748,2.51-1.419,4.891-2,7.468.265,1.717.6,3.3,1.037,5.08a20.578,20.578,0,0,0-1.023,4.055c.631.292,1.419.662,2.208,1.028a23.627,23.627,0,0,0,.48,3.158c-.812,1.787-1.681,3.7-2.493,5.483,1.594,2.389,3.137,4.878,4.916,7.277-.228.5-.517,1.132-.8,1.76-4.181-1.31-4.365-.477-4.654.155.45,1.542,2.829,1.771,4.376,2.56,1.057,1.035,1.3,2.61.077,1.519-2.325-.356-6.11-.85-6.99,1.508-.074,1.327-.023,2.836.013,4.186-2.342,1.774-2.745,2.825-3.137,3.867-.54,1.438-1.134,3-1.678,4.441l-4.745-1.717a25.736,25.736,0,0,0-.638-3.245c-3.688-1.065-7.392-2.12-11.2-3.373l-.815-.3c.258-.685.463-1.233.721-1.915.1-.276.154-.413.255-.685,1.144-2.066,2.288-4.126,3.272-6.239.178-.4.359-.8.6-1.334.537-1.193,1.134-2.523,1.671-3.719-.386-1.26-1.752-2.459-1.047-3.595.359-.8.718-1.606,1.138-2.54,1.342-.857,2.584-1.9,3.98-2.879.856-2.328,2.9-4.744,2.617-7.912l-4.973-.837c-1.228,1.865-2.392,3.6-3.466,5.55-1.4-2.4.859-5.285-1.735-6.3.8-2.577,1.466-5.056,2.5-7.536.966-4.814.305-9.135,1.778-16.009-2.3,5.076-4.872,3.612-6.832,3.984a12.451,12.451,0,0,0-1.47-2.446,47.613,47.613,0,0,1,3.621-3.118c-1.859-.964-3.557-1.844-5.255-2.728.265-1.25.688-2.422.96-3.672a16.625,16.625,0,0,0,2.664.541c1.4-5.889,7.647-3.83,6.637-8.92l-.762-.427c.956-1.565,1.993-3.259,3.03-4.955.577-1.965,1.111-3.79,1.684-5.752a40.909,40.909,0,0,0-3.191-2.8c1.856-3.024,3.631-5.92,5.4-8.812,2.483.322,4.735.615,7.208.934,1.856,2.96-4.017,5.2.05,7.888l3.8-1.186c.638-1.367,2.02-2.617.728-4.5,3.238-6.494,5.661-11.221,8.7-16.815,1.648-2.338,3.382-4.8,5.03-7.136.842-.877,1.8-1.67,2.658-2.526,1.128-1.777,2.342-3.7,3.466-5.473,1.366-.843,2.6-1.613,3.96-2.452l.842-1.055c.883-.823-.064-2.147,3.862-3.43C543.969,1000.768,544.969,1001.192,545.644,1004.528Z" fill="#da766d"/>
            </g>
            <g id="Group_129" data-name="Group 129">
              <path id="Path_142" data-name="Path 142" d="M538.638,1002.693c-.936,1.176-1.778,2.234-2.718,3.41-1.124,1.777-2.339,3.7-3.466,5.473l-4.694-.625c.7,1.092,1.325,2.049,2.037,3.151-1.648,2.338-3.382,4.8-5.03,7.136-1.866-.376-3.644-.873-5.376-1.139a18.147,18.147,0,0,1,.95-2.866c1.443-2.543,2.872-5.066,4.389-7.737l.349-.5c1.443-2.338,2.812-4.562,4.258-6.914,1.98-1.377,3.728-2.725,5.469-4.075C536.047,999.529,537.285,1001.044,538.638,1002.693Z" fill="#e29388"/>
            </g>
            <g id="Group_130" data-name="Group 130">
              <path id="Path_143" data-name="Path 143" d="M552.7,1026.382c-6.607,5.406-7.969,9.753-8.02,14.339C544.731,1036.135,546.094,1031.787,552.7,1026.382Z" fill="#e29388"/>
            </g>
            <g id="Group_131" data-name="Group 131">
              <path id="Path_144" data-name="Path 144" d="M511.538,1043.741c-4.067-2.691,1.805-4.928-.05-7.888-2.473-.319-4.725-.612-7.208-.934a28.594,28.594,0,0,1,1.211-3.618,7.214,7.214,0,0,1,2.282-.363l3.507,2.251c2.825-2.52-.258-5.086,2.309-6.329,1.812-2.278,3.852-4.586,5.8-6.76,1.731.265,3.51.763,5.376,1.139-3.037,5.594-5.459,10.321-8.7,16.815,1.292,1.885-.091,3.135-.728,4.5Z" fill="#de847a"/>
            </g>
            <g id="Group_132" data-name="Group 132">
              <path id="Path_145" data-name="Path 145" d="M513.589,1026.859c-2.567,1.243.517,3.81-2.309,6.329l-3.507-2.251c1.231-1.767,2.55-3.662,3.782-5.426C512.136,1025.9,512.864,1026.379,513.589,1026.859Z" fill="#e29388"/>
            </g>
            <g id="Group_133" data-name="Group 133">
              <path id="Path_146" data-name="Path 146" d="M541.543,1052.523c-1.111,1.129-2.151,2.479-3.262,3.612l-1.336-.826c.151-1.566-.8-2.684,2.906-4.7A11.263,11.263,0,0,0,541.543,1052.523Z" fill="#e29388"/>
            </g>
            <g id="Group_134" data-name="Group 134">
              <path id="Path_147" data-name="Path 147" d="M545.812,1066.133l-6.429,2.453-.3.47a47.693,47.693,0,0,1-1.745,4.452c1,1.048,1.993,2.086,2.916,3.245-1.05,3.847,1.6,7.929-1.02,12.061,3.557,1.109-2.517,3.588,2.174,4.8,1.352,9.356-11.174,11.859-9.006,21.5-.456,1.414-2.091,2.906-1.265,4.435,2.466.047,3.04-2.029,5.161-1.236l2.389,1.052c-.221,1.771-.423,3.41-.644,5.181a15.982,15.982,0,0,1-3.013.729c-1.691-.9-3.537-1.885-5.231-2.788-3.493-6.165-4.688-9.44-3.312-12.871-.013-1.66-.121-3.527-.282-5.275-1.1,1.152-2.258,2.443-3.52,3.538-1.429-.655-3.013-1.377-4.439-2.033a23.627,23.627,0,0,1-.48-3.158c.564-1.283,1.171-2.553,1.789-3.659a33.7,33.7,0,0,1,2.708-3.212c.648-3.43.289-6.447,1.483-9.8l-.772-.4c.2-.376.4-.749.668-1.25l3.785-7.1a22.909,22.909,0,0,1,1.265-3.981,17.318,17.318,0,0,1,2.171-1.858,45.38,45.38,0,0,1,1.772-4.519,11.064,11.064,0,0,1-.01-1.643c.97-.9,1.866-2.019,2.829-2.923.748.447,1.5.9,2.094,1.253,1.483-.746,2.963-1.485,4.365-2.1C543.225,1063.059,544.506,1064.577,545.812,1066.133Z" fill="#e29388"/>
            </g>
            <g id="Group_135" data-name="Group 135">
              <path id="Path_148" data-name="Path 148" d="M497.791,1074.021c-1.473,6.874-.812,11.194-1.778,16.009-1.034,2.479-1.7,4.959-2.5,7.536,2.594,1.018.339,3.9,1.735,6.3,1.074-1.945,2.238-3.685,3.466-5.55l4.973.837c.285,3.168-1.762,5.584-2.617,7.912-1.4.974-2.637,2.023-3.98,2.879-.419.934-.779,1.737-1.138,2.54-.7,1.136.661,2.335,1.047,3.595-.537,1.2-1.134,2.526-1.671,3.719-1.292-.961-2.715-2.022-4.144-3.084-.527,1.216-1.188,2.54-1.668,3.934-.05.138-.158.413-.208.551-.651-.255-1.463-.571-2.272-.887-1.621-.638-3.084-1.213-4.7-1.848-4.369-.749-5.4,0-6.694-1a26.088,26.088,0,0,1-.6-3.353l4.792-.538c1.3-2.909,3.3-5.657,1.285-8.822l-3.842-1.636c1.128-2.516,2.195-4.895,3.322-7.415.5-2.8,1.1-5.392,1.758-8.13-.581-2.651.534-4.68,1.53-6.585.517-2.489,1.2-4.9,1.886-7.32l2.09-3.954c1.7.884,3.4,1.764,5.255,2.728a47.613,47.613,0,0,0-3.621,3.118,12.451,12.451,0,0,1,1.47,2.446C492.919,1077.632,495.492,1079.1,497.791,1074.021Z" fill="#de847a"/>
            </g>
            <g id="Group_136" data-name="Group 136">
              <path id="Path_149" data-name="Path 149" d="M477.268,1103.118l3.842,1.636c2.013,3.165.013,5.913-1.285,8.822l-4.792.538c.211-1.734.443-3.608.654-5.345C474.554,1107.472,476.618,1105,477.268,1103.118Z" fill="#e29388"/>
            </g>
            <g id="Group_137" data-name="Group 137">
              <path id="Path_150" data-name="Path 150" d="M495.328,1119.8c-.238.534-.419.934-.6,1.334-.983,2.113-2.127,4.173-3.272,6.239-.742-2-1.476-4.008-2.151-6.172.05-.138.158-.413.208-.551.48-1.394,1.141-2.718,1.668-3.934C492.613,1117.776,494.036,1118.838,495.328,1119.8Z" fill="#e29388"/>
            </g>
            <g id="Group_138" data-name="Group 138">
              <path id="Path_151" data-name="Path 151" d="M482.332,1118.465c1.621.635,3.084,1.209,4.7,1.848-1.44,1.344-2.822,2.563-4.047,3.854a16.547,16.547,0,0,1-2.184-1.63c-1.8-1.65-3.379-3.393-5.167-5.07C476.936,1118.462,477.963,1117.716,482.332,1118.465Z" fill="#e29388"/>
            </g>
            <g id="Group_139" data-name="Group 139">
              <path id="Path_152" data-name="Path 152" d="M491.3,1130.271c-.668,4.27.715,7.522-1.58,9.185l-2.463-.85a31.954,31.954,0,0,0-2.611-2.463c1.913-2.143,3.936-4.072,5.839-6.172Z" fill="#e29388"/>
            </g>
            <g id="Group_140" data-name="Group 140">
              <path id="Path_153" data-name="Path 153" d="M771.94,845.888c-1.567,1.354-2.986,2.654-4.584,3.83l-2.1.588c-.215-.659-.487-1.485-1.03-3.145.919-1.885,1.658-3.9,2.56-5.967.849-.242,1.842-.527,2.7-.773C770.339,842.176,771.235,844.1,771.94,845.888Z" fill="#e6a298"/>
            </g>
            <g id="Group_141" data-name="Group 141">
              <path id="Path_154" data-name="Path 154" d="M672.694,905.43c-1.443.668-.081,3.826-4.882,3.726.195-1,.356-2.063.5-3.165A40.411,40.411,0,0,1,672.694,905.43Z" fill="#e6a298"/>
            </g>
            <g id="Group_142" data-name="Group 142">
              <path id="Path_155" data-name="Path 155" d="M546.349,1120.625c-.339,2.829,1.094,5.98,3.493,8.245,1.762.749,3.684,1.566,5.449,2.318l-.792,1.707c-2.027.239-4.594-.413-4.325,1.482.084,1.818.158,3.45.242,5.268l-4.151-.954c-10.459-1.364.755-7.431-6.6-9.336-.272,1.018-.386,2.1-.664,3.108-1.819-1.445-3.335-.222-5.01-.749-.591-.376-.963-.813-1.389-1.125l2.154-4.707.279-.6a15.982,15.982,0,0,0,3.013-.729c5.5,1.347,4.99-2.12,6.174-3.45A7.81,7.81,0,0,0,546.349,1120.625Z" fill="#e6a298"/>
            </g>
            <g id="Group_143" data-name="Group 143">
              <path id="Path_156" data-name="Path 156" d="M489.308,1121.2c.674,2.164,1.409,4.173,2.151,6.172-.1.272-.154.41-.255.685-2.691-1.277-5.526-2.617-8.214-3.89,1.225-1.29,2.607-2.51,4.047-3.854C487.845,1120.629,488.657,1120.944,489.308,1121.2Z" fill="#e6a298"/>
            </g>
            <g id="Group_144" data-name="Group 144">
              <path id="Path_157" data-name="Path 157" d="M541.721,1146.084l.658.239c-.272.716-.591,1.549-.862,2.264l-5.278.158c.507-1.327,1.057-2.775,1.564-4.1Z" fill="#e6a298"/>
            </g>
            <g id="Group_145" data-name="Group 145">
              <path id="Path_158" data-name="Path 158" d="M532.453,1011.576c-.862.857-1.815,1.65-2.658,2.526-.711-1.1-1.332-2.059-2.037-3.151Z" fill="#de847a"/>
            </g>
            <g id="Group_146" data-name="Group 146">
              <path id="Path_159" data-name="Path 159" d="M502.069,1046.529c-.574,1.962-1.107,3.786-1.684,5.752-1.037,1.7-2.074,3.39-3.03,4.955l.762.427c1.01,5.09-5.235,3.03-6.637,8.92a16.625,16.625,0,0,1-2.664-.541c.879-4.945.735-8.224,3.141-10.959,2.335-3.83,4.59-7.525,6.922-11.352A40.909,40.909,0,0,1,502.069,1046.529Z" fill="#de847a"/>
            </g>
            <g id="Group_147" data-name="Group 147">
              <path id="Path_160" data-name="Path 160" d="M517.088,1068.289c-.782,1.233-1.4,2.547-2.037,3.692-1.4.4-2.882.591-4.218.873-5.4,5.318-1.225,11.557-7.211,15.434-.624-.306-1.094-.534-1.564-.763.768-2.58,1.48-5.029,2.111-7.693.862-4.546,4.614-9.948,7.755-14.426C513.6,1066.341,515.417,1067.356,517.088,1068.289Z" fill="#de847a"/>
            </g>
            <g id="Group_148" data-name="Group 148">
              <path id="Path_161" data-name="Path 161" d="M523.749,1086.018c-1.195,3.356-.836,6.373-1.483,9.8a33.7,33.7,0,0,0-2.708,3.212c-.617,1.105-1.225,2.375-1.789,3.659-.789-.366-1.577-.736-2.208-1.028a20.578,20.578,0,0,1,1.023-4.055c-.44-1.781-.772-3.363-1.037-5.08.584-2.577,1.255-4.959,2-7.468,1.882.192,3.543.363,5.426.558Z" fill="#de847a"/>
            </g>
            <g id="Group_149" data-name="Group 149">
              <path id="Path_162" data-name="Path 162" d="M526.209,1104.345c1.973,3.659,1.527,4.633.282,5.275-1.376,3.43-.181,6.706,3.312,12.871l-3.574,4.058c-.919-.084-1.782-.289-2.7-.37l-3.862-1.576c1.218,1.092.98-.484-.077-1.519-1.547-.789-3.926-1.018-4.376-2.56.289-.632.473-1.465,4.654-.155.285-.628.574-1.257.8-1.76-1.778-2.4-3.322-4.888-4.916-7.277.812-1.784,1.681-3.7,2.493-5.483,1.426.655,3.01,1.377,4.439,2.033C523.95,1106.787,525.1,1105.5,526.209,1104.345Z" fill="#de847a"/>
            </g>
            <g id="Group_150" data-name="Group 150">
              <path id="Path_163" data-name="Path 163" d="M525.061,1133.049c-.144.38-.289.753-.48,1.256,1.3,2.036,2.678,4.186,3.98,6.219l-.232.621c-.594,2.039-1.013,4.146-1.44,6.242-1.47,1.471-3.03,3.027-4.506,4.5l-1.487-.5c-2.966-.007-5.9-.121-8.828-.218-2.043-1.976-3.866-4.048-5.728-6.01a16.123,16.123,0,0,0-2.09.618l-.738,1.969c-3.067,2.237-6.332-.45-9.449-1.035-.688-1.139-1.49-2.469-2.174-3.608.946-1.048-.121-2.174-2.171-3.649,2.3-1.663.913-4.915,1.58-9.185,3.805,1.253,7.51,2.308,11.2,3.373a25.736,25.736,0,0,1,.638,3.245l4.745,1.717c.544-1.441,1.138-3,1.678-4.441.393-1.042.8-2.093,3.137-3.867l.812.313,4.906,1.31c1.05-.326,2.1-.645,3-1.025C522.6,1131.658,523.81,1132.417,525.061,1133.049Z" fill="#de847a"/>
            </g>
            <g id="Group_151" data-name="Group 151">
              <path id="Path_164" data-name="Path 164" d="M548.157,1147.774a24.843,24.843,0,0,0,.57,3.4l-7.211-2.59c.272-.716.591-1.549.862-2.264C544.224,1146.867,546.278,1147.351,548.157,1147.774Z" fill="#de847a"/>
            </g>
            <g id="Group_152" data-name="Group 152">
              <path id="Path_165" data-name="Path 165" d="M566.243,966.672l-1.094,8.721c-.1.111-.3.333-.5.554a15.567,15.567,0,0,1-2.191-.171c-1.168-1.048-2.463-2.211-3.634-3.259l5.768-6.363A7.123,7.123,0,0,1,566.243,966.672Z" fill="#da766d"/>
            </g>
            <g id="Group_153" data-name="Group 153">
              <path id="Path_166" data-name="Path 166" d="M535.034,1125.278l-.279.6-2.154,4.707c-1.034-.238-2.258-.517-3.288-.756-1.067-1.008-2.081-2.14-3.084-3.282l3.574-4.058C531.5,1123.393,533.343,1124.375,535.034,1125.278Z" fill="#da766d"/>
            </g>
            <g id="Group_154" data-name="Group 154">
              <path id="Path_167" data-name="Path 167" d="M535.225,1139.657c-.185.491-.322.857-.463,1.223a16.454,16.454,0,0,0-2.285,1.1l-3.916-1.455c-1.3-2.033-2.678-4.183-3.98-6.219.191-.5.336-.877.48-1.256l.812.319c2.574.571,4.99,1.089,7.449,1.488C533.987,1136.53,534.5,1138.129,535.225,1139.657Z" fill="#da766d"/>
            </g>
            <g id="Group_155" data-name="Group 155">
              <path id="Path_168" data-name="Path 168" d="M548.4,1116.16a37.975,37.975,0,0,1,.929,3.823c1.842.6,3.822,1.257,5.664,1.865-.58,1.26-1.218,2.641-1.8,3.9.372,1.27,1.708,1.713,2.3,2.926.057.709-.044,1.347.067,1.938l-.262.571c-1.765-.753-3.688-1.569-5.449-2.318-2.4-2.264-3.832-5.416-3.493-8.245a7.81,7.81,0,0,1-2.127.474l-1.3,2.839c.305,2.674-2.9,1.734-4.872.611.221-1.771.423-3.41.644-5.181l-2.389-1.052c.228-.921.242-1.784.47-2.7.1-4.206,5.6-2.678,7.134-7.193,2.04.249,1.574,2.211,2.359,2.58a20.353,20.353,0,0,0-.087,4.136C546.812,1115.428,547.607,1115.794,548.4,1116.16Z" fill="#e9b2a8"/>
            </g>
            <g id="Group_156" data-name="Group 156">
              <path id="Path_169" data-name="Path 169" d="M554.989,1121.848q1.9.857,3.812,1.72c-1.107,1.71-2.2,3.4-3.315,5.11-.587-1.213-1.923-1.656-2.3-2.926C553.771,1124.489,554.409,1123.108,554.989,1121.848Z" fill="#eec5bb"/>
            </g>
            <g id="Group_157" data-name="Group 157">
              <path id="Path_170" data-name="Path 170" d="M704.863,935.048c-1.117.645-2.121,1.223-3.235,1.868C702.719,936.489,700.222,934.111,704.863,935.048Z" fill="#f3d7d0"/>
            </g>
            <g id="Group_158" data-name="Group 158">
              <path id="Path_171" data-name="Path 171" d="M561.834,1113.634a7.527,7.527,0,0,1,.131,5.241,9.008,9.008,0,0,1-3.164,4.693q-1.913-.867-3.812-1.72a43.256,43.256,0,0,1,3.681-5.678C559.663,1115.374,560.75,1114.5,561.834,1113.634Z" fill="#f3d7d0"/>
            </g>
            <g id="Group_159" data-name="Group 159">
              <path id="Path_172" data-name="Path 172" d="M554.5,1075.882c.779,3.7.013,4.932-.762,6.178C546.4,1080.371,550.617,1076.537,554.5,1075.882Z" fill="#e9b2a8"/>
            </g>
            <g id="Group_160" data-name="Group 160">
              <path id="Path_173" data-name="Path 173" d="M711.97,900.844a34.6,34.6,0,0,0-3.6-.924c-.081-1.9-1.131-4.5,1.346-4.576a28.563,28.563,0,0,0,3.372-.716C714.685,897.733,710.725,896.984,711.97,900.844Z" fill="#e9b2a8"/>
            </g>
            <g id="Group_161" data-name="Group 161">
              <path id="Path_174" data-name="Path 174" d="M606.832,954.406c-1.1.719-.352,2.375-.517,3.665-1.1.494-2.084,1.119-3.188,1.619l-1.57,5.167c-.9-.1-1.57-.182-2.235-.255-.544,2.715-3.523,4.156-5.221,6.3-1.52.507-2.913,1.149-4.214,1.687.825-.806.218-2.406.218-3.625l6.909-6.736c.825-.8,1.648-1.623,5.516-3.168C603.6,957.9,602.6,955.767,606.832,954.406Z" fill="#e29388"/>
            </g>
          </g>
        </g>
      </g>
    </g>
  </g>
</svg>
