<svg xmlns="http://www.w3.org/2000/svg" width="157.315" height="193.845" viewBox="0 0 157.315 193.845">
  <g id="Vector_Smart_Object" data-name="Vector Smart Object" transform="matrix(0, -1, 1, 0, -242.256, 847.572)">
    <g id="Group_83" data-name="Group 83">
      <path id="Path_88" data-name="Path 88" d="M846.944,398.945l-36.08-36.175c-7.529-7.548-15.19-15.28-19.913-24.852-3.353-6.8-5.1-14.293-8.394-21.121C773.5,298,754.171,286.673,735.329,277.851s-38.979-16.745-52.974-32.183C694.313,262,699.131,282.787,711.4,298.883c18.612,24.426,50.48,33.641,80.113,41.414" fill="none" stroke="#484f5b" stroke-miterlimit="10" stroke-width="1.774"/>
      <path id="Path_89" data-name="Path 89" d="M688.946,252.833c26.737,35.975,75.315,50.631,101.247,87.2" fill="none" stroke="#484f5b" stroke-miterlimit="10" stroke-width="1.774"/>
      <path id="Path_90" data-name="Path 90" d="M787.944,335.988c-12.43-11.675-14.181-31.563-26.356-43.5" fill="none" stroke="#484f5b" stroke-miterlimit="10" stroke-width="1.774"/>
      <path id="Path_91" data-name="Path 91" d="M779.722,327.262c-4.822-4.471-9.679-8.977-13.536-14.309-3.921-5.418-6.718-11.563-10.235-17.255s-7.976-11.106-14.029-13.92" fill="none" stroke="#484f5b" stroke-miterlimit="10" stroke-width="1.774"/>
      <path id="Path_92" data-name="Path 92" d="M756.49,308.18c-5.866-4.174-9.277-10.9-12.751-17.219s-7.582-12.831-14.082-15.916" fill="none" stroke="#484f5b" stroke-miterlimit="10" stroke-width="1.774"/>
      <path id="Path_93" data-name="Path 93" d="M744.91,298.627c-13.662-5.535-18.456-23.542-31.513-30.391" fill="none" stroke="#484f5b" stroke-miterlimit="10" stroke-width="1.774"/>
      <path id="Path_94" data-name="Path 94" d="M722.883,284.728c-8.92-6.437-13.623-17.482-22.405-24.109" fill="none" stroke="#484f5b" stroke-miterlimit="10" stroke-width="1.774"/>
      <path id="Path_95" data-name="Path 95" d="M770.112,381.695q-4.716-15.673-9.43-31.349c-.882-2.929-1.809-5.946-3.762-8.3-3.08-3.71-8.067-5.059-12.66-6.492-13.522-4.218-26.466-10.968-36.5-21-10.887-10.882-17.829-25-26.147-37.964a198.143,198.143,0,0,0-27.261-33.71" fill="none" stroke="#484f5b" stroke-miterlimit="10" stroke-width="1.774"/>
      <path id="Path_96" data-name="Path 96" d="M762.67,378.174l-7.307-23.85a28.507,28.507,0,0,0-3.259-7.784c-4.806-7.1-14.462-8.3-22.687-10.63a61.592,61.592,0,0,1-28.88-18.042c-2.368-2.641-4.6-5.564-7.725-7.226s-7.53-1.614-9.7,1.2c-3.052,3.966.207,9.462,2.321,14,5.068,10.882,2.914,23.757-.92,35.139s-9.272,22.39-10.655,34.325" fill="none" stroke="#484f5b" stroke-miterlimit="10" stroke-width="1.774"/>
    </g>
  </g>
</svg>
