<svg xmlns="http://www.w3.org/2000/svg" width="315.048" height="399.445" viewBox="0 0 315.048 399.445">
  <g id="Brush" transform="translate(2.584 0.113)">
    <g id="Vector_Smart_Object" data-name="Vector Smart Object" transform="matrix(0.998, -0.07, 0.069, 0.998, -89.441, -616.366)">
      <g id="Group_81" data-name="Group 81" opacity="0.5">
        <g id="Group_80" data-name="Group 80" opacity="0.9">
          <g id="Group_79" data-name="Group 79" opacity="0.9">
            <g id="Group_1" data-name="Group 1">
              <path id="Path_3" data-name="Path 3" d="M73.838,627.239c-3.281.3-4.865,2.1-8.7,1.534q.159-2.912.315-5.816C70.219,622.832,76.69,624.005,73.838,627.239Z" fill="#eec4bb"/>
            </g>
            <g id="Group_2" data-name="Group 2">
              <path id="Path_4" data-name="Path 4" d="M162.471,649.04a44.3,44.3,0,0,0,1.349,6.487,25.386,25.386,0,0,0-1.463,4.331l-.008,1.123c-.577,2.039-.91,4.071-1.447,6.121.04,1.375.082,2.866.122,4.243l-1.458.784a21.14,21.14,0,0,1,1.577,3.968,28.675,28.675,0,0,1-2.624,1.568,43.455,43.455,0,0,0,4.254,1.865c.066,1.369.14,2.863.206,4.232.3-.042.9-.122,1.484-.2a78.082,78.082,0,0,0,2.1,9.821c-.225,5.668-.18,11.32.082,16.973l-4.363.861c.106,1.131.294,2.37.45,3.618,1.45-.3,2.91-.6,4.363-.9a90.543,90.543,0,0,0,2.675,9.072c.191,1.226.384,2.455.553,3.56-4.68,4.574.675,2.4.55,3.565-1.212,1.7-2.484,3.443-3.638,5.289.09.5.2,1.112.317,1.73-.661,1.478-1.259,2.808-1.921,4.283a35.246,35.246,0,0,1,.968,5.146c.222,1.608.347,3.133.439,4.638a52.1,52.1,0,0,0,1.013,9.167c2.1,3.637,7.093,10.515-.476,16.215,4.643,1.2,3.939,4.429,4.947,6.791-4.2,1.454-1.659,2.688-2.982,4.444l.728,2.355c.378,1.242.722,2.36,1.1,3.6.328,1.128.717,2.365,1.153,3.586,1.344,3.92,2.59,7.911,4.037,11.81a25.683,25.683,0,0,0,.146,4.648,24.794,24.794,0,0,0,2.886,3.539c.765,1.221,1.833,2.291,2.638,3.483a49.886,49.886,0,0,1,4.326,2.768l.241.6a32.222,32.222,0,0,0,3.421,4.468,43.509,43.509,0,0,0,3.81,4.956,21.022,21.022,0,0,0,.2,4.142c5.273-1.144,5.156,1.952,4.942,4.3,2.048,2.813,3.953,5.7,5.828,8.608,2.109.217,4.468.265,6.508.336-1.4,1.163-3.053,2.49-4.505,3.544,2.027,2.662,3.736,5.366,5.886,7.943l7.215-4.736c3.135.789,7.386-1.319,8.916-1.605.9,1.025,2.042,1.878,2.934,2.9.511,4.982-.13,8.523,4.18,7.093,1.2.869,2.328,1.756,3.418,2.665,1.1.893,2.206,1.785,3.331,2.7-.444,5.385,1.381,7.138,4.587,4.471.466.715.833,1.356,1.32,2.061l3.3,4.855c-.526,5.014,3.5,2.508,4.68,2.145.862,1.332,1.839,2.577,2.685,3.777,1.148,1.581,2.37,3.26,3.447,4.746,1.061,3.456,3.339.622,5.056,1.846.005,1.462.1,3.019-.024,4.791l.675.874c4.826-2.956,4.921.064,5.1,1.748l.675.871c4.315-3.1,4.408-.7,4.384.67,1.508-.956,3.024-1.923,4.823-3a43.614,43.614,0,0,0,.786,5.61c.77.932,1.466,1.775,2.236,2.7l4.669-3.2c.159,1.534.331,3.07.431,4.524a51.384,51.384,0,0,0,3.212,5.877c-2.122,2.561-4.371,5.279-6.495,7.843a46.18,46.18,0,0,0-4.831.784l-.413-.469c1.794-2.431,3.392-4.646,5.117-7.162-.648-.731-1.22-1.375-2.278-2.564-3.339,1.152-3.6-1.383-6.254-.453a27.185,27.185,0,0,0-.177-4.839c-1.278-.628-2.349-1.459-3.643-2.082-1.111.056-2.3.016-3.421.058-5.889,4.095-5.651,1.436-6.937.773-.865.81-1.947,1.822-3.04,2.847-.233-.3-.463-.6-.77-1a41.8,41.8,0,0,1-2.243-5.268c-.664-2.765-5.185.109-7.855,1.444a22.03,22.03,0,0,1-3.315-2.005,12.226,12.226,0,0,1-.307-2.932c-1.212.363-2.109.633-3.013.9a89.571,89.571,0,0,1-4.032-10.875c-2.116.569-3.939,1.057-5.844,1.43-.2-1.8-.415-3.742-.63-5.689a27.733,27.733,0,0,0-3.8-3.186l-1.034-1.616-2.138,1.61a36.761,36.761,0,0,1-1.767-5.538c.717-.53,1.439-1.059,2.151-1.581-.373-4.108-4.156-1.21-6.177-2.294a23.412,23.412,0,0,1-3.46-2.892c-5.516,5.22-5.077,8.812-.548,7.173.267.442.471.779.672,1.115-.984,2.336-1.86,4.415-2.844,6.754-10.754,2.227-6.254-5.79-12.067-6.253-1.566-3.9-12.67,2.847-9.191-4.839.685-4.807-1.161-6.293-5.4-4.254-2.262-3.072-4.606-6.264-6.688-9.617,3.918-3.441-.495-2.386-.447-4.307-6.3-.49-7.177-4.187-7.844-7.89-.659-3.74-1.235-7.414-7.461-8.261,2.389-4.932-1.619-4.683-4.392-6.7a52.559,52.559,0,0,1-1.161-6.751c-9.545.691,2.336-8.936-3.053-11.5-.18-2.153-.209-4.214-.569-6.124-1.683-2.2-8.461-3.687-3.7-6.235-1.318-2.116,5.68-5.649,2.188-7.858-4.691-2.079-3.14-8.126-8.439-8.627,1.754-3.091-.249-5.832-1.979-8.764-1.648-2.953-3.04-6.089-.1-9.641-6.074-2.034-3.982-9.641-5.971-14.358l-.608-3.189c3.169-.734,2.273-2.294,2.1-3.215-.468-.845.746-2.41-1.934-2.257-2.283.742-1.2-1.52,3.611-4.794l1.434-.368c1.931.6,3.831,1.065,6.056,1.7,3.706-2.725,3.46-3.991,6.106-6.126-1.484.109-2.942.342-4.423.448a49.371,49.371,0,0,0-4.529-2.116l5.087-3.764c2.675-3.944-5.733-.246-7.537-2.124,2-2.341,4.111-4.815,6.177-7.112-2.55-3.716,3.347-8.3-1.36-11.055,2.273-.959,4.574-1.785,6.865-2.6a17.692,17.692,0,0,0-1.844-3.414c.36-2.135.735-4.256.894-6.343-4.479-.411-6.527-3.745-.378-4.821-.151-2.029-.339-4.047-.423-6.087-2.415-.938-4.831-1.767-7.257-2.741-5.246,1.621-8.638-.7-7.275-2.85,1.778-.6,3.762-1.263,5.532-1.859-.944-.792-1.847-1.465-2.757-2.275,1.452-.951,2.606-1.992,4.064-2.929-.021-.776-.048-1.677-.069-2.45-.037-1.287-.069-2.442-.106-3.727a10.179,10.179,0,0,0-4.212-4.529l-5.627.493c-2.066-.742-3.849-1.383-5.929-2.01-1.2-3.366,2.005-6.126,2.976-9.209,3.029-4.4,10.119-3.221,14.291-3.992l.05-3.072c2.979-.665,5.656-1.428,8.638-2.2C162.587,643.96,162.817,646.664,162.471,649.04Z" fill="#eec4bb"/>
            </g>
            <g id="Group_3" data-name="Group 3">
              <path id="Path_5" data-name="Path 5" d="M52.981,676.615c3.611,2.606,2.537,4.227-.966,5.97C48.343,680.472,44.975,677.317,52.981,676.615Z" fill="#eec4bb"/>
            </g>
            <g id="Group_4" data-name="Group 4">
              <path id="Path_6" data-name="Path 6" d="M86.339,687.6c1.505.411,2.736.991,4.265,1.531-1.685,5.769,4.974,9.485,1.138,15.876,10.167.607,11.283-3.6,16.977-3.165,4.466.019,1.394,2.328,4.45,3.25l1.468-.236c8.035.1,10.371-.31,12.709-.691a37.535,37.535,0,0,0,3.363,4.068c-2.788,1.714-5.273,3.531-8.064,5.289-6.8.538-3.045-3.353-8.9-2.333-.987-.816-1.968-1.494-2.923-2.326-6.582,5.657-4.31,9.474-4.495,13.238l-5.2,3.769c-1.823-.077-3.921-.1-5.73-.342-.677-.755-1.1-1.711-1.77-2.469a79.771,79.771,0,0,0-2.426-7.975c-.452-1.25-1.119-2.177-1.524-3.29-2.974-.093-5.953-.058-8.633-.077l-4.8-3.6a50.72,50.72,0,0,0,2.489-5.326c.992-2.535-2.027-3.6-3.341-5.379l-.085-1.338c1.013-2.527,1.733-5.154,2.484-7.474Z" fill="#f3d7d0"/>
            </g>
            <g id="Group_5" data-name="Group 5">
              <path id="Path_7" data-name="Path 7" d="M68.5,649.385c1.458,3.21,2.939,6.4,4.384,9.713.86,2.612,1.778,5.064,2.722,7.652l.024,1.324c-2.654.948-5.6,1.931-8.551,2.924-1.127,3.4,6.543,1.1,8.654,2.839.6,2.466,1.077,5.083,1.749,7.684-.54,1.242-.794,2.3-1.323,3.7-2.627.882-5.548,1.957-8.466,3.046-.151,3.486-.111,7.615,7.611,7.808l.085,1.338c1.315,1.777,4.333,2.845,3.341,5.379a50.72,50.72,0,0,1-2.489,5.326l4.8,3.6c.172,1.621.267,3.255.5,5.016,2.463.633,7.442-.244,9.659-1.65a79.771,79.771,0,0,1,2.426,7.975c-4.683.879-9.336,1.753-14.022,2.635-4.513,3.655-3.728,6.643-2.368,9.7s3.185,6.224,1.05,10.494c-1.646,4.4-.156,7.782,1.085,11.024,1.259,3.247,2.381,6.341-.119,10.481a32.473,32.473,0,0,1-4.228-7.766c-.982-2.678-1.677-5.387-2.36-8-1.413-5.218-2.542-10.078-5.778-13.725.6-.122.878-.18,1.458-.3-2.566-4.823,1.495-11.344-.7-17.113-2.471-2.961-5.894-5.377.72-7.5l-.331-3.623a6.632,6.632,0,0,1-1.606-1.139,27.438,27.438,0,0,1,1.029-5.353c-2.654.371-4.7.657-7.072.985a15.048,15.048,0,0,0-7.516-5.676c-.421-5.252-.622-10.359-.852-15.6,3.5-1.743,4.577-3.364.966-5.97,2.093-10.674,4.394-21.038,7.05-31.241C62.952,646.781,65.883,648.01,68.5,649.385Z" fill="#e29288"/>
            </g>
            <g id="Group_6" data-name="Group 6">
              <path id="Path_8" data-name="Path 8" d="M52.867,698.188a15.048,15.048,0,0,1,7.516,5.676c2.368-.328,4.418-.614,7.072-.985a27.438,27.438,0,0,0-1.029,5.353,6.632,6.632,0,0,0,1.606,1.139l.331,3.623c-6.614,2.124-3.191,4.54-.72,7.5,2.2,5.769-1.865,12.29.7,17.113-.579.122-.862.18-1.458.3,3.236,3.647,4.365,8.507,5.778,13.725.683,2.612,1.378,5.321,2.36,8a32.473,32.473,0,0,0,4.228,7.766c2.5-4.14,1.378-7.233.119-10.481-1.241-3.242-2.73-6.619-1.085-11.024,2.135-4.27.315-7.424-1.05-10.494s-2.146-6.047,2.368-9.7c4.685-.882,9.339-1.756,14.022-2.635.675.758,1.093,1.714,1.77,2.469a46.82,46.82,0,0,0-3.606,4.272c-.272,2.291,4.18-.1,5.841,1.033.262,1.87.505,3.592.767,5.456.505,3.891,1.267,7.734,1.918,11.76,2.651,1.444,1.706,4.8,2.807,7.22a37.025,37.025,0,0,0-2.074,4.754c-3.3,4.67-3.556,6.455-1.6,7.12-.852,1.613-1.952,3.464-3.087,5.181a24.454,24.454,0,0,0,3.519,2.055,44.732,44.732,0,0,0-1.767,5.639c1.839,1.454,3.77,2.871,5.371,4.373.148,1.812.061,3.862.27,5.822l.894,3.451c-7.611,4.81,4.659,1.224,1.95,6.863a17.354,17.354,0,0,1,2.722-.183c5.783.739,3.373,5.506,5.159,7.053-.944,1.933-1.929,3.735-2.863,5.687.183,1.518.034,3.019.214,4.556,1.46,1.663,2.976,3.459,4.5,5.077.1.278.153.418.251.7a78.279,78.279,0,0,1,1.251,8.041c1.032,4.77,5.045,3.321,8.127,4.834-1.209,5.109,2.574,4.193,3.421,5.573-1.011,4.884-.45,5.957-.021,7.064,1.267,3.019,2.593,6.182,3.857,9.2,1.672.148,4.371-.418,4.857.662.241.54.421.943.6,1.348a31.9,31.9,0,0,1,.471,4.609c-.3,2.159-2.042,7.045,2.206,7.588.8,2.964,1.534,5.808,2.548,8.5a21.489,21.489,0,0,1,3.783,2.733,36.69,36.69,0,0,0,3.733,2.847c1.746,1.375,3.468,2.747,5.527,4.074.569,3.655,2.175,5.1,3.868,6.113s3.476,1.6,4.574,3.52c2.423,1.213,4.767,2.461,7.233,3.6,1.87,1.369,3.675,2.593,5.463,3.819-.746,1.6,2.093,1.714,2.2,3.6,1.4,9.421,5.86,11.683,11.49,12.237a50.939,50.939,0,0,0,6.315,3.835c.831,1.184,1.659,2.365,2.4,3.427-.6,5.35,1.511,4.2,3.288,4.577q1.02-.858,2.05-1.722c1.206,1.613,2.415,3.223,3.706,4.948a6.586,6.586,0,0,1,1.55-.395c.331,1.42.971,2.768,1.3,4.2a11.825,11.825,0,0,0,1.982.167,27.308,27.308,0,0,0,4.132,2.821,13.748,13.748,0,0,0,.6,3.131,28.9,28.9,0,0,0,3.693,2.243c1.691,2.145,3.45,4.217,5.228,6.277-2.447-.122-5.212.524-7.058.477-1.818-.074-2.714-.84-1.423-3.721-1.122-.93-2.468-1.653-3.5-2.474-3.913-.151-5.791-2.41-6.339-5.594l-6.148,3.655c-.619-.821-1.151-1.531-1.773-2.355-5.431,4.116-5.574,1.475-6.786.36-1.495.493-2.9,1.094-4.3,1.69-1.675-.75-3.384-1.473-5.1-2.4.585-2.251,3.971-6.174,1.934-7.014-5.344,3.748-14.654,13.683-17.149,8.121-2.281-5.647-8.926-8.393-10.41-15.389-3.667.4-7.455,1.584-8.151-2.341,2.984-1.944,1.434-3.308.78-4.365-2.116-2.866-5.879-1.033-6.7-5.194a15.882,15.882,0,0,1,.45-2.19c-4.863.466-6.2,1.714-7.807.71-1.389,5.284,1.077,4.222,1.463,5.48l.738,1.218c.077,1.87.148,3.557.225,5.43-.841-1.353-1.6-2.569-2.439-3.92-3.2,1.605-6.148,3.027-9.1,4.431l-1.23-2.1a43.692,43.692,0,0,1,2.6-12.666c-.317-.551-.558-.961-.8-1.377a66.522,66.522,0,0,1-7.035-1.03c.024-.591.3-1.327.323-1.907l-4.106-2c-.767-1.42-1.532-2.839-2.222-4.116a6.066,6.066,0,0,1-1.664.053c-.77-1.417-1.442-2.707-2.151-4.164a35.122,35.122,0,0,1,.831-4.942l7.207-4.153a30.487,30.487,0,0,0,1.945-2.744l-.355-.707c-3.691-.771-7.162-1.727-10.873-2.585a17.2,17.2,0,0,0-2.008,2.016c-1.1-3.054-1.844-6.1-2.86-8.984a56.3,56.3,0,0,0-5.635-2.291,91.143,91.143,0,0,1-.725-9.13c-5.722-3.565-8.987-6.709-6.289-11.3-.77-2.808-1.222-5.57-1.72-8.481-.283-.734-.571-1.481-.8-2.069a13.233,13.233,0,0,1-2.442-2.4c.389-1.549.828-2.945,1.175-4.635a24.524,24.524,0,0,0-7.6-.079c-.18-2.357-.487-4.818-.892-7.061q-2.429-5.336-4.9-10.764c-1.619-3.623-3.109-7.318-4.669-10.992-1.259-2.249-6.254-2.238-7.5-4.709-.122-.466-.243-.932-.407-1.557,1.04-1.867,2.045-3.875,3.09-5.716-.939-3.541-1.841-6.929-2.611-10.343a56.275,56.275,0,0,1-3.005-6.4c-.217-.927-.474-2.013-.693-2.943a473.931,473.931,0,0,1-7.818-56.315c6.823-5.26,1.122-3.494-.487-4.505.471-4.5.873-9.117,1.4-13.723C54.057,702.564,53.309,700.32,52.867,698.188Z" fill="#df837a"/>
            </g>
            <g id="Group_7" data-name="Group 7">
              <path id="Path_9" data-name="Path 9" d="M89.675,711.8c.4,1.112,1.071,2.039,1.524,3.29-2.217,1.406-7.2,2.283-9.659,1.65-.23-1.761-.325-3.4-.5-5.016C83.722,711.741,86.7,711.707,89.675,711.8Z" fill="#eec4bb"/>
            </g>
            <g id="Group_8" data-name="Group 8">
              <path id="Path_10" data-name="Path 10" d="M142.536,664.6a10.179,10.179,0,0,1,4.212,4.529c.037,1.285.069,2.439.106,3.727.021.773.048,1.674.069,2.45.886.159,1.778.188,2.963.31-2.336.909-4.68,1.822-7.027,2.62.91.81,1.812,1.483,2.757,2.275-1.77.6-3.754,1.263-5.532,1.859-1.362,2.145,2.029,4.471,7.275,2.85,2.426.975,4.841,1.8,7.257,2.741.085,2.039.272,4.058.423,6.087-6.148,1.075-4.1,4.41.378,4.821-.159,2.087-.534,4.209-.894,6.343a17.692,17.692,0,0,1,1.844,3.414c-2.291.816-4.593,1.642-6.865,2.6,4.706,2.752-1.191,7.339,1.36,11.055-2.066,2.3-4.18,4.77-6.177,7.112,1.8,1.878,10.212-1.82,7.537,2.124l-5.087,3.764a49.371,49.371,0,0,1,4.529,2.116c1.482-.106,2.939-.339,4.423-.448a10.512,10.512,0,0,0,1.656.9c-2.683,1.748-5.392,3.385-7.762,5.223-2.521-.556-4.995-.871-7.49-1.33-4.807,3.274-5.894,5.536-3.611,4.794,2.68-.154,1.466,1.412,1.934,2.257.172.922,1.069,2.482-2.1,3.215l.608,3.189c1.99,4.717-.1,12.324,5.971,14.358-2.939,3.552-1.548,6.688.1,9.641,1.73,2.932,3.733,5.673,1.979,8.764,5.3.5,3.749,6.547,8.439,8.627,3.492,2.209-3.505,5.742-2.188,7.858-4.759,2.548,2.019,4.037,3.7,6.235.36,1.91.389,3.97.569,6.124,5.389,2.567-6.492,12.194,3.053,11.5a52.559,52.559,0,0,0,1.161,6.751c2.773,2.018,6.781,1.769,4.392,6.7,6.225.848,6.8,4.521,7.461,8.261.667,3.7,1.542,7.4,7.844,7.89-.048,1.92,4.365.866.447,4.307,2.082,3.353,4.426,6.545,6.688,9.617,4.244-2.039,6.09-.554,5.4,4.254-3.479,7.686,7.625.943,9.191,4.839,5.812.464,1.312,8.481,12.067,6.253.984-2.339,1.86-4.418,2.844-6.754-.2-.336-.4-.673-.672-1.115-4.529,1.639-4.968-1.952.548-7.173a23.412,23.412,0,0,0,3.46,2.892c2.127.683,4.069,1.637,6.177,2.294-.712.522-1.434,1.052-2.151,1.581a36.761,36.761,0,0,0,1.767,5.538l2.138-1.61,1.034,1.616a17.117,17.117,0,0,1,3.106,2.114l.69,1.073c.214,1.947.431,3.888.63,5.689a55.143,55.143,0,0,0,5.125-2.474c.214.313.431.625.72,1.044a89.571,89.571,0,0,0,4.032,10.875c.9-.27,1.8-.54,3.013-.9a12.226,12.226,0,0,0,.307,2.932c-1.119.975-2.238,1.947-3.13,2.723-1.109,1.987-1.913,3.9-3.013,5.917-1.728.644-3.675,1.47-5.336,2.214-4.487-1.155-13.059.975-16.651-1.208,3.281-4.625-.64-4.029-1.794-7.792l-2.328,1.851c-2.677-2.209-5.275-4.678-8.093-6.823.4-3.2-3.984.948-6.011,1.078-.6-.924-1.132-1.738-1.812-2.781-3.635-.757-7.836-2.031-11.519-2.36-6.892-14.366-16.117-23.239-26.689-34.387-2.228-3.165,4.495-6.99-4.021-8.616-.9-1.277-2.119-2.556-3.029-3.835.548-6.659-2.2-9.042.513-13.2-3.31-2.569-7.693.784-7.913-.522-.389-.914-.7-1.7-1.045-2.641,1.056-4.715-2.479-3.991-3.521-5.085,1.611-4.929-2.061-3.732-1.921-5.048l-.249-.662c-.884-2.548-1.767-5.1-2.7-7.779-.185-.538-.418-1.208-.648-1.875.706-2.439,1.413-5,1.95-7.331-1.079-2.431-2.466-4.9-3.54-7.337-.341-1.067-.685-2.135-.979-3.223l1.109-.411c.579-3.939-.6-7.859-1.736-11.62-1.056-3.782-2.024-7.419-1.14-10.6-4.58-2.185-2.315-7.4-3.81-9.967,4.918-2.447.955-3.867,3.143-6.344.032-1.433.373-2.8.4-4.222.32-4.585-4.241-9.366,1.971-13.95-2.365-1.645-4.458-3.382-6.537-5.144,1.087-.67,2.463-1.4,3.826-2.259-.265-1.875-.36-2.551-.455-3.221,1.728-.511,4.722-.485,5.447-1.735-1.008-3.059-3.77-3.554-9.3-4.64.989-1.584,1.659-3.094,2.423-4.476-.7-.967-1.111-1.986-1.818-2.951-1.873-.326-3.894-.681-5.77-1.009,2.791-1.759,5.275-3.576,8.064-5.289a37.535,37.535,0,0,1-3.363-4.068,26.118,26.118,0,0,0-1.852-4.349c-.032-.408-.061-.81-.093-1.213-.143-1.759-.336-3.5-.418-5.265,1.423-1.02,2.841-2.167,4.267-3.17-.749-3.117-5.7-5.779-.529-9.628.2-2.982.7-6.124,1.191-9.109.2-2.294,5.249-4.092,7-6.344Z" fill="#eab2a8"/>
            </g>
            <g id="Group_9" data-name="Group 9">
              <path id="Path_11" data-name="Path 11" d="M113.742,711.193a21.7,21.7,0,0,1-1.1,3.586c-1.5,2.545,3.206,1.968,6.212,2.243a22.786,22.786,0,0,0-1.024,4.135c1.87.62,4.035,1.03,5.91,1.626l4.066-.821c5.535,1.086,8.3,1.581,9.3,4.64-.725,1.25-3.72,1.224-5.447,1.735.1.67.19,1.345.455,3.221-1.362.861-2.738,1.589-3.826,2.259,2.079,1.761,4.172,3.5,6.537,5.144-6.212,4.585-1.651,9.366-1.971,13.95-.029,1.422-.37,2.789-.4,4.222-2.188,2.477,1.775,3.9-3.143,6.344,1.495,2.569-.77,7.782,3.81,9.967-.884,3.184.085,6.82,1.14,10.6,1.135,3.761,2.315,7.681,1.736,11.62l-1.109.411c.294,1.089.638,2.156.979,3.223,1.074,2.439,2.46,4.905,3.54,7.337-.537,2.328-1.243,4.892-1.95,7.331.23.667.463,1.338.648,1.875.931,2.683,1.815,5.231,2.7,7.779l.249.662c-.14,1.316,3.532.119,1.921,5.048,1.042,1.094,4.577.371,3.521,5.085.341.938.656,1.727,1.045,2.641.22,1.306,4.6-2.047,7.913.522-2.717,4.161.034,6.545-.513,13.2.91,1.279,2.127,2.559,3.029,3.835,8.516,1.626,1.794,5.451,4.021,8.616,10.572,11.148,19.8,20.021,26.689,34.387,3.683.328,7.884,1.6,11.519,2.36.68,1.044,1.209,1.857,1.812,2.781,2.027-.13,6.408-4.283,6.011-1.078,2.818,2.145,5.416,4.614,8.093,6.823l2.328-1.851c1.153,3.764,5.074,3.168,1.794,7.792,3.593,2.182,12.164.053,16.651,1.208,1.661-.744,3.609-1.571,5.336-2.214,1.1-2.021,1.9-3.93,3.013-5.917.892-.776,2.011-1.748,3.13-2.723a22.03,22.03,0,0,0,3.315,2.005c2.669-1.335,7.191-4.209,7.855-1.444a41.8,41.8,0,0,0,2.243,5.268c.307.4.537.7.77,1,.193,1.2.6,2.2.8,3.409,4.156,1.3,9.283.477,12.437,3.835,2.489,2.1,4.931,4.246,7.4,6.177l.413.469-2.865,3.025a26.99,26.99,0,0,1-4.5-.607c-1.029,1.07-2.929.283-4.783,3.107,4.1,2.37-2.236,10.377,2.341,11.055.812.471,1.746.609,2.587,1.046q-.262,4.895-.426,9.845c-2.519-1.359-5.082-2.688-7.588-4.095a30.329,30.329,0,0,1-7.259-5.53,14.055,14.055,0,0,1-2.545-3.888,13.376,13.376,0,0,1-.966-4.987c-1.273-3.356-8.127,2.771-9.225.087-5.677.262-11.225.228-15.882-1.29-2.1,1.173-4.291,2.225-6.505,3.284a38.9,38.9,0,0,0-4.021-2.77c-.085-.111-.257-.334-.328-.456l2.132-9.016c-2.886,1.581-5.7,3.255-8.617,4.818-.368,1.973-.651,4.071-.921,6.179-.894.773-2.024,1.751-3.148,2.725a6.586,6.586,0,0,0-1.55.395c-1.291-1.724-2.5-3.335-3.706-4.948-.5-1.632-1.267-3.234-1.709-4.905a28.015,28.015,0,0,1-3.63,2.05c-.743-1.062-1.571-2.243-2.4-3.427a50.939,50.939,0,0,1-6.315-3.835c-5.63-.554-10.093-2.815-11.49-12.237-.111-1.888-2.95-2-2.2-3.6-1.788-1.226-3.593-2.45-5.463-3.819a47.59,47.59,0,0,1-2.283-6.892c-3.3-2.863-6.662-5.546-9.876-8.544-.04-1.356-.336-2.548-.381-3.888.381-2.455-3.323-1.216-4.519-2.209-2.685-4.368-5.357-8.756-7.982-13.328-2.757-3-5.122-6.227-7.585-9.421l-1.318.694c-.183-.405-.362-.808-.6-1.348a44.352,44.352,0,0,1,.918-5.273c-1.611-2.31-1.254-6.071-4.556-7.061.63-.792,1.262-1.587,2.111-2.651-1.974-.826-3.921-1.682-5.823-2.575.111-1.351-.042-2.574.071-3.915-1.712-.336-4.63.344-4.836-1.025.394-1.47.833-2.8,1.175-4.394.066-1.475-1.37-1.963-2.572-2.717a56.68,56.68,0,0,0-.963-7.252c-.431-1.24-.913-2.627-1.344-3.875l-2.484,1.014a23.407,23.407,0,0,1-2.7-3.515c.27-.106.831-.328,1.378-.548a21.968,21.968,0,0,1-2.675-3.533c-.447-1.4-.852-2.667-1.3-4.071-1.786-1.547.624-6.314-5.159-7.053.952-2.069,1.857-4.254,2.823-6.291-3.04-.816-1.2-4.378-4.455-5.146,1.479-1.406,3.2-3.054,4.677-4.458-1.664-.527-3-1.014-4.64-1.412a40.511,40.511,0,0,1-.114-6.693l-1.426.434c-.291-1.285-.614-2.71-.9-4-.516-2.278-1.064-4.7-1.548-6.839l2.585-.723c6.569,2.206,7.246,5.242,8.111,9.04.844-.257,1.7-.519,2.548-.779,2.667-7.191-2.511-10.995,1.362-14.581a42.5,42.5,0,0,0-.362-10.211c-.606-3.591-1.9-7.051-4.717-9.434l5.069-3.885c-.69-.559-1.074-1.041-1.735-1.616.378-1.51.492-2.815.889-4.32l-5.524,1.171c-3.408-.885-7.135-1.854-10.551-2.744-1.36,1.009-2.426,1.96-3.773,2.972-1.661-1.136-6.114,1.258-5.841-1.033a46.82,46.82,0,0,1,3.606-4.272c1.81.238,3.908.265,5.73.342l5.2-3.769c.185-3.764-2.087-7.58,4.495-13.238C111.773,709.7,112.755,710.377,113.742,711.193Z" fill="#e7a298"/>
            </g>
            <g id="Group_10" data-name="Group 10">
              <path id="Path_12" data-name="Path 12" d="M128.414,714.536c.706.964,1.119,1.984,1.818,2.951-.765,1.383-1.434,2.892-2.423,4.476l-4.066.821c-1.876-.6-4.04-1.007-5.91-1.626a22.786,22.786,0,0,1,1.024-4.135c1.066-1.187,2.437-2.278,3.788-3.5C124.52,713.855,126.541,714.21,128.414,714.536Z" fill="#eec4bb"/>
            </g>
            <g id="Group_11" data-name="Group 11">
              <path id="Path_13" data-name="Path 13" d="M143.24,953.167a13.686,13.686,0,0,0,2.9,1.674c.627,1.459,1.275,2.961,1.963,4.434.714,1.451,1.46,2.882,2.238,4.232-1.164.922-2.331,1.844-3.267,2.582,1.344,1.867,2.783,3.872,4.127,5.742a13.817,13.817,0,0,0-1.339,3.21c-5.339,2.235-8.1-1.6-6.281-6.19-1.376.7-2.381,1.205-3.751,1.9a114.025,114.025,0,0,1-5.625-10.8c-1.421-2.67-2.524-5.361-3.931-8.017,2.315-1.891,4.542-3.907,6.537-5.753C139.073,948.569,141.058,950.942,143.24,953.167Z" fill="#eec4bb"/>
            </g>
            <g id="Group_12" data-name="Group 12">
              <path id="Path_14" data-name="Path 14" d="M291.094,939.7c3.884-5.154,5.3-3.547,6.95-2.5,1.7,1,3.611,1.436,8.336-5.983,1.426-1.976,2.788-3.87,4.214-5.846,1.153-1.348,2.511-2.929,3.677-4.293l2.439,2.439c1.574-1.308,2.99-2.482,4.566-3.793,2.222-.286,4.434-.588,6.81-1.126-3.363,6.682-5.222,9.008-6.908,11.074a22.144,22.144,0,0,1-3.926.265c-1.9,2.683-3.995,5.61-5.99,8.221-.188.23-.566.689-.757.922l-4.535,5.5c.987.969,2.045,2.047,3.069,2.98-.841,1.237-1.593,2.569-2.431,3.814-2.056,3.35-4,6.381-6.135,9.66a32.2,32.2,0,0,1-5.476-3.17l-.471-.453,4.553-5.488a28.051,28.051,0,0,1,.627-3.549c-2.513.429-4.855.62-7.4,1.025-2.339,3.523-4.762,6.969-7.365,10.637l-.963,1.131c-1.638,1.716-3.376,3.34-5.109,4.953-.3,1.38-.775,2.99-1.241,4.593-1.778,2.384-3.41,4.577-5.183,6.955-.2.23-.577.681-.958,1.134l-4.55-.691c-2.016-1.526,1.413-6.934,3.585-10.24l4.7-5.363c.786-1.308,1.672-2.524,2.468-3.838,2.029-1.3,4.045-2.609,5.979-4.031,1.04-1.441,2.3-3.194,3.339-4.638.667-.569,1.439-1.062,2.307-1.87C289.877,945.311,290.287,942.708,291.094,939.7Z" fill="#e29288"/>
            </g>
            <g id="Group_13" data-name="Group 13">
              <path id="Path_15" data-name="Path 15" d="M323.91,912.286c-.984,2.784-1.754,4.956-2.632,7.432-1.577,1.311-2.992,2.484-4.566,3.793l-2.439-2.439c1.1-1.828,2.011-3.425,3.04-5.337A73.741,73.741,0,0,0,323.91,912.286Z" fill="#eec4bb"/>
            </g>
            <g id="Group_14" data-name="Group 14">
              <path id="Path_16" data-name="Path 16" d="M293.3,983.407c2.312-4.3,4.643-8.6,6.889-12.954q.837-1.069,1.653-2.106c1.114-.991,2.225-1.989,3.238-3.072,3.564-4.765,7.215-9.85,10.879-14.949,2.188-4.018,4.693-9.371,6.217-7.956l1.347,1.261-5.275,6.81c-3.021,6.094-3.413,12.168-10.439,15.354-2.347,7.9-8.109,18.265-13.508,18.548-3.773,3.758-7.392,7.276-11.1,11.108l-1.569-1.422a31.878,31.878,0,0,1,.907-3.184C286.049,988.439,289.65,986.1,293.3,983.407Z" fill="#eec4bb"/>
            </g>
            <g id="Group_15" data-name="Group 15">
              <path id="Path_17" data-name="Path 17" d="M148.248,649.88c-4.172.771-11.262-.413-14.291,3.992-.558-2.074-.817-4.172-1.378-6.251,3.6-2.3,13.993-3.65,15.72-.813Z" fill="#f3d7d0"/>
            </g>
            <g id="Group_16" data-name="Group 16">
              <path id="Path_18" data-name="Path 18" d="M74.143,649.136c2.95.318,5.9.636,8.6.924,9.421,6.746-6.553,3.695-2.743,8.6,0,1.173-.008,2.339-.011,3.512-1.463,1.563-2.921,2.99-4.376,4.58-.944-2.588-1.862-5.04-2.722-7.652-1.444-3.316-2.926-6.5-4.384-9.713C71.484,649.255,72.965,649.189,74.143,649.136Z" fill="#f3d7d0"/>
            </g>
            <g id="Group_17" data-name="Group 17">
              <path id="Path_19" data-name="Path 19" d="M75.738,673.837c5.363,1.587,15.336-1.536,11.686,3.74-2.582,2.3-6.73,2.577-9.937,3.944C76.815,678.92,76.338,676.3,75.738,673.837Z" fill="#f3d7d0"/>
            </g>
            <g id="Group_18" data-name="Group 18">
              <path id="Path_20" data-name="Path 20" d="M169.627,672.139c.029.98.05,1.957-2.881,3.295.016,1.234.1,2.469.151,3.576a16.512,16.512,0,0,1,1.651,3.377c-1.466.323-2.632.728-4.085,1.173-.587.079-1.18.159-1.484.2-.066-1.369-.14-2.863-.206-4.232a43.455,43.455,0,0,1-4.254-1.865,28.675,28.675,0,0,0,2.624-1.568,21.14,21.14,0,0,0-1.577-3.968l1.458-.784C163.989,671.649,166.662,671.977,169.627,672.139Z" fill="#f3d7d0"/>
            </g>
            <g id="Group_19" data-name="Group 19">
              <path id="Path_21" data-name="Path 21" d="M107.451,681.74c4.836,3.793,4.516,6.569.413,7.956C103.456,686.036,102.466,683.7,107.451,681.74Z" fill="#f3d7d0"/>
            </g>
            <g id="Group_20" data-name="Group 20">
              <path id="Path_22" data-name="Path 22" d="M54.512,704.683c-.532,4.606-.934,9.223-1.4,13.723l-2.767,2.039a21.436,21.436,0,0,0,3.254,2.466,473.931,473.931,0,0,0,7.818,56.315l-8.6.9c.013-5.872,1.175-11.752-4.519-14.814,1.979-5.914-6.41-8.582-6.728-14.34,2.286-.824,5.6-.72,6.849-2.3.032-2.773-3.836-4.566-6.418-6.534s-3.881-4.079,1.415-7.273c-1.466-2.161-3.2-4.127-4.96-6.264a46.083,46.083,0,0,1,2.291-5.755,26.952,26.952,0,0,1,2.474-2.024c.418-1.836.542-3.618.963-5.443.029-2.861-8.368-6.174.693-8.56-1.577-1.205-3.452-2.392-3.283-4.166,4.175.079,5.447-2.784,11.281-4.458C53.309,700.32,54.057,702.564,54.512,704.683Z" fill="#f3d7d0"/>
            </g>
            <g id="Group_21" data-name="Group 21">
              <path id="Path_23" data-name="Path 23" d="M166.648,710.354c.14,1.112.294,2.344.45,3.581-1.452.3-2.913.6-4.363.9-.156-1.248-.344-2.487-.45-3.618Z" fill="#f3d7d0"/>
            </g>
            <g id="Group_22" data-name="Group 22">
              <path id="Path_24" data-name="Path 24" d="M169.773,723.006c4.061.975,5.72,2.071.553,3.56C170.156,725.461,169.963,724.232,169.773,723.006Z" fill="#f3d7d0"/>
            </g>
            <g id="Group_23" data-name="Group 23">
              <path id="Path_25" data-name="Path 25" d="M167.556,737.15c4.908,2.792,6.011,6.026,6.318,9.35.286,3.321-.418,6.791.537,9.9,3.2,3.046,4.931,7.39,6.093,12,1.238,4.574,1.609,9.546,2.159,13.685-2.31,1.56-.519,2.347-.508,3.419a6.8,6.8,0,0,0,1.561.053,28.073,28.073,0,0,1,2.291,4.124,39.278,39.278,0,0,1,1.762,4.232c1.042,2.85,1.738,5.811,2.73,8.619a39.133,39.133,0,0,0,3.646,8.073,20.555,20.555,0,0,0,6.707,6.534c-2.005,2.127-.032,3.086.22,4.495,3.23.781,4.744,3.109,5.855,5.856.556,1.369,1.008,2.845,1.542,4.256a16.6,16.6,0,0,0,2.056,3.843c5.646-1.261,3.175,5.464,7.437,5.943.955,3.162,4.077,4.72,6.73,6.524s5,3.766,4.328,8.121c-1.529.286-5.781,2.394-8.916,1.605l-7.215,4.736c-2.151-2.577-3.86-5.281-5.886-7.943,1.452-1.054,3.109-2.381,4.505-3.544-2.04-.072-4.4-.119-6.508-.336-1.876-2.906-3.781-5.8-5.828-8.608.214-2.347.331-5.443-4.942-4.3a21.022,21.022,0,0,1-.2-4.142,43.509,43.509,0,0,1-3.81-4.956,32.222,32.222,0,0,1-3.421-4.468l-.241-.6a49.886,49.886,0,0,0-4.326-2.768c-.8-1.192-1.873-2.262-2.638-3.483a24.794,24.794,0,0,1-2.886-3.539,25.683,25.683,0,0,1-.146-4.648c-1.447-3.9-2.693-7.89-4.037-11.81-.437-1.221-.825-2.458-1.153-3.586-.378-1.237-.722-2.355-1.1-3.6l-.728-2.355c1.323-1.756-1.222-2.99,2.982-4.444-1.008-2.363-.3-5.594-4.947-6.791,7.569-5.7,2.572-12.578.476-16.215a52.1,52.1,0,0,1-1.013-9.167c-.093-1.5-.217-3.03-.439-4.638a35.246,35.246,0,0,0-.968-5.146C166.3,739.957,166.894,738.628,167.556,737.15Z" fill="#f3d7d0"/>
            </g>
            <g id="Group_24" data-name="Group 24">
              <path id="Path_26" data-name="Path 26" d="M65.111,788.573c.77,3.414,1.672,6.8,2.611,10.343-1.045,1.841-2.05,3.849-3.09,5.716-7.431.914-2.415-5.639-8.73-5.165-4.2-.736-.212-5.562.966-8.425-.444-1.883-.852-3.615-1.259-5.342,2.079-.262,2.635-1.764,6.5-3.531A56.275,56.275,0,0,0,65.111,788.573Z" fill="#f3d7d0"/>
            </g>
            <g id="Group_25" data-name="Group 25">
              <path id="Path_27" data-name="Path 27" d="M82.111,832.654c.4,2.243.712,4.7.892,7.061l-1.656,3.295c3.775,2.6,7.868-.911,8.077,1.42a13.233,13.233,0,0,0,2.442,2.4c.228.588.516,1.335.8,2.069.5,2.911.95,5.673,1.72,8.481-2.7,4.59.566,7.734,6.289,11.3a91.143,91.143,0,0,0,.725,9.13,56.3,56.3,0,0,1,5.635,2.291c1.016,2.884,1.762,5.93,2.86,8.984q2.044,4.088,4.085,8.174a35.122,35.122,0,0,0-.831,4.942c.709,1.457,1.381,2.747,2.151,4.164a6.066,6.066,0,0,0,1.664-.053c.69,1.277,1.455,2.7,2.222,4.116-1.849,2.834-3.347,5.668-5.159,8.539-.061,2.363,3.828.879,3.556,3.372l3.2,5.525c.749,1.279,1.574,2.694,2.32,3.97,1.646-.707,3.537-1.579,5.1-2.429l1.23,2.1c.434,2.455.915,4.882,1.235,7.641,2.045,2.153,4,4.169,5.807,6.479l.344.554c-1.995,1.846-4.222,3.862-6.537,5.753-1.759-.572-3.855-1.112-5.958-1.666a6.171,6.171,0,0,1-1.273-4.812,48.671,48.671,0,0,1-5.447-3.125c-3.109.087-2.878-3.109-4.487-4.651l-2.455-4.2q-3.607-9.547-7.207-19.081a13.7,13.7,0,0,1-2.069-.7,75.1,75.1,0,0,1-1.058-8.6l-1.413-2.807c1.778-5.74,1.3-7.308-.82-7.644-.812-1.054-1.889-1.965-2.709-3.014.373-4.113-6.185,2.185-6.921-.808,1.418-1.875,2.511-3.753,3.934-5.6-1.069-2.246,3-9.23-4.275-5.93a5.8,5.8,0,0,0-3.109-7.263c.458-3.5-.86-3.385-5.4-5.252,6.54-3.618,5.923-4.373-.111-4.3a14.358,14.358,0,0,0-.484-9.667,28.181,28.181,0,0,0-4.238-7.027c.05-2.506.836-6.505-3.513-5.438-2.614-5.832-2.172-10.346-6.55-15.15-6.453,4.32-4.81-2.612-4.05-4.259,7.344-5.552-2.429-9.035,4.378-14.745,1.249,2.471,6.244,2.461,7.5,4.709,1.561,3.674,3.05,7.368,4.669,10.992Q79.68,827.309,82.111,832.654Z" fill="#f3d7d0"/>
            </g>
            <g id="Group_26" data-name="Group 26">
              <path id="Path_28" data-name="Path 28" d="M231.952,859.077c3.934.278,7.294,3.041,4.18,7.093C231.822,867.6,232.463,864.059,231.952,859.077Z" fill="#f3d7d0"/>
            </g>
            <g id="Group_27" data-name="Group 27">
              <path id="Path_29" data-name="Path 29" d="M242.881,871.534c3.767-.691,5.58,2.156,4.587,4.471C244.262,878.672,242.436,876.918,242.881,871.534Z" fill="#f3d7d0"/>
            </g>
            <g id="Group_28" data-name="Group 28">
              <path id="Path_30" data-name="Path 30" d="M248.789,878.065c4.574-.657,5.505.72,5.384,3.168.889,1.308,1.712,2.521,2.6,3.833-1.183.363-5.207,2.869-4.68-2.145Z" fill="#f3d7d0"/>
            </g>
            <g id="Group_29" data-name="Group 29">
              <path id="Path_31" data-name="Path 31" d="M259.458,888.842c4.828-.924,5.8.421,5.683,2.781a28.285,28.285,0,0,0,5.027,1.825l5.151,2.288c1.931,2.961,7.513.135,10.186,3.79a31.941,31.941,0,0,1,5.355,1.849c1.124.869-.185,3.528.423,5.122l-4.669,3.2c-.77-.93-1.466-1.772-2.236-2.7a43.614,43.614,0,0,1-.786-5.61c-1.8,1.078-3.315,2.045-4.823,3,.024-1.375-.069-3.766-4.384-.67l-.675-.871c-.177-1.684-.272-4.7-5.1-1.748l-.675-.874c.124-1.772.029-3.329.024-4.791-1.717-1.224-3.995,1.61-5.056-1.846C261.829,892.1,260.606,890.424,259.458,888.842Z" fill="#f3d7d0"/>
            </g>
            <g id="Group_30" data-name="Group 30">
              <path id="Path_32" data-name="Path 32" d="M299.8,911.682c3.754-4.015,5.36-4.291,6.23-3.369.894.9,1.056,3.022,1.823,3.84,5.064-2.829,5.947,2.469,10.918-3.038,1.921.765.344,2.567-1.455,6.619-1.029,1.912-1.939,3.509-3.04,5.337-2.577-.816-5.2-1.584-7.842-2.2l-1.222-1.314-.41-.432a18.03,18.03,0,0,1-2.146-.114C301.743,915.167,300.621,913.573,299.8,911.682Z" fill="#f3d7d0"/>
            </g>
            <g id="Group_31" data-name="Group 31">
              <path id="Path_33" data-name="Path 33" d="M323.91,912.286c1.87-2.739,3.979-6.084,4.614-5.443a23.335,23.335,0,0,1,6.926-4.765c-.653,3.547-4.146,8.428-6.423,15.37,1.931-1.849,4.04-3.864,5.974-5.713-5.68,7.71,1.029,7.093-2.124,11.439-.741.935-1.3,1.637-1.849,2.333-1.45,3.52-2.706,7.62-3.55,10.073-1.828,2.339-3.654,4.68-5.3,6.789-1.524-1.414-4.029,3.939-6.217,7.956-3.664,5.1-7.315,10.184-10.879,14.949-1.013,1.083-2.124,2.082-3.238,3.072-.447-2.389-.921-4.937-1.365-7.321,2.135-3.279,4.079-6.309,6.135-9.66.839-1.245,1.59-2.577,2.431-3.814,1.267-2.527,2.622-5.226,3.884-7.745l8.254-10.142c1.685-2.066,3.545-4.391,6.908-11.074-2.376.538-4.587.84-6.81,1.126C322.156,917.241,322.926,915.069,323.91,912.286Z" fill="#f3d7d0"/>
            </g>
            <g id="Group_32" data-name="Group 32">
              <path id="Path_34" data-name="Path 34" d="M263.858,1014.348c3.143-2.76,5.164-4.14,5.593-2.553.415,3.981-2.013,7.374-4.865,10.783-3.064,1.24-3.876-1.894-3.5-4.752C262.561,1015.972,263.12,1015.27,263.858,1014.348Z" fill="#f3d7d0"/>
            </g>
            <g id="Group_33" data-name="Group 33">
              <path id="Path_35" data-name="Path 35" d="M75.635,668.073c3.281,1.078,4.826,5.189.1,5.763-2.111-1.74-9.781.562-8.654-2.839C70.037,670,72.981,669.022,75.635,668.073Z" fill="#eab2a8"/>
            </g>
            <g id="Group_34" data-name="Group 34">
              <path id="Path_36" data-name="Path 36" d="M76.164,685.223c4.146-.011,2.458,2.243,1.63,3.38-.751,2.32-1.471,4.948-2.484,7.474-7.722-.193-7.762-4.323-7.611-7.808C70.616,687.181,73.537,686.105,76.164,685.223Z" fill="#eab2a8"/>
            </g>
            <g id="Group_35" data-name="Group 35">
              <path id="Path_37" data-name="Path 37" d="M261.784,910.633a41.8,41.8,0,0,1-2.243-5.268c-.664-2.765-5.185.109-7.855,1.444,2.669-1.335,7.191-4.209,7.855-1.444A41.8,41.8,0,0,0,261.784,910.633Z" fill="#eab2a8"/>
            </g>
            <g id="Group_36" data-name="Group 36">
              <path id="Path_38" data-name="Path 38" d="M265.593,908.789c1.286.662,1.048,3.321,6.937-.773,1.116-.042,2.31,0,3.421-.058,1.294.622,2.365,1.454,3.643,2.082a27.185,27.185,0,0,1,.177,4.839c2.651-.93,2.915,1.605,6.254.453l2.68,3.027a21.4,21.4,0,0,0-5.106,7.167l-.413-.469c-2.468-1.931-4.91-4.079-7.4-6.177-3.154-3.358-8.281-2.532-12.437-3.835-.2-1.205-.6-2.212-.8-3.409C263.646,910.612,264.728,909.6,265.593,908.789Z" fill="#eab2a8"/>
            </g>
            <g id="Group_37" data-name="Group 37">
              <path id="Path_39" data-name="Path 39" d="M314.272,921.071c-1.167,1.364-2.524,2.945-3.677,4.293-2.09.034-3.87-.119-5.926-.156-2.254.177.439-3.422,1.762-6.341C309.068,919.487,311.7,920.255,314.272,921.071Z" fill="#eab2a8"/>
            </g>
            <g id="Group_38" data-name="Group 38">
              <path id="Path_40" data-name="Path 40" d="M65.071,630.113c9.056,2.429,3.759,7.5,5.156,11.339-3.267.249-6.844.654-10.122,1.057.817-2.127,1.624-4.214,2.421-6.283C63.378,634.176,64.224,632.147,65.071,630.113Z" fill="#e29288"/>
            </g>
            <g id="Group_39" data-name="Group 39">
              <path id="Path_41" data-name="Path 41" d="M53.108,718.405c1.609,1.012,7.31-.755.487,4.505a21.436,21.436,0,0,1-3.254-2.466Z" fill="#e29288"/>
            </g>
            <g id="Group_40" data-name="Group 40">
              <path id="Path_42" data-name="Path 42" d="M101.4,727.866c3.415.89,7.143,1.859,10.551,2.744l5.524-1.171c-.4,1.5-.511,2.81-.889,4.32.661.575,1.045,1.057,1.735,1.616l-5.069,3.885c2.818,2.384,4.111,5.843,4.717,9.434a42.5,42.5,0,0,1,.362,10.211c-3.873,3.586,1.3,7.39-1.362,14.581-.852.26-1.7.522-2.548.779-.865-3.8-1.542-6.833-8.111-9.04l-2.585.723c.484,2.137,1.032,4.561,1.548,6.839.291,1.287.614,2.712.9,4l1.426-.434a40.511,40.511,0,0,0,.114,6.693c1.638.4,2.976.885,4.64,1.412-1.474,1.4-3.2,3.051-4.677,4.458,3.259.768,1.415,4.331,4.455,5.146-.966,2.037-1.87,4.222-2.823,6.291a17.354,17.354,0,0,0-2.722.183c2.709-5.639-9.561-2.053-1.95-6.863l-.894-3.451c-.209-1.96-.122-4.01-.27-5.822-1.6-1.5-3.532-2.919-5.371-4.373a44.732,44.732,0,0,1,1.767-5.639,24.454,24.454,0,0,1-3.519-2.055c1.135-1.716,2.236-3.568,3.087-5.181-1.952-.665-1.7-2.45,1.6-7.12,1.579.336,3.148.665,4.439,1.065,3.511-5.13-2.339-4.164-2.365-5.819-1.1-2.418-.156-5.777-2.807-7.22-.651-4.026-1.413-7.869-1.918-11.76-.262-1.865-.505-3.586-.767-5.456C98.977,729.826,100.043,728.875,101.4,727.866Z" fill="#e29288"/>
            </g>
            <g id="Group_41" data-name="Group 41">
              <path id="Path_43" data-name="Path 43" d="M115.774,811.473a21.968,21.968,0,0,0,2.675,3.533c-.548.22-1.108.442-1.378.548a23.407,23.407,0,0,0,2.7,3.515l2.484-1.014c.431,1.247.913,2.635,1.344,3.875a56.68,56.68,0,0,1,.963,7.252c1.2.755,2.638,1.242,2.572,2.717-.341,1.6-.78,2.924-1.175,4.394-3.082-1.512-7.1-.064-8.127-4.834a78.279,78.279,0,0,0-1.251-8.041c-.1-.278-.151-.418-.251-.7-1.521-1.618-3.037-3.414-4.5-5.077-.18-1.536-.032-3.038-.214-4.556.934-1.952,1.918-3.753,2.863-5.687C114.922,808.806,115.327,810.072,115.774,811.473Z" fill="#e29288"/>
            </g>
            <g id="Group_42" data-name="Group 42">
              <path id="Path_44" data-name="Path 44" d="M83,839.716a24.524,24.524,0,0,1,7.6.079c-.347,1.69-.786,3.086-1.175,4.635-.209-2.331-4.3,1.176-8.077-1.42Z" fill="#e29288"/>
            </g>
            <g id="Group_43" data-name="Group 43">
              <path id="Path_45" data-name="Path 45" d="M139.989,859.448c2.463,3.194,4.828,6.426,7.585,9.421,2.624,4.571,5.3,8.96,7.982,13.328,1.2.993,4.9-.246,4.519,2.209.045,1.34.341,2.532.381,3.888,3.214,3,6.574,5.681,9.876,8.544a47.59,47.59,0,0,0,2.283,6.892c-2.466-1.139-4.81-2.386-7.233-3.6-1.1-1.918-2.884-2.5-4.574-3.52s-3.3-2.458-3.868-6.113c-2.058-1.327-3.781-2.7-5.527-4.074a36.69,36.69,0,0,1-3.733-2.847,21.489,21.489,0,0,0-3.783-2.733c-1.013-2.7-1.751-5.541-2.548-8.5-4.249-.543-2.508-5.43-2.206-7.588a31.9,31.9,0,0,0-.471-4.609Z" fill="#e29288"/>
            </g>
            <g id="Group_44" data-name="Group 44">
              <path id="Path_46" data-name="Path 46" d="M123.29,912.426c-.021.58-.3,1.316-.323,1.907a66.522,66.522,0,0,0,7.035,1.03c.241.416.481.826.8,1.377a43.692,43.692,0,0,0-2.6,12.666c-1.558.85-3.45,1.722-5.1,2.429-.746-1.277-1.571-2.691-2.32-3.97l-3.2-5.525c.272-2.492-3.617-1.009-3.556-3.372,1.812-2.871,3.31-5.705,5.159-8.539Z" fill="#e29288"/>
            </g>
            <g id="Group_45" data-name="Group 45">
              <path id="Path_47" data-name="Path 47" d="M146.349,918.158c.235.405.474.81.788,1.348-.5.339-.738.5-1.238.842.817,4.161,4.58,2.328,6.7,5.194.653,1.057,2.2,2.421-.78,4.365.7,3.925,4.484,2.744,8.151,2.341,1.484,7,8.13,9.742,10.41,15.389,2.495,5.562,11.8-4.373,17.149-8.121,2.037.84-1.349,4.762-1.934,7.014,1.72.93,3.429,1.653,5.1,2.4,1.4-.6,2.807-1.2,4.3-1.69,1.212,1.115,1.355,3.756,6.786-.36.622.824,1.153,1.534,1.773,2.355l6.148-3.655c.548,3.184,2.426,5.443,6.339,5.594,1.029.821,2.376,1.544,3.5,2.474-1.291,2.882-.394,3.647,1.423,3.721,1.847.048,4.611-.6,7.058-.477l.934,1.094c-1.693,2.633-3.159,4.919-4.852,7.557a68.608,68.608,0,0,0,7.156,3.761c2.228-.2,4.347-.5,6.775-.94a25.406,25.406,0,0,0,3.831,2.01c.823-.861,1.844-1.931,2.868-3.006a24.1,24.1,0,0,0,3.863-.162c1.323,1.478,2.762,3.035,4.151,4.444,3.9-1.949,7.863-3.819,11.895-6.047L265.982,967c-4.656,5.846-3.868,6.224-3.381,6.73,2.058-.432,4.127-3.835,6.185-5.959,1.952-1.385,3.881-1.52,1.741.1-2.172,3.305-5.6,8.714-3.585,10.24l4.55.691c.074,3.79.884,4.585,1.691,5.366l3.442,3.316c-1.878,2.3-3.569,4.376-5.447,6.674a28.645,28.645,0,0,0-3.96.313c-3.955,5.234-7.91,10.486-12.154,15.852l-.944,1.144c-.54-.519-.974-.935-1.516-1.454l-.54-.522a68.223,68.223,0,0,0-4.222-6.1l-1.071-1.041c-.966-.93-2.053-1.947-2.979-2.929-1.712.368-4.1,2.167-4.855.969-.632-.641-1.27-1.285-2.008-2.034.05-2.076-.2-4.026-.23-6.192-2-1.576-3.14-4.911-6.879-5.08-1.548,2.275-3.243,4.768-4.789,7.043a41.9,41.9,0,0,0,3.6,5.938c-3.8,1.653-5.336-2.1-8.466,1.459a73.5,73.5,0,0,1-6.6-4.948,44.317,44.317,0,0,0-8.1-1.865,42.59,42.59,0,0,1-9.545-2.792c4.246,3.989.556,7.429-.495,10.271a24.762,24.762,0,0,0-4.016,1.722,43.878,43.878,0,0,1-.939-5.6c-2.564,2.487-4.91,4.762-7.254,7.037-1.288-.569-2.363-1.348-3.648-1.931a43.358,43.358,0,0,0,2.685-3.687c-6.011-2.85,1.542-11.6-5.505-10.8-.22.2-.653.6-1.1,1-1.225-1.507-2.55-3.141-3.881-4.778-2.011-1.022-3.855-2-5.81-3.1-2,1.3-3.995,2.6-5.894,4.029-2.307-3.009-4.519-5.891-6.722-8.764,2.275-3.39,4.468-6.465,6.786-9.832,5.021-2.061,3.251,6.309,9.7,1.089.46-1.846,1.024-3.56,1.5-5.393-1.2-1.052-1.6-3.165-4.908-1.679-5.572-5.273-10.053-8.831-14.662-13.744l-5.132-7.7c-.447-1.253-.635-2.686-1.069-3.936-1.423-1.716-3.169-3.4-4.59-5.125-.077-1.873-.148-3.56-.225-5.43L140,924.347c-.386-1.258-2.852-.2-1.463-5.48C140.147,919.871,141.486,918.624,146.349,918.158Z" fill="#db766d"/>
            </g>
            <g id="Group_46" data-name="Group 46">
              <path id="Path_48" data-name="Path 48" d="M138.528,927.076c.841,1.351,1.6,2.567,2.439,3.92,1.421,1.722,3.167,3.409,4.59,5.125l-4.508,6.2,5.577-2.267,5.132,7.7c-1.926,2.458-3.937,4.786-5.614,7.085a13.686,13.686,0,0,1-2.9-1.674c-2.183-2.225-4.167-4.6-6.424-6.987l-.344-.554c-1.81-2.31-3.762-4.325-5.807-6.479-.32-2.76-.8-5.186-1.235-7.641C132.38,930.1,135.327,928.681,138.528,927.076Z" fill="#e29288"/>
            </g>
            <g id="Group_47" data-name="Group 47">
              <path id="Path_49" data-name="Path 49" d="M180.281,911.152c1.4,9.421,5.86,11.683,11.49,12.237C186.141,922.835,181.678,920.573,180.281,911.152Z" fill="#e29288"/>
            </g>
            <g id="Group_48" data-name="Group 48">
              <path id="Path_50" data-name="Path 50" d="M169.831,968.572c-6.447,5.22-4.677-3.149-9.7-1.089-2.318,3.366-4.511,6.442-6.786,9.832a18.468,18.468,0,0,1-3.479-2.273,13.817,13.817,0,0,1,1.339-3.21l5.524-4.495c-1.1-4.092-6.722-.223-6.384-3.83-.778-1.351-1.524-2.781-2.238-4.232-.688-1.473-1.336-2.974-1.963-4.434,1.677-2.3,3.688-4.627,5.614-7.085,4.609,4.913,9.09,8.47,14.662,13.744,3.3-1.486,3.709.628,4.908,1.679C170.855,965.012,170.291,966.726,169.831,968.572Z" fill="#df837a"/>
            </g>
            <g id="Group_49" data-name="Group 49">
              <path id="Path_51" data-name="Path 51" d="M150.346,963.508c-.339,3.607,5.283-.262,6.384,3.83l-5.524,4.495c-1.344-1.87-2.783-3.875-4.127-5.742C148.015,965.351,149.182,964.429,150.346,963.508Z" fill="#e29288"/>
            </g>
            <g id="Group_50" data-name="Group 50">
              <path id="Path_52" data-name="Path 52" d="M204.118,928.6c.442,1.671,1.206,3.274,1.709,4.905q-1.028.862-2.05,1.722c-1.778-.379-3.884.773-3.288-4.577A28.015,28.015,0,0,0,204.118,928.6Z" fill="#e29288"/>
            </g>
            <g id="Group_51" data-name="Group 51">
              <path id="Path_53" data-name="Path 53" d="M223.769,924.337l-2.132,9.016c.071.122.243.344.328.456a38.9,38.9,0,0,1,4.021,2.77c2.034-1.274,4.061-2.548,6.17-3.719,3.963,1.613,10.543-1.383,13.2,2.755,4.072-4.834,2.143,3.912,7.217-2.5,5.913-.395,7.027,3.769,8.453,7.79,1.378,4.031,2.87,8.118,8.8,7.4,1.2.845,1.593,3.374,3.921,2.392,1.958-3.525.114-4.614,2.635-7.546l3.016-3.279c1.773.535,3.415,1.028,5.188,1.56a32.953,32.953,0,0,1-1.532,4.413c-2.283,2.3-4.812,4.847-7.1,7.151-9.479,4.2-14.125,5.517-16.77,2.959a58.336,58.336,0,0,0-6-.45,50.337,50.337,0,0,1,1.114,5.642l-5.707,6.06a24.1,24.1,0,0,1-3.863.162l-2.773-3.043a23.237,23.237,0,0,1-1.72-4.113c-3.495-1.282-7.244-1.173-10.223-3.261-.423.413-.852.826-1.064,1.036l-.934-1.094c-1.778-2.061-3.537-4.132-5.228-6.277a28.9,28.9,0,0,1-3.693-2.243,13.748,13.748,0,0,1-.6-3.131,27.308,27.308,0,0,1-4.132-2.821,11.825,11.825,0,0,1-1.982-.167c-.328-1.428-.968-2.776-1.3-4.2,1.124-.975,2.254-1.952,3.148-2.725.27-2.108.553-4.206.921-6.179C218.068,927.592,220.883,925.918,223.769,924.337Z" fill="#e29288"/>
            </g>
            <g id="Group_52" data-name="Group 52">
              <path id="Path_54" data-name="Path 54" d="M195.93,991.914a42.59,42.59,0,0,0,9.545,2.792,44.317,44.317,0,0,1,8.1,1.865,73.5,73.5,0,0,0,6.6,4.948c3.13-3.555,4.664.193,8.466-1.459a41.9,41.9,0,0,1-3.6-5.938c1.545-2.275,3.241-4.768,4.789-7.043,3.738.169,4.881,3.5,6.879,5.08.034,2.167.28,4.116.23,6.192.738.75,1.376,1.393,2.008,2.034.751,1.2,3.143-.6,4.855-.969.926.983,2.013,2,2.979,2.929-2.085,1.753-4.352,3.663-6.63,5.581.987.943,2.082,1.992,3.177,3.041l.434.424c-.773.9-1.738,2.034-2.7,3.16-1.931,2.259-3.672,4.293-5.6,6.55-4.154,6.288-4.117,7.964-6.193,9.67a25.616,25.616,0,0,1-4.13.175q1.476-3.516,2.947-7.029c-2.41-2.267-3.99-5.679-9.135-3.26l-4.767,5.3-5.995-6.057a73.827,73.827,0,0,1-7.905-4.071c-3.392.265-5.061-1.523-6.6-3.189a56.375,56.375,0,0,1-7.323-3.727c-1.077-1.234-2.045-2.341-3.119-3.573,2.344-2.275,4.691-4.55,7.254-7.037a43.878,43.878,0,0,0,.939,5.6,24.762,24.762,0,0,1,4.016-1.722C196.485,999.344,200.176,995.9,195.93,991.914Z" fill="#df837a"/>
            </g>
            <g id="Group_53" data-name="Group 53">
              <path id="Path_55" data-name="Path 55" d="M214.171,1025.957l4.767-5.3c5.146-2.418,6.725.993,9.135,3.26q-1.472,3.508-2.947,7.029c-1.836-.567-3.833-1.181-5.672-1.751C217.121,1030.629,215.838,1027.215,214.171,1025.957Z" fill="#e29288"/>
            </g>
            <g id="Group_54" data-name="Group 54">
              <path id="Path_56" data-name="Path 56" d="M246.77,1002.344l1.071,1.041a68.223,68.223,0,0,1,4.222,6.1c-2.72.686-5.455,1.359-8.312,1.907l-.434-.424c-1.1-1.049-2.191-2.1-3.177-3.041C242.418,1006.008,244.685,1004.1,246.77,1002.344Z" fill="#e29288"/>
            </g>
            <g id="Group_55" data-name="Group 55">
              <path id="Path_57" data-name="Path 57" d="M235.449,1021.1c1.931-2.257,3.672-4.291,5.6-6.55.355,2.405.622,4.7,1.09,6.781a41.849,41.849,0,0,1-3.431,2.884c-3.159,2.307-6.262,4.275-9.455,6.555C231.333,1029.064,231.3,1027.387,235.449,1021.1Z" fill="#e29288"/>
            </g>
            <g id="Group_56" data-name="Group 56">
              <path id="Path_58" data-name="Path 58" d="M255.064,1010.314c4.087,1.862,8.72.326,8.794,4.034-.738.922-1.3,1.624-2.775,3.478-1.553.988-3.2,2.312-4.648,3.406-.9-3.231-1.519-6.508-2.315-9.773Z" fill="#e29288"/>
            </g>
            <g id="Group_57" data-name="Group 57">
              <path id="Path_59" data-name="Path 59" d="M70.227,641.452a64.5,64.5,0,0,1,3.99,5.472l-.074,2.212c-1.177.053-2.659.119-5.638.249-2.622-1.375-5.553-2.6-8.474-4.01.024-.9.05-1.957.074-2.866C63.383,642.106,66.96,641.7,70.227,641.452Z" fill="#e7a298"/>
            </g>
            <g id="Group_58" data-name="Group 58">
              <path id="Path_60" data-name="Path 60" d="M103.122,755.274c.026,1.655,5.876.689,2.365,5.819-1.291-.4-2.86-.728-4.439-1.065A37.025,37.025,0,0,1,103.122,755.274Z" fill="#e7a298"/>
            </g>
            <g id="Group_59" data-name="Group 59">
              <path id="Path_61" data-name="Path 61" d="M286.755,929.1c2.815.837,7.376-.85,11.7-4.018,2.185-2.434,4.569-5.088,6.757-7.527l1.222,1.314c-1.323,2.919-4.016,6.518-1.762,6.341,2.056.037,3.836.191,5.926.156-1.426,1.976-2.788,3.87-4.214,5.846-4.725,7.419-6.635,6.987-8.336,5.983-1.654-1.044-3.066-2.651-6.95,2.5.9.508,1.987.8,2.876,1.319-2.971,2.442-2.807,4.773-4.654,7.106-.868.808-1.64,1.3-2.307,1.87l-3.508-3.674-.447-.471a32.953,32.953,0,0,0,1.532-4.413c5.736-7.713,1.553-7.387,1.021-9.241A16.908,16.908,0,0,0,286.755,929.1Z" fill="#e7a298"/>
            </g>
            <g id="Group_60" data-name="Group 60">
              <path id="Path_62" data-name="Path 62" d="M243.751,1011.39c2.857-.548,5.593-1.221,8.312-1.907l.54.522c-3.442,3.724-7.024,7.607-10.461,11.326-.468-2.079-.735-4.375-1.09-6.781C242.013,1013.424,242.979,1012.293,243.751,1011.39Z" fill="#e7a298"/>
            </g>
            <g id="Group_61" data-name="Group 61">
              <path id="Path_63" data-name="Path 63" d="M310.508,939.074c.19-.233.569-.691.757-.922.524.524,1.138,1.134,1.661,1.655-1.262,2.519-2.616,5.218-3.884,7.745-1.024-.932-2.082-2.01-3.069-2.98Z" fill="#e7a298"/>
            </g>
            <g id="Group_62" data-name="Group 62">
              <path id="Path_64" data-name="Path 64" d="M145.558,936.121c.434,1.25.622,2.683,1.069,3.936l-5.577,2.267Z" fill="#df837a"/>
            </g>
            <g id="Group_63" data-name="Group 63">
              <path id="Path_65" data-name="Path 65" d="M165.963,982.051c1.955,1.1,3.8,2.077,5.81,3.1,1.331,1.637,2.656,3.271,3.881,4.778.45-.408.884-.805,1.1-1,7.048-.805-.505,7.949,5.505,10.8a43.358,43.358,0,0,1-2.685,3.687c-5.3-1.939-9.088-2.529-10.641-6.245-3.04-3.705-5.987-7.252-8.868-11.085C161.968,984.652,163.966,983.354,165.963,982.051Z" fill="#df837a"/>
            </g>
            <g id="Group_64" data-name="Group 64">
              <path id="Path_66" data-name="Path 66" d="M204.165,963.854l2.738,3.393c-.64,2.039-1.582,4.166-2.3,6.1,2.114,8.338,12.593,3.343,12.614,12.271l-2.087,2.116c-2.495-1.377-4.786-2.77-7.453-4.015-2.36-.909-4.386-2.911-6.193-5.295a79.36,79.36,0,0,1-4.762-7.747C199.131,968.471,201.755,966.066,204.165,963.854Z" fill="#df837a"/>
            </g>
            <g id="Group_65" data-name="Group 65">
              <path id="Path_67" data-name="Path 67" d="M230.018,956.952c2.979,2.087,6.728,1.979,10.223,3.261a23.237,23.237,0,0,0,1.72,4.113l2.773,3.043c-1.024,1.075-2.045,2.145-2.868,3.006a25.406,25.406,0,0,1-3.831-2.01c-2.429.44-4.548.744-6.775.94a68.608,68.608,0,0,1-7.156-3.761c1.693-2.638,3.159-4.924,4.852-7.557C229.166,957.779,229.595,957.365,230.018,956.952Z" fill="#df837a"/>
            </g>
            <g id="Group_66" data-name="Group 66">
              <path id="Path_68" data-name="Path 68" d="M253.188,955.506c5.569-2.235,6.275-1.446,6,.45,2.646,2.559,7.291,1.242,16.77-2.959.593,1.939,1.143,3.729,1.736,5.663-.8,1.314-1.683,2.529-2.468,3.838l-4.7,5.363c2.14-1.616.212-1.481-1.741-.1-2.058,2.124-4.127,5.528-6.185,5.959-.487-.506-1.275-.885,3.381-6.73l-1.341-1.391c-4.032,2.227-7.995,4.1-11.895,6.047-1.389-1.409-2.828-2.966-4.151-4.444l5.707-6.06A50.337,50.337,0,0,0,253.188,955.506Z" fill="#df837a"/>
            </g>
            <g id="Group_67" data-name="Group 67">
              <path id="Path_69" data-name="Path 69" d="M283.983,961.158c.283.283.566.562.947.94,3.164-1.475,6.492-3.189,9.6-4.7l.471.453a32.2,32.2,0,0,0,5.476,3.17c.444,2.384.918,4.932,1.365,7.321q-.813,1.037-1.653,2.106c-2.246,4.357-4.577,8.653-6.889,12.954-3.648,2.688-7.249,5.032-10.765,7.437a31.878,31.878,0,0,0-.907,3.184l1.569,1.422c.108,4.9-5.23,9.268-8.2,13.765-1.749.816-3.791,1.764-5.545,2.58-.429-1.586-2.45-.207-5.593,2.553-.074-3.708-4.706-2.172-8.794-4.034,4.243-5.366,8.2-10.618,12.154-15.852a28.645,28.645,0,0,1,3.96-.313c1.878-2.3,3.569-4.373,5.447-6.674l-3.442-3.316c-.807-.781-1.616-1.576-1.691-5.366.381-.453.762-.9.958-1.134,1.773-2.378,3.4-4.572,5.183-6.955.466-1.6.944-3.213,1.241-4.593C280.607,964.5,282.345,962.875,283.983,961.158Z" fill="#df837a"/>
            </g>
            <g id="Group_68" data-name="Group 68">
              <path id="Path_70" data-name="Path 70" d="M317.254,929.931a22.144,22.144,0,0,0,3.926-.265l-8.254,10.142c-.524-.522-1.138-1.131-1.661-1.655C313.259,935.541,315.352,932.614,317.254,929.931Z" fill="#df837a"/>
            </g>
            <g id="Group_69" data-name="Group 69">
              <path id="Path_71" data-name="Path 71" d="M111.9,887.07c3.712.858,7.183,1.814,10.873,2.585l.355.707a30.487,30.487,0,0,1-1.945,2.744l-7.207,4.153q-2.04-4.084-4.085-8.174A17.2,17.2,0,0,1,111.9,887.07Z" fill="#db766d"/>
            </g>
            <g id="Group_70" data-name="Group 70">
              <path id="Path_72" data-name="Path 72" d="M283.054,945.846l.447.471,3.508,3.674c-1.04,1.444-2.3,3.2-3.339,4.638-1.934,1.422-3.95,2.728-5.979,4.031-.593-1.934-1.143-3.724-1.736-5.663C278.242,950.693,280.771,948.148,283.054,945.846Z" fill="#db766d"/>
            </g>
            <g id="Group_71" data-name="Group 71">
              <path id="Path_73" data-name="Path 73" d="M298.8,947.47c.365.358.638.625.91.9a28.051,28.051,0,0,0-.627,3.549l-4.553,5.488c-3.106,1.507-6.434,3.221-9.6,4.7-.381-.379-.664-.657-.947-.94l.963-1.131c2.6-3.668,5.027-7.114,7.365-10.637C294.576,948.72,296.645,948.251,298.8,947.47Z" fill="#db766d"/>
            </g>
            <g id="Group_72" data-name="Group 72">
              <path id="Path_74" data-name="Path 74" d="M283.6,925.526a46.18,46.18,0,0,1,4.831-.784c2.124-2.564,4.373-5.281,6.495-7.843.873,1,1.839,2.1,2.762,3.057,1.669-.389,3.2-2.243,4.966-2.948a18.03,18.03,0,0,0,2.146.114l.41.432c-2.188,2.439-4.572,5.093-6.757,7.527-4.32,3.168-8.881,4.855-11.7,4.018a16.908,16.908,0,0,1-1.148,3.094l2.087,2.2c3.156-.116-.357,4.357-3.109,7.04-1.773-.532-3.415-1.025-5.188-1.56l-3.016,3.279c-.841-.437-1.775-.575-2.587-1.046-4.577-.678,1.762-8.685-2.341-11.055,1.855-2.823,3.754-2.037,4.783-3.107a26.99,26.99,0,0,0,4.5.607Z" fill="#eab2a8"/>
            </g>
            <g id="Group_73" data-name="Group 73">
              <path id="Path_75" data-name="Path 75" d="M294.925,916.9l4.871-5.218c.825,1.891,1.947,3.486,2.857,5.326-1.77.7-3.3,2.559-4.966,2.948C296.764,918.995,295.8,917.9,294.925,916.9Z" fill="#eec4bb"/>
            </g>
            <g id="Group_74" data-name="Group 74">
              <path id="Path_76" data-name="Path 76" d="M170.326,726.566c.19,1.229.36,2.336.55,3.565C171,728.963,165.646,731.14,170.326,726.566Z" fill="#f3d7d0"/>
            </g>
            <g id="Group_75" data-name="Group 75">
              <path id="Path_77" data-name="Path 77" d="M291.282,906.5c4.833-1.687,8.463.209,8.513,5.183l-4.871,5.218a51.384,51.384,0,0,1-3.212-5.877C291.613,909.568,291.441,908.032,291.282,906.5Z" fill="#f3d7d0"/>
            </g>
            <g id="Group_76" data-name="Group 76">
              <path id="Path_78" data-name="Path 78" d="M242.227,913.443c4.963-.723,5.852.36,6.741,1.489C241.259,924.758,239.87,918.817,242.227,913.443Z" fill="#eab2a8"/>
            </g>
            <g id="Group_77" data-name="Group 77">
              <path id="Path_79" data-name="Path 79" d="M122.644,713.527c-1.352,1.218-2.722,2.31-3.788,3.5-3.005-.275-7.715.3-6.212-2.243a21.7,21.7,0,0,0,1.1-3.586C119.6,710.173,115.848,714.064,122.644,713.527Z" fill="#eab2a8"/>
            </g>
            <g id="Group_78" data-name="Group 78">
              <path id="Path_80" data-name="Path 80" d="M125.954,836.294c.206,1.369,3.124.689,4.836,1.025-.114,1.34.04,2.564-.071,3.915,1.9.893,3.849,1.748,5.823,2.575-.849,1.065-1.482,1.859-2.111,2.651,3.3.991,2.945,4.752,4.556,7.061a44.352,44.352,0,0,0-.918,5.273c-.487-1.081-3.185-.514-4.857-.662-1.265-3.019-2.59-6.182-3.857-9.2-.429-1.107-.989-2.18.021-7.064C128.528,840.486,124.745,841.4,125.954,836.294Z" fill="#e29288"/>
            </g>
          </g>
        </g>
      </g>
    </g>
  </g>
</svg>
