<svg xmlns="http://www.w3.org/2000/svg" width="136.999" height="263.454" viewBox="0 0 136.999 263.454">
  <g id="Vector_Smart_Object" data-name="Vector Smart Object" transform="translate(-1340.353 -411.558)">
    <g id="Group_82" data-name="Group 82">
      <path id="Path_81" data-name="Path 81" d="M1468.424,673.976a441.156,441.156,0,0,1-56.14-255.18c25.715,48.565,22.026,106.764,17.671,161.537" fill="none" stroke="#48505b" stroke-miterlimit="10" stroke-width="4.177"/>
      <path id="Path_82" data-name="Path 82" d="M1428.907,578.463c-9.7-19.968-19.414-39.952-30.462-59.214-13.614-23.733-29.2-46.268-44.766-68.77,6.891,23.788,14.095,47.646,25.21,69.785s26.413,42.666,46.868,56.659" fill="none" stroke="#48505b" stroke-miterlimit="10" stroke-width="4.177"/>
      <path id="Path_83" data-name="Path 83" d="M1426.78,573.941a173.067,173.067,0,0,1,31.377-57.039,91.81,91.81,0,0,1-29.773,58.35" fill="none" stroke="#48505b" stroke-miterlimit="10" stroke-width="4.177"/>
      <path id="Path_84" data-name="Path 84" d="M1410.993,428.778a813.2,813.2,0,0,1,16.268,141.5" fill="none" stroke="#48505b" stroke-miterlimit="10" stroke-width="4.177"/>
      <path id="Path_85" data-name="Path 85" d="M1358.2,460.239a469.211,469.211,0,0,0,69.315,116.17" fill="none" stroke="#48505b" stroke-miterlimit="10" stroke-width="4.177"/>
      <path id="Path_86" data-name="Path 86" d="M1341.9,552.321a199.842,199.842,0,0,0,94.111,57.924" fill="none" stroke="#48505b" stroke-miterlimit="10" stroke-width="4.177"/>
      <path id="Path_87" data-name="Path 87" d="M1475.269,555.055a211.753,211.753,0,0,1-24.432,84.388" fill="none" stroke="#48505b" stroke-miterlimit="10" stroke-width="4.177"/>
    </g>
  </g>
</svg>
