<svg xmlns="http://www.w3.org/2000/svg" width="146.301" height="183.997" viewBox="0 0 146.301 183.997">
  <path id="Shape" d="M1399.049,5408.059c7.681,0,7.669,11.932,0,11.932S1391.381,5408.059,1399.049,5408.059Zm-5.057-37.359a1.128,1.128,0,0,1,0,2.255A1.128,1.128,0,0,1,1393.992,5370.7Zm32.031-18.714c5.988,0,5.977,9.3,0,9.3S1420.044,5351.985,1426.023,5351.985Zm-13.487-12.792a.564.564,0,0,1,0,1.126A.564.564,0,0,1,1412.536,5339.194Zm-21.915-20.548c7.62,0,7.608,11.838,0,11.838S1383.013,5318.646,1390.621,5318.646Zm15.172-9.6c2.6,0,2.6,4.04,0,4.04S1403.2,5309.043,1405.793,5309.043Zm18.543,1.457a.564.564,0,0,1,0,1.126A.564.564,0,0,1,1424.336,5310.5Zm-30.344-29.778c4.3,0,4.287,6.671,0,6.671S1389.706,5280.721,1393.992,5280.721Zm28.659,2.771a.564.564,0,0,1,0,1.127A.564.564,0,0,1,1422.651,5283.492Zm35.4-11.678c2.722,0,2.716,4.229,0,4.229S1455.334,5271.814,1458.052,5271.814Zm-20.229-12.147c5.323,0,5.313,8.268,0,8.268S1432.51,5259.667,1437.823,5259.667Zm-20.229.658c4.475,0,4.468,6.952,0,6.952S1413.125,5260.326,1417.593,5260.326Zm70.8-9.38c5.684,0,5.676,8.832,0,8.832S1482.72,5250.946,1488.4,5250.946Zm-67.431-9.425c6.955,0,6.943,10.8,0,10.8S1414.021,5241.521,1420.965,5241.521Zm107.89,1.272c3.145,0,3.139,4.886,0,4.886S1525.714,5242.792,1528.855,5242.792Zm-87.661-4.923c2.963,0,2.959,4.6,0,4.6S1438.236,5237.87,1441.195,5237.87Zm30.343-1.875c3.206,0,3.2,4.978,0,4.978S1468.338,5235.994,1471.537,5235.994Z" transform="translate(-1384.911 -5235.994)" fill="#484f5b"/>
</svg>
