<svg xmlns="http://www.w3.org/2000/svg" width="186" height="206" viewBox="0 0 186 206">
  <g id="Vector_Smart_Object" data-name="Vector Smart Object" transform="translate(-24.079 -314.529)">
    <g id="Group_993" data-name="Group 993" opacity="0.5">
      <g id="Group_992" data-name="Group 992" opacity="0.9">
        <g id="Group_991" data-name="Group 991" opacity="0.9">
          <g id="Group_913" data-name="Group 913">
            <path id="Path_978" data-name="Path 978" d="M46.242,316.7c-2.054.152-3.047,1.058-5.446.774q.1-1.47.2-2.937C43.975,314.471,48.028,315.063,46.242,316.7Z" fill="#eec4bb"/>
          </g>
          <g id="Group_914" data-name="Group 914">
            <path id="Path_979" data-name="Path 979" d="M101.749,327.7a18.65,18.65,0,0,0,.845,3.275,11.206,11.206,0,0,0-.916,2.186l0,.567c-.361,1.03-.57,2.055-.906,3.091.025.694.051,1.447.076,2.142l-.913.4a9.576,9.576,0,0,1,.987,2c-.54.3-1.1.548-1.644.792.765.31,1.716.658,2.664.941.041.691.088,1.446.129,2.137l.929-.1a32.93,32.93,0,0,0,1.317,4.959,80.343,80.343,0,0,0,.051,8.57l-2.732.435c.066.571.184,1.2.282,1.827l2.732-.453a39.272,39.272,0,0,0,1.675,4.58c.119.619.24,1.24.346,1.8-2.931,2.31.423,1.21.345,1.8-.759.86-1.556,1.739-2.278,2.671.056.25.128.562.2.873-.414.746-.789,1.418-1.2,2.162a14.751,14.751,0,0,1,.606,2.6c.139.812.217,1.582.275,2.342a21.436,21.436,0,0,0,.635,4.628c1.312,1.836,4.442,5.309-.3,8.187,2.908.6,2.467,2.236,3.1,3.429-2.633.734-1.039,1.357-1.867,2.244l.456,1.189c.237.627.452,1.192.689,1.816.205.57.449,1.194.722,1.811.842,1.979,1.622,3.995,2.528,5.963a10.475,10.475,0,0,0,.091,2.347,13.519,13.519,0,0,0,1.808,1.787c.479.616,1.148,1.157,1.652,1.759,1.039.467,1.877.932,2.709,1.4l.151.3a17.219,17.219,0,0,0,2.142,2.256,23.285,23.285,0,0,0,2.386,2.5,8.585,8.585,0,0,0,.124,2.092c3.3-.578,3.229.986,3.095,2.17,1.282,1.42,2.475,2.879,3.65,4.346,1.32.11,2.8.134,4.076.17-.875.587-1.912,1.257-2.822,1.789,1.269,1.344,2.339,2.709,3.686,4.011l4.518-2.391c1.963.4,4.626-.666,5.584-.81.562.518,1.279.948,1.837,1.463.32,2.516-.081,4.3,2.618,3.581.754.439,1.458.887,2.141,1.345s1.382.9,2.086,1.363c-.278,2.719.865,3.6,2.873,2.257.292.361.522.685.827,1.04l2.069,2.451c-.33,2.532,2.19,1.266,2.931,1.083.54.673,1.152,1.3,1.682,1.907.719.8,1.485,1.646,2.159,2.4.664,1.745,2.091.314,3.166.932,0,.738.063,1.525-.015,2.419l.422.441c3.022-1.492,3.082.032,3.193.883l.422.44c2.7-1.563,2.76-.356,2.745.338.944-.483,1.894-.971,3.02-1.515a18.04,18.04,0,0,0,.492,2.832l1.4,1.365,2.924-1.618c.1.774.207,1.55.27,2.284a24.929,24.929,0,0,0,2.011,2.967l-4.067,3.96c-.916.059-1.967.23-3.025.4l-.258-.237c1.123-1.228,2.124-2.346,3.2-3.616l-1.427-1.294c-2.091.582-2.257-.7-3.917-.229a11.092,11.092,0,0,0-.111-2.443c-.8-.317-1.471-.737-2.281-1.051-.7.028-1.443.008-2.142.029-3.688,2.067-3.539.725-4.344.39l-1.9,1.438-.482-.507a19.181,19.181,0,0,1-1.4-2.66c-.416-1.4-3.247.055-4.919.729a14.751,14.751,0,0,1-2.076-1.012,5.031,5.031,0,0,1-.192-1.48l-1.887.456a40.092,40.092,0,0,1-2.525-5.491c-1.325.288-2.467.534-3.66.722-.124-.909-.26-1.89-.394-2.873a17.032,17.032,0,0,0-2.378-1.609l-.648-.816-1.339.813a16.106,16.106,0,0,1-1.107-2.8c.449-.267.9-.535,1.347-.8-.234-2.074-2.6-.611-3.869-1.158a14.4,14.4,0,0,1-2.167-1.46c-3.454,2.636-3.179,4.449-.343,3.621.167.223.295.393.421.563l-1.781,3.41c-6.735,1.125-3.917-2.923-7.557-3.157-.981-1.967-7.935,1.438-5.756-2.443.429-2.427-.727-3.177-3.385-2.148-1.417-1.551-2.885-3.163-4.188-4.856,2.454-1.737-.31-1.2-.28-2.174-3.947-.247-4.495-2.114-4.912-3.984-.413-1.888-.774-3.743-4.672-4.171,1.5-2.49-1.014-2.364-2.75-3.383a21.906,21.906,0,0,1-.727-3.409c-5.978.349,1.463-4.512-1.912-5.808a25.632,25.632,0,0,0-.356-3.092c-1.054-1.11-5.3-1.862-2.318-3.148-.825-1.068,3.557-2.852,1.37-3.968-2.938-1.05-1.967-4.1-5.285-4.356,1.1-1.561-.156-2.945-1.239-4.425-1.032-1.491-1.9-3.074-.063-4.868-3.8-1.027-2.494-4.868-3.739-7.25l-.381-1.61c1.985-.37,1.423-1.158,1.316-1.624-.293-.427.467-1.217-1.211-1.139-1.43.374-.749-.768,2.262-2.421l.9-.186c1.209.3,2.4.538,3.792.857,2.321-1.376,2.167-2.015,3.824-3.093-.929.055-1.842.173-2.77.226-.822-.376-1.829-.717-2.836-1.069l3.186-1.9c1.675-1.991-3.59-.124-4.72-1.073,1.251-1.182,2.575-2.431,3.869-3.591-1.6-1.876,2.1-4.192-.852-5.582,1.423-.484,2.865-.9,4.3-1.313a8.555,8.555,0,0,0-1.155-1.724,29.411,29.411,0,0,0,.56-3.2c-2.805-.207-4.087-1.891-.237-2.434-.094-1.024-.212-2.043-.265-3.073-1.513-.473-3.025-.892-4.545-1.384-3.285.818-5.41-.356-4.556-1.439l3.464-.939c-.591-.4-1.156-.74-1.726-1.149.91-.48,1.632-1.006,2.545-1.479-.013-.392-.03-.847-.043-1.237-.023-.65-.043-1.233-.066-1.882a5.844,5.844,0,0,0-2.638-2.287l-3.524.249c-1.294-.374-2.411-.7-3.713-1.015-.754-1.7,1.256-3.093,1.864-4.65,1.9-2.224,6.337-1.626,8.95-2.015l.031-1.551c1.866-.336,3.542-.721,5.41-1.113C101.822,325.139,101.966,326.5,101.749,327.7Z" fill="#eec4bb"/>
          </g>
          <g id="Group_915" data-name="Group 915">
            <path id="Path_980" data-name="Path 980" d="M33.18,341.626c2.262,1.316,1.589,2.134-.6,3.014C30.275,343.573,28.166,341.981,33.18,341.626Z" fill="#eec4bb"/>
          </g>
          <g id="Group_916" data-name="Group 916">
            <path id="Path_981" data-name="Path 981" d="M54.07,347.175c.943.207,1.713.5,2.671.773-1.055,2.913,3.115,4.789.712,8.016,6.367.306,7.066-1.816,10.632-1.6,2.8.009.873,1.175,2.787,1.641l.92-.119a47.292,47.292,0,0,0,7.959-.349,20.538,20.538,0,0,0,2.106,2.054c-1.746.865-3.3,1.783-5.05,2.671-4.256.271-1.907-1.693-5.575-1.178-.618-.412-1.233-.754-1.831-1.174-4.122,2.856-2.7,4.784-2.815,6.684l-3.256,1.9c-1.142-.039-2.455-.052-3.589-.173-.424-.381-.686-.864-1.108-1.246a34.729,34.729,0,0,0-1.519-4.027c-.283-.631-.7-1.1-.954-1.661-1.862-.047-3.728-.029-5.406-.039l-3-1.819a23.706,23.706,0,0,0,1.559-2.689c.621-1.28-1.269-1.819-2.093-2.716l-.053-.675c.635-1.276,1.085-2.6,1.556-3.774Z" fill="#f3d7d0"/>
          </g>
          <g id="Group_917" data-name="Group 917">
            <path id="Path_982" data-name="Path 982" d="M42.9,327.877c.913,1.621,1.841,3.23,2.745,4.9.538,1.319,1.113,2.557,1.7,3.863l.015.669c-1.662.479-3.506.975-5.355,1.476-.706,1.717,4.1.555,5.419,1.434.376,1.245.674,2.566,1.1,3.88-.338.627-.5,1.163-.828,1.87-1.645.445-3.474.988-5.3,1.538-.094,1.76-.07,3.845,4.767,3.942l.053.675c.823.9,2.714,1.436,2.093,2.716a23.706,23.706,0,0,1-1.559,2.689l3,1.819c.108.818.167,1.644.311,2.533a12.132,12.132,0,0,0,6.049-.833,34.729,34.729,0,0,1,1.519,4.027l-8.781,1.331c-2.827,1.845-2.334,3.354-1.483,4.9s1.995,3.143.658,5.3c-1.031,2.224-.1,3.929.679,5.566s1.491,3.2-.075,5.292a15.739,15.739,0,0,1-2.648-3.921,37.54,37.54,0,0,1-1.478-4.039c-.885-2.634-1.592-5.089-3.619-6.93l.913-.152c-1.607-2.435.936-5.728-.439-8.64-1.547-1.5-3.691-2.715.451-3.787l-.207-1.829a4.259,4.259,0,0,1-1.006-.575,11.507,11.507,0,0,1,.645-2.7l-4.429.5a9.58,9.58,0,0,0-4.707-2.866c-.263-2.652-.389-5.23-.533-7.878,2.194-.88,2.866-1.7.6-3.014,1.311-5.389,2.752-10.622,4.415-15.774C39.424,326.563,41.26,327.183,42.9,327.877Z" fill="#e29288"/>
          </g>
          <g id="Group_918" data-name="Group 918">
            <path id="Path_983" data-name="Path 983" d="M33.108,352.519a9.58,9.58,0,0,1,4.707,2.866l4.429-.5a11.507,11.507,0,0,0-.645,2.7,4.259,4.259,0,0,0,1.006.575l.207,1.829c-4.142,1.073-2,2.292-.451,3.787,1.375,2.913-1.168,6.205.439,8.64l-.913.152c2.026,1.841,2.734,4.3,3.619,6.93a37.54,37.54,0,0,0,1.478,4.039,15.739,15.739,0,0,0,2.648,3.921c1.566-2.09.863-3.652.075-5.292s-1.71-3.342-.679-5.566c1.337-2.156.2-3.748-.658-5.3s-1.344-3.053,1.483-4.9l8.781-1.331c.422.382.684.865,1.108,1.246a25.8,25.8,0,0,0-2.258,2.157c-.171,1.157,2.618-.052,3.658.522.164.944.316,1.813.48,2.755.316,1.965.794,3.9,1.2,5.938,1.66.729,1.069,2.425,1.758,3.646a17.059,17.059,0,0,0-1.3,2.4c-2.069,2.358-2.227,3.259-1,3.595a31.6,31.6,0,0,1-1.934,2.616,16.5,16.5,0,0,0,2.2,1.038,19.543,19.543,0,0,0-1.107,2.847c1.151.734,2.361,1.45,3.363,2.208.093.915.038,1.95.169,2.939l.56,1.743c-4.767,2.429,2.918.618,1.221,3.465a13.444,13.444,0,0,1,1.7-.092c3.622.373,2.112,2.78,3.231,3.561-.591.976-1.208,1.886-1.793,2.871.114.766.022,1.525.134,2.3.915.84,1.864,1.747,2.817,2.564.063.14.1.211.157.352a32.487,32.487,0,0,1,.784,4.06c.646,2.408,3.16,1.677,5.09,2.441-.757,2.58,1.612,2.117,2.142,2.814-.633,2.466-.282,3.008-.013,3.567.794,1.525,1.624,3.121,2.416,4.646,1.047.075,2.737-.211,3.042.334.151.273.263.476.378.681a13.107,13.107,0,0,1,.295,2.327c-.189,1.09-1.279,3.557,1.382,3.831a40.136,40.136,0,0,0,1.6,4.294,13.752,13.752,0,0,1,2.369,1.38,23.162,23.162,0,0,0,2.338,1.438c1.093.694,2.172,1.387,3.461,2.057a3.938,3.938,0,0,0,2.422,3.087c1.059.514,2.177.809,2.865,1.777,1.518.612,2.986,1.242,4.53,1.817,1.171.691,2.3,1.309,3.421,1.928-.467.809,1.311.865,1.38,1.819.875,4.757,3.67,5.9,7.2,6.178a34.1,34.1,0,0,0,3.955,1.936l1.5,1.73c-.373,2.7.946,2.12,2.059,2.311l1.284-.869c.756.814,1.513,1.628,2.321,2.5a4.946,4.946,0,0,1,.971-.2c.207.717.608,1.4.813,2.118a9.148,9.148,0,0,0,1.241.084,17.765,17.765,0,0,0,2.588,1.424,5.77,5.77,0,0,0,.378,1.581,19.332,19.332,0,0,0,2.313,1.133c1.059,1.083,2.16,2.129,3.274,3.169-1.533-.062-3.264.265-4.42.241-1.138-.037-1.7-.424-.891-1.879-.7-.469-1.546-.835-2.19-1.249-2.45-.076-3.627-1.217-3.97-2.824l-3.85,1.845c-.388-.415-.721-.773-1.11-1.189-3.4,2.078-3.491.745-4.25.182-.936.249-1.816.552-2.694.853-1.049-.378-2.119-.744-3.2-1.213.366-1.137,2.487-3.117,1.211-3.541-3.347,1.892-9.177,6.909-10.74,4.1-1.428-2.851-5.59-4.238-6.52-7.77-2.3.2-4.669.8-5.1-1.182,1.869-.982.9-1.67.489-2.2-1.325-1.447-3.681-.522-4.193-2.622a6.683,6.683,0,0,1,.282-1.106c-3.045.235-3.884.865-4.889.358-.87,2.668.674,2.132.916,2.767l.462.615c.048.944.093,1.8.141,2.741l-1.528-1.979c-2,.81-3.85,1.529-5.7,2.237l-.77-1.06a18.447,18.447,0,0,1,1.629-6.395c-.2-.278-.35-.485-.5-.7-1.605-.127-2.977-.285-4.406-.52.015-.3.189-.67.2-.963L74.64,459.68c-.48-.717-.959-1.434-1.392-2.078a4.7,4.7,0,0,1-1.042.027c-.482-.715-.9-1.367-1.347-2.1a14.621,14.621,0,0,1,.52-2.5l4.513-2.1a15.9,15.9,0,0,0,1.218-1.385l-.222-.357c-2.311-.389-4.485-.872-6.81-1.305a10,10,0,0,0-1.258,1.018c-.688-1.542-1.155-3.08-1.791-4.536-1.074-.453-2.275-.764-3.529-1.157a37.3,37.3,0,0,1-.454-4.61c-3.584-1.8-5.628-3.387-3.938-5.7a36.5,36.5,0,0,1-1.077-4.282l-.5-1.044A7.733,7.733,0,0,1,56,426.357c.244-.782.519-1.487.736-2.34a19.007,19.007,0,0,0-4.757-.04,29.351,29.351,0,0,0-.558-3.565q-1.521-2.694-3.068-5.435c-1.014-1.829-1.947-3.695-2.924-5.55-.789-1.135-3.917-1.13-4.7-2.378l-.255-.786c.651-.943,1.281-1.956,1.935-2.886-.588-1.788-1.153-3.5-1.635-5.222a26.331,26.331,0,0,1-1.882-3.234c-.136-.468-.3-1.016-.434-1.486A195.961,195.961,0,0,1,33.564,365c4.273-2.656.7-1.764-.3-2.275.295-2.272.547-4.6.88-6.929C33.854,354.728,33.385,353.6,33.108,352.519Z" fill="#df837a"/>
          </g>
          <g id="Group_919" data-name="Group 919">
            <path id="Path_984" data-name="Path 984" d="M56.16,359.391c.253.562.671,1.03.954,1.661a12.132,12.132,0,0,1-6.049.833c-.144-.889-.2-1.714-.311-2.533C52.432,359.362,54.3,359.344,56.16,359.391Z" fill="#eec4bb"/>
          </g>
          <g id="Group_920" data-name="Group 920">
            <path id="Path_985" data-name="Path 985" d="M89.265,335.559a5.844,5.844,0,0,1,2.638,2.287c.023.649.043,1.232.066,1.882.013.391.03.845.043,1.237.555.08,1.113.095,1.856.156-1.463.459-2.931.92-4.4,1.323.57.409,1.135.749,1.726,1.149l-3.464.939c-.853,1.083,1.271,2.257,4.556,1.439,1.519.492,3.032.911,4.545,1.384.053,1.03.171,2.049.265,3.073-3.85.543-2.568,2.227.237,2.434a29.411,29.411,0,0,1-.56,3.2,8.555,8.555,0,0,1,1.155,1.724c-1.435.412-2.876.829-4.3,1.313,2.947,1.389-.746,3.706.852,5.582-1.294,1.159-2.618,2.408-3.869,3.591,1.13.948,6.4-.919,4.72,1.073l-3.186,1.9c1.007.352,2.015.693,2.836,1.069.928-.053,1.841-.171,2.77-.226a7.184,7.184,0,0,0,1.037.456c-1.68.883-3.377,1.709-4.861,2.637-1.579-.281-3.128-.44-4.69-.671-3.01,1.653-3.691,2.795-2.262,2.421,1.678-.078.918.713,1.211,1.139.108.465.669,1.253-1.316,1.624l.381,1.61c1.246,2.382-.065,6.223,3.739,7.25-1.841,1.793-.969,3.377.063,4.868,1.084,1.48,2.338,2.865,1.239,4.425,3.319.253,2.348,3.306,5.285,4.356,2.187,1.115-2.2,2.9-1.37,3.968-2.981,1.286,1.264,2.038,2.318,3.148a25.632,25.632,0,0,1,.356,3.092c3.375,1.3-4.066,6.157,1.912,5.808a21.906,21.906,0,0,0,.727,3.409c1.736,1.019,4.246.893,2.75,3.383,3.9.428,4.26,2.283,4.672,4.171.418,1.87.966,3.736,4.912,3.984-.03.97,2.734.437.28,2.174,1.3,1.693,2.772,3.3,4.188,4.856,2.658-1.03,3.814-.28,3.385,2.148-2.179,3.881,4.775.476,5.756,2.443,3.64.234.822,4.282,7.557,3.157l1.781-3.41c-.126-.17-.253-.34-.421-.563-2.836.828-3.112-.986.343-3.621a14.4,14.4,0,0,0,2.167,1.46c1.332.345,2.548.826,3.869,1.158-.446.263-.9.531-1.347.8a16.106,16.106,0,0,0,1.107,2.8l1.339-.813.648.816a11.137,11.137,0,0,1,1.945,1.067l.432.542c.134.983.27,1.963.394,2.873,1.054-.349,2.063-.754,3.209-1.249l.451.527a40.092,40.092,0,0,0,2.525,5.491l1.887-.456a5.031,5.031,0,0,0,.192,1.48l-1.96,1.375c-.694,1-1.2,1.967-1.887,2.988-1.082.325-2.3.742-3.342,1.118-2.81-.583-8.178.492-10.428-.61,2.054-2.335-.4-2.034-1.123-3.934l-1.458.935c-1.677-1.115-3.3-2.362-5.068-3.445.249-1.618-2.5.479-3.764.544l-1.135-1.4c-2.276-.382-4.908-1.026-7.214-1.192-4.316-7.254-10.093-11.734-16.714-17.362-1.4-1.6,2.815-3.529-2.518-4.35-.565-.645-1.327-1.29-1.9-1.936.343-3.362-1.38-4.566.321-6.667-2.073-1.3-4.818.4-4.956-.263-.244-.461-.441-.86-.654-1.333.661-2.38-1.552-2.015-2.205-2.568,1.009-2.489-1.291-1.884-1.2-2.549l-.156-.334-1.69-3.928-.406-.947c.442-1.232.885-2.526,1.221-3.7-.676-1.228-1.544-2.473-2.217-3.7-.214-.539-.429-1.078-.613-1.628l.694-.207c.363-1.989-.376-3.968-1.087-5.867-.661-1.91-1.267-3.746-.714-5.353-2.868-1.1-1.45-3.735-2.386-5.032,3.08-1.236.6-1.952,1.968-3.2.02-.724.234-1.414.252-2.132.2-2.315-2.656-4.729,1.234-7.044-1.481-.83-2.792-1.708-4.094-2.6.681-.338,1.543-.706,2.4-1.141-.166-.947-.225-1.288-.285-1.626,1.082-.258,2.957-.245,3.411-.876-.631-1.545-2.361-1.795-5.827-2.343.62-.8,1.039-1.562,1.518-2.26-.437-.488-.7-1-1.138-1.49l-3.614-.509c1.748-.888,3.3-1.805,5.05-2.671a20.538,20.538,0,0,1-2.106-2.054,11.981,11.981,0,0,0-1.16-2.2c-.02-.206-.038-.409-.058-.612-.089-.888-.21-1.769-.262-2.659.891-.515,1.779-1.094,2.672-1.6-.469-1.574-3.572-2.918-.331-4.861a40.3,40.3,0,0,1,.746-4.6c.128-1.158,3.287-2.066,4.382-3.2Z" fill="#eab2a8"/>
          </g>
          <g id="Group_921" data-name="Group 921">
            <path id="Path_986" data-name="Path 986" d="M71.232,359.085a9.452,9.452,0,0,1-.688,1.811c-.941,1.285,2.008.994,3.89,1.133a9.718,9.718,0,0,0-.641,2.088c1.171.313,2.527.52,3.7.821l2.547-.415c3.466.548,5.2.8,5.827,2.343-.454.631-2.329.618-3.411.876.06.338.119.679.285,1.626-.853.435-1.715.8-2.4,1.141,1.3.889,2.613,1.767,4.094,2.6-3.89,2.315-1.034,4.729-1.234,7.044-.018.718-.232,1.408-.252,2.132-1.37,1.25,1.112,1.967-1.968,3.2.936,1.3-.482,3.929,2.386,5.032-.553,1.607.053,3.444.714,5.353.711,1.9,1.45,3.878,1.087,5.867l-.694.207c.184.55.4,1.089.613,1.628.673,1.232,1.541,2.477,2.217,3.7-.336,1.176-.779,2.47-1.221,3.7l.406.947,1.69,3.928.156.334c-.088.665,2.212.06,1.2,2.549.653.552,2.866.187,2.205,2.568.214.473.411.872.654,1.333.138.659,2.883-1.034,4.956.263-1.7,2.1.022,3.3-.321,6.667.57.646,1.332,1.292,1.9,1.936,5.333.821,1.123,2.752,2.518,4.35,6.621,5.629,12.4,10.109,16.714,17.362,2.306.166,4.937.809,7.214,1.192l1.135,1.4c1.269-.066,4.013-2.162,3.764-.544,1.765,1.083,3.392,2.33,5.068,3.445l1.458-.935c.722,1.9,3.178,1.6,1.123,3.934,2.25,1.1,7.618.027,10.428.61,1.04-.376,2.26-.793,3.342-1.118.689-1.02,1.193-1.985,1.887-2.988l1.96-1.375a14.751,14.751,0,0,0,2.076,1.012c1.672-.674,4.5-2.125,4.919-.729a19.181,19.181,0,0,0,1.4,2.66l.482.507c.121.6.376,1.113.5,1.721,2.6.658,5.814.241,7.789,1.936,1.559,1.059,3.088,2.144,4.634,3.119l.258.237-1.794,1.527a20.759,20.759,0,0,1-2.817-.306c-.645.54-1.834.143-3,1.569,2.57,1.2-1.4,5.24,1.466,5.582.509.238,1.094.308,1.62.528q-.164,2.471-.267,4.971c-1.577-.686-3.183-1.357-4.752-2.068a19.152,19.152,0,0,1-4.546-2.792,7.167,7.167,0,0,1-1.594-1.963,5.632,5.632,0,0,1-.6-2.518c-.8-1.694-5.09,1.4-5.777.044a35.394,35.394,0,0,1-9.946-.651c-1.317.592-2.687,1.123-4.074,1.658a25.254,25.254,0,0,0-2.518-1.4c-.053-.056-.161-.168-.205-.23l1.335-4.552c-1.808.8-3.57,1.644-5.4,2.433-.23,1-.408,2.055-.577,3.12l-1.972,1.376a4.946,4.946,0,0,0-.971.2c-.809-.871-1.566-1.684-2.321-2.5-.315-.824-.794-1.633-1.07-2.477a19.063,19.063,0,0,1-2.273,1.035l-1.5-1.73a34.1,34.1,0,0,1-3.955-1.936c-3.526-.279-6.321-1.422-7.2-6.178-.07-.953-1.847-1.01-1.38-1.819-1.12-.619-2.25-1.237-3.421-1.928a20.954,20.954,0,0,1-1.43-3.48c-2.068-1.446-4.172-2.8-6.185-4.314-.025-.685-.21-1.286-.239-1.963.239-1.24-2.081-.614-2.83-1.115-1.682-2.205-3.355-4.421-5-6.729-1.726-1.513-3.208-3.144-4.75-4.757l-.825.35c-.114-.2-.227-.408-.378-.681a18.488,18.488,0,0,1,.575-2.663c-1.009-1.166-.785-3.065-2.853-3.565l1.322-1.339c-1.236-.417-2.455-.849-3.647-1.3.07-.682-.027-1.3.045-1.977-1.072-.17-2.9.174-3.029-.518.247-.742.522-1.412.736-2.219.041-.745-.858-.991-1.61-1.372A23.407,23.407,0,0,0,77.4,415c-.27-.626-.572-1.327-.842-1.956L75,413.552a12.509,12.509,0,0,1-1.688-1.775l.863-.277a11.7,11.7,0,0,1-1.675-1.784c-.28-.707-.534-1.347-.813-2.055-1.118-.781.391-3.188-3.231-3.561.6-1.044,1.163-2.148,1.768-3.176-1.9-.412-.749-2.211-2.79-2.6.926-.71,2.006-1.542,2.929-2.251-1.042-.266-1.881-.512-2.906-.713a16.51,16.51,0,0,1-.071-3.379l-.893.219-.567-2.018-.969-3.453,1.619-.365c4.114,1.114,4.538,2.647,5.08,4.564l1.6-.393c1.67-3.631-1.572-5.551.853-7.362a17.349,17.349,0,0,0-.227-5.155,7.265,7.265,0,0,0-2.954-4.764l3.174-1.962c-.432-.282-.673-.526-1.087-.816.237-.762.308-1.422.557-2.181l-3.459.591L63.5,367.5c-.852.509-1.519.99-2.363,1.5-1.04-.574-3.829.635-3.658-.522a25.8,25.8,0,0,1,2.258-2.157c1.133.12,2.447.134,3.589.173l3.256-1.9c.116-1.9-1.307-3.827,2.815-6.684C70,358.331,70.614,358.673,71.232,359.085Z" fill="#e7a298"/>
          </g>
          <g id="Group_922" data-name="Group 922">
            <path id="Path_987" data-name="Path 987" d="M80.421,360.773c.442.487.7,1,1.138,1.49-.479.7-.9,1.46-1.518,2.26l-2.547.415c-1.175-.3-2.53-.508-3.7-.821a9.718,9.718,0,0,1,.641-2.088c.668-.6,1.526-1.15,2.373-1.765Z" fill="#eec4bb"/>
          </g>
          <g id="Group_923" data-name="Group 923">
            <path id="Path_988" data-name="Path 988" d="M89.705,481.259a9.256,9.256,0,0,0,1.819.845c.393.737.8,1.5,1.229,2.239.447.733.915,1.455,1.4,2.137l-2.046,1.3c.842.943,1.743,1.955,2.585,2.9a6.313,6.313,0,0,0-.838,1.621c-3.343,1.129-5.075-.809-3.933-3.125l-2.349.96a54.642,54.642,0,0,1-3.522-5.455c-.89-1.348-1.581-2.707-2.462-4.048,1.45-.955,2.845-1.973,4.094-2.9C87.1,478.937,88.339,480.135,89.705,481.259Z" fill="#eec4bb"/>
          </g>
          <g id="Group_924" data-name="Group 924">
            <path id="Path_989" data-name="Path 989" d="M182.3,474.457c2.432-2.6,3.317-1.791,4.352-1.264,1.065.507,2.262.725,5.221-3.021.893-1,1.746-1.954,2.639-2.951l2.3-2.168,1.528,1.232,2.86-1.915c1.392-.144,2.777-.3,4.265-.568a26.153,26.153,0,0,1-4.326,5.591,17.152,17.152,0,0,1-2.459.134c-1.191,1.355-2.5,2.832-3.751,4.151l-.474.465-2.84,2.776c.618.489,1.281,1.034,1.922,1.5-.527.624-1,1.3-1.523,1.926-1.287,1.692-2.505,3.222-3.842,4.877a21.776,21.776,0,0,1-3.43-1.6l-.295-.229,2.851-2.771a11.7,11.7,0,0,1,.393-1.792c-1.574.217-3.04.313-4.632.518-1.465,1.779-2.982,3.518-4.613,5.371l-.6.571c-1.026.867-2.114,1.686-3.2,2.5-.186.7-.485,1.51-.777,2.319-1.113,1.2-2.136,2.311-3.246,3.512-.123.116-.361.344-.6.572l-2.85-.349c-1.262-.77.885-3.5,2.245-5.17l2.941-2.708c.492-.661,1.047-1.274,1.546-1.938,1.271-.658,2.533-1.317,3.744-2.035.651-.728,1.44-1.613,2.091-2.342.418-.288.9-.536,1.445-.944C181.538,477.292,181.8,475.978,182.3,474.457Z" fill="#e29288"/>
          </g>
          <g id="Group_925" data-name="Group 925">
            <path id="Path_990" data-name="Path 990" d="M202.852,460.617c-.616,1.406-1.1,2.5-1.649,3.753l-2.86,1.915-1.528-1.232c.689-.923,1.259-1.729,1.9-2.695C200.156,461.824,201.36,461.318,202.852,460.617Z" fill="#eec4bb"/>
          </g>
          <g id="Group_926" data-name="Group 926">
            <path id="Path_991" data-name="Path 991" d="M183.68,496.527c1.448-2.172,2.908-4.341,4.314-6.541l1.036-1.063c.7-.5,1.393-1,2.028-1.551,2.232-2.406,4.518-4.973,6.813-7.548,1.37-2.029,2.939-4.731,3.894-4.017l.843.637-3.3,3.438c-1.892,3.077-2.137,6.144-6.538,7.752-1.47,3.987-5.078,9.222-8.46,9.365-2.363,1.9-4.629,3.674-6.954,5.609l-.982-.718a13.774,13.774,0,0,1,.568-1.607C179.141,499.068,181.4,497.884,183.68,496.527Z" fill="#eec4bb"/>
          </g>
          <g id="Group_927" data-name="Group 927">
            <path id="Path_992" data-name="Path 992" d="M92.842,328.127c-2.613.389-7.053-.209-8.95,2.015-.35-1.047-.512-2.106-.863-3.156,2.255-1.162,8.763-1.843,9.845-.411Z" fill="#f3d7d0"/>
          </g>
          <g id="Group_928" data-name="Group 928">
            <path id="Path_993" data-name="Path 993" d="M46.432,327.752l5.385.467c5.9,3.406-4.1,1.866-1.718,4.341,0,.592,0,1.181-.007,1.773-.916.789-1.829,1.51-2.74,2.312-.591-1.307-1.166-2.545-1.7-3.863-.9-1.674-1.832-3.283-2.745-4.9Z" fill="#f3d7d0"/>
          </g>
          <g id="Group_929" data-name="Group 929">
            <path id="Path_994" data-name="Path 994" d="M47.432,340.223c3.358.8,9.6-.776,7.318,1.888-1.617,1.159-4.215,1.3-6.223,1.991C48.106,342.79,47.808,341.468,47.432,340.223Z" fill="#f3d7d0"/>
          </g>
          <g id="Group_930" data-name="Group 930">
            <path id="Path_995" data-name="Path 995" d="M106.231,339.366c.018.495.031.988-1.8,1.664.01.623.065,1.246.094,1.805a7.8,7.8,0,0,1,1.034,1.705c-.918.163-1.649.368-2.558.592l-.929.1c-.041-.691-.088-1.446-.129-2.137-.948-.284-1.9-.631-2.664-.941.545-.243,1.1-.487,1.644-.792a9.576,9.576,0,0,0-.987-2l.913-.4C102.7,339.119,104.373,339.285,106.231,339.366Z" fill="#f3d7d0"/>
          </g>
          <g id="Group_931" data-name="Group 931">
            <path id="Path_996" data-name="Path 996" d="M67.292,344.214c3.029,1.915,2.828,3.316.258,4.017C64.79,346.383,64.17,345.2,67.292,344.214Z" fill="#f3d7d0"/>
          </g>
          <g id="Group_932" data-name="Group 932">
            <path id="Path_997" data-name="Path 997" d="M34.139,355.8c-.333,2.326-.585,4.657-.88,6.929l-1.733,1.03A13.553,13.553,0,0,0,33.564,365a195.961,195.961,0,0,0,4.9,28.434l-5.388.453c.008-2.965.736-5.934-2.83-7.48,1.239-2.986-4.014-4.333-4.213-7.24,1.431-.416,3.5-.364,4.29-1.163.02-1.4-2.4-2.306-4.019-3.3s-2.431-2.059.886-3.672c-.918-1.091-2.006-2.083-3.107-3.163a20.873,20.873,0,0,1,1.435-2.906,16.692,16.692,0,0,1,1.549-1.022c.262-.927.34-1.827.6-2.748.018-1.444-5.241-3.117.434-4.322-.987-.608-2.162-1.208-2.056-2.1,2.614.04,3.411-1.406,7.065-2.251C33.385,353.6,33.854,354.728,34.139,355.8Z" fill="#f3d7d0"/>
          </g>
          <g id="Group_933" data-name="Group 933">
            <path id="Path_998" data-name="Path 998" d="M104.365,358.661c.088.562.184,1.183.282,1.808l-2.732.453c-.1-.63-.215-1.256-.282-1.827Z" fill="#f3d7d0"/>
          </g>
          <g id="Group_934" data-name="Group 934">
            <path id="Path_999" data-name="Path 999" d="M106.322,365.049c2.543.492,3.582,1.046.346,1.8C106.562,366.289,106.441,365.668,106.322,365.049Z" fill="#f3d7d0"/>
          </g>
          <g id="Group_935" data-name="Group 935">
            <path id="Path_1000" data-name="Path 1000" d="M104.933,372.19c3.073,1.41,3.764,3.042,3.956,4.721s-.262,3.429.336,5a11.662,11.662,0,0,1,3.816,6.058,43.44,43.44,0,0,1,1.352,6.91c-1.446.788-.325,1.185-.318,1.727a5.274,5.274,0,0,0,.978.027,13.674,13.674,0,0,1,1.435,2.082,17.939,17.939,0,0,1,1.1,2.137c.653,1.439,1.089,2.934,1.71,4.352a18.175,18.175,0,0,0,2.283,4.076,12.026,12.026,0,0,0,4.2,3.3c-1.256,1.074-.02,1.558.138,2.269a4.89,4.89,0,0,1,3.667,2.957c.348.691.631,1.436.966,2.149a8.018,8.018,0,0,0,1.287,1.94c3.536-.637,1.988,2.759,4.657,3,.6,1.6,2.553,2.383,4.215,3.294s3.131,1.9,2.711,4.1c-.958.144-3.62,1.209-5.584.81l-4.518,2.391c-1.347-1.3-2.417-2.667-3.686-4.011.91-.532,1.947-1.2,2.822-1.789-1.277-.036-2.755-.06-4.076-.17-1.175-1.467-2.368-2.926-3.65-4.346.134-1.185.207-2.748-3.095-2.17a8.585,8.585,0,0,1-.124-2.092,23.285,23.285,0,0,1-2.386-2.5,17.219,17.219,0,0,1-2.142-2.256l-.151-.3c-.832-.465-1.67-.931-2.709-1.4-.5-.6-1.173-1.142-1.652-1.759a13.519,13.519,0,0,1-1.808-1.787,10.475,10.475,0,0,1-.091-2.347c-.906-1.969-1.687-3.984-2.528-5.963-.273-.617-.517-1.241-.722-1.811-.237-.625-.452-1.189-.689-1.816l-.456-1.189c.828-.887-.765-1.51,1.867-2.244-.631-1.193-.191-2.824-3.1-3.429,4.74-2.878,1.61-6.351.3-8.187a21.436,21.436,0,0,1-.635-4.628c-.058-.76-.136-1.53-.275-2.342a14.751,14.751,0,0,0-.606-2.6C104.145,373.608,104.519,372.937,104.933,372.19Z" fill="#f3d7d0"/>
          </g>
          <g id="Group_936" data-name="Group 936">
            <path id="Path_1001" data-name="Path 1001" d="M40.776,398.154c.482,1.724,1.047,3.434,1.635,5.222-.654.929-1.284,1.943-1.935,2.886-4.654.461-1.513-2.847-5.468-2.608-2.633-.372-.133-2.808.6-4.254-.278-.951-.533-1.825-.789-2.7,1.3-.132,1.65-.891,4.069-1.783A26.331,26.331,0,0,0,40.776,398.154Z" fill="#f3d7d0"/>
          </g>
          <g id="Group_937" data-name="Group 937">
            <path id="Path_1002" data-name="Path 1002" d="M51.423,420.411a29.351,29.351,0,0,1,.558,3.565l-1.037,1.664c2.364,1.311,4.927-.46,5.058.717a7.733,7.733,0,0,0,1.529,1.213l.5,1.044a36.5,36.5,0,0,0,1.077,4.282c-1.69,2.318.355,3.9,3.938,5.7a37.3,37.3,0,0,0,.454,4.61c1.254.393,2.455.7,3.529,1.157.636,1.456,1.1,2.994,1.791,4.536l2.558,4.127a14.621,14.621,0,0,0-.52,2.5c.444.736.865,1.387,1.347,2.1a4.7,4.7,0,0,0,1.042-.027c.432.645.911,1.361,1.392,2.078-1.158,1.431-2.1,2.862-3.231,4.312-.038,1.193,2.4.444,2.227,1.7l2.006,2.79,1.453,2c1.031-.357,2.215-.8,3.191-1.226l.77,1.06c.272,1.24.573,2.465.774,3.858,1.281,1.087,2.5,2.1,3.637,3.271l.215.28c-1.249.932-2.644,1.95-4.094,2.9-1.1-.289-2.414-.562-3.731-.841a2.7,2.7,0,0,1-.8-2.43,32.988,32.988,0,0,1-3.411-1.578c-1.947.044-1.8-1.57-2.81-2.348L69.3,471.32q-2.259-4.82-4.513-9.634a10.074,10.074,0,0,1-1.3-.353,30.952,30.952,0,0,1-.663-4.342l-.885-1.418c1.113-2.9.815-3.69-.514-3.859-.509-.532-1.183-.992-1.7-1.522.234-2.077-3.874,1.1-4.334-.408.888-.947,1.572-1.895,2.464-2.83-.669-1.134,1.877-4.66-2.677-2.994a2.768,2.768,0,0,0-1.947-3.667c.287-1.769-.538-1.709-3.385-2.652,4.1-1.827,3.71-2.208-.07-2.173a5.952,5.952,0,0,0-.3-4.881,14.058,14.058,0,0,0-2.654-3.548c.031-1.265.524-3.284-2.2-2.746-1.637-2.945-1.36-5.224-4.1-7.649-4.041,2.181-3.012-1.319-2.537-2.15,4.6-2.8-1.521-4.562,2.742-7.445.782,1.248,3.91,1.242,4.7,2.378.978,1.855,1.91,3.72,2.924,5.55Q49.9,417.712,51.423,420.411Z" fill="#f3d7d0"/>
          </g>
          <g id="Group_938" data-name="Group 938">
            <path id="Path_1003" data-name="Path 1003" d="M145.262,433.752c2.464.14,4.568,1.535,2.618,3.581C145.181,438.056,145.582,436.268,145.262,433.752Z" fill="#f3d7d0"/>
          </g>
          <g id="Group_939" data-name="Group 939">
            <path id="Path_1004" data-name="Path 1004" d="M152.106,440.042c2.359-.349,3.494,1.089,2.873,2.257C152.971,443.646,151.828,442.76,152.106,440.042Z" fill="#f3d7d0"/>
          </g>
          <g id="Group_940" data-name="Group 940">
            <path id="Path_1005" data-name="Path 1005" d="M155.806,443.339c2.865-.332,3.448.364,3.372,1.6l1.629,1.935c-.741.183-3.261,1.448-2.931-1.083Z" fill="#f3d7d0"/>
          </g>
          <g id="Group_941" data-name="Group 941">
            <path id="Path_1006" data-name="Path 1006" d="M162.488,448.781c3.024-.467,3.63.213,3.559,1.4a20.619,20.619,0,0,0,3.148.921l3.226,1.155c1.209,1.5,4.705.068,6.379,1.914a23.421,23.421,0,0,1,3.353.933c.7.439-.116,1.781.265,2.586l-2.924,1.618-1.4-1.365a18.04,18.04,0,0,1-.492-2.832c-1.127.544-2.076,1.032-3.02,1.515.015-.694-.043-1.9-2.745-.338l-.422-.44c-.111-.85-.171-2.375-3.193-.883l-.422-.441c.078-.895.018-1.681.015-2.419-1.075-.618-2.5.813-3.166-.932C163.973,450.427,163.207,449.579,162.488,448.781Z" fill="#f3d7d0"/>
          </g>
          <g id="Group_942" data-name="Group 942">
            <path id="Path_1007" data-name="Path 1007" d="M187.75,460.312c2.351-2.027,3.357-2.166,3.9-1.7s.661,1.526,1.142,1.939c3.171-1.428,3.725,1.246,6.838-1.534,1.2.386.215,1.3-.911,3.342-.645.966-1.214,1.772-1.9,2.695-1.614-.412-3.259-.8-4.911-1.113l-.765-.663-.257-.218c-.454.048-.835-.06-1.344-.058C188.969,462.072,188.267,461.267,187.75,460.312Z" fill="#f3d7d0"/>
          </g>
          <g id="Group_943" data-name="Group 943">
            <path id="Path_1008" data-name="Path 1008" d="M202.852,460.617c1.171-1.383,2.492-3.072,2.89-2.748a15.2,15.2,0,0,1,4.338-2.406c-.409,1.791-2.6,4.255-4.023,7.76l3.741-2.885c-3.557,3.893.645,3.581-1.33,5.776l-1.158,1.178c-.908,1.777-1.695,3.847-2.223,5.086-1.145,1.181-2.288,2.363-3.32,3.428-.954-.714-2.523,1.989-3.894,4.017-2.295,2.574-4.581,5.142-6.813,7.548-.635.547-1.33,1.051-2.028,1.551-.28-1.206-.577-2.493-.855-3.7,1.337-1.656,2.555-3.185,3.842-4.877.525-.629,1-1.3,1.523-1.926.794-1.276,1.642-2.638,2.432-3.91l5.169-5.121a26.153,26.153,0,0,0,4.326-5.591c-1.488.271-2.873.424-4.265.568C201.753,463.119,202.235,462.023,202.852,460.617Z" fill="#f3d7d0"/>
          </g>
          <g id="Group_944" data-name="Group 944">
            <path id="Path_1009" data-name="Path 1009" d="M165.243,512.149c1.968-1.393,3.234-2.09,3.5-1.289.26,2.01-1.261,3.723-3.047,5.444-1.919.626-2.427-.956-2.194-2.4C164.432,512.969,164.781,512.615,165.243,512.149Z" fill="#f3d7d0"/>
          </g>
          <g id="Group_945" data-name="Group 945">
            <path id="Path_1010" data-name="Path 1010" d="M47.367,337.313c2.054.544,3.022,2.62.065,2.91-1.322-.879-6.125.284-5.419-1.434C43.861,338.288,45.705,337.792,47.367,337.313Z" fill="#eab2a8"/>
          </g>
          <g id="Group_946" data-name="Group 946">
            <path id="Path_1011" data-name="Path 1011" d="M47.7,345.973c2.6-.005,1.539,1.133,1.021,1.706-.471,1.171-.921,2.5-1.556,3.774-4.836-.1-4.861-2.182-4.767-3.942C44.224,346.961,46.053,346.418,47.7,345.973Z" fill="#eab2a8"/>
          </g>
          <g id="Group_947" data-name="Group 947">
            <path id="Path_1012" data-name="Path 1012" d="M163.944,459.783a19.181,19.181,0,0,1-1.4-2.66c-.416-1.4-3.247.055-4.919.729,1.672-.674,4.5-2.125,4.919-.729A19.181,19.181,0,0,0,163.944,459.783Z" fill="#eab2a8"/>
          </g>
          <g id="Group_948" data-name="Group 948">
            <path id="Path_1013" data-name="Path 1013" d="M166.33,458.852c.805.334.656,1.677,4.344-.39.7-.021,1.446,0,2.142-.029.81.314,1.481.734,2.281,1.051a11.092,11.092,0,0,1,.111,2.443c1.66-.469,1.826.81,3.917.229l1.678,1.529a11.2,11.2,0,0,0-3.2,3.619l-.258-.237c-1.546-.975-3.075-2.059-4.634-3.119-1.975-1.7-5.186-1.278-7.789-1.936-.123-.608-.378-1.117-.5-1.721Z" fill="#eab2a8"/>
          </g>
          <g id="Group_949" data-name="Group 949">
            <path id="Path_1014" data-name="Path 1014" d="M196.816,465.053l-2.3,2.168c-1.309.017-2.424-.06-3.711-.079-1.412.09.275-1.728,1.1-3.2C193.557,464.254,195.2,464.641,196.816,465.053Z" fill="#eab2a8"/>
          </g>
          <g id="Group_950" data-name="Group 950">
            <path id="Path_1015" data-name="Path 1015" d="M40.751,318.147c5.671,1.226,2.354,3.789,3.229,5.725-2.046.126-4.286.33-6.339.534.512-1.074,1.017-2.128,1.516-3.172C39.691,320.2,40.221,319.174,40.751,318.147Z" fill="#e29288"/>
          </g>
          <g id="Group_951" data-name="Group 951">
            <path id="Path_1016" data-name="Path 1016" d="M33.259,362.726c1.007.511,4.578-.381.3,2.275a13.553,13.553,0,0,1-2.038-1.245Z" fill="#e29288"/>
          </g>
          <g id="Group_952" data-name="Group 952">
            <path id="Path_1017" data-name="Path 1017" d="M63.5,367.5l6.607,1.385,3.459-.591c-.249.76-.32,1.419-.557,2.181.414.29.654.534,1.087.816l-3.174,1.962a7.265,7.265,0,0,1,2.954,4.764,17.349,17.349,0,0,1,.227,5.155c-2.426,1.811.817,3.731-.853,7.362l-1.6.393c-.542-1.918-.966-3.45-5.08-4.564l-1.619.365.969,3.453L66.5,392.2l.893-.219a16.51,16.51,0,0,0,.071,3.379c1.026.2,1.864.447,2.906.713-.923.709-2,1.541-2.929,2.251,2.041.388.886,2.186,2.79,2.6-.6,1.028-1.171,2.132-1.768,3.176a13.444,13.444,0,0,0-1.7.092c1.7-2.847-5.988-1.036-1.221-3.465l-.56-1.743c-.131-.99-.076-2.025-.169-2.939-1-.758-2.212-1.474-3.363-2.208a19.543,19.543,0,0,1,1.107-2.847,16.5,16.5,0,0,1-2.2-1.038,31.6,31.6,0,0,0,1.934-2.616c-1.223-.336-1.065-1.237,1-3.595.989.17,1.972.336,2.78.538,2.2-2.59-1.465-2.1-1.481-2.938-.689-1.221-.1-2.917-1.758-3.646-.408-2.033-.885-3.973-1.2-5.938-.164-.941-.316-1.811-.48-2.755C61.985,368.493,62.653,368.013,63.5,367.5Z" fill="#e29288"/>
          </g>
          <g id="Group_953" data-name="Group 953">
            <path id="Path_1018" data-name="Path 1018" d="M72.5,409.717a11.7,11.7,0,0,0,1.675,1.784l-.863.277A12.509,12.509,0,0,0,75,413.552l1.556-.512c.27.63.572,1.331.842,1.956a23.407,23.407,0,0,1,.6,3.662c.752.381,1.652.627,1.61,1.372-.214.806-.489,1.476-.736,2.219-1.93-.764-4.444-.032-5.09-2.441a32.487,32.487,0,0,0-.784-4.06c-.061-.14-.094-.211-.157-.352-.953-.817-1.9-1.724-2.817-2.564-.113-.776-.02-1.534-.134-2.3.585-.986,1.2-1.895,1.793-2.871C71.971,408.37,72.224,409.009,72.5,409.717Z" fill="#e29288"/>
          </g>
          <g id="Group_954" data-name="Group 954">
            <path id="Path_1019" data-name="Path 1019" d="M51.981,423.976a19.007,19.007,0,0,1,4.757.04c-.217.853-.492,1.558-.736,2.34-.131-1.177-2.694.594-5.058-.717Z" fill="#e29288"/>
          </g>
          <g id="Group_955" data-name="Group 955">
            <path id="Path_1020" data-name="Path 1020" d="M87.669,433.939c1.543,1.613,3.024,3.244,4.75,4.757,1.644,2.308,3.317,4.524,5,6.729.749.5,3.068-.124,2.83,1.115.028.677.214,1.278.239,1.963,2.013,1.514,4.117,2.869,6.185,4.314a20.954,20.954,0,0,0,1.43,3.48c-1.544-.575-3.012-1.2-4.53-1.817-.688-.968-1.806-1.264-2.865-1.777a3.938,3.938,0,0,1-2.422-3.087c-1.289-.67-2.368-1.363-3.461-2.057a23.162,23.162,0,0,1-2.338-1.438,13.752,13.752,0,0,0-2.369-1.38,40.136,40.136,0,0,1-1.6-4.294c-2.661-.274-1.571-2.742-1.382-3.831a13.107,13.107,0,0,0-.295-2.327Z" fill="#e29288"/>
          </g>
          <g id="Group_956" data-name="Group 956">
            <path id="Path_1021" data-name="Path 1021" d="M77.211,460.688c-.013.293-.187.665-.2.963,1.428.235,2.8.393,4.406.52.151.21.3.417.5.7a18.447,18.447,0,0,0-1.629,6.395c-.976.429-2.161.869-3.191,1.226l-1.453-2-2.006-2.79c.171-1.258-2.265-.509-2.227-1.7,1.135-1.45,2.073-2.881,3.231-4.312Z" fill="#e29288"/>
          </g>
          <g id="Group_957" data-name="Group 957">
            <path id="Path_1022" data-name="Path 1022" d="M91.652,463.582c.147.2.3.409.494.681l-.775.425c.512,2.1,2.868,1.176,4.193,2.622.409.534,1.38,1.222-.489,2.2.436,1.982,2.808,1.385,5.1,1.182.929,3.532,5.091,4.919,6.52,7.77,1.562,2.808,7.393-2.208,10.74-4.1,1.276.424-.845,2.4-1.211,3.541,1.077.469,2.147.835,3.2,1.213.878-.3,1.758-.6,2.694-.853.759.563.848,1.9,4.25-.182.389.416.722.774,1.11,1.189l3.85-1.845c.343,1.607,1.519,2.748,3.97,2.824.645.415,1.488.78,2.19,1.249-.809,1.455-.247,1.841.891,1.879,1.156.024,2.888-.3,4.42-.241l.585.552c-1.06,1.329-1.978,2.483-3.039,3.815a47.353,47.353,0,0,0,4.482,1.9c1.4-.1,2.722-.253,4.243-.475a17.526,17.526,0,0,0,2.4,1.015c.515-.435,1.155-.975,1.8-1.518a18.7,18.7,0,0,0,2.419-.082c.828.746,1.73,1.533,2.6,2.244,2.442-.984,4.924-1.928,7.449-3.053l.84.7c-2.916,2.951-2.422,3.143-2.117,3.4,1.289-.218,2.585-1.936,3.874-3.009,1.223-.7,2.431-.768,1.09.048-1.36,1.669-3.507,4.4-2.245,5.17l2.85.349c.046,1.914.553,2.315,1.059,2.709l2.156,1.674c-1.176,1.162-2.235,2.209-3.411,3.37a22.17,22.17,0,0,0-2.48.158c-2.477,2.642-4.954,5.294-7.611,8l-.591.578-.949-.734-.338-.263a35.36,35.36,0,0,0-2.644-3.078l-.671-.526c-.6-.469-1.286-.983-1.866-1.479-1.072.186-2.57,1.094-3.04.489l-1.258-1.027c.031-1.048-.123-2.033-.144-3.127-1.251-.8-1.967-2.479-4.308-2.565-.969,1.149-2.031,2.407-3,3.556a20.9,20.9,0,0,0,2.257,3c-2.381.834-3.342-1.058-5.3.737a46.647,46.647,0,0,1-4.132-2.5,33.485,33.485,0,0,0-5.07-.941,31.713,31.713,0,0,1-5.978-1.409c2.659,2.014.348,3.751-.31,5.186a17.69,17.69,0,0,0-2.515.869,18.269,18.269,0,0,1-.588-2.83l-4.543,3.553c-.807-.288-1.48-.681-2.285-.975a22.821,22.821,0,0,0,1.682-1.862c-3.764-1.439.966-5.859-3.448-5.452l-.691.507-2.431-2.412c-1.259-.516-2.414-1.008-3.638-1.565-1.251.658-2.5,1.313-3.691,2.034l-4.21-4.425c1.425-1.712,2.8-3.264,4.25-4.964,3.145-1.04,2.036,3.185,6.074.55.288-.932.641-1.8.938-2.723-.751-.531-1-1.6-3.073-.848-3.489-2.663-6.3-4.459-9.182-6.939l-3.214-3.888c-.28-.633-.4-1.356-.669-1.987-.891-.867-1.985-1.718-2.875-2.588-.048-.945-.093-1.8-.141-2.741l-.462-.615c-.242-.635-1.786-.1-.916-2.767C87.769,464.447,88.607,463.818,91.652,463.582Z" fill="#db766d"/>
          </g>
          <g id="Group_958" data-name="Group 958">
            <path id="Path_1023" data-name="Path 1023" d="M86.755,468.085l1.528,1.979c.89.869,1.983,1.721,2.875,2.588l-2.823,3.132,3.493-1.145,3.214,3.888c-1.206,1.241-2.465,2.417-3.516,3.577a9.256,9.256,0,0,1-1.819-.845c-1.367-1.123-2.609-2.322-4.023-3.528l-.215-.28c-1.133-1.166-2.356-2.184-3.637-3.271-.2-1.393-.5-2.618-.774-3.858C82.9,469.613,84.75,468.9,86.755,468.085Z" fill="#e29288"/>
          </g>
          <g id="Group_959" data-name="Group 959">
            <path id="Path_1024" data-name="Path 1024" d="M112.9,460.045c.875,4.757,3.67,5.9,7.2,6.178C116.572,465.944,113.777,464.8,112.9,460.045Z" fill="#e29288"/>
          </g>
          <g id="Group_960" data-name="Group 960">
            <path id="Path_1025" data-name="Path 1025" d="M106.358,489.037c-4.038,2.636-2.929-1.59-6.074-.55-1.451,1.7-2.825,3.252-4.25,4.964a12.14,12.14,0,0,1-2.179-1.147,6.313,6.313,0,0,1,.838-1.621l3.459-2.269c-.689-2.066-4.21-.112-4-1.934-.487-.682-.954-1.4-1.4-2.137-.431-.744-.837-1.5-1.229-2.239,1.05-1.161,2.31-2.336,3.516-3.577,2.886,2.481,5.693,4.277,9.182,6.939,2.069-.75,2.323.317,3.073.848C107,487.239,106.646,488.1,106.358,489.037Z" fill="#df837a"/>
          </g>
          <g id="Group_961" data-name="Group 961">
            <path id="Path_1026" data-name="Path 1026" d="M94.156,486.48c-.212,1.821,3.309-.132,4,1.934l-3.459,2.269c-.842-.944-1.743-1.956-2.585-2.9Z" fill="#e29288"/>
          </g>
          <g id="Group_962" data-name="Group 962">
            <path id="Path_1027" data-name="Path 1027" d="M127.831,468.855c.277.844.756,1.653,1.07,2.477l-1.284.869c-1.113-.191-2.432.391-2.059-2.311A19.063,19.063,0,0,0,127.831,468.855Z" fill="#e29288"/>
          </g>
          <g id="Group_963" data-name="Group 963">
            <path id="Path_1028" data-name="Path 1028" d="M140.138,466.7l-1.335,4.552c.045.062.152.174.205.23a25.254,25.254,0,0,1,2.518,1.4c1.274-.643,2.543-1.286,3.864-1.878,2.482.814,6.6-.7,8.269,1.391,2.55-2.441,1.342,1.975,4.52-1.262,3.7-.2,4.4,1.9,5.294,3.933.863,2.035,1.8,4.1,5.509,3.738.754.427,1,1.7,2.455,1.208,1.226-1.78.071-2.33,1.65-3.81l1.889-1.656c1.11.27,2.139.519,3.249.788a14.6,14.6,0,0,1-.959,2.228l-4.445,3.611c-5.936,2.121-8.846,2.786-10.5,1.494-1.142-.126-2.477-.2-3.756-.227a21.123,21.123,0,0,1,.7,2.848l-3.574,3.06a18.7,18.7,0,0,1-2.419.082l-1.736-1.537a10.627,10.627,0,0,1-1.077-2.077c-2.189-.647-4.536-.592-6.4-1.646-.265.209-.534.417-.666.523l-.585-.552c-1.113-1.04-2.215-2.086-3.274-3.169a19.332,19.332,0,0,1-2.313-1.133,5.77,5.77,0,0,1-.378-1.581,17.765,17.765,0,0,1-2.588-1.424,9.148,9.148,0,0,1-1.241-.084c-.205-.721-.606-1.4-.813-2.118l1.972-1.376c.169-1.064.346-2.124.577-3.12C136.567,468.346,138.33,467.5,140.138,466.7Z" fill="#e29288"/>
          </g>
          <g id="Group_964" data-name="Group 964">
            <path id="Path_1029" data-name="Path 1029" d="M122.7,500.822a31.713,31.713,0,0,0,5.978,1.409,33.485,33.485,0,0,1,5.07.941,46.647,46.647,0,0,0,4.132,2.5c1.96-1.795,2.921.1,5.3-.737a20.9,20.9,0,0,1-2.257-3c.968-1.149,2.03-2.407,3-3.556,2.341.086,3.057,1.769,4.308,2.565.022,1.094.176,2.078.144,3.127l1.258,1.027c.471.6,1.968-.3,3.04-.489.58.5,1.261,1.01,1.866,1.479l-4.152,2.818,1.99,1.535.272.214-1.69,1.6-3.509,3.307c-2.6,3.175-2.578,4.021-3.879,4.883a19.853,19.853,0,0,1-2.586.088q.925-1.775,1.846-3.549c-1.509-1.145-2.5-2.867-5.721-1.646l-2.986,2.677-3.754-3.058a51.146,51.146,0,0,1-4.951-2.055,5.123,5.123,0,0,1-4.135-1.61,39.132,39.132,0,0,1-4.586-1.882l-1.953-1.8,4.543-3.553a18.269,18.269,0,0,0,.588,2.83,17.69,17.69,0,0,1,2.515-.869C123.051,504.573,125.362,502.836,122.7,500.822Z" fill="#df837a"/>
          </g>
          <g id="Group_965" data-name="Group 965">
            <path id="Path_1030" data-name="Path 1030" d="M134.127,518.011l2.986-2.677c3.223-1.221,4.212.5,5.721,1.646q-.922,1.771-1.846,3.549l-3.552-.884C135.974,520.37,135.17,518.646,134.127,518.011Z" fill="#e29288"/>
          </g>
          <g id="Group_966" data-name="Group 966">
            <path id="Path_1031" data-name="Path 1031" d="M154.542,506.089l.671.526a35.36,35.36,0,0,1,2.644,3.078c-1.7.346-3.416.686-5.206.963l-.272-.214-1.99-1.535Z" fill="#e29288"/>
          </g>
          <g id="Group_967" data-name="Group 967">
            <path id="Path_1032" data-name="Path 1032" d="M147.452,515.558l3.509-3.307c.222,1.214.389,2.374.683,3.424a25.72,25.72,0,0,1-2.149,1.456c-1.978,1.165-3.922,2.158-5.921,3.31C144.874,519.579,144.851,518.733,147.452,515.558Z" fill="#e29288"/>
          </g>
          <g id="Group_968" data-name="Group 968">
            <path id="Path_1033" data-name="Path 1033" d="M159.736,510.112c2.56.94,5.461.165,5.507,2.037-.462.465-.812.82-1.738,1.756-.973.5-2,1.167-2.911,1.72-.563-1.632-.951-3.286-1.45-4.935Z" fill="#e29288"/>
          </g>
          <g id="Group_969" data-name="Group 969">
            <path id="Path_1034" data-name="Path 1034" d="M43.98,323.872a33.943,33.943,0,0,1,2.5,2.763l-.046,1.117-3.531.126c-1.642-.694-3.478-1.315-5.307-2.025.015-.456.031-.988.046-1.447C39.694,324.2,41.934,324,43.98,323.872Z" fill="#e7a298"/>
          </g>
          <g id="Group_970" data-name="Group 970">
            <path id="Path_1035" data-name="Path 1035" d="M64.581,381.342c.017.836,3.68.348,1.481,2.938-.809-.2-1.791-.368-2.78-.538A17.059,17.059,0,0,1,64.581,381.342Z" fill="#e7a298"/>
          </g>
          <g id="Group_971" data-name="Group 971">
            <path id="Path_1036" data-name="Path 1036" d="M179.583,469.107c1.763.423,4.619-.429,7.325-2.029,1.369-1.229,2.861-2.569,4.232-3.8l.765.663c-.828,1.474-2.515,3.291-1.1,3.2,1.287.019,2.4.1,3.711.079-.893,1-1.746,1.954-2.639,2.951-2.959,3.746-4.155,3.528-5.221,3.021-1.036-.527-1.92-1.339-4.352,1.264.562.257,1.244.405,1.8.666-1.861,1.233-1.758,2.41-2.914,3.588-.543.408-1.027.657-1.445.944l-2.2-1.855-.28-.238a14.6,14.6,0,0,0,.959-2.228c3.592-3.894.973-3.73.64-4.666A7.567,7.567,0,0,0,179.583,469.107Z" fill="#e7a298"/>
          </g>
          <g id="Group_972" data-name="Group 972">
            <path id="Path_1037" data-name="Path 1037" d="M152.652,510.655c1.789-.277,3.5-.617,5.206-.963l.338.263c-2.156,1.88-4.4,3.841-6.551,5.718-.293-1.05-.461-2.209-.683-3.424Z" fill="#e7a298"/>
          </g>
          <g id="Group_973" data-name="Group 973">
            <path id="Path_1038" data-name="Path 1038" d="M194.458,474.143l.474-.465c.328.265.712.572,1.04.836-.79,1.272-1.639,2.634-2.432,3.91-.641-.471-1.3-1.015-1.922-1.5Z" fill="#e7a298"/>
          </g>
          <g id="Group_974" data-name="Group 974">
            <path id="Path_1039" data-name="Path 1039" d="M91.157,472.652c.272.631.389,1.355.669,1.987l-3.493,1.145Z" fill="#df837a"/>
          </g>
          <g id="Group_975" data-name="Group 975">
            <path id="Path_1040" data-name="Path 1040" d="M103.936,495.842c1.224.556,2.379,1.048,3.638,1.565L110,499.819l.691-.507c4.414-.407-.316,4.013,3.448,5.452a22.821,22.821,0,0,1-1.682,1.862c-3.319-.979-5.691-1.277-6.664-3.153-1.9-1.871-3.749-3.662-5.554-5.6C101.434,497.155,102.685,496.5,103.936,495.842Z" fill="#df837a"/>
          </g>
          <g id="Group_976" data-name="Group 976">
            <path id="Path_1041" data-name="Path 1041" d="M127.86,486.655l1.715,1.713c-.4,1.03-.991,2.1-1.441,3.081,1.324,4.21,7.886,1.688,7.9,6.2l-1.307,1.069c-1.562-.7-3-1.4-4.667-2.027a9.281,9.281,0,0,1-3.879-2.673A39.723,39.723,0,0,1,123.2,490.1Z" fill="#df837a"/>
          </g>
          <g id="Group_977" data-name="Group 977">
            <path id="Path_1042" data-name="Path 1042" d="M144.051,483.17c1.866,1.054,4.213,1,6.4,1.646a10.627,10.627,0,0,0,1.077,2.077l1.736,1.537c-.641.543-1.281,1.083-1.8,1.518a17.526,17.526,0,0,1-2.4-1.015c-1.521.222-2.848.376-4.243.475a47.353,47.353,0,0,1-4.482-1.9c1.06-1.332,1.978-2.486,3.039-3.815C143.517,483.587,143.786,483.378,144.051,483.17Z" fill="#df837a"/>
          </g>
          <g id="Group_978" data-name="Group 978">
            <path id="Path_1043" data-name="Path 1043" d="M158.561,482.44c3.488-1.129,3.93-.73,3.756.227,1.657,1.292,4.566.627,10.5-1.494.371.979.716,1.883,1.087,2.859-.5.663-1.054,1.277-1.546,1.938l-2.941,2.708c1.34-.816.133-.748-1.09-.048-1.289,1.073-2.585,2.791-3.874,3.009-.3-.255-.8-.447,2.117-3.4l-.84-.7c-2.525,1.125-5.007,2.069-7.449,3.053-.87-.711-1.771-1.5-2.6-2.244l3.574-3.06A21.123,21.123,0,0,0,158.561,482.44Z" fill="#df837a"/>
          </g>
          <g id="Group_979" data-name="Group 979">
            <path id="Path_1044" data-name="Path 1044" d="M177.847,485.293c.177.143.355.284.593.475,1.982-.745,4.066-1.61,6.011-2.371l.295.229a21.776,21.776,0,0,0,3.43,1.6c.278,1.2.575,2.49.855,3.7l-1.036,1.063c-1.407,2.2-2.866,4.369-4.314,6.541-2.285,1.357-4.54,2.541-6.742,3.755a13.774,13.774,0,0,0-.568,1.607l.982.718c.068,2.475-3.276,4.679-5.134,6.95-1.1.412-2.374.891-3.473,1.3-.268-.8-1.534-.1-3.5,1.289-.046-1.872-2.947-1.1-5.507-2.037,2.658-2.709,5.135-5.361,7.611-8a22.17,22.17,0,0,1,2.48-.158c1.176-1.161,2.235-2.208,3.411-3.37l-2.156-1.674c-.505-.394-1.012-.8-1.059-2.709.239-.229.477-.456.6-.572,1.11-1.2,2.132-2.308,3.246-3.512.292-.809.591-1.622.777-2.319C175.733,486.98,176.821,486.16,177.847,485.293Z" fill="#df837a"/>
          </g>
          <g id="Group_980" data-name="Group 980">
            <path id="Path_1045" data-name="Path 1045" d="M198.683,469.527a17.152,17.152,0,0,0,2.459-.134l-5.169,5.121c-.328-.263-.712-.571-1.04-.836C196.181,472.359,197.492,470.881,198.683,469.527Z" fill="#df837a"/>
          </g>
          <g id="Group_981" data-name="Group 981">
            <path id="Path_1046" data-name="Path 1046" d="M70.079,447.886c2.325.433,4.5.916,6.81,1.305l.222.357a15.9,15.9,0,0,1-1.218,1.385l-4.513,2.1L68.821,448.9A10,10,0,0,1,70.079,447.886Z" fill="#db766d"/>
          </g>
          <g id="Group_982" data-name="Group 982">
            <path id="Path_1047" data-name="Path 1047" d="M177.265,477.562l.28.238,2.2,1.855c-.651.729-1.44,1.614-2.091,2.342-1.211.718-2.474,1.377-3.744,2.035-.371-.976-.716-1.88-1.087-2.859Z" fill="#db766d"/>
          </g>
          <g id="Group_983" data-name="Group 983">
            <path id="Path_1048" data-name="Path 1048" d="M187.125,478.382c.229.181.4.316.57.452a11.7,11.7,0,0,0-.393,1.792l-2.851,2.771c-1.945.761-4.029,1.626-6.011,2.371-.239-.191-.416-.332-.593-.475l.6-.571c1.63-1.852,3.148-3.592,4.613-5.371C184.481,479.013,185.776,478.777,187.125,478.382Z" fill="#db766d"/>
          </g>
          <g id="Group_984" data-name="Group 984">
            <path id="Path_1049" data-name="Path 1049" d="M177.607,467.3c1.059-.166,2.109-.337,3.025-.4l4.067-3.96c.547.507,1.151,1.058,1.73,1.543,1.045-.2,2-1.133,3.11-1.488.509,0,.89.106,1.344.058l.257.218c-1.37,1.232-2.863,2.572-4.232,3.8-2.706,1.6-5.562,2.451-7.325,2.029a7.567,7.567,0,0,1-.719,1.562l1.307,1.111c1.977-.059-.224,2.2-1.947,3.555-1.11-.269-2.139-.518-3.249-.788l-1.889,1.656c-.527-.221-1.112-.29-1.62-.528-2.866-.342,1.1-4.385-1.466-5.582,1.161-1.426,2.351-1.028,3-1.569a20.759,20.759,0,0,0,2.817.306Z" fill="#eab2a8"/>
          </g>
          <g id="Group_985" data-name="Group 985">
            <path id="Path_1050" data-name="Path 1050" d="M184.7,462.947l3.05-2.634c.517.955,1.219,1.76,1.789,2.689-1.108.356-2.064,1.292-3.11,1.488C185.851,464,185.246,463.454,184.7,462.947Z" fill="#eec4bb"/>
          </g>
          <g id="Group_986" data-name="Group 986">
            <path id="Path_1051" data-name="Path 1051" d="M106.668,366.847c.119.621.225,1.18.345,1.8C107.09,368.057,103.737,369.156,106.668,366.847Z" fill="#f3d7d0"/>
          </g>
          <g id="Group_987" data-name="Group 987">
            <path id="Path_1052" data-name="Path 1052" d="M182.418,457.7c3.027-.852,5.3.106,5.332,2.617l-3.05,2.634a24.929,24.929,0,0,1-2.011-2.967C182.625,459.245,182.517,458.47,182.418,457.7Z" fill="#f3d7d0"/>
          </g>
          <g id="Group_988" data-name="Group 988">
            <path id="Path_1053" data-name="Path 1053" d="M151.7,461.2c3.108-.365,3.665.182,4.222.752C151.091,466.915,150.221,463.915,151.7,461.2Z" fill="#eab2a8"/>
          </g>
          <g id="Group_989" data-name="Group 989">
            <path id="Path_1054" data-name="Path 1054" d="M76.807,360.263c-.847.615-1.7,1.166-2.373,1.765-1.882-.139-4.831.152-3.89-1.133a9.452,9.452,0,0,0,.688-1.811C74.9,358.57,72.551,360.534,76.807,360.263Z" fill="#eab2a8"/>
          </g>
          <g id="Group_990" data-name="Group 990">
            <path id="Path_1055" data-name="Path 1055" d="M78.88,422.249c.129.691,1.957.348,3.029.518-.071.677.025,1.295-.045,1.977,1.191.451,2.411.883,3.647,1.3l-1.322,1.339c2.068.5,1.844,2.4,2.853,3.565a18.488,18.488,0,0,0-.575,2.663c-.3-.546-1.995-.259-3.042-.334-.792-1.525-1.622-3.121-2.416-4.646-.268-.559-.62-1.1.013-3.567C80.492,424.366,78.123,424.828,78.88,422.249Z" fill="#e29288"/>
          </g>
        </g>
      </g>
    </g>
  </g>
</svg>
