<svg xmlns="http://www.w3.org/2000/svg" width="244" height="142" viewBox="0 0 244 142">
  <g id="Vector_Smart_Object" data-name="Vector Smart Object" transform="translate(-400.054 -816.87)">
    <g id="Group_831" data-name="Group 831" opacity="0.51" style="mix-blend-mode: multiply;isolation: isolate">
      <g id="Group_830" data-name="Group 830" opacity="0.9">
        <g id="Group_829" data-name="Group 829" opacity="0.9">
          <g id="Group_751" data-name="Group 751">
            <path id="Path_822" data-name="Path 822" d="M426.913,952.08c1.546,1.814,2.915,2.277,4.354,4.642L428.944,958C426.779,955.317,424.392,951.295,426.913,952.08Z" fill="#eec4bb"/>
          </g>
          <g id="Group_752" data-name="Group 752">
            <path id="Path_823" data-name="Path 823" d="M402.084,891.939a37.1,37.1,0,0,0,3.631-3.091,18.911,18.911,0,0,0,3.261-.5l.718-.362c1.487-.287,2.861-.757,4.343-1.03.86-.457,1.8-.933,2.7-1.316l.941.747a14.351,14.351,0,0,1,2.128-2.117,19.675,19.675,0,0,1,1.754,1.328c.061-.964.1-2.15.063-3.306.888-.393,1.861-.822,2.751-1.213-.107-.2-.314-.577-.516-.953,2.088-1.154,4.068-2.52,6.077-3.834,3.929-1.042,7.837-2.049,11.632-3.239l1.345,2.927,2.361-.875-1.321-2.939c1.936-1.014,3.959-2.071,5.909-3.093l2.432-.757c3.722,2.877,1.592-.719,2.43-.753l4.02,2.122c.33-.1.744-.229,1.157-.356l3.079,1.077c4.843-1.743,8.442-1.026,12.727-2.085,2.333-1.543,7.161-4.915,10.791.982.9-3.211,3.039-2.52,4.633-3.026.759,3.124,1.685,1.431,2.755,2.545l1.556-.289c.819-.144,1.556-.275,2.373-.417l2.4-.308,7.918-.99a15.721,15.721,0,0,0,2.925.717,15.232,15.232,0,0,0,2.581-1.387c.87-.285,1.7-.765,2.577-1.037a27.849,27.849,0,0,1,2.458-2.318l.419-.026a21.664,21.664,0,0,0,3.413-1.308,25.859,25.859,0,0,0,3.848-1.34,13.48,13.48,0,0,0,2.563.907c.5-3.848,2.43-2.818,3.789-1.974a67.647,67.647,0,0,1,6.69-1.166c.718-1.29,1.43-2.8,2.086-4.1.279,1.281.573,2.783.767,4.063,2.138-.5,4.228-.6,6.393-.929-.13-2.148-.247-4.085-.38-6.225,1.529-1.646,1.786-5.067,2.169-6.122.953-.174,1.9-.569,2.855-.745,3.223,1.63,4.977,3.427,5.867.241a39.663,39.663,0,0,1,5.944-1.66c2.9,2.638,4.617,2.373,4.582-.642l1.758.17,4.212.411c2.444,2.589,3.018-.7,3.417-1.528l3.342.512,4.21.644c2.3,1.219,2.057-1.417,3.591-1.615.738.767,1.558,1.541,2.353,2.536l.783.126c1.175-3.972,2.731-2.324,3.619-1.48l.787.166c.949-3.737,2.161-2.385,2.784-1.6.433-1.215.868-2.439,1.374-3.864a37.354,37.354,0,0,0,3.093,2.85l2.553.543c.439-1.223.949-2.65,1.386-3.873.795.834,1.586,1.662,2.284,2.47,1.529.731,2.939,1.648,4.479,2.259-.263,2.373-.55,4.944-.813,7.316a28.08,28.08,0,0,0-2.533,2.4l-.419-.119c.091-2.184.146-4.164.142-6.377-.69-.2-1.3-.294-2.43-.547-1.477,2.087-2.7.727-3.838,2.454a17.665,17.665,0,0,0-2.223-2.666c-1.012.213-1.993.221-3,.447-.613.516-1.258,1.057-1.871,1.569-1.357,4.958-2.393,3.423-3.38,3.65-.089.854-.2,1.919-.31,2.994-.253-.055-.506-.113-.84-.188a34.316,34.316,0,0,1-3.55-1.67c-1.639-1.128-2.545,2.634-3.21,4.7a14.008,14.008,0,0,1-2.505.692,8.352,8.352,0,0,1-1.523-1.326c-.392.812-.676,1.407-.969,2.014-2.381-1-4.789-2.134-7.127-3.178-.643,1.439-1.185,2.678-1.8,3.909-1.01-.725-2.076-1.488-3.146-2.255a17,17,0,0,0-3.211.755l-1.262-.124v1.937a26.148,26.148,0,0,1-3.613-1.435l-.03-1.929c-2.4-1.541-2.244,2-3.563,2.763a14.465,14.465,0,0,1-2.816.953c.951,5.4,2.921,6.563,3.666,3.17l.827.034c.856,1.573,1.6,2.929,2.45,4.494-2.624,7.219-5.058,1.433-7.21,4.719-2.529-.549-2.337,8.869-5.215,3.808-2.278-2.245-3.615-1.662-3.668,1.743-2.171.4-4.408.872-6.672,1.089-.922-3.632-1.386-.421-2.4-1.049-1.661,3.964-3.757,3.332-5.921,2.682-2.138-.577-4.333-1.107-5.812,2.834-2.341-2.856-2.854-.038-4.339,1.34a28.98,28.98,0,0,1-3.939-.824c-.682,6.656-4.784-3.354-6.874-.109a25,25,0,0,0-3.6-.642c-1.444.816-2.7,5.261-3.921,1.549-1.309.583-3.065-4.82-4.558-2.569-1.41,3.077-5.007,1.332-5.355,5.079-3.7-3.018-6.575,4.567-11.023.219-.965,4.184-5.555,2.636-8.311,3.958l-1.869.443c-.74-2.229-1.618-1.595-2.15-1.419-.457.364-1.537-.433-1.153,1.462.692,1.591-.751.893-3.326-2.356-.081-.2-.237-.6-.394-1,.129-1.4.253-2.763.4-4.375-2.108-2.492-2.913-2.255-4.586-3.986l.789,3.118a30.035,30.035,0,0,0-.787,3.367l-3.055-3.312c-2.911-1.573.6,4.059-.318,5.456-1.809-1.219-3.656-2.466-5.464-3.684-1.926,2.206-5.923-1.283-6.8,2.449-1.046-1.435-2.019-2.907-2.99-4.367a11.157,11.157,0,0,0-1.871,1.838,31.223,31.223,0,0,0-4.335.476c.708,3.156-.925,5.122-3.055,1.186l-3.793,1.658c.059,1.852.117,3.682.174,5.537,2.385,3.16,1.914,5.935.255,5.494-.848-1.028-1.837-2.227-2.687-3.255-.2.8-.392,1.559-.6,2.364-.995-.731-1.966-1.237-2.97-1.964-.471.208-1.014.449-1.485.654-.789.334-1.469.682-2.229,1.069a6.638,6.638,0,0,0-1.315,4.045l2.136,3.484c.263,1.541.5,2.863.858,4.365-1.446,1.686-4.1.4-6.156.727-3.544-.581-5.509-5.33-7.465-7.7l-1.839.958c-1.507-1.632-2.958-3.014-4.542-4.569C398.839,893.662,400.45,892.534,402.084,891.939Z" fill="#eec4bb"/>
          </g>
          <g id="Group_753" data-name="Group 753">
            <path id="Path_824" data-name="Path 824" d="M454.284,954.249c-.237-2.727.809-2.277,2.642-.3C457.321,956.6,457.315,959.2,454.284,954.249Z" fill="#eec4bb"/>
          </g>
          <g id="Group_754" data-name="Group 754">
            <path id="Path_825" data-name="Path 825" d="M448.183,931.1c-.263-1.042-.354-1.931-.548-3.012,3.253.269,3.168-4.794,7.335-3.059-2.339-6.919-4.736-7.069-6-10.956-1.139-3.031.882-1.263.631-3.437-.192-.379-.289-.573-.484-.958a59.7,59.7,0,0,0-3.413-8.512,30.082,30.082,0,0,0,1.614-2.86c1.622,1.68,3.209,3.148,4.8,4.852,1.768,4.587-1.22,2.474.668,6.338-.2.765-.388,1.484-.587,2.251,4.584,3.8,6.025,1.933,8.052,1.67.955,1.02,2.076,2.213,3.034,3.231.336,1.253.761,2.692,1.03,3.954-.229.528-.613.9-.838,1.421a26.7,26.7,0,0,0-3.4,2.322c-.518.405-.8.953-1.248,1.336.734,1.994,1.469,4,2.132,5.792-.144,1.192-.285,2.342-.431,3.535a22.937,22.937,0,0,0-3.1-1.034c-1.434-.336-1.062,1.824-1.475,2.917l-.573.231a40.926,40.926,0,0,0-4.131-.611Z" fill="#f3d7d0"/>
          </g>
          <g id="Group_755" data-name="Group 755">
            <path id="Path_826" data-name="Path 826" d="M437.758,949.688c.67-1.65,1.5-3.126,2.335-4.731l2.27-3.229.564-.273c1.317,1.51,2.77,3.174,4.228,4.842,1.792.091-1.813-4.346-1.792-6.026.856-.852,1.815-1.662,2.788-2.474.738.156,1.3.158,2.092.289,1.234,1.555,2.616,3.294,4,5.033,1.552-.4,3.324-.881,1.145-5.992l.573-.231c.413-1.093.042-3.253,1.475-2.917a22.937,22.937,0,0,1,3.1,1.034c.146-1.194.287-2.344.431-3.535l2.246-.771a17.254,17.254,0,0,0-3.13-6.358,26.7,26.7,0,0,1,3.4-2.322c1.471,3.117,2.933,6.215,4.4,9.334,5.375,5.618,4.77-2.85,9.69.065,4.691,2.243,5.256-4.115,9.8-.51-3.362,4.964-9.261,3.822-11.167,8.442-.182-.4-.267-.591-.443-.98-1.566,1.887-5.343-.445-7.418,1.381-.732,1.818-.84,4.312-3.526.063-.5.178-1.032.322-1.523.53a4.71,4.71,0,0,1-.053,1.188,11.029,11.029,0,0,1-2.6-.1c.916,1.709,1.622,3.03,2.438,4.555a9.848,9.848,0,0,0-.117,5.555l-6.035,2.393c-1.833-1.972-2.879-2.423-2.642.3-4.778.484-9.887.672-14.679,1.508C438.954,953.676,438.256,951.613,437.758,949.688Z" fill="#e29288"/>
          </g>
          <g id="Group_756" data-name="Group 756">
            <path id="Path_827" data-name="Path 827" d="M462.961,951.552a9.848,9.848,0,0,1,.117-5.555c-.817-1.526-1.523-2.846-2.438-4.555a11.029,11.029,0,0,0,2.6.1,4.71,4.71,0,0,0,.053-1.188c.49-.208,1.018-.352,1.523-.53,2.685,4.249,2.794,1.755,3.526-.063,2.074-1.826,5.851.506,7.418-1.381.176.389.261.579.443.98,1.906-4.62,7.805-3.478,11.167-8.442-4.544-3.6-5.11,2.753-9.8.51-4.92-2.915-4.315,5.553-9.69-.065-1.471-3.118-2.933-6.217-4.4-9.334.225-.526.609-.893.838-1.421.993.779,1.985,1.571,2.879,2.164,1.185.04-.91-2.858-.672-4.077.878-.328,1.711-.577,2.626-.822l5.709-1.634c.324-1.875,2.189-1.294,3.281-2.047a24.618,24.618,0,0,0,2.7,1.445c2.786,2.336,3.7,2.642,3.809,1.288a37.8,37.8,0,0,1,2.954,2.4,16.466,16.466,0,0,0,.657-2.336,26.98,26.98,0,0,0,2.968,1.539,29.027,29.027,0,0,1,1.72-3.456c.894.026,1.916.235,2.867.235l1.669-.285c2.78,5.81.386-3.081,3.336-.538a17.493,17.493,0,0,1-.19-1.913c.2-3.925,2.67-1.729,3.413-2.721.963.941,1.89,1.846,2.852,2.783.744.087,1.473.405,2.213.5.807-.773,1.712-1.476,2.541-2.207l.35-.042a26.554,26.554,0,0,1,3.943.662c2.316.192,1.817-2.769,2.739-4.587,2.4,1.891,2.193-.889,2.933-1.186,2.286,1.8,2.838,1.781,3.407,1.751l4.712-.227c.251-1.083.3-3.012.876-3.043l.71-.03a12.418,12.418,0,0,1,2.207.953c.971.79,2.907,3.279,3.777.771a33.839,33.839,0,0,0,4.2,1.1c1.307-1.48,2.339-1.688,3.763-2.958a31.626,31.626,0,0,0,2.853-2.13c3.384,1.848,3.842-1.688,5.994-1.575l3.285-3.01c1.046-.6,2.045-1.176,3.037-1.747.461,1.1,1.283-.587,2.1.142,4.224,3.288,6.292,1.822,8.309-1.166a22.755,22.755,0,0,0,3.526-1.749l2.1.257c1.772,2.905,2.049,1.229,2.818.5l.095-1.931,3.124.545a5.692,5.692,0,0,1,.431-1c.629.54,1.341.881,1.958,1.425a7.85,7.85,0,0,0,.807-.947,11.462,11.462,0,0,0,2.555-.638,7.257,7.257,0,0,0,1.285,1.312,20.354,20.354,0,0,0,2.2-.626l4.1.96c-2.11,2.142-3.633,6.581-4.424,2.237a17.637,17.637,0,0,0-2.146.417c-1.554,1.907-2.954,1.658-4.232.344l-1.01,5.031-1.4-.253c-.532,4.891-1.42,3.646-2.193,3.723-.336,1.026-.6,2.061-.86,3.091-.783.514-1.558,1.01-2.4,1.5-.552-1.385-.825-5.156-1.76-4.4-.36,4.7.1,14.468-2.345,13.294-2.48-1.393-5.11,1.273-7.878-1.022-.769,2.277-1.228,4.933-2.743,3.741,0-2.575-.84-2.2-1.366-2.237-1.513.109-1.653,3.093-3.326,1.909a11.825,11.825,0,0,1-.708-1.122c-.823,3.144-.617,4.441-1.291,5.03,1.628,2.9,1.709.986,2.235,1.241l.575.043,1.916,2.067-1.831-.132c-.081,2.559-.154,4.9-.229,7.247l-.918-.073a38.816,38.816,0,0,1-3.923-6.514l-.633-.051c-.53,1.453-1,2.678-1.519,3.927-.206-.221-.425-.654-.631-.87l-1.327,1.9c-.621-.012-1.242-.026-1.8-.036a6.041,6.041,0,0,1-.206,1.065c-.619-.016-1.177-.032-1.8-.049a24.557,24.557,0,0,1-1.734-2.166c-.221-1.925-.465-4.055-.684-5.974-.293-.862-.56-1.5-.829-2.146-.132,0-.263,0-.328,0-.791,2.113-1.582,4-2.318,6.1.146.64.36,1.283.572,1.931-1.3-.294-2.541-.591-3.775-.777a27.428,27.428,0,0,0-1.365,3.041c-1.163-.607-2.4-1.2-3.684-2.01-1.8,2.846-3.164,4.081-4.934,1.265a23.773,23.773,0,0,1-3.556-.735l-.884.081a4.583,4.583,0,0,1-1.036,1.164c-.645-.581-1.23-1.166-1.95-1.745a24.1,24.1,0,0,0-.022,5.132,15.431,15.431,0,0,0-2.958-.814l-8.752,3.209c-.878.555-.5,3.933-1.408,4.488l-.613.081c-.882-.9-1.8-1.822-2.674-2.715l-4.1.86a12.672,12.672,0,0,1-2.349,1.557c-.368.075-.8.166-1.167.241-7.368,1.49-14.863,3.047-22.229,5.184-3.963-4.288-1.76-.541-1.754.573-2.015-.063-4.016.057-6.035.192C464.379,950.3,463.693,951.036,462.961,951.552Z" fill="#df837a"/>
          </g>
          <g id="Group_757" data-name="Group 757">
            <path id="Path_828" data-name="Path 828" d="M458.83,925.685c.443-.383.73-.931,1.248-1.336a17.254,17.254,0,0,1,3.13,6.358l-2.246.771C460.3,929.681,459.564,927.679,458.83,925.685Z" fill="#eec4bb"/>
          </g>
          <g id="Group_758" data-name="Group 758">
            <path id="Path_829" data-name="Path 829" d="M418.384,899.662a6.638,6.638,0,0,1,1.315-4.045c.759-.387,1.44-.735,2.229-1.069.471-.206,1.014-.447,1.485-.654-.164-.622-.407-1.217-.676-2.032,1.244,1.312,2.486,2.636,3.646,4,.2-.8.394-1.559.6-2.364.85,1.028,1.839,2.227,2.687,3.255,1.659.441,2.13-2.334-.255-5.494-.057-1.856-.115-3.686-.174-5.537l3.793-1.658c2.13,3.937,3.763,1.97,3.055-1.186a31.223,31.223,0,0,1,4.335-.476,11.157,11.157,0,0,1,1.871-1.838c.971,1.46,1.944,2.933,2.99,4.367.876-3.731,4.873-.243,6.8-2.449,1.807,1.217,3.654,2.464,5.464,3.684.922-1.4-2.593-7.029.318-5.456l3.055,3.312a30.035,30.035,0,0,1,.787-3.367l-.789-3.118a9.029,9.029,0,0,0,.415-1.239c1.428,1.8,2.767,3.632,4.171,5.225-.091,1.822-.016,3.589-.008,5.371,2.575,3.249,4.018,3.947,3.326,2.356-.384-1.9.7-1.1,1.153-1.462.532-.176,1.41-.81,2.15,1.419l1.869-.443c2.757-1.322,7.346.225,8.311-3.958,4.447,4.348,7.323-3.237,11.023-.219.348-3.747,3.945-2,5.355-5.079,1.493-2.251,3.249,3.152,4.558,2.569,1.218,3.711,2.478-.733,3.921-1.549a25,25,0,0,1,3.6.642c2.09-3.245,6.192,6.765,6.874.109a28.98,28.98,0,0,0,3.939.824c1.485-1.378,2-4.2,4.339-1.34,1.479-3.941,3.674-3.411,5.812-2.834,2.163.65,4.259,1.283,5.921-2.682,1.013.628,1.477-2.583,2.4,1.049,2.264-.217,4.5-.694,6.672-1.089.053-3.405,1.39-3.988,3.668-1.743,2.877,5.061,2.685-4.358,5.215-3.808,2.152-3.286,4.586,2.5,7.21-4.719-.854-1.565-1.594-2.921-2.45-4.494l-.827-.034c-.746,3.393-2.715,2.231-3.666-3.17a14.465,14.465,0,0,0,2.816-.953c1.147-1.024,2.391-1.834,3.563-2.763l.03,1.929a26.148,26.148,0,0,0,3.613,1.435v-1.937l1.262.124a10.483,10.483,0,0,1,2.369-.836l.842.081c1.07.767,2.136,1.53,3.146,2.255.366-1.255.655-2.522.957-3.992.253.024.5.049.846.083,2.337,1.043,4.746,2.18,7.127,3.178.293-.607.578-1.2.969-2.014a8.352,8.352,0,0,0,1.523,1.326c-.073,1.071-.144,2.14-.2,2.994.435,1.567.823,2.968,1.262,4.545-.5,1.217-1.011,2.642-1.418,3.877-2.486,1.767-5.08,7.185-7.374,8.095-.708-4.018-1.989-1.522-4.089-2.63-.02.862-.036,1.51-.053,2.15a59.266,59.266,0,0,0-5.968,1.508c-1.329-1.648-.933,2.694-1.544,3.909l-1.847-.2a39.809,39.809,0,0,0-4.592,5.867,29.883,29.883,0,0,0-11.772.235,71.928,71.928,0,0,0-10.953,4.259c-1.95.472-2.8-5.207-5.029.107-.793.261-1.631.733-2.42,1-3.362-2.166-4.973-.789-6.856-3.668-1.8,1.6-.492,5.365-1.208,5.192l-1.5.085c-2.387-1.715-2.335.905-2.99,1.4-2.484-2.083-2.144.68-2.826.322l-.37.043c-1.416.16-2.834.322-4.325.49-.3.036-.674.077-1.046.121a43.22,43.22,0,0,0-3.957-2.549c-1.366.458-2.753,1.13-4.117,1.581l-1.8.312c-.057-.2-.172-.622-.227-.824-4.41-1.6-8.861,1.672-12.543.221-1,3.093-4.066,1.393-5.448,2.37-1.813-3.518-2.318-.763-3.963-2.35-.84-.032-1.675-.267-2.519-.289-2.735-.117-4.918,3.237-8.45-.856-.659,1.759-1.376,3.314-2.088,4.856l-1.932-2.535-1.835.553c-.591-1.162-1.06-3.251-1.936-3.654-1.7.929-1.5,3-1.1,6.936a32.23,32.23,0,0,0-3.063-1.174c-.421.6-.927,1.022-1.341,1.628.2,1.292.433,2.792.635,4.091-1.594-1.7-3.182-3.172-4.8-4.852a30.082,30.082,0,0,1-1.614,2.86,11.831,11.831,0,0,0-2.063,1.9l-.659.279-2.85,1.231-2.925-2.239c-1.592,1.15-1.667,4.907-5.347,2.318-1.73.547-3.712.84-5.517,1.3-1.341.437-3.959-2.32-5.822-2.812Z" fill="#eab2a8"/>
          </g>
          <g id="Group_759" data-name="Group 759">
            <path id="Path_830" data-name="Path 830" d="M452.787,909.5a11.054,11.054,0,0,1,2.2.354c1.7.751.368-2.4-.109-4.5a11.893,11.893,0,0,0,2.49.239c-.034-1.354-.221-2.879-.239-4.241-.445-.978-.888-1.956-1.242-2.733-.4-3.933-.6-6.008,1.1-6.936.876.4,1.345,2.492,1.936,3.654l1.835-.553,1.932,2.535c.712-1.541,1.43-3.1,2.088-4.856,3.532,4.093,5.715.739,8.45.856.844.022,1.679.257,2.519.289,1.645,1.587,2.15-1.168,3.963,2.35,1.382-.976,4.449.723,5.448-2.37,3.682,1.451,8.133-1.82,12.543-.221.055.2.17.625.227.824l1.8-.312c1.364-.451,2.751-1.122,4.117-1.581a43.22,43.22,0,0,1,3.957,2.549c.372-.043.748-.085,1.046-.121,1.491-.168,2.909-.33,4.325-.49l.37-.043c.682.358.342-2.405,2.826-.322.655-.49.6-3.111,2.99-1.4l1.5-.085c.716.174-.591-3.587,1.208-5.192,1.883,2.879,3.494,1.5,6.856,3.668.789-.265,1.628-.737,2.42-1,2.227-5.314,3.079.366,5.029-.107a71.928,71.928,0,0,1,10.953-4.259,29.883,29.883,0,0,1,11.772-.235,39.809,39.809,0,0,1,4.592-5.867l1.847.2c.611-1.215.216-5.557,1.544-3.909a59.266,59.266,0,0,1,5.968-1.508c.018-.64.034-1.289.053-2.15,2.1,1.109,3.381-1.387,4.089,2.63,2.294-.909,4.888-6.328,7.374-8.095.407-1.235.918-2.66,1.418-3.877-.439-1.577-.827-2.978-1.262-4.545.057-.854.129-1.923.2-2.994a14.008,14.008,0,0,0,2.505-.692c.664-2.061,1.57-5.824,3.21-4.7a34.316,34.316,0,0,0,3.55,1.67c.334.075.587.132.84.188.631.567,1.283.929,1.9,1.5,2.7-1.164,5.138-3.927,8.319-3.445,2.264.075,4.513.257,6.688.425l.419.119c-.174,1.059-.348,2.124-.488,2.972a29.4,29.4,0,0,1-2.753,1.5c-.168,1.061-1.509,1.425-1.448,3.856,3.146-.435,2.505,7.071,5.177,5.565.6-.055,1.151-.34,1.752-.393l2.852,6.156-5.276.486c-3.579.206-7.688.411-10.419-3.692-1.892-1.3-2.952,5.255-4.432,4.261-2.577,2.743-5.049,5.326-7.6,6.915-.459,1.666-.987,3.31-1.509,4.972a12.422,12.422,0,0,0-2.64.625l-.3-.059-2.62-5.636-1.479,6.9c.637,1.164,1.3,2.371,1.958,3.581-.055.854-.125,1.931-.2,3a5.692,5.692,0,0,0-.431,1l-3.124-.545c-.775-.571-1.643-.937-2.432-1.508a29.593,29.593,0,0,1-.481,2.941l-2.1-.257a22.755,22.755,0,0,1-3.526,1.749c-2.017,2.988-4.086,4.454-8.309,1.166-.813-.729-1.635.961-2.1-.142-.993.571-1.991,1.144-3.037,1.747a23.745,23.745,0,0,1-3.52-1.283c-2.045.962-4,1.852-6,2.875-.609-.435-1.2-.652-1.815-1.077-1.036-1.075-1.218,1.706-1.891,2.128-2.482.271-4.966.541-7.518.822l-5.5,2.32c.065.425.1.632.164,1.065l-.71.03c-.74-.607-1.55-1.2-2.407-2.012-1.287.494-3.1-.694-3.907,1.267-.328-.621-.659-1.243-1.1-2.079l-1.782,3.288c-.647-.358-1.256-.506-1.908-.86-.289,1.1-.144,3.243-.821,3.1-.692-.573-1.319-1.146-2.094-1.705-.732-.356-1.05.543-1.475,1.233a20.389,20.389,0,0,0-3.664-.684l-2.005.21c.154.638.307,1.255.459,1.883a11.49,11.49,0,0,1-1.8,1.275c-.051-.2-.158-.625-.265-1.04a8.231,8.231,0,0,1-1.766,1.377l-2.031.34c-.744.992-3.215-1.2-3.413,2.721l-3.3-2.7c-.291,2-2.207.356-2.411,2.571-.811-1.138-1.754-2.466-2.559-3.6-.166,1.136-.324,2.043-.409,3.164a20.4,20.4,0,0,1-3.419-.326c.138.407.277.812.348,1.02-.633.14-1.331.3-1.962.439l-3.372.757-.662-1.822c.451-4.462,2.063-4.834,3.989-5.279l-.617-1.826c-4.1-2.13-5.727,1.3-8.078-1.435-3.209-.324-8.29-.067-10.024,3.97-.939-1.059-2.035-2.294-2.976-3.354l-.609,1.284c-.9-.174-1.647-.174-2.561-.356.52,1.182,1.127,2.555,1.647,3.737.194,2.421.407,5.065.6,7.492l2.268,2.379c-.237,1.219,1.857,4.117.672,4.077-.894-.593-1.887-1.385-2.879-2.164-.269-1.263-.694-2.7-1.03-3.954-.957-1.018-2.078-2.211-3.034-3.231-2.027.263-3.469,2.132-8.052-1.67C452.4,910.984,452.587,910.265,452.787,909.5Z" fill="#e7a298"/>
          </g>
          <g id="Group_760" data-name="Group 760">
            <path id="Path_831" data-name="Path 831" d="M451.484,899.071c.413-.607.92-1.024,1.341-1.628a32.23,32.23,0,0,1,3.063,1.174c.354.777.8,1.755,1.242,2.733.018,1.362.206,2.887.239,4.241a11.893,11.893,0,0,1-2.49-.239c-.88-.6-1.782-1.411-2.761-2.19C451.917,901.864,451.683,900.364,451.484,899.071Z" fill="#eec4bb"/>
          </g>
          <g id="Group_761" data-name="Group 761">
            <path id="Path_832" data-name="Path 832" d="M568.025,935.519a4.349,4.349,0,0,0,1.149-.909,26.373,26.373,0,0,0,3.477,1.561c-.022,1.073-.047,2.148-.065,3.01.823.115,1.707.235,2.533.348a17.406,17.406,0,0,0,.5,2.261c-.728,3.929-2.3,3.757-3.1.611-.125,1.059-.223,1.905-.348,2.966a35.058,35.058,0,0,1-4.133-1.684c-1.04-.379-2.033-.955-3.089-1.33-.1-2.158-.251-4.318-.407-6.271C565.737,935.829,566.88,935.778,568.025,935.519Z" fill="#eec4bb"/>
          </g>
          <g id="Group_762" data-name="Group 762">
            <path id="Path_833" data-name="Path 833" d="M621.841,855.976c1.188-9.239,5.606,1.81,6.585-10.842l.67-5.16c.277-1.255.6-2.727.876-3.994.892.235,1.679.537,2.565.818.615-1.37,1.145-2.543,1.762-3.913,1.455-.87,2.925-1.737,4.459-2.8a32.3,32.3,0,0,1-.981,9.385,18.287,18.287,0,0,1-2.608,1.383c-.378,2.348-.813,4.911-1.287,7.239-.049.209-.15.626-.2.838-.455,1.881-.809,3.338-1.212,5.008.91.314,1.9.658,2.81.974-.154,1.069-.31,2.162-.463,3.237-.362,2.82-.757,5.393-1.214,8.184a25.326,25.326,0,0,1-4.05-.287l-.4-.132,1.2-5.014a22.613,22.613,0,0,1-.637-2.488c-1.4,1.1-2.737,1.994-4.1,3.1-.332,3.047-.749,6.069-1.216,9.29-.049.215-.142.63-.235,1.047-.451,1.65-.977,3.275-1.5,4.893.192.978.332,2.164.469,3.338-.372,2.128-.706,4.055-1.078,6.18-.047.213-.14.628-.235,1.045-.791.405-1.643.743-2.438,1.2-1.345-.176-.933-4.741-.668-7.569l1.052-5.047c.089-1.089.178-2.168.271-3.267.734-1.567,1.479-3.14,2.153-4.729.166-1.287.362-2.8.528-4.091.212-.6.508-1.186.767-2C622.954,859.857,622.363,858.13,621.841,855.976Z" fill="#e29288"/>
          </g>
          <g id="Group_763" data-name="Group 763">
            <path id="Path_834" data-name="Path 834" d="M633.286,827.139c.38,2.152.674,3.832,1.013,5.747-.617,1.37-1.147,2.543-1.762,3.913-.886-.281-1.673-.583-2.565-.818.055-1.539.063-2.871.022-4.445C631.171,830.087,632.136,828.769,633.286,827.139Z" fill="#eec4bb"/>
          </g>
          <g id="Group_764" data-name="Group 764">
            <path id="Path_835" data-name="Path 835" d="M634.366,882.965c.467-3.472.92-6.95,1.275-10.452.17-.632.34-1.255.5-1.868.437-.984.876-1.97,1.238-2.98,1-4.184,2.047-8.583,3.1-13,.354-3.277.475-7.539,1.924-7.045l1.275.445c-.575,2.065-1.1,3.931-1.671,6-.334,4.883.773,8.909-2.848,13.1.384,5.81-1.1,14.177-4.064,16.075-1.4,3.589-2.735,6.98-4.032,10.608l-1.058-.381c-.043-.7-.091-1.4-.085-2.31C631.368,888.5,632.82,885.817,634.366,882.965Z" fill="#eec4bb"/>
          </g>
          <g id="Group_765" data-name="Group 765">
            <path id="Path_836" data-name="Path 836" d="M407.757,900.544c1.956,2.365,3.921,7.114,7.465,7.7-.947.966-2.013,1.747-2.954,2.709-2.583-1.492-7.358-7.4-6.35-9.446Z" fill="#f3d7d0"/>
          </g>
          <g id="Group_766" data-name="Group 766">
            <path id="Path_837" data-name="Path 837" d="M435.45,946.319c-1.022-1.885-2.047-3.771-2.964-5.462-.607-7.318,4.105,3.2,4.788-.211l1.529-.747,3.561,1.83-2.27,3.229c-.836,1.6-1.665,3.081-2.335,4.731C436.538,947.91,435.933,947.022,435.45,946.319Z" fill="#f3d7d0"/>
          </g>
          <g id="Group_767" data-name="Group 767">
            <path id="Path_838" data-name="Path 838" d="M445.363,940.272c-1.133-3.725-5.865-9.519-2.235-8.2,1.9,1.233,3.378,3.889,5.023,5.727C447.179,938.61,446.219,939.42,445.363,940.272Z" fill="#f3d7d0"/>
          </g>
          <g id="Group_768" data-name="Group 768">
            <path id="Path_839" data-name="Path 839" d="M414.76,879.742c.655-.3,1.321-.6,3.035.984l2.371-1.059a11.89,11.89,0,0,1,1.853-2c.6.907,1.171,1.591,1.841,2.462.2.375.409.757.516.953-.89.391-1.863.82-2.751,1.213.034,1.156,0,2.342-.063,3.306a19.675,19.675,0,0,0-1.754-1.328,14.351,14.351,0,0,0-2.128,2.117l-.941-.747C416.061,883.611,415.5,881.754,414.76,879.742Z" fill="#f3d7d0"/>
          </g>
          <g id="Group_769" data-name="Group 769">
            <path id="Path_840" data-name="Path 840" d="M438.873,918.357c.484-3.909,2.142-4.16,4.008-1.7C442.235,920.183,441.4,921.223,438.873,918.357Z" fill="#f3d7d0"/>
          </g>
          <g id="Group_770" data-name="Group 770">
            <path id="Path_841" data-name="Path 841" d="M465.107,949.775c2.019-.134,4.02-.255,6.035-.192.627.69,1.1,1.2,1.562,1.715a15.4,15.4,0,0,0,.192-2.289c7.366-2.136,14.861-3.694,22.229-5.184.554,2.051,1.05,3.9,1.606,5.952-2.417-.472-5.015-1.37-5.264,2.385-2.759-1.478-2.252,4.111-4.439,4.225-.809-1.551-1.453-3.792-2.361-4.65-2.373-.093.6,10.543-4.41,3.6a28.274,28.274,0,0,0-1.232,3.532,26.764,26.764,0,0,1-2.854-1.318c-.52-.5-.983-1.022-1.448-1.537-.84-.18-1.584-.164-2.432-.34-1.169.184,0,5.962-3.546.231-.008,1.156.1,2.494-.631,2.551-1.218-2.735-2.707-3.286-5.153-6.9C463.693,951.036,464.379,950.3,465.107,949.775Z" fill="#f3d7d0"/>
          </g>
          <g id="Group_771" data-name="Group 771">
            <path id="Path_842" data-name="Path 842" d="M441.568,873.058l2.385-.887,1.321,2.939-2.361.875Z" fill="#f3d7d0"/>
          </g>
          <g id="Group_772" data-name="Group 772">
            <path id="Path_843" data-name="Path 843" d="M449.862,869.078c.172-2.972.795-4.284,2.432-.757Z" fill="#f3d7d0"/>
          </g>
          <g id="Group_773" data-name="Group 773">
            <path id="Path_844" data-name="Path 844" d="M459.9,869.335c3.006-7.488,8.774-4.063,12.941-5.6,4.109-4.713,12.247-4.806,18.005-4.81.912,1.79,1.566.575,2.3.662a5.419,5.419,0,0,0,.154-1.121c3.961-2.083,8.26-2.049,12.318-2.524,4.068-.514,7.975-1.178,11.6-4.4,1,1.848,2.035.7,3.018.842,2.444-4.031,7.578-1.9,11.371-2.725.761-4.075,4.382-.5,5.95-3.1,2.306.4,4.26-1.156,6.3-2.279,2.037-1.049,4.155-1.723,6.581.294-.384,1.055-.641,4.476-2.169,6.122.133,2.14.249,4.077.38,6.225-2.165.33-4.256.429-6.393.929-.194-1.281-.488-2.783-.767-4.063-.657,1.3-1.368,2.81-2.086,4.1a67.647,67.647,0,0,0-6.69,1.166c-1.359-.844-3.285-1.873-3.789,1.974a13.48,13.48,0,0,1-2.563-.907,25.859,25.859,0,0,1-3.848,1.34,21.664,21.664,0,0,1-3.413,1.308l-.419.026a27.849,27.849,0,0,0-2.458,2.318c-.874.273-1.707.753-2.577,1.037a15.232,15.232,0,0,1-2.581,1.387,15.721,15.721,0,0,1-2.925-.717l-7.918.99-2.4.308c-.817.142-1.554.273-2.373.417l-1.556.289c-1.07-1.115-2,.579-2.755-2.545-1.594.506-3.732-.186-4.633,3.026-3.631-5.9-8.458-2.526-10.791-.982-4.285,1.059-7.884.342-12.727,2.085Z" fill="#f3d7d0"/>
          </g>
          <g id="Group_774" data-name="Group 774">
            <path id="Path_845" data-name="Path 845" d="M498.641,942.028l4.1-.86c.878.893,1.792,1.82,2.674,2.715,1.088,5.235-2.078,1.091-1.208,5.488.178,2.788-2.2-.423-3.534-1.46l-2.035.409c-.386-1.445-1.08-1.949-2.347-4.735A12.672,12.672,0,0,0,498.641,942.028Z" fill="#f3d7d0"/>
          </g>
          <g id="Group_775" data-name="Group 775">
            <path id="Path_846" data-name="Path 846" d="M516.189,936.106a15.431,15.431,0,0,1,2.958.814l1.372,1.8c1.05-2.018-.374-5.523.6-5.188a4.583,4.583,0,0,0,1.036-1.164l.884-.081a23.773,23.773,0,0,0,3.556.735c1.77,2.816,3.132,1.581,4.934-1.265,1.287.812,2.521,1.4,3.684,2.01a27.428,27.428,0,0,1,1.365-3.041c1.234.186,2.478.482,3.775.777l3.587.089a24.557,24.557,0,0,0,1.734,2.166c.621.018,1.179.034,1.8.049a6.041,6.041,0,0,0,.206-1.065c.56.01,1.181.024,1.8.036.767,2.138,1.475,4.111,2.24,6.245.785.864.856-2.067,1.665-.945l2.353.211,1.687.144c.049-1.275.093-2.765.087-4.043l.918.073a32.625,32.625,0,0,1,2.7,2.356,12.814,12.814,0,0,1,3.166-.775l.241.037c.156,1.953.31,4.113.407,6.271-.512.781-1.07,1.743-1.62,2.79a1.746,1.746,0,0,1-1.657-1.205,17.29,17.29,0,0,1-1.885,1.97c-.488,1.877-1.41.514-2.14.875l-1.675-.158a42.164,42.164,0,0,0-7.176-2.553,8.7,8.7,0,0,1-.479,1.053,32.58,32.58,0,0,1-3.071-2.225l-1.131-.038c-1.861-3.036-2.521-3.271-2.826-2-.459.178-.876.628-1.323.86-1.471-1.445.313,4.693-.8,4.3-.613-1.455-1.161-2.757-1.77-4.207-.886.018-3.3-4.595-2.47,1.13-.967-1.462-2.373-1.429-2.887.067-1.315-1.241-1.357-.385-2.185,2.168-1.2-5.261-1.542-5.008-1.631-.923-2.832-3.174-5.029-1.7-6.524-.508-.987-.563-2.634-1.921-2.106,1.227-2.26.543-4.046-.32-5.757,1.81,2.082,5.095-.714,2.9-1.432,2.136-2.757-5.832-3.445.267-6.369-5.112.912-.555.53-3.933,1.408-4.488Z" fill="#f3d7d0"/>
          </g>
          <g id="Group_776" data-name="Group 776">
            <path id="Path_847" data-name="Path 847" d="M553.291,843.834c1.655-2.292,4.746-3.243,5.867.241C558.268,847.261,556.514,845.464,553.291,843.834Z" fill="#f3d7d0"/>
          </g>
          <g id="Group_777" data-name="Group 777">
            <path id="Path_848" data-name="Path 848" d="M565.1,842.415c1.228-2.456,3.728-2.233,4.582-.642C569.72,844.788,568,845.053,565.1,842.415Z" fill="#f3d7d0"/>
          </g>
          <g id="Group_778" data-name="Group 778">
            <path id="Path_849" data-name="Path 849" d="M571.442,841.943c1.734-2.844,2.994-2.723,4.279-1.524,1.145.1,2.2.223,3.35.407-.4.83-.973,4.116-3.417,1.528Z" fill="#f3d7d0"/>
          </g>
          <g id="Group_779" data-name="Group 779">
            <path id="Path_850" data-name="Path 850" d="M582.413,841.338c1.946-2.951,3.208-2.761,4.364-1.5a28.413,28.413,0,0,0,3.617-1.609c1.307-.437,2.685-.9,4-1.334,2.541.686,4.366-3.48,7.762-2.555a24.314,24.314,0,0,1,4.137-1.314c1.111.008,1.56,2.077,2.658,2.749-.437,1.223-.947,2.65-1.386,3.873l-2.553-.543a37.354,37.354,0,0,1-3.093-2.85c-.506,1.425-.941,2.648-1.374,3.864-.623-.787-1.835-2.138-2.784,1.6l-.787-.166c-.888-.844-2.444-2.492-3.619,1.48l-.783-.126c-.795-.994-1.616-1.769-2.353-2.536-1.535.2-1.3,2.834-3.591,1.615Z" fill="#f3d7d0"/>
          </g>
          <g id="Group_780" data-name="Group 780">
            <path id="Path_851" data-name="Path 851" d="M616.585,835.417c1.355-7.83,3.777-3.186,5.468-2.723,2.213-3.618,5.056-.615,6.239-5.852,1.693-.2,1.341,1.482,1.7,4.694.042,1.573.034,2.905-.022,4.445a52.649,52.649,0,0,0-6.116,1.431l-1.327-.372-.441-.119a15.27,15.27,0,0,1-1.44.717C619.313,836.824,617.933,836.229,616.585,835.417Z" fill="#f3d7d0"/>
          </g>
          <g id="Group_781" data-name="Group 781">
            <path id="Path_852" data-name="Path 852" d="M633.286,827.139c.247-2.393.394-5.269,1.135-5.028a13.708,13.708,0,0,1,3.217-5.241c1.018,2.583.413,6.887,1.374,12.174.732-1.788,1.544-3.773,2.276-5.559-1.3,6.79,3.413,4.535,2.61,8.33-.221.836-.388,1.46-.554,2.083.142,2.767.556,5.854.708,7.721-.568,2.069-1.135,4.14-1.647,6.006-1.45-.494-1.57,3.769-1.924,7.045-1.052,4.413-2.1,8.812-3.1,13-.362,1.01-.8,2-1.238,2.98-.842-1.427-1.708-2.9-2.545-4.314.457-2.79.852-5.363,1.214-8.184.152-1.075.309-2.168.463-3.237.069-2.026.144-4.253.212-6.271.779-3.12,1.509-6.043,2.288-9.172a32.3,32.3,0,0,0,.981-9.385c-1.535,1.065-3,1.933-4.459,2.8C633.961,830.971,633.666,829.291,633.286,827.139Z" fill="#f3d7d0"/>
          </g>
          <g id="Group_782" data-name="Group 782">
            <path id="Path_853" data-name="Path 853" d="M624.4,912.146c1.084-2.79,1.861-4.334,2.284-3.492.744,2.34,0,5.259-.916,8.342-1.26,1.816-1.977.164-2.183-1.739C624.022,913.6,624.186,912.972,624.4,912.146Z" fill="#f3d7d0"/>
          </g>
          <g id="Group_783" data-name="Group 783">
            <path id="Path_854" data-name="Path 854" d="M442.927,941.455c-.7-2.273.589-4.087,2.436-1.184-.022,1.68,3.583,6.116,1.792,6.026C445.7,944.629,444.244,942.965,442.927,941.455Z" fill="#eab2a8"/>
          </g>
          <g id="Group_784" data-name="Group 784">
            <path id="Path_855" data-name="Path 855" d="M450.244,938.086c-1.309-2.68.249-1.939,1.01-1.569a40.926,40.926,0,0,1,4.131.611c2.179,5.111.407,5.593-1.145,5.992C452.86,941.38,451.478,939.641,450.244,938.086Z" fill="#eab2a8"/>
          </g>
          <g id="Group_785" data-name="Group 785">
            <path id="Path_856" data-name="Path 856" d="M594.193,851.434a34.316,34.316,0,0,1-3.55-1.67c-1.639-1.128-2.545,2.634-3.21,4.7.664-2.061,1.57-5.824,3.21-4.7A34.316,34.316,0,0,0,594.193,851.434Z" fill="#eab2a8"/>
          </g>
          <g id="Group_786" data-name="Group 786">
            <path id="Path_857" data-name="Path 857" d="M595.344,848.628c.987-.227,2.023,1.308,3.38-3.65.613-.512,1.258-1.053,1.871-1.569,1.009-.225,1.989-.233,3-.447a17.665,17.665,0,0,1,2.223,2.666c1.135-1.727,2.361-.368,3.838-2.454.955.217,1.914.383,2.859.67a16.238,16.238,0,0,0-.152,6.373l-.419-.119c-2.175-.168-4.424-.35-6.688-.425-3.182-.482-5.62,2.281-8.319,3.445-.621-.567-1.273-.929-1.9-1.5C595.146,850.547,595.255,849.482,595.344,848.628Z" fill="#eab2a8"/>
          </g>
          <g id="Group_787" data-name="Group 787">
            <path id="Path_858" data-name="Path 858" d="M629.972,835.98c-.277,1.267-.6,2.739-.876,3.994L625.149,842c-1.388.941-1-2.283-1.293-4.585A52.649,52.649,0,0,1,629.972,835.98Z" fill="#eab2a8"/>
          </g>
          <g id="Group_788" data-name="Group 788">
            <path id="Path_859" data-name="Path 859" d="M431.8,956.425c-2.966-5.9,1.268-4.124,2.183-5.852l4.525,5.8Z" fill="#e29288"/>
          </g>
          <g id="Group_789" data-name="Group 789">
            <path id="Path_860" data-name="Path 860" d="M471.142,949.584c-.006-1.115-2.209-4.862,1.754-.573a15.4,15.4,0,0,1-.192,2.289C472.237,950.787,471.769,950.273,471.142,949.584Z" fill="#e29288"/>
          </g>
          <g id="Group_790" data-name="Group 790">
            <path id="Path_861" data-name="Path 861" d="M464.254,916.314c-.194-2.427-.407-5.071-.6-7.492-.52-1.182-1.127-2.555-1.647-3.737.914.182,1.661.182,2.561.356l.609-1.284c.941,1.059,2.037,2.294,2.976,3.354,1.734-4.037,6.814-4.294,10.024-3.97,2.351,2.735,3.981-.7,8.078,1.435l.617,1.826c-1.926.445-3.538.816-3.989,5.279l.662,1.822,3.372-.757c.631-.14,1.329-.3,1.962-.439-.071-.207-.21-.613-.348-1.02a20.4,20.4,0,0,0,3.419.326c.085-1.121.243-2.028.409-3.164.8,1.132,1.748,2.46,2.559,3.6.2-2.215,2.12-.573,2.411-2.571l3.3,2.7a17.493,17.493,0,0,0,.19,1.913c-2.95-2.543-.556,6.348-3.336.538l-1.669.285c-.951,0-1.974-.209-2.867-.235a29.027,29.027,0,0,0-1.72,3.456,26.98,26.98,0,0,1-2.968-1.539,16.466,16.466,0,0,1-.657,2.336,37.8,37.8,0,0,0-2.954-2.4c-.109,1.354-1.022,1.047-3.809-1.288-.038-1.1-.073-2.215-.018-3.093-3.1-2.488-1.847,1.64-2.683,1.648-1.092.753-2.956.172-3.281,2.047l-5.709,1.634c-.916.245-1.748.494-2.626.822Z" fill="#e29288"/>
          </g>
          <g id="Group_791" data-name="Group 791">
            <path id="Path_862" data-name="Path 862" d="M506.074,909.512a8.231,8.231,0,0,0,1.766-1.377c.107.415.214.838.265,1.04a11.49,11.49,0,0,0,1.8-1.275c-.152-.628-.3-1.245-.459-1.883l2.005-.21a20.389,20.389,0,0,1,3.664.684c.425-.69.744-1.589,1.475-1.233.775.559,1.4,1.132,2.094,1.705-.922,1.818-.423,4.779-2.739,4.587a26.554,26.554,0,0,0-3.943-.662l-.35.042c-.829.731-1.734,1.435-2.541,2.207-.74-.1-1.469-.415-2.213-.5-.961-.937-1.889-1.842-2.852-2.783Z" fill="#e29288"/>
          </g>
          <g id="Group_792" data-name="Group 792">
            <path id="Path_863" data-name="Path 863" d="M519.148,936.92a24.1,24.1,0,0,1,.022-5.132c.72.579,1.305,1.164,1.95,1.745-.973-.336.451,3.17-.6,5.188Z" fill="#e29288"/>
          </g>
          <g id="Group_793" data-name="Group 793">
            <path id="Path_864" data-name="Path 864" d="M531.155,903.162l5.5-2.32c2.553-.281,5.037-.551,7.518-.822.672-.423.854-3.2,1.891-2.128.613.425,1.206.642,1.815,1.077,2-1.024,3.955-1.913,6-2.875a23.745,23.745,0,0,0,3.52,1.283l-3.285,3.01c-2.151-.113-2.61,3.423-5.994,1.575a31.626,31.626,0,0,1-2.853,2.13c-1.424,1.271-2.456,1.478-3.763,2.958a33.839,33.839,0,0,1-4.2-1.1c-.87,2.508-2.806.02-3.777-.771a12.418,12.418,0,0,0-2.207-.953C531.252,903.794,531.22,903.587,531.155,903.162Z" fill="#e29288"/>
          </g>
          <g id="Group_794" data-name="Group 794">
            <path id="Path_865" data-name="Path 865" d="M550.805,930.883c.206.215.425.648.631.87.52-1.249.989-2.474,1.519-3.927l.633.051a38.816,38.816,0,0,0,3.923,6.514c.006,1.279-.038,2.769-.087,4.043l-1.687-.144-2.353-.211c-.809-1.122-.88,1.808-1.665.945-.765-2.134-1.473-4.107-2.24-6.245Z" fill="#e29288"/>
          </g>
          <g id="Group_795" data-name="Group 795">
            <path id="Path_866" data-name="Path 866" d="M557.054,918.968l.659.042c.02.435.03.644.049,1.081,1.673,1.184,1.813-1.8,3.326-1.909.526.038,1.368-.338,1.366,2.237,1.515,1.192,1.974-1.464,2.743-3.741,2.768,2.294,5.4-.371,7.878,1.022,2.446,1.174,1.985-8.591,2.345-13.294.935-.761,1.208,3.01,1.76,4.4.839-.492,1.614-.988,2.4-1.5.261-1.03.524-2.065.86-3.091.773-.077,1.661,1.168,2.193-3.723l1.4.253,1.01-5.031c1.277,1.314,2.678,1.563,4.232-.344a17.637,17.637,0,0,1,2.146-.417c.791,4.344,2.314-.095,4.424-2.237l.718.172c.077,2.217.148,4.2.225,6.417a30.907,30.907,0,0,0,3.993-1.249c.882-1.109,1.7-2.225,2.642-3.555a17.624,17.624,0,0,0,2.221-.5c.138-.848.308-1.905.479-2.964a17.454,17.454,0,0,0,1.716-1.711l3.095.923c1.366-2.717,2.735-5.443,4.194-8.346l1.044.306c-.821,5.336-.346,5.249.018,5.36.914-1.073,1.109-3.919,1.61-6,.643-1.595,1.618-2.429.922-.624-.265,2.828-.676,7.393.668,7.569.795-.456,1.647-.794,2.438-1.2.87,2.354,1.428,2.567,2,2.775.783.285,1.635.6,2.42.883-.516,2.083-.981,3.96-1.5,6.043a15.361,15.361,0,0,0-1.887,1.579c-.995,4.634-1.993,9.28-3.031,14.116-.049.21-.148.622-.249,1.042-.318-.121-.575-.219-.894-.342l-.32-.121a22.122,22.122,0,0,0-2.846-2.217l-.655-.211c-.591-.18-1.248-.381-1.841-.561-.676.909-1.36,2.939-1.9,2.541-.392-.117-.783-.235-1.238-.373-.382-1.239-.876-2.286-1.343-3.551-1.159-.128-2.379-1.619-3.955-.1-.129,1.966-.271,4.15-.4,6.114a19.563,19.563,0,0,0,2.628,1.947c-1.2,2.52-2.519.988-3.031,4.391a21.7,21.7,0,0,1-3.472.026c-2.276,1.2-4.226,4.012-7.265,5.65,2.324.16,1.786,3.767,2.007,5.8a27.523,27.523,0,0,0-.985,2.834,26.163,26.163,0,0,1-1.444-2.585c-.31,2.563-.6,4.909-.878,7.253-.508.306-.991.4-1.495.7.063-1.083.069-2.18.071-3.273-2.389,1.35-2.062-6.974-4.024-3.016-.02.213-.057.638-.1,1.075l-2.256-.451-2.393,1.472c-.233,1.7-.463,3.389-.629,5.093l-3.868-.8c-.291-2.887-.554-5.527-.844-8.4.773-3.733,2.557,1.387,2.931-4.6-.368-1.17-.722-2.3-1.088-3.466-.635.089-1.37-.7-1.843,1.794-3.045.585-5.256,1.445-7.876,1.913l-3.629-.5c-.506-.285-1.016-.794-1.527-1.063-.88.152-1.813.512-2.689.66l-1.916-2.067-.575-.043c-.526-.255-.607,1.658-2.235-1.241C556.437,923.409,556.231,922.112,557.054,918.968Z" fill="#db766d"/>
          </g>
          <g id="Group_796" data-name="Group 796">
            <path id="Path_867" data-name="Path 867" d="M558.658,927.217l1.831.132c.876-.148,1.809-.508,2.689-.66l1.042,5.275c.168-1.464.314-2.735.484-4.211l3.629.5c.291,2.194.577,4.364.84,6.354a4.349,4.349,0,0,1-1.149.909c-1.145.259-2.288.31-3.486.563l-.241-.037a12.814,12.814,0,0,0-3.166.775,32.625,32.625,0,0,0-2.7-2.356C558.5,932.118,558.577,929.776,558.658,927.217Z" fill="#e29288"/>
          </g>
          <g id="Group_797" data-name="Group 797">
            <path id="Path_868" data-name="Path 868" d="M562.532,895.771c4.224,3.288,6.292,1.822,8.309-1.166C568.824,897.593,566.756,899.059,562.532,895.771Z" fill="#e29288"/>
          </g>
          <g id="Group_798" data-name="Group 798">
            <path id="Path_869" data-name="Path 869" d="M579.141,928.015c-.374,5.988-2.157.868-2.931,4.6.291,2.877.554,5.518.844,8.4a4.788,4.788,0,0,1-1.434.769,17.406,17.406,0,0,1-.5-2.261c.057-1.717.111-3.229.176-5.148-1.422-1.275-1.734,3.64-2.644,1.79a26.373,26.373,0,0,1-3.477-1.561c-.263-1.99-.55-4.16-.84-6.354,2.62-.468,4.831-1.328,7.876-1.913.473-2.5,1.208-1.705,1.843-1.794C578.419,925.717,578.773,926.845,579.141,928.015Z" fill="#df837a"/>
          </g>
          <g id="Group_799" data-name="Group 799">
            <path id="Path_870" data-name="Path 870" d="M572.651,936.171c.91,1.85,1.222-3.065,2.644-1.79-.065,1.919-.119,3.431-.176,5.148-.827-.113-1.711-.233-2.533-.348C572.6,938.319,572.629,937.244,572.651,936.171Z" fill="#e29288"/>
          </g>
          <g id="Group_800" data-name="Group 800">
            <path id="Path_871" data-name="Path 871" d="M576.952,890.172c.789.571,1.657.937,2.432,1.508l-.095,1.931c-.769.731-1.046,2.407-2.818-.5A29.593,29.593,0,0,0,576.952,890.172Z" fill="#e29288"/>
          </g>
          <g id="Group_801" data-name="Group 801">
            <path id="Path_872" data-name="Path 872" d="M582.657,877.74l2.62,5.636.3.059a12.422,12.422,0,0,1,2.64-.625c.37-1.684.746-3.364,1.2-5.028,2.272-1.178,4.111-5.954,6.88-4.9.125-4.571,2.418,1.2,2.488-4.7,5.569-5.743,8.351,6.816,13.967,1.227.9.04,1.881,1.427,2.818-.075-.034-2.9-1.382-2.852-.969-5.618l.571-3.166,3.447-1.034a22.594,22.594,0,0,1,.556,3.277c-.558,2.292-1.163,4.782-1.722,7.079-3.85,6.239-5.685,8.814-7.772,8.429a29.277,29.277,0,0,0-3.041,2.219,26.91,26.91,0,0,1,2.185,2.86c-.32,1.909-.676,4.028-1,5.937a17.454,17.454,0,0,1-1.716,1.711,19.307,19.307,0,0,0-2.086-.559,11.064,11.064,0,0,1-1.95-1.563c-1.938.872-3.516,2.69-5.393,2.913-.053.425-.1.85-.131,1.065l-.718-.172-4.1-.96a20.354,20.354,0,0,1-2.2.626,7.257,7.257,0,0,1-1.285-1.312,11.462,11.462,0,0,1-2.555.638,7.85,7.85,0,0,1-.807.947c-.617-.543-1.329-.885-1.958-1.425.071-1.071.14-2.148.2-3-.66-1.209-1.321-2.417-1.958-3.581Z" fill="#e29288"/>
          </g>
          <g id="Group_802" data-name="Group 802">
            <path id="Path_873" data-name="Path 873" d="M593.044,926.928c3.039-1.638,4.989-4.448,7.265-5.65a21.7,21.7,0,0,0,3.472-.026c.512-3.4,1.835-1.871,3.031-4.391a19.563,19.563,0,0,1-2.628-1.947c.129-1.964.271-4.148.4-6.114,1.576-1.516,2.8-.026,3.955.1.467,1.265.961,2.312,1.343,3.551.455.138.846.257,1.238.373.54.4,1.224-1.632,1.9-2.541.593.18,1.25.381,1.841.561-.583,1.84-1.23,3.877-1.881,5.923a18.883,18.883,0,0,1,1.839.611l.247.1-.649,2.933c-.463,2.1-.88,3.986-1.345,6.081-.8,5.381-.591,6.379-1.182,8.2a17.015,17.015,0,0,1-1.539,1.664l.2-5.324c-1.24-.4-2.4-1.664-3.961,1.864l-.975,5.063-3.035-1a23.433,23.433,0,0,1-3.382,1.1c-1.091,1.6-1.95,1.413-2.757,1.2a21.04,21.04,0,0,1-3.043,1.407l-1.657-.443c.283-2.344.568-4.69.878-7.253a26.163,26.163,0,0,0,1.444,2.585,27.523,27.523,0,0,1,.985-2.834C594.83,930.695,595.368,927.088,593.044,926.928Z" fill="#df837a"/>
          </g>
          <g id="Group_803" data-name="Group 803">
            <path id="Path_874" data-name="Path 874" d="M605.619,937.957l.975-5.063c1.56-3.528,2.721-2.259,3.961-1.864l-.2,5.324c-.767.413-1.582.85-2.353,1.263C607.328,939.42,606.406,937.989,605.619,937.957Z" fill="#e29288"/>
          </g>
          <g id="Group_804" data-name="Group 804">
            <path id="Path_875" data-name="Path 875" d="M614.862,910.848l.655.211a22.122,22.122,0,0,1,2.846,2.217l-3.294,4.205-.247-.1a18.883,18.883,0,0,0-1.839-.611C613.632,914.725,614.279,912.688,614.862,910.848Z" fill="#e29288"/>
          </g>
          <g id="Group_805" data-name="Group 805">
            <path id="Path_876" data-name="Path 876" d="M613.074,926.5c.465-2.095.882-3.984,1.345-6.081.506,1.342.937,2.644,1.408,3.737-.3,1.026-.664,2.026-1.024,3.026-.995,2.565-1.916,4.947-2.911,7.514C612.483,932.875,612.278,931.877,613.074,926.5Z" fill="#e29288"/>
          </g>
          <g id="Group_806" data-name="Group 806">
            <path id="Path_877" data-name="Path 877" d="M619.826,912.7c2.1-.344,4.028-2.816,4.576-.551-.216.826-.38,1.453-.815,3.111-.577,1.148-1.145,2.535-1.653,3.717-.8-1.678-1.509-3.547-2.357-5.235C619.677,913.32,619.776,912.907,619.826,912.7Z" fill="#e29288"/>
          </g>
          <g id="Group_807" data-name="Group 807">
            <path id="Path_878" data-name="Path 878" d="M433.985,950.574a28.227,28.227,0,0,1,.556-3.749l.91-.506c.483.7,1.088,1.591,2.308,3.369.5,1.925,1.2,3.988,1.847,6.069l-1.1.615Z" fill="#e7a298"/>
          </g>
          <g id="Group_808" data-name="Group 808">
            <path id="Path_879" data-name="Path 879" d="M478.138,914.189c.836-.008-.421-4.136,2.683-1.648-.055.877-.02,1.99.018,3.093A24.618,24.618,0,0,1,478.138,914.189Z" fill="#e7a298"/>
          </g>
          <g id="Group_809" data-name="Group 809">
            <path id="Path_880" data-name="Path 880" d="M615.562,851.11c1.95-.569,4.062-3.318,5.577-6.893.449-2.32.941-4.852,1.39-7.178l1.327.372c.289,2.3-.095,5.526,1.293,4.585l3.947-2.022-.67,5.16c-.979,12.652-5.4,1.6-6.585,10.842.7-.028,1.451-.257,2.155-.277-.985,2.613-.138,3.966-.51,6.1-.259.816-.556,1.4-.767,2l-3.138-.891-.4-.117a22.594,22.594,0,0,0-.556-3.277c.732-6.907-1.639-5.126-2.6-6.063A11.949,11.949,0,0,0,615.562,851.11Z" fill="#e7a298"/>
          </g>
          <g id="Group_810" data-name="Group 810">
            <path id="Path_881" data-name="Path 881" d="M615.068,917.482l3.294-4.205.32.121c-.933,3.52-1.922,7.243-2.856,10.755-.471-1.093-.9-2.4-1.408-3.737Z" fill="#e7a298"/>
          </g>
          <g id="Group_811" data-name="Group 811">
            <path id="Path_882" data-name="Path 882" d="M633.68,848.929c.051-.212.152-.628.2-.838.506.174,1.1.378,1.608.549-.067,2.018-.142,4.245-.212,6.271-.912-.316-1.9-.66-2.81-.974C632.871,852.266,633.225,850.81,633.68,848.929Z" fill="#e7a298"/>
          </g>
          <g id="Group_812" data-name="Group 812">
            <path id="Path_883" data-name="Path 883" d="M563.178,926.689c.51.269,1.02.779,1.527,1.063-.17,1.476-.316,2.747-.484,4.211Z" fill="#df837a"/>
          </g>
          <g id="Group_813" data-name="Group 813">
            <path id="Path_884" data-name="Path 884" d="M581.551,936.732l2.393-1.472,2.256.451c.039-.437.077-.862.1-1.075,1.962-3.958,1.635,4.365,4.024,3.016,0,1.093-.008,2.19-.071,3.273-1.989,1.458-3.166,3.049-4.4,1.9l-4.932-1C581.089,940.121,581.318,938.428,581.551,936.732Z" fill="#df837a"/>
          </g>
          <g id="Group_814" data-name="Group 814">
            <path id="Path_885" data-name="Path 885" d="M588.747,907.885c.676.109,1.343.32,1.946.457.34,1.4.579,2.992.836,4.371,2.854,3.573,5.535-4.114,7.734.812-.123.85-.214,1.486-.3,2.128a26.541,26.541,0,0,0-3.708,1.281c-2.142,1.243-4.819-.587-7.178-1.775C588.291,912.8,588.53,910.241,588.747,907.885Z" fill="#df837a"/>
          </g>
          <g id="Group_815" data-name="Group 815">
            <path id="Path_886" data-name="Path 886" d="M596.687,891.815c1.877-.223,3.455-2.041,5.393-2.913a11.064,11.064,0,0,0,1.95,1.563,19.307,19.307,0,0,1,2.086.559c-.17,1.059-.34,2.117-.479,2.964a17.624,17.624,0,0,1-2.221.5c-.939,1.33-1.76,2.447-2.642,3.555a30.907,30.907,0,0,1-3.993,1.249c-.077-2.217-.148-4.2-.225-6.417C596.582,892.664,596.634,892.24,596.687,891.815Z" fill="#df837a"/>
          </g>
          <g id="Group_816" data-name="Group 816">
            <path id="Path_887" data-name="Path 887" d="M606.644,880.516c1.991-3.632,2.62-3.451,3.041-2.219,2.086.385,3.921-2.19,7.772-8.429.876.935,1.7,1.816,2.581,2.749-.093,1.1-.182,2.178-.271,3.267l-1.052,5.047c.7-1.8-.279-.97-.922.624-.5,2.081-.7,4.927-1.61,6-.364-.111-.838-.024-.018-5.36l-1.044-.306c-1.459,2.9-2.828,5.628-4.194,8.346l-3.095-.923c.32-1.909.676-4.028,1-5.937A26.91,26.91,0,0,0,606.644,880.516Z" fill="#df837a"/>
          </g>
          <g id="Group_817" data-name="Group 817">
            <path id="Path_888" data-name="Path 888" d="M624.162,871.845c.231.083.461.166.767.279,1.374-2.018,2.857-4.2,4.224-6.211l.4.132a25.326,25.326,0,0,0,4.05.287c.836,1.419,1.7,2.887,2.545,4.314-.164.613-.334,1.235-.5,1.868-.356,3.5-.809,6.98-1.275,10.452-1.546,2.852-3,5.531-4.441,8.191-.006.911.042,1.609.085,2.31l1.058.381c.86,3.049-1.236,7.535-2.051,11.338-.736,1.095-1.594,2.373-2.332,3.468-.423-.842-1.2.7-2.284,3.492-.548-2.265-2.474.208-4.576.551,1.038-4.836,2.037-9.482,3.031-14.116A15.361,15.361,0,0,1,624.744,897c.518-2.083.983-3.96,1.5-6.043-.785-.287-1.637-.6-2.42-.883-.573-.208-1.131-.421-2-2.775.095-.417.188-.832.235-1.045.372-2.124.706-4.051,1.078-6.18-.136-1.174-.277-2.36-.469-3.338C623.185,875.119,623.711,873.495,624.162,871.845Z" fill="#df837a"/>
          </g>
          <g id="Group_818" data-name="Group 818">
            <path id="Path_889" data-name="Path 889" d="M635.169,840.852a18.287,18.287,0,0,0,2.608-1.383c-.779,3.128-1.509,6.051-2.288,9.172-.508-.172-1.1-.375-1.608-.549C634.356,845.763,634.791,843.2,635.169,840.852Z" fill="#df837a"/>
          </g>
          <g id="Group_819" data-name="Group 819">
            <path id="Path_890" data-name="Path 890" d="M539.781,929.572c.736-2.1,1.527-3.992,2.318-6.1.065,0,.2,0,.328,0,.269.644.536,1.285.829,2.146.219,1.919.463,4.049.684,5.974l-3.587-.089C540.141,930.855,539.927,930.213,539.781,929.572Z" fill="#db766d"/>
          </g>
          <g id="Group_820" data-name="Group 820">
            <path id="Path_891" data-name="Path 891" d="M619.179,862.79l.4.117,3.138.891c-.166,1.289-.362,2.8-.528,4.091-.674,1.589-1.42,3.162-2.153,4.729-.876-.933-1.7-1.814-2.581-2.749C618.016,867.572,618.621,865.082,619.179,862.79Z" fill="#db766d"/>
          </g>
          <g id="Group_821" data-name="Group 821">
            <path id="Path_892" data-name="Path 892" d="M628.9,858.132c.326.113.57.2.815.279a22.613,22.613,0,0,0,.637,2.488l-1.2,5.014c-1.366,2.012-2.85,4.193-4.224,6.211-.307-.113-.536-.2-.767-.279.093-.417.186-.832.235-1.047.467-3.221.884-6.243,1.216-9.29C626.737,860.325,627.831,859.341,628.9,858.132Z" fill="#db766d"/>
          </g>
          <g id="Group_822" data-name="Group 822">
            <path id="Path_893" data-name="Path 893" d="M612.365,850.217a28.08,28.08,0,0,1,2.533-2.4c.263-2.372.55-4.943.813-7.316l2.964.816c.892-.864,1.119-2.585,1.974-3.68a15.27,15.27,0,0,0,1.44-.717l.441.119c-.449,2.326-.941,4.858-1.39,7.178-1.515,3.575-3.627,6.324-5.577,6.893a11.949,11.949,0,0,1,.463,2.34l2,.563c1.823-1.269,1.3,2.808.6,5.5l-3.447,1.034-.571,3.166c-.6.053-1.155.338-1.752.393-2.672,1.506-2.031-6-5.177-5.565-.061-2.431,1.279-2.794,1.448-3.856a29.4,29.4,0,0,0,2.753-1.5C612.017,852.341,612.191,851.276,612.365,850.217Z" fill="#eab2a8"/>
          </g>
          <g id="Group_823" data-name="Group 823">
            <path id="Path_894" data-name="Path 894" d="M615.711,840.5q.436-2.532.874-5.085c1.349.812,2.729,1.407,4.064,2.221-.854,1.095-1.082,2.816-1.974,3.68Z" fill="#eec4bb"/>
          </g>
          <g id="Group_824" data-name="Group 824">
            <path id="Path_895" data-name="Path 895" d="M452.294,868.321c.838-.261,1.594-.492,2.43-.753C453.886,867.6,456.016,871.2,452.294,868.321Z" fill="#f3d7d0"/>
          </g>
          <g id="Group_825" data-name="Group 825">
            <path id="Path_896" data-name="Path 896" d="M608.947,835.773c2.187-3.067,5.462-3.429,7.637-.356q-.439,2.552-.874,5.085c-1.541-.611-2.95-1.528-4.479-2.259C610.533,837.435,609.742,836.607,608.947,835.773Z" fill="#f3d7d0"/>
          </g>
          <g id="Group_826" data-name="Group 826">
            <path id="Path_897" data-name="Path 897" d="M585.989,862.691c1.946-2.945,2.869-2.8,3.769-2.656C590.286,869.023,587.272,866.58,585.989,862.691Z" fill="#eab2a8"/>
          </g>
          <g id="Group_827" data-name="Group 827">
            <path id="Path_898" data-name="Path 898" d="M452.118,903.162c.979.779,1.881,1.593,2.761,2.19.477,2.1,1.813,5.253.109,4.5a11.054,11.054,0,0,0-2.2-.354C450.9,905.636,453.886,907.749,452.118,903.162Z" fill="#eab2a8"/>
          </g>
          <g id="Group_828" data-name="Group 828">
            <path id="Path_899" data-name="Path 899" d="M518.681,906.962c.676.142.532-2,.821-3.1.653.354,1.262.5,1.908.86l1.782-3.288c.445.836.775,1.458,1.1,2.079.811-1.96,2.62-.773,3.907-1.267.856.814,1.667,1.405,2.407,2.012-.572.032-.625,1.96-.876,3.043l-4.712.227c-.57.03-1.121.049-3.407-1.751C520.874,906.073,521.078,908.854,518.681,906.962Z" fill="#e29288"/>
          </g>
        </g>
      </g>
    </g>
  </g>
</svg>
