<svg xmlns="http://www.w3.org/2000/svg" width="180" height="191.001" viewBox="0 0 180 191.001">
  <g id="Vector_Smart_Object" data-name="Vector Smart Object" transform="translate(-408.182 -347.896)">
    <g id="Group_912" data-name="Group 912" opacity="0.5">
      <g id="Group_911" data-name="Group 911" opacity="0.9">
        <g id="Group_910" data-name="Group 910" opacity="0.9">
          <g id="Group_832" data-name="Group 832">
            <path id="Path_900" data-name="Path 900" d="M549.027,354.4c-1.793-2.02-3.166-2.622-4.976-5.193l1.949-1.12C548.513,351.088,551.507,355.476,549.027,354.4Z" fill="#eec4bb"/>
          </g>
          <g id="Group_833" data-name="Group 833">
            <path id="Path_901" data-name="Path 901" d="M587.235,416.146a11.871,11.871,0,0,0-1.667,2.333,9.883,9.883,0,0,0-2.351-.026l-.423.233c-1.053.052-1.951.294-3.011.341-.508.3-1.058.621-1.568.918l-1.02-.791a5.961,5.961,0,0,1-.729,1.817c-.656-.44-1.279-.925-1.892-1.4.357.906.832,2.02,1.352,3.107l-1.568.916.8.93a25.49,25.49,0,0,0-2.929,3.109c-2.367.876-4.75,1.747-6.972,2.808l-2.423-2.735-1.333.805,2.428,2.733a21.312,21.312,0,0,0-2.654,3.032c-.454.28-.907.563-1.316.814-4.163-2.5-.745.746-1.319.814-1.312-.591-2.635-1.186-4-1.751l-.639.4-2.8-.8c-2.4,2.086-5.228,1.907-7.6,3.408-.809,1.641-1.9,5.5-7.9.822,1.384,3.114-.449,2.872-1.192,3.639-2.466-2.688-2.021-.972-3.436-1.768-.273.179-.59.388-.863.57l-1.316.866c-.407.275-.858.579-1.309.88l-4.346,2.9a9.877,9.877,0,0,0-2.341.127,6.4,6.4,0,0,0-.7,1.907c-.315.523-.472,1.205-.8,1.716a23.12,23.12,0,0,1,.183,2.794l-.228.153a8.685,8.685,0,0,0-1.072,2.187,9.968,9.968,0,0,0-1.29,2.344,8.859,8.859,0,0,0-2.162.024c2.562,3.488.778,3.277-.585,3.048a24.964,24.964,0,0,1-2.729,3.387c.592,1.339,1.366,2.853,2.01,4.162-1.126-.963-2.435-2.1-3.519-3.1-.813,1.151-1.737,2.111-2.539,3.272,1.746,1.711,3.321,3.251,5.063,4.955.557,1.954,3.14,4.84,3.794,5.845-.306.511-.435,1.193-.738,1.7-2.792-.075-5.077-.805-2.919,2.078a25.864,25.864,0,0,1-1.18,3.823c-3.364-.817-3.874.16-1.356,2.479l-.863.628-2.071,1.509c-3.206-.927-.566,1.921-.028,2.712l-1.627,1.205c-.684.511-1.408,1.052-2.05,1.53-1.866.2.489,2.029.125,2.9-.924-.212-1.883-.388-3.03-.73l-.388.285c3.018,3.425,1.147,3.048.139,2.907l-.381.29c2.987,3.166,1.453,2.818.576,2.585.943,1.083,1.89,2.173,3,3.446a27.693,27.693,0,0,0-3.408-.426l-1.222.934c.968,1.076,2.092,2.328,3.058,3.4-.973-.188-1.944-.374-2.851-.546a15.892,15.892,0,0,0-3.126.9c-2.071-1.742-4.313-3.63-6.384-5.374-.383-.911-.957-1.989-1.525-3.069l.214-.165c1.944,1.509,3.7,2.874,5.674,4.4l1.18-.911c-1.434-2.215.146-1.918-1.053-3.717a19.863,19.863,0,0,0,3.03.7c.113-.68.4-1.2.5-1.888-.266-.683-.55-1.415-.816-2.095-3.932-4.249-2.254-3.717-2.148-4.406-.717-.659-1.612-1.481-2.515-2.314l.432-.32a13.856,13.856,0,0,1,2.745-.567c1.577.019-1.34-3.192-2.865-5.047a6.556,6.556,0,0,1,.357-1.78,7.237,7.237,0,0,1,1.716.217c-.545-.8-.945-1.391-1.349-1.991a43.1,43.1,0,0,1,5.507-1.106c-.933-1.4-1.735-2.592-2.492-3.825l3.253.292a7.206,7.206,0,0,0,.773-2.062l.653-.48-1.589-1.518a13.154,13.154,0,0,1,2.762-.532l1.582,1.516c2.273.122-.574-2.542-.569-3.728a6.317,6.317,0,0,1,.618-1.928c-4.772-3.962-6.715-4.032-4.353-1.01l-.442.322c-1.671-.854-3.121-1.594-4.788-2.443-4.659-7.036,1.391-3.39-.169-7.007,1.732-.652-5.766-8.276-.275-5.428,2.95.831,3.18-.231.583-3.1a28.6,28.6,0,0,1,3.025-3.608c3.258,2.7,1.114-.2,2.17-.071-3.984-8.088,6.8-1.271,3.051-9.171,3.491,1.676,1.812-.96,1.793-2.7a16.091,16.091,0,0,1,3.044-.643c-4.125-6.212,5.448,1.532,4.63-1.97a15.626,15.626,0,0,0,2.816-.454c.409-1.139-1.624-5.567,1.584-2.521.5-.906,5.091,3.533,4.725,1.179-.931-3.119,2.656-2.323.606-5.854,4.4,2,1.812-5.814,7.693-2.439-1.676-4.053,2.583-3.373,3.845-5.044l1.117-.713c1.758,2.01,2.033,1.264,2.362,1.064.157-.388,1.4.252.113-1.488-1.363-1.422.12-.925,3.758,1.892.167.181.491.541.818.9.642,1.323,1.262,2.606,2,4.131,2.891,2.149,3.357,1.869,5.5,3.364l-2.224-2.86c-.282-.953-.731-2.09-1.173-3.227l3.972,2.893c2.945,1.283-2.541-3.787-2.569-5.19,1.944,1.033,3.939,2.093,5.883,3.124.353-2.18,5.122,1.109,3.994-2.42,1.471,1.344,2.905,2.728,4.332,4.105a5.257,5.257,0,0,0,.531-1.728,15.712,15.712,0,0,0,3.016-.421c-1.993-3-1.659-4.894,1.749-1.059l2.228-1.311c-.832-1.751-1.645-3.47-2.48-5.223-3.194-3.128-3.963-5.743-2.468-5.237l3.441,3.262c-.172-.76-.329-1.459-.5-2.22,1.074.718,2.033,1.358,3.107,2.074l.886-.52,1.354-.789a6.173,6.173,0,0,0-.43-3.639c-1.1-1.3-2.05-2.42-3-3.54-.766-1.488-1.431-2.771-2.249-4.242.606-1.457,3.232.073,4.786.007,3.074.991,6.262,5.812,8.648,8.33l1.117-.652c1.746,1.765,3.385,3.319,5.181,5.063C589.127,415.066,588.264,415.829,587.235,416.146Z" fill="#eec4bb"/>
          </g>
          <g id="Group_834" data-name="Group 834">
            <path id="Path_902" data-name="Path 902" d="M522.368,351.058c.94,2.8-.193,2.349-2.541.388C518.732,348.739,518.111,346.032,522.368,351.058Z" fill="#eec4bb"/>
          </g>
          <g id="Group_835" data-name="Group 835">
            <path id="Path_903" data-name="Path 903" d="M535.19,374.509c.595,1.04.99,1.93,1.547,3.006-2.966-.179-1.008,4.814-5.347,3.222,4.715,6.692,6.87,6.8,9.477,10.557,2.16,2.9-.221,1.259.91,3.392.32.365.48.548.8.92A102.937,102.937,0,0,0,549,403.789a23.463,23.463,0,0,0,.009,2.813c-2.038-1.532-3.944-2.968-5.989-4.505-3.469-4.357-.118-2.455-3.338-6.125-.169-.765-.327-1.474-.5-2.238-5.385-3.467-5.808-1.5-7.378-1.1-1.253-.916-2.722-1.987-3.977-2.9-.832-1.193-1.819-2.561-2.595-3.776-.028-.539.143-.937.115-1.476a14.989,14.989,0,0,0,1.944-2.627c.275-.452.3-1.026.519-1.455-1.436-1.94-2.875-3.882-4.17-5.626-.334-1.229-.653-2.4-.99-3.634a28.545,28.545,0,0,0,3.22.857c1.424.261.32-1.878.32-3.006l.444-.264c1.417.257,2.734.311,3.947.421Z" fill="#f3d7d0"/>
          </g>
          <g id="Group_836" data-name="Group 836">
            <path id="Path_904" data-name="Path 904" d="M539.292,355.843c-.32,1.568-.606,3.168-.968,4.762-.409,1.1-.794,2.135-1.2,3.229l-.444.261-5.307-4.967c-1.723-.1,2.922,4.423,3.387,6.108-.529.862-1.258,1.575-1.824,2.476-.708-.132-1.211-.113-1.965-.212-1.629-1.528-3.458-3.244-5.284-4.955-1.293.5-2.792,1.128.959,6.174l-.444.264c0,1.128,1.1,3.267-.32,3.006a28.545,28.545,0,0,1-3.22-.857c.336,1.231.656,2.406.99,3.634-.534.332-1.07.664-1.65,1.029a27.567,27.567,0,0,0,5.3,6.052,14.989,14.989,0,0,1-1.944,2.627c-2.588-2.935-5.162-5.852-7.752-8.787-7.139-4.9-3.152,3.368-8.608,1.433-5.138-1.278-2.661,5.124-8.405,2.528.726-5.6,6.382-5.816,6.161-10.8.331.374.489.551.813.913.707-2.144,5.115-.355,6.273-2.5-.045-1.956-.867-4.562,3.159-.553l1.185-.725a5.276,5.276,0,0,1-.36-1.2,9.683,9.683,0,0,1,2.484-.1c-1.439-1.662-2.55-2.947-3.836-4.435a12.508,12.508,0,0,0-1.678-5.729l5.035-3.076c2.348,1.961,3.481,2.41,2.541-.388,4.675-.537,9.249-1.062,13.861-1.492C537.282,351.731,538.391,353.871,539.292,355.843Z" fill="#e29288"/>
          </g>
          <g id="Group_837" data-name="Group 837">
            <path id="Path_905" data-name="Path 905" d="M514.792,354.523a12.508,12.508,0,0,1,1.678,5.729c1.286,1.488,2.4,2.773,3.836,4.435a9.683,9.683,0,0,0-2.484.1,5.276,5.276,0,0,0,.36,1.2l-1.185.725c-4.026-4.009-3.2-1.4-3.159.553-1.159,2.142-5.566.353-6.273,2.5-.324-.362-.482-.539-.813-.913.221,4.985-5.434,5.2-6.161,10.8,5.745,2.6,3.267-3.806,8.405-2.528,5.456,1.935,1.469-6.334,8.608-1.433,2.59,2.935,5.164,5.852,7.752,8.787.028.539-.143.937-.115,1.476-1.189-.668-2.388-1.346-3.425-1.834-1.051.085,2.026,2.7,2.355,3.917-.628.391-1.206.749-1.831,1.139-1.3.822-2.586,1.643-3.928,2.5.639,1.878-1.187,1.608-1.728,2.512a26.305,26.305,0,0,0-2.98-.946c-3.5-1.761-4.351-1.77-3.747-.443-1.088-.44-2.39-1.029-3.646-1.648a18.853,18.853,0,0,0,.693,2.427,26.649,26.649,0,0,0-3.241-.772,33.5,33.5,0,0,1,.454,3.733c-.747.191-1.7.238-2.487.471l-1.14.763c-5.5-4.731,1.471,3.069-2.285,1.523.454.567.853,1.16,1.262,1.761,2.151,3.773-1.044,2.422-1.039,3.578l-3.892-1.739c-.637.148-1.408.078-2.052.219-.172.974-.353,2-.522,2.973l-.233.167a18.872,18.872,0,0,1-3.352.829c-1.857.683.423,3.211.928,5.19-3.016-.847-1.046,1.6-1.392,2.123-2.8-.7-3.171-.431-3.547-.169-1.032.72-2.108,1.474-3.143,2.194.576,1.069,1.885,2.8,1.511,3.06l-.475.323a11.036,11.036,0,0,1-2.212.087c-1.248-.306-4.388-1.619-3.114,1.022a22.319,22.319,0,0,0-3.559,1.076c.226,1.9-.3,2.577-.282,4.338a22.463,22.463,0,0,0-.261,3.147c-3.521.172-1.02,3.418-2.4,4.425l.418,4.166c-.169,1.005-.28,1.991-.4,2.966-1.147-.64-.3,1.109-1.328.972-4.92-.226-4.884,2.156-3.462,5.588a15.419,15.419,0,0,0-.4,3.307l-1.314.982c-3.3-1.113-2.017.327-1.753,1.337l1.6,1.5-1.93,1.473a8.675,8.675,0,0,1,.663,1c-.757-.021-1.384.153-2.148.129a9.241,9.241,0,0,0,.447,1.175,6.65,6.65,0,0,0-.635,1.989,7.371,7.371,0,0,0-1.751-.177,7.056,7.056,0,0,0-.4,1.827l-2.529,1.984c-1.053-2.848-4.325-7-.157-4.458.268-.513.353-1.193.585-1.662-.94-2.314-.033-3.008,1.718-2.829l-3.881-4.3.907-.692c-3.963-3.929-2.437-3.587-2.115-4.138-.712-.977-1.467-1.914-2.217-2.85-.04-.892-.066-1.77-.049-2.693,1.478.69,4.757,3.317,4.649,2.2-3.766-3.79-12.3-10.9-9.827-11.564,2.649-.485,2.036-4.242,5.564-4.2-1.375-2.274-3.291-4.759-1.335-4.712,2.061,2.069,2.315,1.278,2.689,1,.9-.963-1.356-3.477.684-3.5a13.859,13.859,0,0,1,1.345.506c-1.916-3.069-3.056-4.025-3.063-4.917-3.347-1.412-1.923.224-2.475.33l-.423.315-2.941-.516c.47-.353.893-.668,1.363-1.017-1.944-2.151-3.726-4.122-5.512-6.1l.71-.53a40.572,40.572,0,0,1,7.759,2.952l.472-.351c-.747-1.549-1.363-2.886-1.939-4.27.322.071.813.313,1.128.377l-.411-2.368c.477-.348.954-.694,1.384-1.007a7.47,7.47,0,0,1-.628-1.036l1.391-1a26.269,26.269,0,0,1,2.868.887c1.556,1.556,3.279,3.277,4.833,4.828.834.591,1.49,1,2.148,1.417l.237-.172c-.924-2.267-1.786-4.383-2.712-6.65-.562-.485-1.173-.935-1.791-1.391,1.128-.515,2.393-.8,3.469-1.283-.2-1.029-.628-2.2-1.006-3.42,1.337-.049,2.71-.146,4.259-.056-.487-3.481-.256-5.43,3.039-3.616a20.325,20.325,0,0,1,3.413-.894l.677-.464a4.265,4.265,0,0,1,.125-1.544c.891.259,1.735.551,2.677.781a35.479,35.479,0,0,0-3.136-4.868,13.541,13.541,0,0,0,2.929-.553c1.895-2.137,3.829-4.322,5.761-6.506.449-.88-1.728-4.067-1.227-4.988l.494-.33c1.269.584,2.6,1.191,3.864,1.772,1.131-.746,2.212-1.462,3.291-2.177a10.416,10.416,0,0,1,1.347-2.319l.928-.619c6.088-3.679,12.347-7.125,18.642-10.479,5.305,3.778,1.845.268,1.439-.9,1.869-.322,3.8-.657,5.723-.989C513.819,355.956,514.249,355.132,514.792,354.523Z" fill="#df837a"/>
          </g>
          <g id="Group_838" data-name="Group 838">
            <path id="Path_906" data-name="Path 906" d="M527.819,380.394c-.221.428-.244,1-.519,1.455A27.567,27.567,0,0,1,522,375.8c.581-.365,1.117-.7,1.65-1.029C524.944,376.512,526.383,378.454,527.819,380.394Z" fill="#eec4bb"/>
          </g>
          <g id="Group_839" data-name="Group 839">
            <path id="Path_907" data-name="Path 907" d="M571.54,406.616a6.173,6.173,0,0,1,.43,3.639l-1.354.789-.886.52c.381.607.811,1.193,1.352,1.987-1.49-1.356-2.985-2.719-4.459-4.06.169.76.327,1.459.5,2.22l-3.441-3.262c-1.495-.506-.726,2.109,2.468,5.237.834,1.754,1.648,3.472,2.48,5.223l-2.228,1.311c-3.408-3.834-3.742-1.944-1.749,1.059a15.712,15.712,0,0,1-3.016.421,5.257,5.257,0,0,1-.531,1.728c-1.427-1.377-2.861-2.761-4.332-4.105,1.128,3.528-3.641.24-3.994,2.42-1.944-1.031-3.939-2.09-5.883-3.124.028,1.4,5.514,6.473,2.569,5.19l-3.972-2.893c.442,1.137.891,2.274,1.173,3.227l2.224,2.86a10.154,10.154,0,0,0,.355,1.186c-2-1.575-3.963-3.182-5.855-4.55-.9-1.709-1.883-3.357-2.818-5.033-3.639-2.818-5.122-3.314-3.758-1.892,1.288,1.739.045,1.1-.113,1.488-.329.2-.6.946-2.362-1.064l-1.117.713c-1.262,1.671-5.521.991-3.845,5.044-5.881-3.375-3.291,4.435-7.693,2.439,2.05,3.531-1.537,2.735-.606,5.854.367,2.354-4.229-2.086-4.725-1.179-3.208-3.046-1.175,1.382-1.584,2.521a15.626,15.626,0,0,1-2.816.454c.818,3.5-8.756-4.242-4.63,1.97a16.091,16.091,0,0,0-3.044.643c.019,1.744,1.7,4.38-1.793,2.7,3.747,7.9-7.035,1.083-3.051,9.171-1.055-.127,1.088,2.771-2.17.071a28.6,28.6,0,0,0-3.025,3.608c2.6,2.865,2.367,3.926-.583,3.1-5.491-2.848,2.007,4.776.275,5.428,1.561,3.618-4.489-.028.169,7.007,1.667.85,3.117,1.589,4.788,2.443l.442-.322c-2.362-3.022-.418-2.952,4.353,1.01a6.317,6.317,0,0,0-.618,1.928c.259,1.288.3,2.436.569,3.728l-1.582-1.516a13.154,13.154,0,0,0-2.762.532L500.877,476l-.653.48a5.2,5.2,0,0,1-.341,1.739l-.433.322-3.253-.292c.888,1.135,1.822,2.239,2.926,3.5l-.435.322a43.1,43.1,0,0,0-5.507,1.106c.4.6.8,1.189,1.349,1.991a7.237,7.237,0,0,0-1.716-.217c-.891-.831-1.782-1.659-2.492-2.321l-4.4-2.709c-.851-1.158-1.873-2.481-2.769-3.611-.522-2.622-4.055-8.092-3.834-10.063,3.681,2.641,2.217.141,4.132-.073-.71-.673-1.243-1.179-1.772-1.678a29.913,29.913,0,0,0,1.617-4.19c1.993.619-1.761-2.592-2.454-3.863l1.072-.8a71.911,71.911,0,0,0-2.3-6.96c5.94-2.858,7.754-8,9.825-14.165.893-1.229,5.4,3.232,3.074-2.173.334-.525.55-1.252.881-1.784,3.73.631,3.81-1.179,7.026.685.042-2.083-3.385-4.967-2.8-5.08l.924-.64c2.778.716,1.02-1.572,1.149-2.238,3.117,1.073,1.053-1.3,1.768-1.2l.233-.16,2.7-1.829.651-.44c1.493.438,3.027.85,4.353,1.12.717-.767,1.316-1.737,2.038-2.5l1.121-.744c.162.172.5.534.665.708,4.167.414,5.322-3.827,9.038-3.053-.983-3.086,2.289-2.055,2.781-3.22,3.293,3.02,2.151.315,4.24,1.546.639-.113,1.382-.024,2.014-.144,2.151-.224,2.162-3.637,6.95-.113-.393-1.737-.625-3.3-.846-4.854.787.645,1.746,1.426,2.741,2.243l1.121-.706c1.022,1.066,2.416,3.032,3.274,3.345.79-1.066-.291-2.928-2.454-6.678,1.124.445,2.076.7,2.987.993.056-.593.268-1.01.32-1.608-.745-1.238-1.605-2.667-2.355-3.91,2.045,1.537,3.951,2.973,5.989,4.505a23.463,23.463,0,0,1-.009-2.813,6.54,6.54,0,0,0,.8-1.895l.43-.25,1.848-1.111,3.293,2.234c.816-1.038-.592-4.679,3.4-2.027a24.305,24.305,0,0,1,3.956-.944c.966-.282,4.12,2.6,5.818,3.279C569.491,404.2,570.438,405.316,571.54,406.616Z" fill="#eab2a8"/>
          </g>
          <g id="Group_840" data-name="Group 840">
            <path id="Path_908" data-name="Path 908" d="M539.686,395.971a9.62,9.62,0,0,1-1.951-.219c-1.73-.631.754,2.359,2.083,4.359a8.981,8.981,0,0,0-2.134-.094c.684,1.306,1.443,2.749,2.127,4.053.811.913,1.62,1.824,2.261,2.549,2.162,3.75,3.244,5.612,2.454,6.678-.858-.313-2.252-2.279-3.274-3.345l-1.121.706c-.994-.817-1.953-1.6-2.741-2.243.221,1.554.454,3.117.846,4.854-4.788-3.524-4.8-.111-6.95.113-.632.12-1.375.031-2.014.144-2.09-1.231-.947,1.474-4.24-1.546-.491,1.165-3.763.134-2.781,3.22-3.716-.774-4.87,3.467-9.038,3.053-.165-.174-.5-.537-.665-.708l-1.121.744c-.722.763-1.321,1.732-2.038,2.5-1.326-.271-2.861-.683-4.353-1.12l-.651.44-2.7,1.829-.233.16c-.715-.1,1.349,2.274-1.768,1.2-.129.666,1.629,2.954-1.149,2.238l-.924.64c-.585.113,2.842,3,2.8,5.08-3.215-1.864-3.3-.054-7.026-.685-.331.532-.548,1.259-.881,1.784,2.322,5.4-2.181.944-3.074,2.173-2.071,6.167-3.885,11.308-9.825,14.165a71.911,71.911,0,0,1,2.3,6.96l-1.072.8c.693,1.271,4.447,4.482,2.454,3.863a29.913,29.913,0,0,1-1.617,4.19c.529.5,1.062,1.005,1.772,1.678-1.916.214-.451,2.714-4.132.073-.221,1.97,3.312,7.44,3.834,10.063.9,1.13,1.918,2.453,2.769,3.611l4.4,2.709c.71.661,1.6,1.49,2.492,2.321a6.556,6.556,0,0,0-.357,1.78c1.525,1.855,4.442,5.065,2.865,5.047a13.856,13.856,0,0,0-2.745.567l-.432.32c-.7-.064-1.22.033-1.92-.033.155,2.307,1.838,5.557.432,6.923-.738,1.184-1.676,2.187-2.367,3.342l-.214.165c-.9-.814-1.817-1.636-2.543-2.288a15.4,15.4,0,0,1-.571-2.587c-.9-.817-.806-1.8-3.013-3.439-.646,2-7.094-3.293-6.527-.687-.115.4-.009.927-.127,1.328l-6.429-2.274,1.074-3.6c.759-2.441,2.083-4.988,6.7-3.7,1.805-.177-3.65-5.374-2.233-5.553-1.474-3.408-2.959-6.85-3.187-9.375-1.26-1.462-2.466-2.949-3.686-4.456a6.85,6.85,0,0,0,.628-1.973,1.427,1.427,0,0,1,.183-.129L474.354,467l-5.26-5.972c-1.288-.523-2.626-1.017-3.963-1.506-.71-.664-1.605-1.5-2.5-2.33a8.675,8.675,0,0,0-.663-1l1.93-1.473c.849-.042,1.563-.287,2.414-.327-.844-.871-1.648-1.78-2.264-2.514l1.314-.982a15.419,15.419,0,0,1,.4-3.307c-1.422-3.432-1.457-5.814,3.462-5.588,1.03.137.181-1.612,1.328-.972.118-.974.228-1.961.4-2.966a15.84,15.84,0,0,1,3.074-.758c.449-1.831.881-3.606,1.33-5.442.722.082,1.267-.009,1.979.066,1.469.431-.505-2-.388-2.672,1.443-1.335,2.722-2.834,4.212-4.2a33.968,33.968,0,0,1,2.059-4.385l-.86-.869.475-.323c.935.228,1.911.417,3.063.789.545-.967,2.593-.636,1.808-2.726l2.172,1.422-1.013-3.7c.715.092,1.26.009,1.97.1-.517-1.1-2.024-2.982-1.429-3.1.886.271,1.723.57,2.651.807.769.066.416-.866.284-1.65a14.376,14.376,0,0,0,3.107-.659l1.321-.89c-.515-.541-1.013-1.064-1.521-1.6a6.466,6.466,0,0,1,.529-1.81l.837.883a5.433,5.433,0,0,1,.541-1.8l1.373-.923c0-1.156,3.19.2,1.039-3.578l4.111,1.6c-.931-1.984,1.464-.982.369-3.147l4.066,2.808c-.5-1.111-.87-2.005-1.415-3.093a14.305,14.305,0,0,1,2.926-.468l-.827-.9c.43-.278.9-.588,1.335-.869.762-.5,1.572-1.024,2.287-1.488l1.486,1.627c2,4.43.966,5.1-.31,5.936l1.481,1.61c4.346,1.2,3.744-2.415,7.009-.235,2.663-.285,6.631-1.064,6.01-5.233,1.26.913,2.729,1.975,3.991,2.886-.085-.506-.066-.814-.146-1.323.792.061,1.377-.026,2.177.047-.973-1.095-2.106-2.368-3.084-3.465-1.25-2.326-2.621-4.87-3.874-7.2-1.058-.744-1.941-1.368-2.99-2.107-.329-1.212-3.406-3.832-2.355-3.917,1.037.487,2.235,1.165,3.425,1.834.776,1.215,1.763,2.582,2.595,3.776,1.255.916,2.724,1.987,3.977,2.9,1.57-.4,1.993-2.363,7.378,1.1C539.36,394.5,539.517,395.206,539.686,395.971Z" fill="#e7a298"/>
          </g>
          <g id="Group_841" data-name="Group 841">
            <path id="Path_909" data-name="Path 909" d="M545.379,406.006c-.052.6-.263,1.015-.32,1.608-.912-.292-1.864-.548-2.987-.993-.642-.725-1.45-1.636-2.261-2.549-.684-1.3-1.443-2.747-2.127-4.053a8.981,8.981,0,0,1,2.134.094c.983.532,2.073,1.273,3.206,1.984C543.774,403.339,544.634,404.768,545.379,406.006Z" fill="#eec4bb"/>
          </g>
          <g id="Group_842" data-name="Group 842">
            <path id="Path_910" data-name="Path 910" d="M433.643,413.948a4.391,4.391,0,0,0-.016,1.521,23.6,23.6,0,0,0-3.62,1.238c-.884-.838-1.77-1.676-2.48-2.351l-2.036,1.553a19.9,19.9,0,0,0-2.24-1.306c-2.908-3.55-1.561-4.564,1.622-2.761-.8-.9-1.436-1.624-2.24-2.53a33.721,33.721,0,0,1,4.311-1.772c1.037-.475,2.193-.756,3.22-1.238,1.81,1.655,3.657,3.272,5.333,4.724C434.908,412.081,434.193,412.933,433.643,413.948Z" fill="#eec4bb"/>
          </g>
          <g id="Group_843" data-name="Group 843">
            <path id="Path_911" data-name="Path 911" d="M480.449,504.776c8.185,6.69-3.065,2.1,8.384,10.795l4.6,3.707c1.093.965,2.376,2.095,3.479,3.069l-1.2.944c1.152,1.226,2.139,2.281,3.291,3.507.569,1.391,1.14,2.78,1.895,4.322a76.4,76.4,0,0,1-8.471-6.44,17.177,17.177,0,0,1-.853-2.4c-2.083-1.711-4.36-3.583-6.443-5.291-.183-.16-.55-.48-.736-.645l-4.4-3.853c-.463.37-.966.772-1.429,1.139-.966-.749-1.956-1.516-2.924-2.269l-7.4-5.743a10.084,10.084,0,0,1,1.117-2.443l.207-.174,4.4,3.858c.766.313,1.483.659,2.428,1.137-.691-1.558-1.326-2.985-2.017-4.541-2.713-2.156-5.411-4.3-8.293-6.593l-.917-.805c-1.42-1.325-2.8-2.686-4.172-4.042-.952-.475-2.085-1.111-3.211-1.737-1.887-1.561-3.6-2.975-5.479-4.531l-.914-.805c-.141-.793-.291-1.643-.43-2.439.606-.789,4.743,2.359,7.294,4.326l4.381,3.879,2.955,2.253c1.241,1.464,2.492,2.928,3.777,4.355,1.147.923,2.5,2.013,3.646,2.938.5.513.961,1.066,1.65,1.744C476.594,502.921,478.34,503.686,480.449,504.776Z" fill="#e29288"/>
          </g>
          <g id="Group_844" data-name="Group 844">
            <path id="Path_912" data-name="Path 912" d="M504.384,529.889c-2.014-1.158-3.587-2.062-5.38-3.091-1.152-1.226-2.139-2.281-3.291-3.507l1.2-.944c1.4,1.031,2.621,1.9,4.071,2.9C502.074,526.831,503.058,528.178,504.384,529.889Z" fill="#eec4bb"/>
          </g>
          <g id="Group_845" data-name="Group 845">
            <path id="Path_913" data-name="Path 913" d="M452.332,496.248q4.816,3.492,9.651,7,.843.731,1.662,1.438c.837.869,1.678,1.739,2.557,2.573,3.747,3.133,7.689,6.426,11.64,9.731,3.011,2.189,6.965,4.858,6.264,5.426l-.625.5-5.347-4.623c-4.518-3.149-8.57-4.8-11.821-9.59-5.58-3.2-13.311-8.982-14.418-12.106-3.11-3.036-6.05-5.908-9.162-8.945l.651-.537c.684.377,1.366.746,2.233,1.283Z" fill="#eec4bb"/>
          </g>
          <g id="Group_846" data-name="Group 846">
            <path id="Path_914" data-name="Path 914" d="M579.725,407.171c-2.386-2.519-5.573-7.339-8.648-8.33.44-.812,1.041-1.436,1.483-2.25,2.637,1.82,8.415,8.191,8.281,9.929Z" fill="#f3d7d0"/>
          </g>
          <g id="Group_847" data-name="Group 847">
            <path id="Path_915" data-name="Path 915" d="M542.255,359.409c1.406,1.965,2.814,3.931,4.078,5.7,2.548,7.426-4.567-3.458-4.254-.014l-1.175.7c-1.283-.661-2.5-1.292-3.782-1.956.407-1.095.792-2.133,1.2-3.229.362-1.594.649-3.194.968-4.762Z" fill="#f3d7d0"/>
          </g>
          <g id="Group_848" data-name="Group 848">
            <path id="Path_916" data-name="Path 916" d="M534.757,365.237c2.146,3.754,8.25,9.644,4.534,8.208-2.108-1.269-4.276-3.9-6.358-5.732C533.5,366.812,534.228,366.1,534.757,365.237Z" fill="#f3d7d0"/>
          </g>
          <g id="Group_849" data-name="Group 849">
            <path id="Path_917" data-name="Path 917" d="M582.172,425.7c-.364.217-.729.431-2.689-1.21l-1.328.781a5.077,5.077,0,0,1-.534,1.7c-.844-.9-1.572-1.579-2.459-2.448l-.8-.93,1.568-.916c-.519-1.087-.994-2.2-1.352-3.107.613.473,1.236.958,1.892,1.4a5.961,5.961,0,0,0,.729-1.817l1.02.791C579.57,421.932,580.766,423.737,582.172,425.7Z" fill="#f3d7d0"/>
          </g>
          <g id="Group_850" data-name="Group 850">
            <path id="Path_918" data-name="Path 918" d="M547.777,387.152c1.051,3.851-.214,4.051-2.734,1.638C544.253,385.337,544.6,384.287,547.777,387.152Z" fill="#f3d7d0"/>
          </g>
          <g id="Group_851" data-name="Group 851">
            <path id="Path_919" data-name="Path 919" d="M513.283,356.573c-1.927.332-3.855.666-5.723.989l-2.094-1.521a17.781,17.781,0,0,0,.656,2.42c-6.295,3.354-12.554,6.8-18.642,10.479-1.49-1.9-2.83-3.613-4.325-5.517,2.388-.426,5.392-.056,3.963-4,3.274.756.425-4.87,2.5-5.64,1.406,1.4,2.94,3.561,4.149,4.211,2.162-.534-4.56-10.79,2.931-4.7a33.54,33.54,0,0,0-.049-3.952,26.194,26.194,0,0,1,3.265.793c.682.426,1.312.883,1.941,1.335.872.024,1.582-.137,2.454-.111,1.055-.377-1.84-6.219,3.462-.716-.348-1.2-.853-2.589-.141-2.745,2.036,2.714,3.679,3.109,7.164,6.626C514.249,355.132,513.819,355.956,513.283,356.573Z" fill="#f3d7d0"/>
          </g>
          <g id="Group_852" data-name="Group 852">
            <path id="Path_920" data-name="Path 920" d="M565.262,430.444l-1.328.8-2.428-2.733,1.333-.805Z" fill="#f3d7d0"/>
          </g>
          <g id="Group_853" data-name="Group 853">
            <path id="Path_921" data-name="Path 921" d="M561.281,434.278c1.441,2.789,1.714,4.025-1.316.814C560.373,434.841,560.827,434.558,561.281,434.278Z" fill="#f3d7d0"/>
          </g>
          <g id="Group_854" data-name="Group 854">
            <path id="Path_922" data-name="Path 922" d="M554.006,434.551c1.876,7.007-3.707,4.618-5.752,6.471-.167,4.637-5.138,6.16-8.911,7.184-1.732-1.448-1.384-.235-1.918-.179a9.121,9.121,0,0,0,.616,1.031c-2.315,5.28-10.2,4.157-9.635,11.929-1.885-1.318-1.652-.026-2.308.137,1.525,4.18-2.971,3.754-4.257,5.838,2.658,3.7-1.9,1.907-.743,4.621-2.992.909.663,7.73-4.771,6.306-.653-1.005-3.237-3.891-3.794-5.845-1.742-1.7-3.317-3.244-5.063-4.955.8-1.16,1.725-2.121,2.539-3.272,1.084,1,2.393,2.137,3.519,3.1-.644-1.309-1.417-2.822-2.01-4.162a24.964,24.964,0,0,0,2.729-3.387c1.363.228,3.147.44.585-3.048a8.859,8.859,0,0,1,2.162-.024,9.968,9.968,0,0,1,1.29-2.344,8.685,8.685,0,0,1,1.072-2.187l.228-.153a23.12,23.12,0,0,0-.183-2.794c.324-.511.482-1.193.8-1.716a6.4,6.4,0,0,1,.7-1.907,9.877,9.877,0,0,1,2.341-.127l4.346-2.9c.451-.3.9-.6,1.309-.88l1.316-.866c.273-.181.59-.391.863-.57,1.415.8.971-.92,3.436,1.768.743-.767,2.576-.525,1.192-3.639,6,4.679,7.094.819,7.9-.822,2.376-1.5,5.2-1.323,7.6-3.408Z" fill="#f3d7d0"/>
          </g>
          <g id="Group_855" data-name="Group 855">
            <path id="Path_923" data-name="Path 923" d="M485.2,371.878c-1.079.716-2.16,1.431-3.291,2.177-1.267-.581-2.595-1.189-3.864-1.772-3.707-4.762,1.375-1.777-1.657-5.83-1.551-2.721,2.3-.37,4.029.221l1.681-1.111c1.058,1.328,1.942,1.6,4.45,4A10.416,10.416,0,0,0,485.2,371.878Z" fill="#f3d7d0"/>
          </g>
          <g id="Group_856" data-name="Group 856">
            <path id="Path_924" data-name="Path 924" d="M473.021,384.106a13.541,13.541,0,0,1-2.929.553c-.74-.358-1.49-.718-2.242-1.083.357,2.4,3.711,5.051,2.7,5.169a4.265,4.265,0,0,0-.125,1.544l-.677.464a20.325,20.325,0,0,0-3.413.894c-3.3-1.815-3.526.134-3.039,3.616-1.549-.089-2.922.007-4.259.056.378,1.217.8,2.392,1.006,3.42-1.077.478-2.341.767-3.469,1.283l-2.715,1.968a26.269,26.269,0,0,0-2.868-.887l-1.391,1a7.47,7.47,0,0,0,.628,1.036c-.43.313-.907.659-1.384,1.007-2.179-1.365-4.205-2.636-6.375-4-1.279-.271.928,2.314-.515,1.881L440.1,403.4l-1.335.993c.952,1.092,2.078,2.354,3.074,3.408l-.71.53c-1.187-.012-2.383-.035-3.794-.179a15.3,15.3,0,0,1-1.643,2.728l-.19.141c-1.676-1.452-3.523-3.069-5.333-4.724-.273-1-.679-2.213-1.077-3.415.435-.32.914-.68,2.219-.158a17.37,17.37,0,0,1-.115-2.909c-1.091-1.888.679-1.405.952-2.213l1.392-1.038c2.618-.751,5.063-1.652,7.522-2.537a9.605,9.605,0,0,1-.383-1.212,31.171,31.171,0,0,1,4.045.035l.914-.664c3.617,1.542,4.269,1.372,3.617.049.214-.45.261-1.069.475-1.521,2.219.487-3.483-4.023-2.261-4.3,1.495.97,2.851,1.845,4.344,2.813.736-.515,5.8,2.389,1.283-2.382,1.777.8,2.893.019,2.332-1.65,1.895.426,1.352-.374.383-3.229,4.4,4.272,4.513,3.9,2.019.054,4.473,1.582,5.406-.812,5.975-2.679,1.194.059,3.4.591,1.069-2.194,1.561-1.683,3.81-1.436,4.123-4.268-4.732-4.079-.943-3.149.12-2.7,5.669,4.59,2.971-1.73,8.443,2.427-.5.92,1.676,4.107,1.227,4.988C476.85,379.784,474.916,381.968,473.021,384.106Z" fill="#f3d7d0"/>
          </g>
          <g id="Group_857" data-name="Group 857">
            <path id="Path_925" data-name="Path 925" d="M515.589,479.592c1.053,2.49.414,4.413-2.919,2.078C510.512,478.787,512.8,479.517,515.589,479.592Z" fill="#f3d7d0"/>
          </g>
          <g id="Group_858" data-name="Group 858">
            <path id="Path_926" data-name="Path 926" d="M511.49,485.493c1.509,2.46.315,3.345-1.356,2.479C507.616,485.653,508.126,484.676,511.49,485.493Z" fill="#f3d7d0"/>
          </g>
          <g id="Group_859" data-name="Group 859">
            <path id="Path_927" data-name="Path 927" d="M509.271,488.6c1.657,2.947,1.058,3.38-.47,3.018-.557.412-1.072.793-1.629,1.2-.538-.791-3.178-3.639.028-2.712Z" fill="#f3d7d0"/>
          </g>
          <g id="Group_860" data-name="Group 860">
            <path id="Path_928" data-name="Path 928" d="M505.545,494.026c1.819,3.138,1.227,3.578-.261,3.194a16.1,16.1,0,0,0,.122,2.9c-.071.932-.146,1.921-.216,2.855-1.406.763,1.744,4.71-.038,5.75a13.136,13.136,0,0,1,0,3.011c-.315.553-2.278-.668-3.187-.577-.966-1.076-2.09-2.328-3.058-3.4l1.222-.934a27.693,27.693,0,0,1,3.408.426c-1.109-1.273-2.057-2.363-3-3.446.877.233,2.412.581-.576-2.585l.381-.29c1.008.141,2.879.518-.139-2.907l.388-.285c1.147.341,2.106.518,3.03.73.364-.876-1.991-2.7-.125-2.9C504.137,495.078,504.861,494.537,505.545,494.026Z" fill="#f3d7d0"/>
          </g>
          <g id="Group_861" data-name="Group 861">
            <path id="Path_929" data-name="Path 929" d="M500.348,515.425c6.718,6.024,2.04,4.178,1.25,4.792,2.8,3.6-.515,3.131,4.01,7.2-.153,1.029-1.615-.266-4.626-2.17-1.45-1-2.668-1.871-4.071-2.9a28.43,28.43,0,0,0,.019-4.275l.63-.48.2-.165a12.161,12.161,0,0,1-.329-1.266C498.473,515.971,499.316,515.613,500.348,515.425Z" fill="#f3d7d0"/>
          </g>
          <g id="Group_862" data-name="Group 862">
            <path id="Path_930" data-name="Path 930" d="M504.384,529.889c2.134,1.676,4.717,3.611,4.4,3.867A31.091,31.091,0,0,1,513.1,538.9c-2.477-1.1-6.3-4.187-11.28-6.977,1.535,1.537,3.239,3.241,4.774,4.781-6.043-5-4.631-.927-8.02-3.736-.74-.643-1.3-1.123-1.845-1.6-2.578-1.629-5.51-3.279-7.275-4.324-1.84-1.6-3.683-3.189-5.343-4.628.7-.567-3.253-3.237-6.264-5.426-3.951-3.3-7.893-6.6-11.64-9.731-.879-.833-1.721-1.7-2.557-2.573l4.593.934,7.4,5.743c.968.753,1.958,1.521,2.924,2.269l5.775,3.992,8.086,7.059a76.4,76.4,0,0,0,8.471,6.44c-.754-1.542-1.326-2.931-1.895-4.322C500.8,527.827,502.37,528.731,504.384,529.889Z" fill="#f3d7d0"/>
          </g>
          <g id="Group_863" data-name="Group 863">
            <path id="Path_931" data-name="Path 931" d="M427.024,472.231c2.355,2.422,3.613,3.886,2.663,3.733-2.5-.753-5.129-2.947-7.848-5.379-1.356-2,.515-1.664,2.43-.751Z" fill="#f3d7d0"/>
          </g>
          <g id="Group_864" data-name="Group 864">
            <path id="Path_932" data-name="Path 932" d="M536.678,364.1c1.288,2.316.649,4.084-1.92,1.142-.465-1.685-5.11-6.209-3.387-6.108Z" fill="#eab2a8"/>
          </g>
          <g id="Group_865" data-name="Group 865">
            <path id="Path_933" data-name="Path 933" d="M530.968,367.5c2.071,2.681.432,1.982-.378,1.641-1.213-.111-2.529-.165-3.947-.421-3.751-5.047-2.252-5.673-.959-6.174C527.511,364.258,529.339,365.974,530.968,367.5Z" fill="#eab2a8"/>
          </g>
          <g id="Group_866" data-name="Group 866">
            <path id="Path_934" data-name="Path 934" d="M492.577,492.352a13.856,13.856,0,0,1,2.745-.567c1.577.019-1.34-3.192-2.865-5.047,1.525,1.855,4.442,5.065,2.865,5.047A13.856,13.856,0,0,0,492.577,492.352Z" fill="#eab2a8"/>
          </g>
          <g id="Group_867" data-name="Group 867">
            <path id="Path_935" data-name="Path 935" d="M494.66,494.986c-.106.69-1.784.158,2.148,4.406.266.68.55,1.412.816,2.095-.106.687-.39,1.208-.5,1.888a19.863,19.863,0,0,1-3.03-.7c1.2,1.8-.381,1.5,1.053,3.717l-1.394,1.071a33.1,33.1,0,0,0-5.674-4.395l.214-.165c.691-1.156,1.629-2.158,2.367-3.342,1.406-1.365-.277-4.616-.432-6.923.7.066,1.222-.031,1.92.033C493.048,493.506,493.943,494.327,494.66,494.986Z" fill="#eab2a8"/>
          </g>
          <g id="Group_868" data-name="Group 868">
            <path id="Path_936" data-name="Path 936" d="M496.912,522.347c-1.1-.974-2.386-2.1-3.479-3.069-.338-1.217-.632-2.281-.973-3.5-.543-1.391,2.313.934,4.471,2.295A28.43,28.43,0,0,1,496.912,522.347Z" fill="#eab2a8"/>
          </g>
          <g id="Group_869" data-name="Group 869">
            <path id="Path_937" data-name="Path 937" d="M543.6,349.467c3.944,6.341-.369,4.11-.893,5.8-1.782-2.015-3.74-4.225-5.535-6.254Z" fill="#e29288"/>
          </g>
          <g id="Group_870" data-name="Group 870">
            <path id="Path_938" data-name="Path 938" d="M507.56,357.561c.407,1.168,3.867,4.677-1.439.9a17.781,17.781,0,0,1-.656-2.42Z" fill="#e29288"/>
          </g>
          <g id="Group_871" data-name="Group 871">
            <path id="Path_939" data-name="Path 939" d="M527.16,390.141c1.253,2.33,2.623,4.875,3.874,7.2.978,1.1,2.111,2.37,3.084,3.465-.8-.073-1.384.014-2.177-.047.08.508.061.817.146,1.323-1.262-.911-2.731-1.973-3.991-2.886.621,4.169-3.347,4.948-6.01,5.233-3.265-2.18-2.663,1.434-7.009.235l-1.481-1.61c1.276-.836,2.313-1.506.31-5.936l-1.486-1.627c-.715.464-1.526.991-2.287,1.488-.43.28-.9.591-1.335.869l.827.9a14.305,14.305,0,0,0-2.926.468c.545,1.087.917,1.982,1.415,3.093l-4.066-2.808c1.1,2.166-1.3,1.163-.369,3.147l-4.111-1.6c-.409-.6-.809-1.193-1.262-1.761,3.756,1.546-3.213-6.254,2.285-1.523l1.14-.763c.785-.233,1.739-.28,2.487-.471a33.5,33.5,0,0,0-.454-3.733,26.649,26.649,0,0,1,3.241.772,18.853,18.853,0,0,1-.693-2.427c1.255.619,2.557,1.208,3.646,1.648-.6-1.328.249-1.318,3.747.443.583,1.057,1.156,2.1,1.58,2.985,3.8,1.848.707-1.881,1.4-2.038.541-.9,2.367-.633,1.728-2.512,1.342-.854,2.633-1.676,3.928-2.5.625-.391,1.2-.749,1.831-1.139C525.219,388.773,526.1,389.4,527.16,390.141Z" fill="#e29288"/>
          </g>
          <g id="Group_872" data-name="Group 872">
            <path id="Path_940" data-name="Path 940" d="M497.156,405.552a5.433,5.433,0,0,0-.541,1.8l-.837-.883a6.466,6.466,0,0,0-.529,1.81c.508.532,1.006,1.055,1.521,1.6l-1.321.89a14.376,14.376,0,0,1-3.107.659c.132.784.484,1.716-.284,1.65-.928-.238-1.765-.537-2.651-.807-.505-1.98-2.785-4.508-.928-5.19a18.872,18.872,0,0,0,3.352-.829l.233-.167c.169-.97.35-2,.522-2.973.644-.141,1.415-.071,2.052-.219l3.892,1.739Z" fill="#e29288"/>
          </g>
          <g id="Group_873" data-name="Group 873">
            <path id="Path_941" data-name="Path 941" d="M470.092,384.659a35.479,35.479,0,0,1,3.136,4.868c-.943-.231-1.786-.523-2.677-.781,1.011-.118-2.343-2.773-2.7-5.169C468.6,383.941,469.352,384.3,470.092,384.659Z" fill="#e29288"/>
          </g>
          <g id="Group_874" data-name="Group 874">
            <path id="Path_942" data-name="Path 942" d="M483.222,420.666a33.968,33.968,0,0,0-2.059,4.385c-1.49,1.368-2.769,2.867-4.212,4.2-.118.673,1.857,3.1.388,2.672-.712-.075-1.257.016-1.979-.066-.449,1.836-.881,3.611-1.33,5.442a15.84,15.84,0,0,0-3.074.758l-.418-4.166c1.377-1.007-1.124-4.253,2.4-4.425a22.463,22.463,0,0,1,.261-3.147c-.016-1.761.508-2.434.282-4.338a22.319,22.319,0,0,1,3.559-1.076c-1.274-2.641,1.866-1.328,3.114-1.022a11.036,11.036,0,0,0,2.212-.087Z" fill="#e29288"/>
          </g>
          <g id="Group_875" data-name="Group 875">
            <path id="Path_943" data-name="Path 943" d="M449.255,406.512c-.315-.064-.806-.306-1.128-.377.576,1.384,1.192,2.721,1.939,4.27l-.472.351a40.572,40.572,0,0,0-7.759-2.952c-1-1.055-2.123-2.316-3.074-3.408l1.335-.993,1.859-1.377c1.443.433-.764-2.151.515-1.881,2.17,1.363,4.2,2.634,6.375,4Z" fill="#e29288"/>
          </g>
          <g id="Group_876" data-name="Group 876">
            <path id="Path_944" data-name="Path 944" d="M454.175,420.235l-.465.351c-.353-.346-.524-.511-.879-.857-2.04.021.219,2.535-.684,3.5-.374.275-.628,1.066-2.689-1-1.956-.047-.04,2.439,1.335,4.712-3.528-.045-2.915,3.712-5.564,4.2-2.475.661,6.062,7.775,9.827,11.564.108,1.113-3.171-1.514-4.649-2.2-.016.923.009,1.8.049,2.693.75.937,1.5,1.874,2.217,2.85-.322.551-1.848.21,2.115,4.138l-.907.692,3.881,4.3c-1.751-.179-2.658.515-1.718,2.829-.233.468-.317,1.149-.585,1.662-4.167-2.542-.9,1.61.157,4.458l-.447.346c-2.021-1.481-3.824-2.8-5.848-4.279a20.278,20.278,0,0,0-.564,3.5c.635,1.33,1.312,2.622,2.141,4.122a6.308,6.308,0,0,0-.383,1.831c.726.652,1.629,1.466,2.534,2.281a21.208,21.208,0,0,0,.98,2.3l-1.89,1.5c2.064,2.66,4.085,5.35,6.342,8.163l-.611.485c-4.689-3.945-4.767-3.573-4.988-3.4.7,1.288,3.3,3.218,5.075,4.868,1.283,1.431,1.763,2.587.294.993-2.55-1.968-6.687-5.115-7.294-4.326.139.8.289,1.645.43,2.439-2.428-.814-2.781-.537-3.129-.252-.477.388-1,.81-1.481,1.2-1.833-1.6-3.486-3.048-5.322-4.651a20.2,20.2,0,0,0-.961-2.321l-12.512-10.583-.914-.8.623-.508.223-.184a16.793,16.793,0,0,0,3.039-.949l.454-.355,1.253-1.01c-.6-1.059-2.245-2.822-1.652-2.985l.844-.692c1.319.49,2.494.779,3.855,1.236.574-.779,2.416-.72,1.634-2.869l-5.481-4.237a14.98,14.98,0,0,0-2.891.779c-1.862-2.509.127-2.573-2.818-5.138a13.219,13.219,0,0,1,1.49-2.754c.014-2.464-1.589-5.786-1.5-9.234-1.34,1.671-4.365-1.158-6.351-2.335-.536-.8-1.3-1.737-2.066-2.669a27.646,27.646,0,0,1,3.15.581c-2.167-1.977-4.146-3.785-6.125-5.6.009-.626.2-1.087.221-1.709.945.786,1.934,1.535,2.924,2.281.155-2.888,7.331,3.093,4.96-1.156-.179-.167-.534-.494-.9-.833l1.784-1.375c.059-.977.115-1.9.174-2.874-1.335-1.405-2.67-2.81-4.05-4.178,1.079-.843,2.113-1.65,3.145-2.457l7.693,5.628c2.729,3.366-2.717.89,2.214,5.593l3.6,1.787c.284-.525,1.37-.454-.479-2.674,1.349-2.549,2.108-4.628,3.373-6.789.891-.673,1.826-1.382,2.717-2.057.552-.111,1.274-.059,1.824-.172.487-.659.844-1.521,1.33-2.18l2.941.516.423-.315c.552-.106-.872-1.742,2.475-.33C451.119,416.21,452.259,417.166,454.175,420.235Z" fill="#db766d"/>
          </g>
          <g id="Group_877" data-name="Group 877">
            <path id="Path_945" data-name="Path 945" d="M446.637,414.43c-.47.348-.893.664-1.363,1.017-.487.659-.844,1.521-1.33,2.18l-4.915-3.526,3.091,3.7c-.891.676-1.826,1.384-2.717,2.057-1.993-1.516-3.963-3.011-5.775-4.388a4.391,4.391,0,0,1,.016-1.521c.55-1.015,1.265-1.867,1.855-2.923l.19-.141a15.3,15.3,0,0,0,1.643-2.728c1.41.144,2.607.167,3.794.179C442.911,410.309,444.693,412.279,446.637,414.43Z" fill="#e29288"/>
          </g>
          <g id="Group_878" data-name="Group 878">
            <path id="Path_946" data-name="Path 946" d="M469.23,442c-4.92-.226-4.884,2.156-3.462,5.588C464.345,444.152,464.31,441.77,469.23,442Z" fill="#e29288"/>
          </g>
          <g id="Group_879" data-name="Group 879">
            <path id="Path_947" data-name="Path 947" d="M432.91,427.532c-4.931-4.7.515-2.227-2.214-5.593L423,416.311a5.026,5.026,0,0,1,.249-1.709,19.9,19.9,0,0,1,2.24,1.306l4.252,4.011c2.024-.016-1.909-3.978.263-3.213a23.6,23.6,0,0,1,3.62-1.238c1.812,1.377,3.782,2.872,5.775,4.388-1.265,2.161-2.024,4.239-3.373,6.789,1.85,2.22.764,2.149.479,2.674Z" fill="#df837a"/>
          </g>
          <g id="Group_880" data-name="Group 880">
            <path id="Path_948" data-name="Path 948" d="M430.007,416.707c-2.172-.765,1.76,3.2-.263,3.213l-4.252-4.011,2.036-1.553C428.237,415.031,429.123,415.869,430.007,416.707Z" fill="#e29288"/>
          </g>
          <g id="Group_881" data-name="Group 881">
            <path id="Path_949" data-name="Path 949" d="M466.313,454.387c-.851.04-1.565.285-2.414.327l-1.6-1.5c-.263-1.01-1.544-2.45,1.753-1.337C464.665,452.607,465.469,453.516,466.313,454.387Z" fill="#e29288"/>
          </g>
          <g id="Group_882" data-name="Group 882">
            <path id="Path_950" data-name="Path 950" d="M474.354,467l-6.008-2.669a1.427,1.427,0,0,0-.183.129,6.85,6.85,0,0,1-.628,1.973c1.3,1.433,2.609,2.865,3.867,4.326,0,2.1,3.566,6.633,1.641,7.521,4,3.288-1.935.586,3.281,4.762,3.262,7.186-9.183.087-5.688,7.466-.294.534-1.845.235-.74,1.8,2.665,1.871,3,1.014,5.4,3.091l2.724,2.434c.007.934.014,1.805.023,2.742-.95-.487-2.068-1.125-3.152-1.8l-6.024-5.647c-4.633-6.435-6.391-9.342-5.4-10.435-.249-1.029-.635-2.262-1.058-3.453a28.9,28.9,0,0,1-3.3-.454l-5.084-4.566a21.208,21.208,0,0,1-.98-2.3c.442-.348.884-.7,1.279-1.012a8.928,8.928,0,0,1,2.2-.181c-.021-1.812-1.022-4.072-.456-5.44-.357-.327-.719-.657-.9-.821l.447-.346,2.529-1.984a7.056,7.056,0,0,1,.4-1.827,7.371,7.371,0,0,1,1.751.177,6.65,6.65,0,0,1,.635-1.989,9.241,9.241,0,0,1-.447-1.175c.764.024,1.391-.151,2.148-.129.893.831,1.789,1.667,2.5,2.33,1.337.49,2.675.984,3.963,1.506Z" fill="#e29288"/>
          </g>
          <g id="Group_883" data-name="Group 883">
            <path id="Path_951" data-name="Path 951" d="M426.136,438.63c-.085,3.448,1.518,6.77,1.5,9.234a13.219,13.219,0,0,0-1.49,2.754c2.945,2.566.957,2.629,2.818,5.138a14.98,14.98,0,0,1,2.891-.779l5.481,4.237c.783,2.149-1.06,2.09-1.634,2.869-1.361-.457-2.536-.746-3.855-1.236l-.844.692c-.592.162,1.055,1.925,1.652,2.985l-1.253,1.01c-1.523-1.558-3.206-3.284-4.9-5.014l-1.3,1.059-.181.144c-.733-.645-1.648-1.452-2.56-2.255l-5.305-4.677c-4.842-3.809-5.893-4.19-7.4-5.753a19.74,19.74,0,0,1-.971-2.33l5.07,3.314c.961-.774,2.694-.937.059-4.371l-4.372-3.891,2.43-1.982a22.1,22.1,0,0,1,.623-3.608c-.985-1.991-.289-2.549.364-3.065a19.6,19.6,0,0,1,.425-3.42c.468-.37.886-.7,1.352-1.073,1.979,1.81,3.958,3.618,6.125,5.6a27.646,27.646,0,0,0-3.15-.581c.762.932,1.53,1.867,2.066,2.669C421.771,437.472,424.8,440.3,426.136,438.63Z" fill="#df837a"/>
          </g>
          <g id="Group_884" data-name="Group 884">
            <path id="Path_952" data-name="Path 952" d="M409.548,441.761l4.372,3.891c2.635,3.434.9,3.6-.059,4.371l-5.07-3.314c-.028-.887-.056-1.834-.085-2.726C407.294,442.342,409.134,442.408,409.548,441.761Z" fill="#e29288"/>
          </g>
          <g id="Group_885" data-name="Group 885">
            <path id="Path_953" data-name="Path 953" d="M431.408,465.535l-.454.355a16.793,16.793,0,0,1-3.039.949c-.98-1.69-1.96-3.385-2.886-5.115l.181-.144,1.3-1.059C428.2,462.251,429.885,463.977,431.408,465.535Z" fill="#e29288"/>
          </g>
          <g id="Group_886" data-name="Group 886">
            <path id="Path_954" data-name="Path 954" d="M417.164,454.792l5.305,4.677c-1.457-.367-2.861-.763-4.085-1-.872-.843-1.7-1.723-2.527-2.6-2.078-2.328-4.017-4.5-6.095-6.831C411.271,450.6,412.322,450.983,417.164,454.792Z" fill="#e29288"/>
          </g>
          <g id="Group_887" data-name="Group 887">
            <path id="Path_955" data-name="Path 955" d="M427.983,468.333c-.369,1.864,1.408,4.759-.959,3.9l-2.755-2.4c-.924-1.1-2.08-2.337-3.053-3.408,1.909.3,3.954.8,5.853,1.1Z" fill="#e29288"/>
          </g>
          <g id="Group_888" data-name="Group 888">
            <path id="Path_956" data-name="Path 956" d="M542.711,355.262a33.418,33.418,0,0,1,.294,3.721l-.75.426-2.964-3.566c-.9-1.973-2.01-4.112-3.063-6.278l.947-.558C538.972,351.036,540.93,353.247,542.711,355.262Z" fill="#e7a298"/>
          </g>
          <g id="Group_889" data-name="Group 889">
            <path id="Path_957" data-name="Path 957" d="M516.684,394.183c-.693.158,2.4,3.886-1.4,2.038-.423-.88-1-1.928-1.58-2.985A26.305,26.305,0,0,1,516.684,394.183Z" fill="#e7a298"/>
          </g>
          <g id="Group_890" data-name="Group 890">
            <path id="Path_958" data-name="Path 958" d="M486.466,504.322c.021,1.509,2,4.543,4.894,7.751l6.2,5.52-.63.48c-2.158-1.361-5.014-3.686-4.471-2.295.341,1.219.635,2.283.973,3.5l-4.6-3.707c-11.449-8.7-.2-4.105-8.384-10.795-.153.431-.132,1.019-.291,1.443-2.155-2.262-3.622-2.636-5.5-4.223-.689-.678-1.149-1.231-1.65-1.744l1.667-1.316.214-.167c1.084.678,2.2,1.316,3.152,1.8,6.121,4.95,5.091,2.4,6.191,2.46A22.672,22.672,0,0,0,486.466,504.322Z" fill="#e7a298"/>
          </g>
          <g id="Group_891" data-name="Group 891">
            <path id="Path_959" data-name="Path 959" d="M425.029,461.724c.926,1.73,1.906,3.425,2.886,5.115l-.223.184-9.308-8.552c1.225.235,2.628.631,4.085,1C423.381,460.272,424.3,461.079,425.029,461.724Z" fill="#e7a298"/>
          </g>
          <g id="Group_892" data-name="Group 892">
            <path id="Path_960" data-name="Path 960" d="M484.4,516.343c.186.165.552.485.736.645l-.79.633-5.775-3.992c.463-.367.966-.77,1.429-1.139Z" fill="#e7a298"/>
          </g>
          <g id="Group_893" data-name="Group 893">
            <path id="Path_961" data-name="Path 961" d="M443.943,417.627c-.55.113-1.272.061-1.824.172l-3.091-3.7Z" fill="#df837a"/>
          </g>
          <g id="Group_894" data-name="Group 894">
            <path id="Path_962" data-name="Path 962" d="M423.907,422.947c-.059.977-.115,1.9-.174,2.874l-1.784,1.375c.364.339.719.666.9.833,2.372,4.249-4.8-1.732-4.96,1.156-.99-.746-1.979-1.495-2.924-2.281-.179-2.634-.954-4.795.846-4.981l4.048-3.154C421.237,420.136,422.572,421.541,423.907,422.947Z" fill="#df837a"/>
          </g>
          <g id="Group_895" data-name="Group 895">
            <path id="Path_963" data-name="Path 963" d="M445.241,448.712l-1.312,1.024c-1.4-.744-2.922-1.683-4.273-2.46-4.565-.386,1.147,6.744-4.36,4.967-.722-.652-1.262-1.144-1.808-1.636a21.973,21.973,0,0,0,.609-3.543c-.075-2.394,2.825-3.159,5.054-3.978Z" fill="#df837a"/>
          </g>
          <g id="Group_896" data-name="Group 896">
            <path id="Path_964" data-name="Path 964" d="M456.069,465.283c-.566,1.368.435,3.627.456,5.44a8.928,8.928,0,0,0-2.2.181c-.395.313-.837.664-1.279,1.012-.9-.814-1.808-1.629-2.534-2.281a6.308,6.308,0,0,1,.383-1.831c-.83-1.5-1.507-2.792-2.141-4.122a20.278,20.278,0,0,1,.564-3.5c2.024,1.481,3.827,2.8,5.848,4.279C455.35,464.626,455.712,464.956,456.069,465.283Z" fill="#df837a"/>
          </g>
          <g id="Group_897" data-name="Group 897">
            <path id="Path_965" data-name="Path 965" d="M462.409,479.234c2.656,3.721,2.311,3.99,1.058,3.453-.992,1.092.766,4,5.4,10.435-1.117-.054-2.165-.106-3.279-.162l-2.955-2.253-4.381-3.879c1.469,1.594.99.438-.294-.993-1.779-1.65-4.372-3.58-5.075-4.868.221-.174.3-.546,4.988,3.4l.611-.485c-2.257-2.813-4.278-5.5-6.342-8.163l1.89-1.5,5.084,4.566A28.9,28.9,0,0,0,462.409,479.234Z" fill="#df837a"/>
          </g>
          <g id="Group_898" data-name="Group 898">
            <path id="Path_966" data-name="Path 966" d="M465.163,496.055l-.43.339c1.57,2.149,3.26,4.463,4.828,6.6l-.207.174a10.084,10.084,0,0,0-1.117,2.443l-4.593-.934q-.818-.706-1.662-1.438-4.837-3.51-9.651-7l-6.715-7.857c-.867-.537-1.549-.906-2.233-1.283l-.651.537c-3.168-1.135-6.939-5.2-10.385-7.958-.839-1.177-1.819-2.547-2.661-3.721.95.153-.308-1.311-2.663-3.733,2.367.862.59-2.034.959-3.9l12.512,10.583a20.2,20.2,0,0,1,.961,2.321c1.836,1.6,3.488,3.048,5.322,4.651.482-.391,1-.812,1.481-1.2.348-.285.7-.563,3.129.252l.914.805c1.883,1.556,3.592,2.971,5.479,4.531,1.126.626,2.259,1.262,3.211,1.737C462.362,493.369,463.744,494.73,465.163,496.055Z" fill="#df837a"/>
          </g>
          <g id="Group_899" data-name="Group 899">
            <path id="Path_967" data-name="Path 967" d="M491.574,522.279a17.177,17.177,0,0,0,.853,2.4l-8.086-7.059.79-.633C487.214,518.7,489.491,520.568,491.574,522.279Z" fill="#df837a"/>
          </g>
          <g id="Group_900" data-name="Group 900">
            <path id="Path_968" data-name="Path 968" d="M458.366,401.414c.926,2.267,1.789,4.383,2.712,6.65l-.237.172c-.658-.414-1.314-.826-2.148-1.417-1.554-1.551-3.277-3.272-4.833-4.828l2.715-1.968C457.193,400.479,457.8,400.929,458.366,401.414Z" fill="#db766d"/>
          </g>
          <g id="Group_901" data-name="Group 901">
            <path id="Path_969" data-name="Path 969" d="M474.89,498.769l-.214.167-1.667,1.316c-1.147-.925-2.5-2.015-3.646-2.938-1.286-1.426-2.536-2.891-3.777-4.355,1.114.056,2.162.108,3.279.162Z" fill="#db766d"/>
          </g>
          <g id="Group_902" data-name="Group 902">
            <path id="Path_970" data-name="Path 970" d="M476.808,507.655c-.167.134-.291.238-.418.339-.945-.478-1.662-.824-2.428-1.137l-4.4-3.858c-1.568-2.142-3.258-4.456-4.828-6.6l.43-.339.917.805c2.882,2.293,5.58,4.437,8.293,6.593C475.224,504.915,475.908,506.226,476.808,507.655Z" fill="#db766d"/>
          </g>
          <g id="Group_903" data-name="Group 903">
            <path id="Path_971" data-name="Path 971" d="M488.076,503.069c.569,1.08,1.142,2.159,1.525,3.069,2.071,1.744,4.313,3.632,6.384,5.374l-1.424,1.1c.573,1.073,2.078,2.347,2.875,3.545a12.161,12.161,0,0,0,.329,1.266l-.2.165-6.2-5.52c-2.9-3.208-4.873-6.242-4.894-7.751a22.672,22.672,0,0,1-2.233-1.29l-1.02.8c.7,1.895-2.893-1.085-5.171-3.255-.009-.937-.016-1.808-.023-2.742l-2.724-2.434c.118-.4.012-.927.127-1.328-.566-2.606,5.881,2.688,6.527.687,2.207,1.636,2.108,2.622,3.013,3.439a15.4,15.4,0,0,0,.571,2.587C486.259,501.433,487.171,502.255,488.076,503.069Z" fill="#eab2a8"/>
          </g>
          <g id="Group_904" data-name="Group 904">
            <path id="Path_972" data-name="Path 972" d="M495.986,511.513l4.363,3.912c-1.032.188-1.876.546-2.912.737-.8-1.2-2.3-2.472-2.875-3.545Z" fill="#eec4bb"/>
          </g>
          <g id="Group_905" data-name="Group 905">
            <path id="Path_973" data-name="Path 973" d="M559.964,435.092l-1.319.814C559.219,435.839,555.8,432.59,559.964,435.092Z" fill="#f3d7d0"/>
          </g>
          <g id="Group_906" data-name="Group 906">
            <path id="Path_974" data-name="Path 974" d="M501.963,511.155c2.087,3.218,1.577,5.113-1.615,4.27l-4.363-3.912a15.892,15.892,0,0,1,3.126-.9C500.019,510.78,500.99,510.966,501.963,511.155Z" fill="#f3d7d0"/>
          </g>
          <g id="Group_907" data-name="Group 907">
            <path id="Path_975" data-name="Path 975" d="M485.918,479.929c1.77,3.187,1.3,3.547.818,3.91C478.7,477.577,482.059,477.732,485.918,479.929Z" fill="#eab2a8"/>
          </g>
          <g id="Group_908" data-name="Group 908">
            <path id="Path_976" data-name="Path 976" d="M543.024,402.1c-1.133-.711-2.224-1.452-3.206-1.984-1.328-2-3.813-4.99-2.083-4.359a9.62,9.62,0,0,0,1.951.219C542.907,399.641,539.555,397.739,543.024,402.1Z" fill="#eab2a8"/>
          </g>
          <g id="Group_909" data-name="Group 909">
            <path id="Path_977" data-name="Path 977" d="M489.407,412.267c-.595.113.912,2,1.429,3.1-.71-.089-1.255-.007-1.97-.1l1.013,3.7-2.172-1.422c.785,2.09-1.262,1.758-1.808,2.726-1.152-.372-2.127-.56-3.063-.789.374-.261-.935-1.991-1.511-3.06,1.034-.72,2.111-1.474,3.143-2.194.376-.261.75-.527,3.547.169C488.361,413.863,486.391,411.42,489.407,412.267Z" fill="#e29288"/>
          </g>
        </g>
      </g>
    </g>
  </g>
</svg>
