<svg xmlns="http://www.w3.org/2000/svg" width="92" height="81.699" viewBox="0 0 92 81.699">
  <g id="Logo" transform="translate(-85 -26.999)">
    <g id="Place_Your_Logo_Here_Double_Click_to_Edit_" data-name="Place Your Logo Here (Double Click to Edit)" transform="translate(85 27)">
      <g id="Vector_Smart_Object" data-name="Vector Smart Object" transform="translate(-697.792 -534.115)">
        <g id="Group_1264" data-name="Group 1264">
          <g id="Group_1263" data-name="Group 1263" opacity="0.5">
            <g id="Group_1262" data-name="Group 1262" opacity="0.9">
              <g id="Group_1261" data-name="Group 1261" opacity="0.9">
                <g id="Group_1183" data-name="Group 1183">
                  <path id="Path_1276" data-name="Path 1276" d="M781.624,592.881a22.422,22.422,0,0,1,1.938-2.706l.617.79C783.038,592.365,781.321,594.1,781.624,592.881Z" fill="#eec4bb"/>
                </g>
                <g id="Group_1184" data-name="Group 1184">
                  <path id="Path_1277" data-name="Path 1277" d="M757.116,615.449a5.139,5.139,0,0,0-1.148-.583,4.666,4.666,0,0,0-.153-1.082l-.135-.174c-.1-.479-.27-.87-.366-1.351l-.516-.648.279-.532a2.45,2.45,0,0,1-.852-.194c.148-.336.32-.659.486-.979-.375.234-.835.541-1.281.866-.166-.209-.347-.438-.516-.646l-.355.441a11.532,11.532,0,0,0-1.584-1.1c-.545-1.024-1.1-2.046-1.719-2.985l1.048-1.324c-.14-.171-.294-.36-.447-.548l-1.046,1.326a9.963,9.963,0,0,0-1.524-.984l-.449-.543c.832-2.1-.381-.285-.449-.545.175-.646.351-1.3.51-1.97l-.22-.261c.057-.458.111-.882.168-1.342-1.083-.942-1.181-2.262-2.007-3.23-.785-.238-2.563-.459-.872-3.561-1.292.868-1.3.011-1.691-.271,1.035-1.331.3-1,.565-1.707l-.309-.35-.467-.538-.471-.536-1.556-1.776a4.618,4.618,0,0,0-.2-1.062,2.828,2.828,0,0,0-.891-.174c-.251-.105-.564-.129-.809-.24a9.892,9.892,0,0,1-1.227.285l-.081-.093a3.686,3.686,0,0,0-1.035-.334,4.357,4.357,0,0,0-1.122-.416,4.075,4.075,0,0,0-.146-.984c-1.39,1.422-1.4.588-1.384-.054a11.407,11.407,0,0,1-1.669-1.006c-.56.367-1.186.83-1.732,1.218.362-.585.789-1.264,1.166-1.832-.562-.285-1.039-.648-1.6-.933l-1.9,2.669a12.672,12.672,0,0,0-2.373,2.15c-.246-.105-.56-.116-.806-.22-.135-1.286.055-2.382-1.1-1.193a10.618,10.618,0,0,1-1.776-.278c.166-1.6-.3-1.767-1.185-.454l-.331-.352-.8-.844c.224-1.529-.889-.129-1.212.172l-.632-.668-.8-.839c-.177-.826-.861.376-1.258.278.054-.427.094-.864.194-1.4l-.135-.145c-1.332,1.634-1.212.8-1.185.34l-.128-.136c-1.194,1.618-1.074.933-1,.534-.4.523-.809,1.049-1.286,1.665a12.942,12.942,0,0,0,.155-1.453c-.113-.123-.214-.236-.325-.36-.383.548-.824,1.186-1.2,1.734.068-.418.151-.81.233-1.2a6.166,6.166,0,0,0-.213-1.053c.58-1.111,1.208-2.315,1.789-3.428.3-.3.663-.708,1.031-1.108l.057.058-1.506,2.965c.087.093.163.172.3.325.771-.921.682-.22,1.327-.964a9.546,9.546,0,0,0-.233,1.344c.259-.036.447.005.722-.02l.809-.577c1.6-2.144,1.44-1.356,1.726-1.373l.874-1.318.15.162a6.639,6.639,0,0,1,.351,1.168c.055.7,1.323-.85,2.055-1.681a2.607,2.607,0,0,1,.8.034,3.505,3.505,0,0,1,0,.8c.327-.3.565-.527.809-.754a21.836,21.836,0,0,1,.809,2.449c.567-.525,1.053-.975,1.56-1.409.018.483.039,1,.059,1.511a3.1,3.1,0,0,0,.961.212l.251.267.584-.833a6.228,6.228,0,0,1,.4,1.229c-.194.278-.39.556-.582.83.08,1.051,1.1-.441,1.626-.523a2.7,2.7,0,0,1,.894.147c1.478-2.464,1.4-3.357.192-2.063l-.168-.18.806-2.362c2.853-2.626,1.587.4,3.1-.574.392.744,3.334-3.229,2.391-.516-.2,1.407.285,1.442,1.4.047a12.5,12.5,0,0,1,1.779,1.117c-1,1.685.153.494.159.984,3.339-2.4.961,3.025,4.239.721-.532,1.72.532.759,1.3.623a7.463,7.463,0,0,1,.466,1.346c2.495-2.348-.342,2.6,1.155,1.963a7.178,7.178,0,0,0,.373,1.253c.529.1,2.358-1.16,1.21.536.431.158-1.249,2.6-.229,2.252,1.321-.665,1.2,1.035,2.628-.171-.6,2.159,2.67.394,1.56,3.332,1.687-1.082,1.657.917,2.472,1.369l.384.458c-.774.959-.429,1.03-.316,1.162.181.042-.02.659.665-.065.54-.735.416-.02-.589,1.863l-.346.443-1.7,1.238c-.761,1.489-.6,1.678-1.125,2.776l1.118-1.24c.4-.2.876-.5,1.349-.786-.32.643-.7,1.4-1.016,2.044-.373,1.449,1.506-1.458,2.123-1.58-.329.971-.665,1.97-.992,2.94.989-.011-.146,2.431,1.34,1.638-.5.779-1.011,1.545-1.524,2.306a2.238,2.238,0,0,0,.8.109,7.323,7.323,0,0,0,.392,1.349c1.192-1.149,2.046-1.14.584.723l.735.917,2.14-1.552c1.162-1.712,2.265-2.273,2.143-1.549-.381.581-.822,1.255-1.2,1.836l.944-.4c-.242.548-.46,1.042-.7,1.592l.29.367c.151.192.288.365.442.557a2.732,2.732,0,0,0,1.578-.494c.5-.61.926-1.135,1.354-1.66.6-.472,1.125-.879,1.717-1.375.684.158.189,1.487.325,2.193-.225,1.491-2.127,3.343-3.071,4.639l.364.461c-.656.946-1.225,1.821-1.868,2.785C757.728,616.236,757.329,615.9,757.116,615.449Z" fill="#eec4bb"/>
                </g>
                <g id="Group_1185" data-name="Group 1185">
                  <path id="Path_1278" data-name="Path 1278" d="M781.338,580.487c-1.164.665-1.042.114-.336-1.117C782.116,578.643,783.26,578.131,781.338,580.487Z" fill="#eec4bb"/>
                </g>
                <g id="Group_1186" data-name="Group 1186">
                  <path id="Path_1279" data-name="Path 1279" d="M771.9,588.265c-.416.356-.78.608-1.218.951-.115-1.364-2.179-.063-1.765-2.168-2.633,2.695-2.537,3.682-4.019,5.177-1.136,1.222-.567,0-1.43.686-.14.174-.211.263-.353.441-2.055,2.181-2.617,2.887-3.178,3.588a10,10,0,0,0-1.238.229c.541-1.053,1.048-2.039,1.589-3.1,1.693-1.932,1.074-.251,2.478-2.014l.952-.407c1.173-2.736.283-2.769.007-3.454l1.02-2.044c.471-.476,1.007-1.035,1.491-1.487.237-.056.421-.011.656-.067a6.445,6.445,0,0,0,1.277.674c.218.087.471.051.673.118l2.2-2.357,1.526-.744a13.566,13.566,0,0,0-.168,1.533c-.024.67.845-.011,1.338-.1l.144.18c-.02.666.042,1.266.07,1.828Z" fill="#f3d7d0"/>
                </g>
                <g id="Group_1187" data-name="Group 1187">
                  <path id="Path_1280" data-name="Path 1280" d="M780.344,588.578c-.71-.009-1.425-.011-2.145-.042l-1.489-.278-.144-.18c.571-.882,1.2-1.854,1.828-2.827-.07-.79-1.746,1.7-2.456,2.052-.412-.169-.776-.434-1.2-.621.013-.334-.028-.561-.033-.915.565-.868,1.2-1.841,1.831-2.814-.3-.548-.674-1.173-2.642.948l-.144-.18c-.493.093-1.362.774-1.338.1a13.566,13.566,0,0,1,.168-1.533l-1.526.744c-.181-.216-.36-.432-.556-.668a13.264,13.264,0,0,0-2.317,2.907,6.445,6.445,0,0,1-1.277-.674l3.363-4.24c1.7-3.646-1.68-1.155-1.168-3.795.246-2.44-2.406-.8-1.626-3.613,2.508-.134,2.936,2.435,5.111,1.921l-.349.443c.983.145.473,2.293,1.484,2.644.854-.18,1.942-.77.44,1.391l.392.481a2.459,2.459,0,0,1,.5-.263,4.536,4.536,0,0,1,.2,1.119l1.7-2.11a5.677,5.677,0,0,0,2.4-1.24L781,579.37c-.706,1.231-.828,1.781.336,1.117.545,2.063,1.048,4.122,1.552,6.163C782.012,587.312,781.149,588,780.344,588.578Z" fill="#e29288"/>
                </g>
                <g id="Group_1188" data-name="Group 1188">
                  <path id="Path_1281" data-name="Path 1281" d="M779.344,577.338a5.677,5.677,0,0,1-2.4,1.24l-1.7,2.11a4.536,4.536,0,0,0-.2-1.119,2.459,2.459,0,0,0-.5.263l-.392-.481c1.5-2.161.414-1.571-.44-1.391-1.011-.35-.5-2.5-1.484-2.644l.349-.443c-2.175.514-2.6-2.055-5.111-1.921-.78,2.813,1.872,1.173,1.626,3.613-.512,2.64,2.868.149,1.168,3.795L766.9,584.6c-.235.056-.419.011-.656.067.218-.6.44-1.2.588-1.707-.1-.47-1.059,1.14-1.571,1.387-.211-.252-.407-.487-.617-.741l-1.342-1.592c-.785.441-.78-.414-1.214-.585a12.634,12.634,0,0,0,.229-1.429c.554-1.73.508-2.123-.037-1.743.128-.53.3-1.171.5-1.792a8.478,8.478,0,0,0-1.022.507,12.459,12.459,0,0,0,.14-1.536,14.212,14.212,0,0,1-1.615.5c-.129-.323-.209-.752-.36-1.089l-.4-.463c1.748-2.873-1.255.906-.8-.924-.222.251-.458.479-.7.712-1.53,1.275-1.129-.285-1.637-.192.179-.646.351-1.262.53-1.9-.1-.28-.118-.634-.22-.917l-1.336-.009-.085-.093a8.611,8.611,0,0,1-.564-1.464c-.408-.792-1.386.438-2.227.821.2-1.438-.767-.35-1.02-.469.144-1.327.006-1.478-.129-1.629-.377-.416-.771-.852-1.146-1.267-.436.341-1.122,1.068-1.26.917l-.17-.189a5.054,5.054,0,0,1-.166-1c.059-.588.458-2.115-.63-1.342a10.043,10.043,0,0,0-.673-1.543,12.121,12.121,0,0,1-1.927.2,10.07,10.07,0,0,0-1.4.116c-.27-1.594-1.56-.216-2.081-.77l-1.815.5c-.455,0-.894.018-1.332.036.22-.57-.506-.056-.5-.534-.17-2.261-1.218-2.072-2.655-1.178a6.342,6.342,0,0,0-1.484.054l-.508-.527c.312-1.585-.253-.9-.685-.706l-.576.835c-.246-.254-.492-.507-.754-.779a4.344,4.344,0,0,1-.407.374c-.029-.349-.144-.623-.177-.975a4.158,4.158,0,0,0-.5.285,2.964,2.964,0,0,0-.933-.156,3.457,3.457,0,0,0-.031-.817,3.293,3.293,0,0,0-.857-.065l-1.1-1.044c1.22-.685,2.9-2.466,2.035-.363.253.093.575.091.8.165.987-.586,1.366-.211,1.384.6l1.694-2.072.358.369c1.523-2.084,1.452-1.364,1.711-1.257.394-.394.767-.8,1.138-1.211.392-.08.776-.154,1.183-.214-.224.724-1.208,2.408-.723,2.277,1.469-1.988,4.147-6.382,4.572-5.311.357,1.168,1.974.617,2.142,2.224.928-.792,1.914-1.843,2-.953-.8,1.089-.438,1.146-.3,1.3.473.338,1.454-.875,1.576.049-.061.261-.072.409-.15.65,1.244-1.1,1.6-1.689,1.994-1.758.438-1.625-.2-.857-.279-1.1l-.161-.169c.022-.469.044-.9.068-1.375l.519.545c.839-1.044,1.608-2,2.378-2.958l.272.281a20.09,20.09,0,0,1-.878,3.742l.179.189c.638-.454,1.188-.832,1.763-1.2-.011.151-.091.392-.1.539l1.016-.367.517.55a3.668,3.668,0,0,1,.421-.365l.514.554a12.7,12.7,0,0,1-.231,1.369l-1.852,2.56c-.212.423-.357.754-.5,1.084l.089.094,2.761-1.732c.183-.292.346-.6.512-.919.285.476.488,1.022.758,1.473.44-.171.931-.456,1.445-.721.1.6.214,1.22.261,1.93,1.5-.488,2.36-.532,1.754,1.1a8.678,8.678,0,0,1,.588,1.476c.087.1.174.192.242.271a1.836,1.836,0,0,1,.684-.064c-.063.425-.142.83-.19,1.275a16.5,16.5,0,0,0,1.953-1.8,6.207,6.207,0,0,0,.408,1.286l3.186,2.1c.41.134,1.674-1.1,2.1-.95l.172.2-.547,1.894,1.151,1.311a4.207,4.207,0,0,1,1.092.427l.325.374c1.975,2.455,3.855,5.022,5.714,7.594-1.321,2.72,0,.861.482.579.259.821.523,1.669.789,2.515C778.655,577.017,779.043,577.144,779.344,577.338Z" fill="#df837a"/>
                </g>
                <g id="Group_1189" data-name="Group 1189">
                  <path id="Path_1282" data-name="Path 1282" d="M768.846,585.393c-.2-.067-.455-.031-.673-.118a13.264,13.264,0,0,1,2.317-2.907c.2.236.375.452.556.668Z" fill="#eec4bb"/>
                </g>
                <g id="Group_1190" data-name="Group 1190">
                  <path id="Path_1283" data-name="Path 1283" d="M760.224,607.482a2.732,2.732,0,0,1-1.578.494c-.153-.193-.29-.365-.442-.557l-.29-.367c-.242.221-.469.465-.783.777.488-.793.981-1.591,1.486-2.37l-.944.4c.383-.581.824-1.255,1.2-1.836.122-.724-.981-.163-2.143,1.549l-2.14,1.552-.735-.917c1.462-1.863.608-1.872-.584-.723a7.323,7.323,0,0,1-.392-1.349,2.238,2.238,0,0,1-.8-.109c.514-.761,1.029-1.527,1.524-2.306-1.486.794-.351-1.649-1.34-1.638.327-.97.663-1.968.992-2.94-.617.122-2.5,3.029-2.123,1.58.32-.645.7-1.4,1.016-2.044-.473.291-.946.585-1.349.786l-1.118,1.24a4.391,4.391,0,0,0-.5.252c.564-1.037,1.146-2.057,1.626-3.029.7-.545,1.362-1.124,2.042-1.681,1.005-1.883,1.129-2.6.589-1.863-.685.725-.484.107-.665.065-.113-.133-.458-.2.316-1.162l-.384-.458c-.815-.452-.785-2.451-2.472-1.369,1.111-2.938-2.162-1.173-1.56-3.332-1.432,1.206-1.306-.494-2.628.171-1.02.345.66-2.094.229-2.252,1.148-1.7-.682-.432-1.21-.536a7.178,7.178,0,0,1-.373-1.253c-1.5.634,1.34-4.311-1.155-1.963a7.463,7.463,0,0,0-.466-1.346c-.769.136-1.833,1.1-1.3-.623-3.278,2.3-.9-3.125-4.239-.721-.005-.49-1.162.7-.159-.984a12.5,12.5,0,0,0-1.779-1.117c-1.116,1.395-1.6,1.36-1.4-.047.942-2.713-2,1.26-2.391.516-1.513.97-.248-2.052-3.1.574l-.806,2.362.168.18c1.207-1.295,1.286-.4-.192,2.063a2.7,2.7,0,0,0-.894-.147c-.558.209-1.066.31-1.626.523.192-.274.388-.552.582-.83a6.228,6.228,0,0,0-.4-1.229l-.584.833-.251-.267a2.255,2.255,0,0,1-.793-.036l-.168-.176c-.02-.516-.041-1.028-.059-1.511-.455.487-.893.991-1.391,1.583l-.168-.174a21.836,21.836,0,0,0-.809-2.449c-.244.227-.482.45-.809.754a3.505,3.505,0,0,0,0-.8c.32-.465.638-.928.891-1.3.329-.755.628-1.44.959-2.2.466-.47,1-1.03,1.447-1.516,1.135-.418,3.365-2.409,4.248-2.444-.966,1.868.063,1.021.268,1.878l.645-.928a12.684,12.684,0,0,0,1.948.445c-.163.955,1.048-.988,1.571-1.395l.414.434a31.882,31.882,0,0,0,2.949-1.551c1.6,2.506,3.98,2.962,6.824,3.448.593.318-1.118,2.709,1.136,1.244.253.113.588.156.843.265-.057,1.747.743,1.652.113,3.259.92-.134,1.99-1.916,2.073-1.656l.336.374c-.15,1.32.759.341,1.059.352-.286,1.5.638.381.636.715l.085.093.968,1.093.233.263c-.1.715-.19,1.445-.231,2.074.383.267.848.467,1.229.737l.4.452-.272.358c.079,1.928,2.009,2.146,1.907,3.893,1.3-.69,1.055.881,1.6,1.017-1.124,1.74,0,1.01-.416,2.061.091.283.1.63.19.912.24.962,1.75.7.5,3.161.741-.316,1.414-.543,2.084-.764l-.811,1.429c.224.265.3.361.383.458a8.417,8.417,0,0,0-1.26,1.759c.519.281,1.275-.367,2.785-1.649-.122.547-.172,1-.24,1.444.264-.022.462.042.73.018.5-.439,1.07-.946,1.567-1.387-.541,1.057-1.048,2.043-1.589,3.1a10,10,0,0,1,1.238-.229,2.711,2.711,0,0,0,.885.216l.14.178.614.752c-.25.554-.512,1.131-.763,1.685.514.289,2.025-.652,1.123,1.389a12.043,12.043,0,0,1,.682,1.738c.192.418-.863,2.094-1.044,2.923C761.15,606.347,760.721,606.872,760.224,607.482Z" fill="#eab2a8"/>
                </g>
                <g id="Group_1191" data-name="Group 1191">
                  <path id="Path_1284" data-name="Path 1284" d="M762.771,592.06a4.62,4.62,0,0,1-.031-.908c.164-.839-.989.534-1.783,1.3a4.36,4.36,0,0,0-.1-.982c-.532.419-1.116.879-1.648,1.3-.349.441-.7.882-.976,1.235-1.51,1.282-2.266,1.93-2.785,1.649a8.417,8.417,0,0,1,1.26-1.759c-.079-.1-.159-.193-.383-.458L757.14,592c-.671.221-1.343.448-2.084.764,1.247-2.466-.262-2.2-.5-3.161-.092-.281-.1-.628-.19-.912.412-1.051-.708-.321.416-2.061-.541-.136-.3-1.707-1.6-1.017.1-1.747-1.828-1.965-1.907-3.893l.272-.358-.4-.452c-.381-.271-.846-.47-1.229-.737.041-.628.128-1.358.231-2.074l-.233-.263-.968-1.093-.085-.093c0-.334-.922.786-.636-.715-.3-.011-1.208.968-1.059-.352l-.336-.374c-.083-.26-1.153,1.522-2.073,1.656.63-1.607-.17-1.513-.113-3.259-.255-.109-.59-.153-.843-.265-2.254,1.465-.543-.926-1.136-1.244-2.844-.487-5.224-.942-6.824-3.448A31.882,31.882,0,0,1,732.9,570.2l-.414-.434c-.523.407-1.733,2.35-1.571,1.395a12.684,12.684,0,0,1-1.948-.445l-.645.928c-.205-.857-1.234-.009-.268-1.878-.883.035-3.114,2.026-4.248,2.444-.451.487-.981,1.046-1.447,1.516-.331.761-.63,1.445-.959,2.2-.253.37-.571.833-.891,1.3a2.607,2.607,0,0,0-.8-.034c-.732.832-2,2.38-2.055,1.681a6.639,6.639,0,0,0-.351-1.168l-.15-.162c0-.312-.057-.537-.052-.848-.942.292-2.192,1.367-2.726.961-.46-.158-.835-.387-1.245-.494l-.057-.058c.277-.492.554-.988.776-1.382a5.687,5.687,0,0,1,.933-.608A9.511,9.511,0,0,0,716,573.394c-.776,0,1.007-3.428.02-2.838-.159.005-.351.134-.506.145.192-1.008.358-2.019.5-3.027.486-.047.983-.053,1.488-.069,1.02.005,2.2.316,1.885,2.473.157.777,2.086-2.137,2.243-1.511a14.944,14.944,0,0,1,3.925-2.175c.576-.679,1.168-1.336,1.768-2a2.988,2.988,0,0,0,.915.149.889.889,0,0,1,.068.074l-.852,2.931c.785-.941,1.567-1.874,2.354-2.818.163-.625.307-1.269.453-1.916l.894-1.3a4.344,4.344,0,0,0,.407-.374c.262.272.508.525.754.779.065.385.211.7.275,1.08.338-.447.695-.877.987-1.209l.508.527a6.342,6.342,0,0,1,1.484-.054c1.438-.893,2.485-1.082,2.655,1.178,0,.478.724-.036.5.534.438-.018.878-.04,1.332-.036a7.222,7.222,0,0,1,.506,1.345l2.472.211c.005.334.076.576.085.9-.105.7.854-.378,1.157-.376.673.556,1.406,1.028,2.09,1.609a15.709,15.709,0,0,1,2.053.606l.333-.456.17.189c-.046.443-.072.9-.17,1.454.458.176.431,1.137,1.3.621-.15.327-.3.656-.5,1.1l1.565-.739c0,.33.072.572.076.9.453-.321,1.194-1.151,1.279-.888-.067.423-.15.826-.2,1.269.017.354.407.122.743,0a6.634,6.634,0,0,0,.473,1.366l.471.534c.207-.276.407-.543.612-.813a2.687,2.687,0,0,1,.826.1l-.338.45a2.263,2.263,0,0,1,.824.105l.49.552c.508-.093.107,1.467,1.637.192-.15.657-.3,1.34-.453,2,.815-.577.516.6,1.4-.073l-.985,2.07c.458-.314.83-.554,1.275-.888a6.684,6.684,0,0,1,.388,1.293l.344-.448c.15.174.314.367.464.539.264.31.545.639.793.928l-.623.8c-1.822,1.262-2.179.835-2.628.323l-.615.8c-.255,2.074,1.292,1.522.538,3.183.294,1.191.9,2.932,2.685,2.324-.32.648-.693,1.4-1.014,2.052.218-.078.355-.094.573-.171.024.365.1.626.12,1,.418-.532.905-1.149,1.325-1.683l2.92-2.344c.259-.541.477-1,.734-1.533.512-.247,1.467-1.857,1.571-1.387-.148.51-.37,1.111-.588,1.707-.484.452-1.02,1.011-1.491,1.487l-1.02,2.044c.275.685,1.166.717-.007,3.454Z" fill="#e7a298"/>
                </g>
                <g id="Group_1192" data-name="Group 1192">
                  <path id="Path_1285" data-name="Path 1285" d="M758.726,595.461c-.268.024-.466-.04-.73-.018.068-.441.118-.9.24-1.444.277-.352.626-.793.976-1.235.532-.418,1.116-.877,1.648-1.3a4.36,4.36,0,0,1,.1.982c-.17.492-.425,1.048-.663,1.623C759.8,594.515,759.223,595.022,758.726,595.461Z" fill="#eec4bb"/>
                </g>
                <g id="Group_1193" data-name="Group 1193">
                  <path id="Path_1286" data-name="Path 1286" d="M748.647,545.2a1.864,1.864,0,0,0-.667.105,10.353,10.353,0,0,0-.732-1.551c.322-.463.645-.926.9-1.3l-.789-.8a9.85,9.85,0,0,0,.458-1.113c1.4-1.578,1.922-1.049,1.3.527l.994-1.2a14.6,14.6,0,0,1,1,1.823c.262.436.445.939.708,1.369-.63.944-1.242,1.9-1.791,2.771C749.531,545.64,749.12,545.377,748.647,545.2Z" fill="#eec4bb"/>
                </g>
                <g id="Group_1194" data-name="Group 1194">
                  <path id="Path_1287" data-name="Path 1287" d="M712.435,574.382c-.992,2.235-1.136,2.061-1.351,2.088s-.519.272-1.691,3.374c-.34.846-.678,1.687-1.018,2.535-.264.621-.573,1.349-.839,1.977l-.148-.2-.868,2.034c-.3.556-.582,1.109-.885,1.774.868-2.622,1.221-3.7,1.563-4.647a10.377,10.377,0,0,1,.538-.9l1.292-3.63.157-.425c.353-.951.626-1.689.939-2.535-.12-.1-.261-.183-.384-.28.166-.537.336-1.089.5-1.63.425-1.422.815-2.722,1.238-4.135a2.451,2.451,0,0,1,.931-.082l.078.047-.957,2.531c-.054.367-.122.719-.222,1.188.455-.625.874-1.117,1.358-1.712l1.717-4.59.216-.519c.364-.824.747-1.634,1.135-2.44.094-.49.205-1.07.314-1.647.4-1.06.759-2.023,1.157-3.081l.213-.521c.331-.194.687-.37,1.027-.557.462.153-.359,2.424-.891,3.813l-1.12,2.468-.613,1.605c-.46.759-.909,1.525-1.334,2.306-.255.63-.556,1.376-.813,2.008-.15.3-.312.583-.506.986C712.943,572.524,712.747,573.356,712.435,574.382Z" fill="#e29288"/>
                </g>
                <g id="Group_1195" data-name="Group 1195">
                  <path id="Path_1288" data-name="Path 1288" d="M705.579,588.852c.366-.99.641-1.774.941-2.664l.868-2.034.148.2-.848,2.139C706.311,587.272,705.978,587.958,705.579,588.852Z" fill="#eec4bb"/>
                </g>
                <g id="Group_1196" data-name="Group 1196">
                  <path id="Path_1289" data-name="Path 1289" d="M712.767,561.513q-.588,2.653-1.177,5.317l-.3.968c-.2.519-.4,1.044-.575,1.576-.626,2.157-1.284,4.427-1.944,6.7-.414,1.656-.952,3.768-1.1,3.655l-.135-.093c.31-1.077.593-2.048.9-3.125.589-2.442.643-4.365,1.811-6.749.419-2.863,1.231-7.2,2.3-8.344.687-1.9,1.336-3.693,2.022-5.591.129.045.257.1.384.151-.026.356-.052.708-.117,1.169C714.142,558.555,713.444,559.97,712.767,561.513Z" fill="#eec4bb"/>
                </g>
                <g id="Group_1197" data-name="Group 1197">
                  <path id="Path_1290" data-name="Path 1290" d="M760.549,611.28c.944-1.3,2.846-3.148,3.071-4.639.388.138.7.363,1.092.5-.617,1.355-3.021,4.521-3.8,4.6Z" fill="#f3d7d0"/>
                </g>
                <g id="Group_1198" data-name="Group 1198">
                  <path id="Path_1291" data-name="Path 1291" d="M778.98,590.225l-2.223,2.337c-3.084,1.781,1.21-2.37-.273-1.941l-.384-.478c.207-.639.4-1.247.61-1.885l1.489.278c.721.031,1.436.033,2.145.042Z" fill="#f3d7d0"/>
                </g>
                <g id="Group_1199" data-name="Group 1199">
                  <path id="Path_1292" data-name="Path 1292" d="M775.937,587.3c-1.5,1.289-3.685,4.556-3.3,2.749a26.788,26.788,0,0,1,2.1-3.37C775.16,586.869,775.524,587.134,775.937,587.3Z" fill="#f3d7d0"/>
                </g>
                <g id="Group_1200" data-name="Group 1200">
                  <path id="Path_1293" data-name="Path 1293" d="M752.531,613.88c-.122-.149-.242-.3.347-1.331-.15-.191-.3-.381-.438-.552a2.191,2.191,0,0,1-.793-.109c.338-.458.591-.846.913-1.322l.355-.441c.168.209.349.438.516.646.445-.325.905-.632,1.281-.866-.166.32-.338.643-.486.979a2.45,2.45,0,0,0,.852.194l-.279.532C754.014,612.39,753.3,613.082,752.531,613.88Z" fill="#f3d7d0"/>
                </g>
                <g id="Group_1201" data-name="Group 1201">
                  <path id="Path_1294" data-name="Path 1294" d="M767.183,595.04c-1.621.788-1.8.231-.9-1.115C767.749,593.28,768.231,593.357,767.183,595.04Z" fill="#f3d7d0"/>
                </g>
                <g id="Group_1202" data-name="Group 1202">
                  <path id="Path_1295" data-name="Path 1295" d="M778.352,576.826c-.266-.846-.53-1.694-.789-2.515.214-.432.375-.755.534-1.077a8.253,8.253,0,0,0-1.016.5c-1.859-2.571-3.738-5.139-5.714-7.594.741-.83,1.41-1.576,2.153-2.408.322,1.055.351,2.433,1.986,1.465-.137,1.547,2.149-.205,2.607.672a14.689,14.689,0,0,0-1.587,2.228c.364.939,4.435-2.962,2.232.937a14.77,14.77,0,0,0,1.722-.35,12.94,12.94,0,0,1-.146,1.543c-.144.345-.3.668-.464.991.044.4.157.708.2,1.106.229.45,2.6-1.355.529,1.509.5-.26,1.079-.6,1.19-.3-1.057,1.149-1.125,1.928-2.443,3.8C779.043,577.144,778.655,577.017,778.352,576.826Z" fill="#f3d7d0"/>
                </g>
                <g id="Group_1203" data-name="Group 1203">
                  <path id="Path_1296" data-name="Path 1296" d="M749.259,606.483c-.139-.169-.292-.358-.445-.547l1.046-1.326c.153.189.307.378.447.548Z" fill="#f3d7d0"/>
                </g>
                <g id="Group_1204" data-name="Group 1204">
                  <path id="Path_1297" data-name="Path 1297" d="M747.289,604.952c-1.138.875-1.669,1.093-.449-.543Z" fill="#f3d7d0"/>
                </g>
                <g id="Group_1205" data-name="Group 1205">
                  <path id="Path_1298" data-name="Path 1298" d="M746.681,601.633c-2.99,1.409-2.286-1.358-3.247-2.148-2.075.283-3.064-1.9-3.768-3.546.532-.9.015-.654-.042-.893a4.323,4.323,0,0,0-.419.36c-2.487-.683-2.5-4.362-5.906-3.548.467-.961-.092-.761-.2-1.051-1.765,1-1.863-1.08-2.862-1.531-1.48,1.48-.963-.737-2.1-.013-.591-1.3-3.4.846-3.1-1.745a12.672,12.672,0,0,1,2.373-2.15l1.9-2.669c.564.285,1.04.648,1.6.933-.377.568-.8,1.247-1.166,1.832.545-.389,1.172-.852,1.732-1.218a11.407,11.407,0,0,0,1.669,1.006c-.02.643-.005,1.476,1.384.054a4.075,4.075,0,0,1,.146.984,4.357,4.357,0,0,1,1.122.416,3.686,3.686,0,0,1,1.035.334l.081.093a9.892,9.892,0,0,0,1.227-.285c.246.111.558.134.809.24a2.828,2.828,0,0,1,.891.174,4.618,4.618,0,0,1,.2,1.062L741.6,590.1l.471.536.467.538.309.35c-.262.708.469.376-.565,1.707.388.281.4,1.138,1.691.271-1.691,3.1.087,3.323.872,3.561.826.968.924,2.288,2.007,3.23C746.792,600.751,746.738,601.176,746.681,601.633Z" fill="#f3d7d0"/>
                </g>
                <g id="Group_1206" data-name="Group 1206">
                  <path id="Path_1299" data-name="Path 1299" d="M769.949,565.337l-1.151-1.311.547-1.894c1.866-2.063.859.478,2.454-1.222,1.1-.924.3,1.008.142,1.839l.584.674c-.519.586-.586,1.01-1.484,2.341A4.207,4.207,0,0,0,769.949,565.337Z" fill="#f3d7d0"/>
                </g>
                <g id="Group_1207" data-name="Group 1207">
                  <path id="Path_1300" data-name="Path 1300" d="M763.883,560.789a6.207,6.207,0,0,1-.408-1.286l.346-1.1c-1.027.349-2,2.077-2.108,1.629a1.836,1.836,0,0,0-.684.064c-.068-.078-.155-.174-.242-.271a8.678,8.678,0,0,0-.588-1.476c.606-1.634-.255-1.591-1.754-1.1-.046-.71-.164-1.327-.261-1.93-.514.265-1.005.55-1.445.721-.27-.45-.473-1-.758-1.473l-1.007-1.088a12.7,12.7,0,0,0,.231-1.369l-.514-.554a3.668,3.668,0,0,0-.421.365l-.517-.55,1.406-3.192c.05-.6-.961.594-.848-.094l-.7-.741-.506-.53c-.427.514-.92,1.119-1.329,1.651l-.272-.281c-.057-.539-.111-1.084-.124-1.734a6.218,6.218,0,0,1-1.282-.539l-.072-.076c.549-.868,1.161-1.827,1.791-2.771.425-.2.933-.472,1.441-.745.163.174.346.363.185.993a7.377,7.377,0,0,1,1.268-.272c.769-.636.65.2,1.018.263l.527.552c.464,1.133.987,2.175,1.51,3.216a4.108,4.108,0,0,1,.512-.267,14.837,14.837,0,0,1,.2,1.834l.338.365c-.479,1.759-.369,2.045.172,1.647.209.065.482.036.693.1-.091,1.04,1.569-1.89,1.757-1.36-.34.752-.65,1.436-.99,2.184.268.291-.724,2.814,1.112.4-.253.868.152,1.315.85.931-.083.892.238.585,1.43-.076-1.622,2.324-1.451,2.348.092.915-.44,2.148.66,2.386,1.508,2.5.043.547-.065,1.587,1.02.312.82.579.845,1.612,2.1,1.529,1.512-2.469,1.321-.679,1.188-.162-1.678,2.933.926,1.208-.576,4.024-.431-.154-1.695,1.084-2.1.95Z" fill="#f3d7d0"/>
                </g>
                <g id="Group_1208" data-name="Group 1208">
                  <path id="Path_1301" data-name="Path 1301" d="M724.23,587.3c-1.046.657-1.944.5-1.1-1.193C724.285,584.915,724.095,586.012,724.23,587.3Z" fill="#f3d7d0"/>
                </g>
                <g id="Group_1209" data-name="Group 1209">
                  <path id="Path_1302" data-name="Path 1302" d="M721.353,585.827c-1.007.861-1.471.372-1.185-.454C721.053,584.06,721.519,584.227,721.353,585.827Z" fill="#f3d7d0"/>
                </g>
                <g id="Group_1210" data-name="Group 1210">
                  <path id="Path_1303" data-name="Path 1303" d="M719.837,585.021c-1.216.959-1.447.717-1.377-.007-.218-.227-.418-.438-.634-.665.323-.3,1.436-1.7,1.212-.172Z" fill="#f3d7d0"/>
                </g>
                <g id="Group_1211" data-name="Group 1211">
                  <path id="Path_1304" data-name="Path 1304" d="M717.195,583.68c-1.294,1.048-1.526.8-1.438.094a6.967,6.967,0,0,0-1.253.276l-1.2.162c-.342-.532-1.853,1.226-2.243.617a5.779,5.779,0,0,1-1.081.412c-.179-.038.272-1,.251-1.346.381-.548.822-1.186,1.2-1.734.111.123.213.236.325.36a12.942,12.942,0,0,1-.155,1.453c.477-.616.883-1.142,1.286-1.665-.076.4-.2,1.084,1-.534l.128.136c-.028.456-.148,1.295,1.185-.34l.135.145c-.1.537-.14.975-.194,1.4.4.1,1.081-1.1,1.258-.278Z" fill="#f3d7d0"/>
                </g>
                <g id="Group_1212" data-name="Group 1212">
                  <path id="Path_1305" data-name="Path 1305" d="M708.95,584.025c-2.014,3.659-1.21,1.612-1.321,1.449-1.02,1.819-.634.554-1.787,3.136-.137.225.238-.6.846-2.115l.848-2.139c.275-.269.534-.677.9-1.021l.078.118a.144.144,0,0,1,.026.036,3.674,3.674,0,0,1,.338-.394C708.891,583.45,708.926,583.66,708.95,584.025Z" fill="#f3d7d0"/>
                </g>
                <g id="Group_1213" data-name="Group 1213">
                  <path id="Path_1306" data-name="Path 1306" d="M705.579,588.852c-.233.583-.49,1.222-.684,1.707s-.338.823-.34.8c-.554,1.362-.806,1.979-1.153,2.834.427-1.117,1.247-3.239,2.042-5.7l-1.07,2.927a32.174,32.174,0,0,0,1.089-3.773c.137-.43.24-.754.342-1.075.375-1.335.73-2.816.937-3.719l.933-3.12c.148.113.686-2,1.1-3.655.66-2.277,1.318-4.547,1.944-6.7.179-.532.377-1.057.575-1.576.074.666.15,1.322.187,1.981-.423,1.413-.813,2.713-1.238,4.135-.166.541-.336,1.093-.5,1.63-.286,1-.6,2.1-.887,3.1-.562,1.591-1.09,3.081-1.654,4.676-.342.951-.695,2.025-1.563,4.647.3-.665.586-1.218.885-1.774C706.22,587.078,705.945,587.862,705.579,588.852Z" fill="#f3d7d0"/>
                </g>
                <g id="Group_1214" data-name="Group 1214">
                  <path id="Path_1307" data-name="Path 1307" d="M718.337,546.317c-.649,1.438-1.07,2.241-1.245,1.81a8.657,8.657,0,0,1,.63-4.314c.7-.961,1.094-.087,1.14.9C718.581,545.569,718.475,545.892,718.337,546.317Z" fill="#f3d7d0"/>
                </g>
                <g id="Group_1215" data-name="Group 1215">
                  <path id="Path_1308" data-name="Path 1308" d="M776.565,588.078c-.93.779-1.748.639-.628-.775.71-.354,2.386-2.842,2.456-2.052C777.762,586.224,777.136,587.2,776.565,588.078Z" fill="#eab2a8"/>
                </g>
                <g id="Group_1216" data-name="Group 1216">
                  <path id="Path_1309" data-name="Path 1309" d="M774.7,585.767c-1.039,1.164-.837.359-.741-.038-.028-.563-.091-1.162-.07-1.828,1.968-2.121,2.341-1.5,2.642-.948C775.9,583.926,775.264,584.9,774.7,585.767Z" fill="#eab2a8"/>
                </g>
                <g id="Group_1217" data-name="Group 1217">
                  <path id="Path_1310" data-name="Path 1310" d="M717.3,577.707a6.639,6.639,0,0,1,.351,1.168c.055.7,1.323-.85,2.055-1.681-.732.832-2,2.38-2.055,1.681A6.639,6.639,0,0,0,717.3,577.707Z" fill="#eab2a8"/>
                </g>
                <g id="Group_1218" data-name="Group 1218">
                  <path id="Path_1311" data-name="Path 1311" d="M716.273,578.863c-.286.016-.128-.772-1.726,1.373l-.809.577c-.275.026-.464-.016-.722.02a9.546,9.546,0,0,1,.233-1.344c-.645.745-.556.044-1.327.964l-.355-.387a23.773,23.773,0,0,0,1.5-2.962l.057.058c.41.107.785.336,1.245.494.534.407,1.783-.668,2.726-.961-.006.31.055.536.052.848Z" fill="#eab2a8"/>
                </g>
                <g id="Group_1219" data-name="Group 1219">
                  <path id="Path_1312" data-name="Path 1312" d="M707.536,584.356c.266-.628.575-1.356.839-1.977l.839-1.171c.355-.521-.327,1.051-.776,2.128C708.07,583.679,707.811,584.087,707.536,584.356Z" fill="#eab2a8"/>
                </g>
                <g id="Group_1220" data-name="Group 1220">
                  <path id="Path_1313" data-name="Path 1313" d="M783.419,589.994c-2.508,2.333-1.82.182-2.591.085.774-.971,1.608-2.052,2.367-3.047C783.273,588.04,783.345,589.017,783.419,589.994Z" fill="#e29288"/>
                </g>
                <g id="Group_1221" data-name="Group 1221">
                  <path id="Path_1314" data-name="Path 1314" d="M777.563,574.311c-.484.281-1.8,2.141-.482-.579a8.253,8.253,0,0,1,1.016-.5C777.938,573.556,777.777,573.879,777.563,574.311Z" fill="#e29288"/>
                </g>
                <g id="Group_1222" data-name="Group 1222">
                  <path id="Path_1315" data-name="Path 1315" d="M764.524,585.881l-2.92,2.344c-.419.534-.907,1.151-1.325,1.683-.02-.372-.1-.634-.12-1-.218.076-.355.093-.573.171.322-.648.695-1.4,1.014-2.052-1.789.608-2.391-1.133-2.685-2.324.754-1.661-.793-1.109-.538-3.183l.615-.8c.449.512.806.939,2.628-.323l.623-.8c-.248-.289-.528-.617-.793-.928-.15-.172-.314-.365-.464-.539l-.344.448a6.684,6.684,0,0,0-.388-1.293c-.445.334-.817.574-1.275.888l.985-2.07c-.885.668-.586-.5-1.4.073.148-.657.3-1.34.453-2,.238-.232.475-.461.7-.712-.451,1.83,2.552-1.948.8.924l.4.463c.151.338.231.766.36,1.089a14.212,14.212,0,0,0,1.615-.5,12.459,12.459,0,0,1-.14,1.536,8.478,8.478,0,0,1,1.022-.507c-.2.621-.373,1.262-.5,1.792.545-.38.591.013.037,1.743-.429.349-.856.7-1.214.957-.575,1.874.872.171.985.472.434.171.429,1.026,1.214.585l1.342,1.592c.211.254.407.489.617.741C765,584.886,764.783,585.34,764.524,585.881Z" fill="#e29288"/>
                </g>
                <g id="Group_1223" data-name="Group 1223">
                  <path id="Path_1316" data-name="Path 1316" d="M755.891,573.43a2.263,2.263,0,0,0-.824-.105l.338-.45a2.687,2.687,0,0,0-.826-.1c-.205.271-.4.537-.612.813l-.471-.534a6.634,6.634,0,0,1-.473-1.366c-.336.12-.726.352-.743,0,.05-.443.133-.846.2-1.269.841-.383,1.818-1.612,2.227-.821a8.611,8.611,0,0,0,.564,1.464l.085.093,1.336.009c.1.283.116.637.22.917-.179.643-.351,1.258-.53,1.9Z" fill="#e29288"/>
                </g>
                <g id="Group_1224" data-name="Group 1224">
                  <path id="Path_1317" data-name="Path 1317" d="M763.475,559.5a16.5,16.5,0,0,1-1.953,1.8c.048-.445.128-.85.19-1.275.109.448,1.081-1.28,2.108-1.629Z" fill="#e29288"/>
                </g>
                <g id="Group_1225" data-name="Group 1225">
                  <path id="Path_1318" data-name="Path 1318" d="M748.422,568.235a15.709,15.709,0,0,0-2.053-.606c-.684-.581-1.417-1.053-2.09-1.609-.3,0-1.262,1.077-1.157.376-.009-.329-.08-.57-.085-.9l-2.472-.211a7.222,7.222,0,0,0-.506-1.345l1.815-.5c.521.554,1.811-.824,2.081.77a10.07,10.07,0,0,1,1.4-.116,12.121,12.121,0,0,0,1.927-.2,10.043,10.043,0,0,1,.673,1.543c1.088-.774.689.753.63,1.342a5.054,5.054,0,0,0,.166,1Z" fill="#e29288"/>
                </g>
                <g id="Group_1226" data-name="Group 1226">
                  <path id="Path_1319" data-name="Path 1319" d="M752.737,551.734c.011-.147.091-.389.1-.539-.575.365-1.125.743-1.763,1.2l-.179-.189a20.09,20.09,0,0,0,.878-3.742c.408-.532.9-1.137,1.329-1.651l.506.53.7.741c-.113.688.9-.5.848.094l-1.406,3.192Z" fill="#e29288"/>
                </g>
                <g id="Group_1227" data-name="Group 1227">
                  <path id="Path_1320" data-name="Path 1320" d="M746.982,554.991l-.181-.185.331-.465c-.122-.924-1.1.289-1.576-.049-.142-.151-.5-.207.3-1.3-.087-.89-1.074.162-2,.953-.168-1.607-1.785-1.057-2.142-2.224-.425-1.071-3.1,3.323-4.572,5.311-.486.131.5-1.552.723-2.277-.406.06-.791.134-1.183.214-.371.407-.745.817-1.138,1.211-.259-.107-.188-.828-1.711,1.257l-.358-.369-1.694,2.072c-.018-.813-.4-1.189-1.384-.6-.227-.075-.549-.073-.8-.165.863-2.1-.815-.321-2.035.363l-.2-.183,1.471-3.025a9.526,9.526,0,0,0-1.731-.036c-.565.392-1.112.8-1.735,1.311a3.105,3.105,0,0,0-.915-.033c-.225.392-.5.882-.783,1.373a8.364,8.364,0,0,0-.961.661c-.294-.242-.624-.487-.933-.717-.976,1.218-1.949,2.44-2.92,3.8l-.281-.205c1.164-2.588.983-2.582.87-2.653a14.963,14.963,0,0,0-1.493,2.9c-.462.763-.889,1.146-.39.274.532-1.389,1.353-3.661.891-3.813-.34.187-.7.363-1.027.557-.024-1.182-.225-1.28-.412-1.385-.259-.143-.547-.287-.815-.418.381-1.06.721-2.017,1.1-3.078a11.87,11.87,0,0,0,.918-.806c.822-2.346,1.648-4.7,2.506-7.149l.2-.528.443.218.159.078a17.644,17.644,0,0,0,1.279,1.3l.3.169c.272.147.588.338.861.5.451-.385,1.061-1.335,1.3-1.059l.575.359c.015.683.116,1.275.126,1.97.527.227.83,1.12,1.809.6l1.3-2.942a7.465,7.465,0,0,0-1.007-1.4c1.011-1.071,1.478-.074,2.308-1.678a9.318,9.318,0,0,1,1.8.639,9.549,9.549,0,0,0,2.16-.556,9.589,9.589,0,0,1,2.509-.537c-1.048-.608-.011-2.217.3-3.258a13.559,13.559,0,0,0,1.12-1.117,11.824,11.824,0,0,1,.159,1.6l2.073-3.234c.346-.005.613.078.935.067-.283.5-.541,1.013-.8,1.527,1.526,0-.723,3.715,1.129,2.388l.318-.47.8.777,1.318-.1c.552-.706,1.1-1.413,1.632-2.139l1.232,1.251c-.713,1.342-1.364,2.568-2.073,3.9-1.338,1.484-.528-1.171-2.339,1.409-.2.6-.4,1.168-.6,1.765.244.093.27.592,1.148-.409,1.192.423,2.147.61,3.16,1.03l1.046,1.084c.079.242.094.574.172.815.318.171.715.269,1.031.439-.024.472-.046.906-.068,1.375l.161.169c.076.242.717-.527.279,1.1C748.584,553.3,748.226,553.893,746.982,554.991Z" fill="#db766d"/>
                </g>
                <g id="Group_1228" data-name="Group 1228">
                  <path id="Path_1321" data-name="Path 1321" d="M749.124,551.136l-.519-.545c-.316-.171-.713-.269-1.031-.439l1.288-2.493c-.508.583-.948,1.09-1.46,1.678l-1.046-1.084c.562-1.017,1.114-2.021,1.624-2.945a1.864,1.864,0,0,1,.667-.105c.473.174.883.438,1.377.626l.072.076a6.218,6.218,0,0,0,1.282.539c.013.65.067,1.195.124,1.734C750.732,549.135,749.963,550.092,749.124,551.136Z" fill="#e29288"/>
                </g>
                <g id="Group_1229" data-name="Group 1229">
                  <path id="Path_1322" data-name="Path 1322" d="M738.222,563.438c-.17-2.261-1.218-2.072-2.655-1.178C737,561.366,738.052,561.177,738.222,563.438Z" fill="#e29288"/>
                </g>
                <g id="Group_1230" data-name="Group 1230">
                  <path id="Path_1323" data-name="Path 1323" d="M742.647,545.867c1.811-2.58,1,.075,2.339-1.409.71-1.336,1.36-2.562,2.073-3.9a2.116,2.116,0,0,1,.761-.011,9.85,9.85,0,0,1-.458,1.113l-1.541,2.224c.115.912,1.65-1.164,1.427-.123a10.353,10.353,0,0,1,.732,1.551c-.51.924-1.063,1.928-1.624,2.945-1.013-.419-1.968-.606-3.16-1.03-.878,1-.9.5-1.148.409C742.25,547.034,742.444,546.464,742.647,545.867Z" fill="#df837a"/>
                </g>
                <g id="Group_1231" data-name="Group 1231">
                  <path id="Path_1324" data-name="Path 1324" d="M747.248,543.757c.224-1.04-1.312,1.035-1.427.123l1.541-2.224.789.8C747.893,542.831,747.57,543.294,747.248,543.757Z" fill="#e29288"/>
                </g>
                <g id="Group_1232" data-name="Group 1232">
                  <path id="Path_1325" data-name="Path 1325" d="M732.588,563c-.065-.385-.211-.7-.275-1.08l.576-.835c.432-.192,1-.879.685.706C733.282,562.12,732.926,562.55,732.588,563Z" fill="#e29288"/>
                </g>
                <g id="Group_1233" data-name="Group 1233">
                  <path id="Path_1326" data-name="Path 1326" d="M727.451,567.547l.852-2.931a.889.889,0,0,0-.068-.074,2.988,2.988,0,0,1-.915-.149c-.562.7-1.124,1.395-1.7,2.072-.933.158-2.724,2.112-3.21,1.322-1.207,2.074-.36-.821-1.874,1.881-1.445,1.057-1.539.073-1.687-.911s-.342-1.959-1.7-.719c-.227-.047-.216-.752-.754-.06-.554,1.4-.214,1.413-.883,2.724l-.787,1.5c-.334.147-.649.291-.965.463.14-.465.32-1.026.512-1.582.564-1.1,1.175-2.3,1.739-3.406,2.164-2.94,3.3-4.036,3.844-3.728.421-.223.928-.536,1.414-.841-.033-.479-.1-.957-.1-1.531l1.535-2.769a8.364,8.364,0,0,1,.961-.661c.213.174.423.349.612.507a3.632,3.632,0,0,1,.3,1c.833-.158,1.792-.788,2.472-.619l.3-.474.2.183,1.1,1.044a3.293,3.293,0,0,1,.857.065,3.457,3.457,0,0,1,.031.817,2.964,2.964,0,0,1,.933.156,4.158,4.158,0,0,1,.5-.285c.033.352.148.626.177.975l-.894,1.3c-.146.646-.29,1.291-.453,1.916C729.018,565.673,728.236,566.607,727.451,567.547Z" fill="#e29288"/>
                </g>
                <g id="Group_1234" data-name="Group 1234">
                  <path id="Path_1327" data-name="Path 1327" d="M736.839,543.258a9.589,9.589,0,0,0-2.509.537,9.549,9.549,0,0,1-2.16.556,9.318,9.318,0,0,0-1.8-.639c-.83,1.6-1.3.606-2.308,1.678a7.465,7.465,0,0,1,1.007,1.4l-1.3,2.942c-.979.516-1.282-.378-1.809-.6-.009-.7-.111-1.287-.126-1.97l-.575-.359c-.235-.276-.844.674-1.3,1.059-.273-.163-.589-.354-.861-.5l1.606-2.84-.948-.514-.129-.071c.174-.418.392-.939.61-1.456.436-1.042.83-1.979,1.268-3.02.88-2.713.778-3.268,1.282-4.147a8.147,8.147,0,0,1,1.179-.666q-.255,1.392-.51,2.78c.8.441,1.458,1.32,2.848-.192l1.2-2.43c.7.416,1.334.813,1.962,1.233a16.3,16.3,0,0,1,2.354.262,1.42,1.42,0,0,1,1.872.14,12.581,12.581,0,0,1,2,.16l.793.665-2.073,3.234a11.824,11.824,0,0,0-.159-1.6,13.559,13.559,0,0,1-1.12,1.117C736.828,541.041,735.792,542.649,736.839,543.258Z" fill="#df837a"/>
                </g>
                <g id="Group_1235" data-name="Group 1235">
                  <path id="Path_1328" data-name="Path 1328" d="M731.507,534.794l-1.2,2.43c-1.39,1.513-2.044.634-2.848.192q.255-1.386.51-2.78c.558-.1,1.179-.147,1.778-.205C730.378,533.621,730.978,534.6,731.507,534.794Z" fill="#e29288"/>
                </g>
                <g id="Group_1236" data-name="Group 1236">
                  <path id="Path_1329" data-name="Path 1329" d="M723.1,547.35l-.3-.169a17.644,17.644,0,0,1-1.279-1.3c.676-.67,1.373-1.338,2.112-1.957l.129.071.948.514Z" fill="#e29288"/>
                </g>
                <g id="Group_1237" data-name="Group 1237">
                  <path id="Path_1330" data-name="Path 1330" d="M725.507,539.45c-.438,1.04-.832,1.977-1.268,3.02a19.715,19.715,0,0,0-.582-2.052c.242-.508.521-1,.8-1.491.761-1.255,1.537-2.391,2.33-3.624C726.285,536.182,726.386,536.737,725.507,539.45Z" fill="#e29288"/>
                </g>
                <g id="Group_1238" data-name="Group 1238">
                  <path id="Path_1331" data-name="Path 1331" d="M720.717,546.116c-1.131.107-2.188,1.362-2.38.2.139-.425.244-.748.525-1.6.34-.59.693-1.3,1.011-1.9.4.881.7,1.887,1.042,2.776Z" fill="#e29288"/>
                </g>
                <g id="Group_1239" data-name="Group 1239">
                  <path id="Path_1332" data-name="Path 1332" d="M780.828,590.079a14.605,14.605,0,0,1-1.61.449l-.238-.3,1.364-1.647c.806-.577,1.669-1.266,2.546-1.928l.3.383C782.435,588.027,781.6,589.108,780.828,590.079Z" fill="#e7a298"/>
                </g>
                <g id="Group_1240" data-name="Group 1240">
                  <path id="Path_1333" data-name="Path 1333" d="M762.085,581.431c-.113-.3-1.56,1.4-.985-.472.358-.261.785-.608,1.214-.957A12.634,12.634,0,0,1,762.085,581.431Z" fill="#e7a298"/>
                </g>
                <g id="Group_1241" data-name="Group 1241">
                  <path id="Path_1334" data-name="Path 1334" d="M712.634,576.662A10.744,10.744,0,0,0,710.212,580c-.549,1.117-1.148,2.333-1.7,3.452l-.078-.118c.449-1.077,1.131-2.649.776-2.128l-.839,1.171c.34-.848.678-1.689,1.018-2.535,1.172-3.1,1.482-3.35,1.691-3.374s.358.147,1.351-2.088c-.135.029-.314.156-.442.18a30.365,30.365,0,0,0,1.175-2.982c.194-.4.357-.69.506-.986.179.142.349.267.529.427l.068.06c-.192.556-.371,1.117-.512,1.582-1.517,3.308-.711,2.446-.71,2.9C712.875,575.992,712.749,576.323,712.634,576.662Z" fill="#e7a298"/>
                </g>
                <g id="Group_1242" data-name="Group 1242">
                  <path id="Path_1335" data-name="Path 1335" d="M723.629,543.926c-.739.619-1.436,1.287-2.112,1.957l-.159-.078c.752-1.763,1.547-3.626,2.3-5.387a19.715,19.715,0,0,1,.582,2.052C724.021,542.987,723.8,543.508,723.629,543.926Z" fill="#e7a298"/>
                </g>
                <g id="Group_1243" data-name="Group 1243">
                  <path id="Path_1336" data-name="Path 1336" d="M709.184,578.358l-.157.425-.176-.143c.286-1,.6-2.1.887-3.1.124.1.264.18.384.28C709.811,576.67,709.537,577.407,709.184,578.358Z" fill="#e7a298"/>
                </g>
                <g id="Group_1244" data-name="Group 1244">
                  <path id="Path_1337" data-name="Path 1337" d="M747.574,550.152c-.078-.241-.092-.574-.172-.815.512-.588.952-1.095,1.46-1.678Z" fill="#df837a"/>
                </g>
                <g id="Group_1245" data-name="Group 1245">
                  <path id="Path_1338" data-name="Path 1338" d="M744.2,541.442l-1.318.1-.8-.777-.318.47c-1.852,1.327.4-2.388-1.129-2.388.257-.514.516-1.031.8-1.527,1.358-.154,2.33-.615,2.62.258l.931.884.85.841C745.3,540.029,744.748,540.735,744.2,541.442Z" fill="#df837a"/>
                </g>
                <g id="Group_1246" data-name="Group 1246">
                  <path id="Path_1339" data-name="Path 1339" d="M733.874,552.939l-.589-.565c.231-.7.547-1.474.785-2.163-.131-1.1-.931-.888-1.669-.734s-1.4.256-1.323-1.137l.584-.966a12.943,12.943,0,0,0,1.9.136c1.225-.136,1.885,1.231,2.46,2.242C735.322,550.786,734.567,551.908,733.874,552.939Z" fill="#df837a"/>
                </g>
                <g id="Group_1247" data-name="Group 1247">
                  <path id="Path_1340" data-name="Path 1340" d="M727.051,559.029c-.68-.169-1.639.461-2.472.619a3.632,3.632,0,0,0-.3-1c-.188-.158-.4-.332-.612-.507.281-.49.558-.98.783-1.373a3.105,3.105,0,0,1,.915.033c.623-.507,1.17-.919,1.735-1.311a9.526,9.526,0,0,1,1.731.036l-1.471,3.025Z" fill="#df837a"/>
                </g>
                <g id="Group_1248" data-name="Group 1248">
                  <path id="Path_1341" data-name="Path 1341" d="M721.268,563.106c-1.406,1.569-1.536,1.462-1.414.841-.545-.309-1.68.788-3.844,3.728-.059-.474-.111-.932-.188-1.395l.613-1.605,1.12-2.468c-.5.872-.072.488.39-.274a14.963,14.963,0,0,1,1.493-2.9c.113.071.294.065-.87,2.653l.281.205c.97-1.364,1.944-2.586,2.92-3.8.309.231.639.476.933.717l-1.535,2.769C721.164,562.149,721.234,562.626,721.268,563.106Z" fill="#df837a"/>
                </g>
                <g id="Group_1249" data-name="Group 1249">
                  <path id="Path_1342" data-name="Path 1342" d="M714.6,566.641l-.17-.12c-.658,1.021-1.338,2.179-1.942,3.223l-.078-.047a2.451,2.451,0,0,0-.931.082c-.037-.659-.113-1.315-.187-1.981l.3-.968q.59-2.666,1.177-5.317c.676-1.543,1.375-2.958,2.073-4.362.065-.461.091-.813.117-1.169-.128-.055-.255-.105-.384-.151-.185-1.5.824-3.891,1.321-5.861.37-.585.811-1.266,1.2-1.843.176.43.6-.372,1.245-1.81.192,1.16,1.249-.094,2.38-.2-.857,2.448-1.683,4.8-2.506,7.149a11.87,11.87,0,0,1-.918.806c-.381,1.06-.721,2.017-1.1,3.078.268.131.556.274.815.418.187.105.388.2.412,1.385l-.213.521c-.4,1.059-.758,2.021-1.157,3.081-.109.577-.22,1.157-.314,1.647C715.347,565.007,714.965,565.817,714.6,566.641Z" fill="#df837a"/>
                </g>
                <g id="Group_1250" data-name="Group 1250">
                  <path id="Path_1343" data-name="Path 1343" d="M707.736,582.413a10.377,10.377,0,0,0-.538.9c.564-1.594,1.092-3.085,1.654-4.676l.176.143Z" fill="#df837a"/>
                </g>
                <g id="Group_1251" data-name="Group 1251">
                  <path id="Path_1344" data-name="Path 1344" d="M755.47,555.481l-2.761,1.732-.089-.094c.146-.331.29-.661.5-1.084l1.852-2.56,1.007,1.088C755.815,554.877,755.653,555.189,755.47,555.481Z" fill="#db766d"/>
                </g>
                <g id="Group_1252" data-name="Group 1252">
                  <path id="Path_1345" data-name="Path 1345" d="M714.272,571.081l-.068-.06c-.179-.16-.349-.285-.529-.427.257-.632.558-1.378.813-2.008.425-.781.874-1.547,1.334-2.306.078.463.129.921.188,1.395C715.447,568.778,714.835,569.979,714.272,571.081Z" fill="#db766d"/>
                </g>
                <g id="Group_1253" data-name="Group 1253">
                  <path id="Path_1346" data-name="Path 1346" d="M711.437,573.55l-.128-.087c.1-.469.168-.821.222-1.188l.957-2.531c.6-1.044,1.284-2.2,1.942-3.223l.17.12-.216.519-1.717,4.59C712.226,572.375,711.842,572.9,711.437,573.55Z" fill="#db766d"/>
                </g>
                <g id="Group_1254" data-name="Group 1254">
                  <path id="Path_1347" data-name="Path 1347" d="M713.067,577.106c-.368.4-.73.8-1.031,1.108-.58,1.113-1.209,2.317-1.789,3.428l-.283-.329c-.322.427-.73,1.244-1.085,1.783a3.674,3.674,0,0,0-.338.394.144.144,0,0,0-.026-.036c.549-1.119,1.148-2.335,1.7-3.452a10.744,10.744,0,0,1,2.422-3.339c.115-.34.24-.67.416-1.1l-.277-.271c-.6.619.318-1.331.987-2.627.316-.172.63-.316.965-.463l.787-1.5c.155-.011.347-.14.506-.145.987-.59-.8,2.842-.02,2.838a9.511,9.511,0,0,1-1.221,1.721,5.687,5.687,0,0,0-.933.608C713.621,576.118,713.344,576.613,713.067,577.106Z" fill="#eab2a8"/>
                </g>
                <g id="Group_1255" data-name="Group 1255">
                  <path id="Path_1348" data-name="Path 1348" d="M710.247,581.641q-.646,1.188-1.3,2.384c-.024-.365-.059-.576-.07-.93.355-.539.763-1.356,1.085-1.783Z" fill="#eec4bb"/>
                </g>
                <g id="Group_1256" data-name="Group 1256">
                  <path id="Path_1349" data-name="Path 1349" d="M746.84,604.409l-.449-.545C746.459,604.124,747.672,602.3,746.84,604.409Z" fill="#f3d7d0"/>
                </g>
                <g id="Group_1257" data-name="Group 1257">
                  <path id="Path_1350" data-name="Path 1350" d="M710.227,583.9c-1.127,1.324-1.663,1.482-1.277.129q.649-1.2,1.3-2.384a6.166,6.166,0,0,1,.213,1.053C710.378,583.087,710.295,583.479,710.227,583.9Z" fill="#f3d7d0"/>
                </g>
                <g id="Group_1258" data-name="Group 1258">
                  <path id="Path_1351" data-name="Path 1351" d="M722.356,573.728c-1.308,1.037-1.495.844-1.672.661C723.012,570.282,723.119,571.813,722.356,573.728Z" fill="#eab2a8"/>
                </g>
                <g id="Group_1259" data-name="Group 1259">
                  <path id="Path_1352" data-name="Path 1352" d="M760.293,594.074c.238-.576.493-1.131.663-1.623.795-.764,1.948-2.137,1.783-1.3a4.62,4.62,0,0,0,.031.908C761.366,593.823,761.985,592.142,760.293,594.074Z" fill="#eab2a8"/>
                </g>
                <g id="Group_1260" data-name="Group 1260">
                  <path id="Path_1353" data-name="Path 1353" d="M752.48,570.416c-.085-.263-.826.567-1.279.888,0-.331-.072-.572-.076-.9l-1.565.739c.2-.441.349-.77.5-1.1-.874.516-.846-.445-1.3-.621.1-.552.124-1.011.17-1.454.139.151.824-.576,1.26-.917.375.416.769.852,1.146,1.267.135.151.273.3.129,1.629C751.713,570.066,752.676,568.978,752.48,570.416Z" fill="#e29288"/>
                </g>
              </g>
            </g>
          </g>
          <path id="Path_1354" data-name="Path 1354" d="M789.62,596.456c-3.642-2.611-7.343-5.2-11.106-7.639a45.3,45.3,0,0,1-6.322-10.871c.164-.181.185-.634-.063-.715l-.3-.1c-.831-1.868-1.65-3.759-2.5-5.6a64.562,64.562,0,0,0-10.263-15.825c-8.038-9.072-17.715-15.378-27.278-20.662-.344-.191-.617.485-.309.783,6.841,6.611,9.873,18.879,15.322,27.5,6.148,9.724,15.308,11.752,24.028,14.341l0,0c.013.011.022,0,.035.007l.71.212a53.941,53.941,0,0,0,5.383,9.923c-9.94-6.308-20.328-11.478-31.281-13.173-7.515-1.164-15.217-.494-22.853.294q-12.39,1.277-24.778,2.548c-.229.024-.366.572-.133.7q6.508,3.459,13.02,6.907c.011.025.026.047.054.04l.017,0q2.367,1.253,4.732,2.509c-.017.078,0,.163.072.149.048-.009.092-.025.14-.036l1.013.537a96.92,96.92,0,0,0,11.874,5.7c.033.064.081.109.153.084l.035-.016a30.227,30.227,0,0,0,6.054,1.562,28.805,28.805,0,0,0,7.321.027c.018.033.046.051.085.027s.048-.033.074-.047a37.166,37.166,0,0,0,4.036-.717c.039.114.12.192.229.129.163-.091.312-.2.464-.3a55.314,55.314,0,0,0,7.441-2.49.107.107,0,0,0,.115.016c.12-.056.229-.143.346-.209,4.725-1.974,9.4-4.474,13.99-6.938.152-.025.3-.031.453-.06a.225.225,0,0,0,.128-.087c6.6,3.775,13.04,8.178,19.491,12.434C789.649,597.662,790.019,596.743,789.62,596.456Zm-56.242-59.427.242.149c-.066-.029-.131-.062-.2-.091Zm24.285,35.1c-4.542-2.177-8.3-5.8-11.361-11.049-4.346-7.45-7.408-16.209-12.166-23.019,7.245,3.651,13.184,11.9,19.024,18.666,2.966,3.439,5.921,6.9,8.844,10.413,2.533,3.045,4.962,6.442,7.621,9.29A86.71,86.71,0,0,1,757.663,572.134Zm12.819,4.57c-2.613-3.984-5.782-7.347-8.687-10.838-3.215-3.866-6.451-7.7-9.744-11.427-4.208-4.768-8.411-10.188-13.186-13.982,7.162,4.514,14.2,9.31,20.356,16.347a65.723,65.723,0,0,1,10.407,16.674c.51,1.142,1.011,2.292,1.515,3.437C770.923,576.846,770.7,576.773,770.482,576.7ZM745.5,575.577c8.216,1.347,15.921,4.7,23.4,8.9a24.266,24.266,0,0,1-5.172,0c-.037-.08-.1-.12-.176-.036l-.013.016c-.811-.085-1.621-.2-2.426-.338.015-.205-.155-.374-.292-.18-.026.038-.05.08-.078.118-1.964-.349-3.917-.81-5.874-1.247-.033-.133-.126-.222-.237-.105l-.039.045c-.917-.2-1.837-.4-2.759-.572a125.616,125.616,0,0,0-16.679-1.761c-11.83-.621-23.71-.45-35.444-2.085l-.464-.247c7.6-.8,15.2-1.616,22.8-2.375C729.9,574.927,737.769,574.309,745.5,575.577ZM763.057,587.8q-1.325.686-2.661,1.34c.917-1.355,1.892-2.667,2.9-3.871.466.045.935.062,1.4.084a8.08,8.08,0,0,1-1.626,2.422C763.062,587.784,763.062,587.793,763.057,587.8Zm-10.47,4.727a11.536,11.536,0,0,0,1.244-1.6c1.428-2.143,2.82-4.342,4.228-6.515q1.087.231,2.175.423c-1.53,2.435-2.844,5.262-4.913,6.617C754.411,591.833,753.5,592.195,752.587,592.529Zm-4.309,1.371c2.572-2.582,3.76-7.238,6.148-10.29q1.613.365,3.23.719-1.422,2.209-2.846,4.42c-.981,1.523-1.961,3.4-3.3,4.158C750.43,593.275,749.355,593.611,748.278,593.9Zm12.4-8.983q1.111.188,2.228.309a30.459,30.459,0,0,0-2.757,4.037c-1.14.556-2.282,1.1-3.43,1.6A34.7,34.7,0,0,0,760.679,584.917ZM736.069,595c4.18-2.3,7.556-7.072,9.624-12.948q2.323.311,4.631.734c-1.9,4.83-3.853,9.48-7.262,12.155A29.16,29.16,0,0,1,736.069,595Zm-12.785-4.233c3.875-.421,7.905-5.709,10.479-9.68.007-.013,0-.025.009-.038.2.007.4.011.6.02,1.894.078,3.786.207,5.675.363-2.465,5.841-6.238,10.152-10.658,11.966A55.783,55.783,0,0,1,723.284,590.771Zm-22.4-11.817a128.312,128.312,0,0,0,17.3,1.641,35.4,35.4,0,0,1-6.591,4.031Q706.239,581.788,700.882,578.954Zm17.945,1.665q3.465.123,6.931.2a20.005,20.005,0,0,1-9.169,6.455l-.462-.247q-2.073-1.1-4.147-2.2A21.1,21.1,0,0,0,718.827,580.619Zm-1.852,6.86c3.4-1,6.36-3.287,9.247-6.524a.344.344,0,0,0,.052-.123c2.341.056,4.679.118,7.011.205-2.814,4.345-6.525,8.836-10.549,9.467C720.8,589.535,718.886,588.5,716.975,587.479ZM730,593.616c4.357-1.994,8.131-6.208,10.551-12.133q2.375.207,4.742.517c-2,6.186-5.61,10.586-9.888,12.912-.31-.044-.619-.069-.929-.124A31.674,31.674,0,0,1,730,593.616Zm20.724-10.753c.7.133,1.4.241,2.094.39.384.082.769.169,1.153.254-2.426,3.261-3.6,8.794-6.682,10.644-1.225.3-2.448.545-3.674.719C746.829,592.284,748.912,587.479,750.724,582.863Zm13.109,4.53a5.3,5.3,0,0,0,1.192-2.021,22.373,22.373,0,0,0,2.7-.073Q765.793,586.362,763.833,587.394Z" fill="#48505b"/>
        </g>
      </g>
    </g>
  </g>
</svg>
