<svg xmlns="http://www.w3.org/2000/svg" width="256.179" height="225.572" viewBox="0 0 256.179 225.572">
  <g id="Group_453" data-name="Group 453" transform="translate(-166.4 -74.355)" opacity="0.5">
    <g id="Group_452" data-name="Group 452" opacity="0.9">
      <g id="Group_451" data-name="Group 451" opacity="0.9">
        <g id="Group_373" data-name="Group 373">
          <path id="Path_443" data-name="Path 443" d="M414.64,79.621c-.95-1.444-2.4-1.63-2.948-3.606l3.564-1.66C416.461,76.541,417.273,79.94,414.64,79.621Z" fill="#eec4bb"/>
        </g>
        <g id="Group_374" data-name="Group 374">
          <path id="Path_444" data-name="Path 444" d="M420.029,128.953c-1.485.894-2.812,1.883-4.222,2.908a25.59,25.59,0,0,0-3.307.747l-.782.374c-1.533.4-2.993.936-4.531,1.331-.956.465-1.993.968-2.935,1.459l-.8-.464a23.1,23.1,0,0,1-2.461,2.117,12.189,12.189,0,0,1-1.538-.789,24.292,24.292,0,0,0-.575,2.734l-2.921,1.478c.08.14.234.413.386.683-2.242,1.315-4.413,2.755-6.572,4.208-3.975,1.762-7.964,3.521-11.876,5.42l-1.184-2.009-2.477,1.313,1.19,2.006c-2.059,1.247-4.083,2.745-6.035,4.173L366.943,158c-3.732-1.135-1.608,1.068-2.447,1.352-1.329-.147-2.668-.3-4.09-.4l-1.184.654-3.191.168c-4.884,3.138-8.548,4.032-12.923,6.544a27.529,27.529,0,0,1-4.864,3.768c-1.951,1.083-4.159,1.55-6.354.149-.555,2.877-2.812,3.325-4.393,4.454-1.2-1.994-1.937-.285-3.2-.611l-1.584.957-2.414,1.462c-.744.468-1.568.984-2.393,1.5l-7.928,4.961a24.962,24.962,0,0,0-3.17,1.068,24.555,24.555,0,0,0-2.369,2.4c-.8.719-1.526,1.555-2.335,2.266-.623,1.15-1.247,2.119-1.877,3.084l-.411.266a38.785,38.785,0,0,0-3.055,2.916,46.388,46.388,0,0,0-3.458,3.184,19.772,19.772,0,0,0-2.824.909c.677,2.925-1.463,3.438-3.043,3.75-1.985,1.726-3.973,3.447-6.056,5.044-.251,1.292-.405,2.713-.567,3.953-.719-.639-1.533-1.4-2.173-2.1-1.919,1.654-3.805,3.181-5.688,4.885.944,1.243,1.793,2.362,2.732,3.6-.753,2.044.366,4.305.443,5.2-.774.732-1.452,1.591-2.225,2.323-3.5,1.127-5.855,1.258-5.289,3.711-1.436,1.76-2.842,3.4-4.347,5.068-3.63.527-5,1.915-3.562,3.561-.543.395-1.01.735-1.554,1.133l-3.738,2.725c-3.338.306-2.134,2.565-2.053,3.273-1,.752-1.994,1.505-2.918,2.2l-3.681,2.787c-2.467,1.089-.894,2.237-2,3.465-.989.162-2.054.387-3.221.489l-.693.522c1.2,2.781-.825,3.2-1.963,3.492l-.681.536c1.358,2.5-.278,2.79-1.182,2.91.375.887.756,1.778,1.16,2.845A38.686,38.686,0,0,0,234.3,265.5l-2.188,1.72c.4.888.851,1.885,1.254,2.775-1.061.234-2.119.473-3.1.654a46.538,46.538,0,0,0-4.465,2.608c-1.26-1.2-2.6-2.478-3.862-3.68a28.056,28.056,0,0,0,.362-3.1l.375-.3c1.245.986,2.39,1.861,3.711,2.791.6-.477,1.131-.9,2.113-1.673-.135-2.065,1.584-2.43,1.43-4.085a19.487,19.487,0,0,0,3.206-.548c.635-.887,1.365-1.658,2-2.553.17-.7.363-1.5.533-2.2-1.733-3.389-.065-3.512.569-4.407-.4-.476-.9-1.068-1.4-1.669l.764-.593a39.942,39.942,0,0,1,3.811-1.927c1.943-.69.692-3.253.167-4.805a22.9,22.9,0,0,1,1.746-2.307,10.114,10.114,0,0,1,1.964-.51c-.086-.72-.149-1.253-.212-1.792,2.552-1.324,5.055-2.707,7.657-3.8-.132-1.247-.248-2.319-.282-3.45l3.858-1.085a30.016,30.016,0,0,0,2.5-2.787l1.175-.86-.867-1.1a40.136,40.136,0,0,1,3.855-1.849l.864,1.1c2.762-.869,1.175-2.746,2.062-4.14a24.648,24.648,0,0,1,2.227-2.521c-3.088-2.581-5.486-1.84-4.758.686l-.8.563c-1.473-.306-2.746-.51-4.207-.792-.674-6.271,4.267-4.556,4.978-8.117,2.669-1.5-1.155-7.172,3.666-6.192,3.109-.291,4.186-1.624,3.013-3.839,2.087-1.807,4.269-3.653,6.542-5.384,2.143,1.742,1.568-.686,2.819-.977.453-3.785,2.875-4.865,5.3-5.92,2.444-1.034,4.9-2.021,5.465-5.733,3.245.483,3.058-1.808,4.339-3.762,1.41-.734,2.911-1.339,4.41-1.949-.69-5.306,5.934-.432,7.519-4.005,1.425-.531,2.77-1,4.023-1.61,1.4-1.424,2.08-5.522,3.978-3.413,1.332-1.2,3.991,1.894,5.315-.534,1.155-3.052,5.29-3.554,5.272-6.622,4.308.5,6.806-7.04,12.08-5.552.878-3.737,6.047-4.577,9.022-6.842l2.041-1.178c.818,1.5,1.757.6,2.362.272.516-.468,1.7-.233,1.305-1.613-.741-1.017.878-1.02,3.621.656.084.134.246.4.408.66-.2,1.178-.3,2.308-.5,3.659,2.249,1.237,3.1.77,4.851,1.579-.237-.759-.558-1.469-.8-2.227a28.542,28.542,0,0,0,.918-3l3.151,1.625c3.01.29-.51-3.091.539-4.565l5.585,1.171c2.183-2.419,6.167-.636,7.382-3.93.972.887,1.861,1.829,2.744,2.766a18.352,18.352,0,0,0,2.092-1.991c1.523-.459,3.047-.914,4.494-1.5-.395-2.433,1.541-4.52,3.253-1.715l4.147-2.1c.23-1.544.443-2.982.672-4.527-1.981-2.131-.992-4.553.687-4.536.713.7,1.512,1.486,2.222,2.185l1.05-2.105c.9.416,1.807.653,2.7,1.073l1.645-.834c.863-.447,1.644-.831,2.521-1.249a7.6,7.6,0,0,0,2.278-3.531c-.518-.956-.965-1.778-1.41-2.6.1-1.252.18-2.331.191-3.548,1.994-1.658,4.47-.962,6.705-1.529,3.535.008,4.227,3.824,5.6,5.585l2.089-1.02c1.071,1.207,2.158,2.243,3.32,3.42C423.576,127.242,421.74,128.287,420.029,128.953Z" fill="#eec4bb"/>
        </g>
        <g id="Group_375" data-name="Group 375">
          <path id="Path_445" data-name="Path 445" d="M380.394,84.261c-.843,2.49-2.051,2.386-3.769,1.15C377.189,83.056,378.393,80.566,380.394,84.261Z" fill="#eec4bb"/>
        </g>
        <g id="Group_376" data-name="Group 376">
          <path id="Path_446" data-name="Path 446" d="M380.057,103.748c.02.86-.122,1.633-.186,2.544-3.918.776-5.079,5.207-9.787,4.993,1.29,5.273,4.159,4.682,4.824,7.661.711,2.245-1.272,1.363-1.37,3.181.153.267.231.4.389.675a24.351,24.351,0,0,0,2.465,6.262c-.722.915-1.443,1.823-2.168,2.914-1.559-.929-3.13-1.678-4.7-2.61-1.367-3.325,1.734-2.5.173-5.2.365-.747.683-1.4,1.046-2.144-4.668-1.747-6.746.425-9.181,1.367-1-.524-2.167-1.133-3.164-1.657-.215-.95-.5-2.029-.624-3.021.374-.548.911-1.016,1.284-1.562,1.6-1.031,3.116-2.194,4.635-3.357.717-.558,1.182-1.157,1.808-1.672-.425-1.531-.933-3.027-1.365-4.383.5-1.145.906-2.254,1.415-3.391a35.068,35.068,0,0,0,3.727-.161c1.741-.189,1.87-2,2.729-3.139l.807-.41c1.734-.192,3.485-.56,5.056-.836Z" fill="#f3d7d0"/>
        </g>
        <g id="Group_377" data-name="Group 377">
          <path id="Path_447" data-name="Path 447" d="M399.994,83.875l-4.978,5-4.125,3.575-.81.4c-1.115-1.013-2.306-2.161-3.5-3.312-2.291.426.63,3.5-.021,5.035-1.386,1.026-2.948,1.934-4.4,3.037-.866.095-1.565.276-2.521.417-1.031-1.043-2.233-2.177-3.436-3.309-2.14.92-4.65,2.026-3.386,5.925l-.807.41c-.86,1.138-.989,2.95-2.729,3.139a35.068,35.068,0,0,1-3.727.161c-.509,1.137-.914,2.246-1.415,3.391l-3.01,1.607a6.532,6.532,0,0,0,2.567,4.448c-1.518,1.163-3.035,2.326-4.635,3.357-1.262-2.155-2.515-4.3-3.777-6.453-5.888-2.667-6.813,4.49-12.623,4.38-5.877.431-7.4,6.259-13.076,5.516,5.175-6.073,12.835-8.266,16.295-13.333.164.273.242.4.4.669,2.569-2.431,7.133-2.047,10.308-4.627,1.416-1.988,2.266-4.382,4.666-1.612.714-.374,1.421-.768,2.146-1.128a4.042,4.042,0,0,1,.423-1.1,24.989,24.989,0,0,1,3.448-.885c-.69-1.223-1.223-2.167-1.84-3.258a9.045,9.045,0,0,0,2.062-5.24l9.136-4.676c1.718,1.237,2.926,1.34,3.769-1.15,6.813-1.915,13.439-3.9,20.172-5.624C400.365,80.444,400.261,82.209,399.994,83.875Z" fill="#e29288"/>
        </g>
        <g id="Group_378" data-name="Group 378">
          <path id="Path_448" data-name="Path 448" d="M367.489,90.086a9.045,9.045,0,0,1-2.062,5.24c.617,1.091,1.149,2.035,1.84,3.258a24.989,24.989,0,0,0-3.448.885,4.042,4.042,0,0,0-.423,1.1c-.725.36-1.431.755-2.146,1.128-2.4-2.77-3.25-.377-4.666,1.612-3.175,2.58-7.739,2.2-10.308,4.627-.158-.266-.236-.4-.4-.669-3.46,5.068-11.12,7.26-16.295,13.333,5.675.743,7.2-5.086,13.076-5.516,5.81.11,6.735-7.047,12.623-4.38,1.262,2.156,2.515,4.3,3.777,6.453-.374.546-.911,1.014-1.284,1.562a31.565,31.565,0,0,0-3.224-.746c-1.485.44.669,2.111.185,3.252-1.151.6-2.2,1.18-3.332,1.813l-7.159,3.986c-.572,1.747-2.81,2.1-4.224,3.237a26.327,26.327,0,0,0-3.259.041c-3.332-.63-4.44-.317-4.641.87a36.121,36.121,0,0,1-3.586-.44,16.35,16.35,0,0,0-.9,2.331,32.475,32.475,0,0,0-3.7.341c-.708,1.318-1.421,2.628-2.213,3.809-1.127.468-2.423.861-3.634,1.39l-2.062,1.243c-3.663-3.064-.363,2.764-4.123,2.491a7.569,7.569,0,0,1,.335,1.433c-.009,3.279-3.176,3-4.035,4.253l-3.781-.441c-.941.395-1.892.6-2.839.993-.938,1.124-1.942,2.328-2.878,3.452l-.42.269c-1.617.834-3.238,1.483-4.945,2.189-2.9,1.456-1.837,3.361-2.656,5.344-3.262.218-2.536,2.153-3.377,2.866-3.068.324-3.741.77-4.413,1.208-1.845,1.207-3.778,2.472-5.625,3.678-.054.966.341,2.382-.332,2.823l-.84.545a25,25,0,0,1-2.887.963c-1.37.146-4.4-.095-4.7,2.388-1.844.876-3.605,1.7-5.274,2.649-1.1,2.063-2.255,3.037-3.523,5.026-.882,1.171-1.766,2.328-2.635,3.677-4.536,1.634-3.748,4.344-6.2,6.07l-2.5,4.625c-.944,1.231-1.8,2.413-2.656,3.587-.962-.263-1.185,1.4-2.362,1.676-5.916,1.831-7.573,4.592-8.3,8.009a44.567,44.567,0,0,0-2.885,4.047l-2.329,1.711c-3.238.119-2.7,1.268-3.094,2.353l.885,1.088-3.409,2.593a3.279,3.279,0,0,1,.1.9c-.909.3-1.8.788-2.713,1.088a7.936,7.936,0,0,0-.3,1.205,25.855,25.855,0,0,0-2.2,2.644,10.642,10.642,0,0,0-2.009.549,20.96,20.96,0,0,0-1.779,2.367l-4.449,3.518c.74-2.967-.284-6.513,2.95-5.3.681-.738,1.265-1.594,1.886-2.249a5.265,5.265,0,0,1,4.111-4.107l-1.662-3.426c.558-.423,1.037-.788,1.593-1.211-2.03-2.949-.419-3.2.363-3.99a24.354,24.354,0,0,0-.68-2.418c.584-1.037,1.172-2.063,1.84-3.159,1.314.18,3.439,1.856,4.108.6-1.906-2.847-7.28-7.578-3.783-9.376,3.586-1.667,5.5-5.775,9.793-7.194-.071-2.06-.674-4.155,1.706-4.9,1.065,1.534,1.948.525,2.609.057,1.81-1.469.813-3.428,3.353-4.281a9.616,9.616,0,0,1,1.305.033c-.177-2.731-.906-3.36-.278-4.376-3.134-.255-2.537,1.034-3.3,1.379l-.749.53-3.263.6,2.41-1.712-2.462-4.73,1.25-.89a26.758,26.758,0,0,1,7.486.234l.83-.59c.179-1.46.365-2.736.636-4.076.351-.048.789.032,1.136-.018l1.19-2.5,2.45-1.673a3.136,3.136,0,0,1-.04-.917c.845-.575,1.607-1.092,2.455-1.667a22.3,22.3,0,0,1,2.944-.129l2.575,3.516a14.468,14.468,0,0,0,1.673.743l.422-.29c.423-2.168.948-4.217,1.382-6.394a7.869,7.869,0,0,0-1.245-.852c1.772-1.034,3.6-1.819,5.3-2.766a33.463,33.463,0,0,0,1.209-3.4c1.727-.567,3.53-1.2,5.426-1.694,1.912-3.66,3.589-5.913,6.473-5.153,1.647-.848,3.287-1.52,5.017-2.245.428-.269.863-.543,1.206-.758a10.235,10.235,0,0,1,1.289-1.73c.951-.05,1.815-.047,2.854-.147a11.672,11.672,0,0,0-.461-4.128,41.253,41.253,0,0,0,4.153-1.7c4.02-2.98,8.125-6.025,12.23-9.067,1.226-1.106.746-3.728,2.066-4.892l.876-.53,3.733.524,5.913-3.446a44.594,44.594,0,0,1,3.473-2.916l1.676-.978Q336.385,105,352.843,96.841c4.276,2.122,2.272-.332,2.6-1.391,2.737-.956,5.6-1.9,8.453-2.829C365.087,91.834,366.293,90.868,367.489,90.086Z" fill="#df837a"/>
        </g>
        <g id="Group_379" data-name="Group 379">
          <path id="Path_449" data-name="Path 449" d="M365.5,112.125c-.626.515-1.091,1.113-1.808,1.672a6.532,6.532,0,0,1-2.567-4.448l3.01-1.607C364.568,109.1,365.076,110.594,365.5,112.125Z" fill="#eec4bb"/>
        </g>
        <g id="Group_380" data-name="Group 380">
          <path id="Path_450" data-name="Path 450" d="M405.451,124.447a7.6,7.6,0,0,1-2.278,3.531c-.876.417-1.658.8-2.521,1.249l-1.645.834c.051.492.191.947.318,1.579-1.031-.867-2.066-1.739-3.02-2.652l-1.05,2.105c-.71-.7-1.509-1.486-2.222-2.185-1.679-.017-2.668,2.406-.687,4.536-.23,1.546-.443,2.983-.672,4.527l-4.147,2.1c-1.712-2.8-3.647-.717-3.253,1.715-1.446.59-2.971,1.044-4.494,1.5a18.352,18.352,0,0,1-2.092,1.991c-.884-.936-1.772-1.879-2.744-2.766-1.215,3.294-5.2,1.511-7.382,3.93l-5.585-1.171c-1.049,1.474,2.471,4.855-.539,4.565l-3.151-1.625a28.542,28.542,0,0,1-.918,3c.237.758.558,1.468.8,2.227a8.249,8.249,0,0,0-.444,1.131c-1.494-.945-2.9-1.942-4.407-2.71.113-1.487.059-2.88.093-4.319-2.743-1.676-4.362-1.673-3.621-.656.392,1.381-.789,1.145-1.305,1.613-.6.324-1.544,1.229-2.362-.272l-2.041,1.178c-2.975,2.264-8.144,3.1-9.022,6.842-5.274-1.487-7.772,6.048-12.08,5.552.018,3.069-4.117,3.57-5.272,6.622-1.323,2.428-3.982-.663-5.315.534-1.9-2.11-2.576,1.988-3.978,3.413-1.253.606-2.6,1.079-4.023,1.61-1.584,3.573-8.209-1.3-7.519,4.005-1.5.611-3,1.216-4.41,1.949-1.281,1.954-1.094,4.245-4.339,3.762-.561,3.711-3.02,4.7-5.465,5.733-2.422,1.055-4.843,2.135-5.3,5.92-1.251.291-.677,2.719-2.819.977-2.273,1.732-4.455,3.578-6.542,5.384,1.173,2.215.1,3.548-3.013,3.839-4.821-.98-1,4.694-3.666,6.192-.711,3.561-5.652,1.846-4.978,8.117,1.461.282,2.734.486,4.207.792l.8-.563c-.728-2.526,1.67-3.267,4.758-.686a24.648,24.648,0,0,0-2.227,2.521c-.638,1.4-1.449,2.719-2.062,4.14l-.864-1.1a40.136,40.136,0,0,0-3.855,1.849l.867,1.1-1.175.86a17.7,17.7,0,0,1-1.715,2.213l-.782.573-3.858,1.085a22.569,22.569,0,0,0,1.065,2.877c-.236.173-.468.344-.783.573-2.6,1.094-5.1,2.478-7.657,3.8.063.539.126,1.071.212,1.792a10.114,10.114,0,0,0-1.964.51l-1.382-1.678c-1.155-.488-2.294-.8-3.461-1.286-.2-1.014-.5-2.147-.783-3.1,1.266-2.917.878-7.9,2.566-10.349,2.621,1.519,2.647-.792,5.182-1.877l-.974-1.216c1.694-1.817,3.47-3.695,5.071-5.638,2.027-.134-.3-2.29-.239-3.486l1.912-1.4a73.931,73.931,0,0,0,2.212-7.136,70.521,70.521,0,0,0,12.26-9.43c3.637-3.343,6.968-6.963,10.546-10.9,2.045-1.748,4.462,1.438,5.526-3.7.821-.723,1.641-1.625,2.461-2.353,4.32-.776,5.772-2.838,8.519-2.033,1.608-2.353-.659-4.214.179-4.574.584-.38,1.079-.7,1.662-1.085,3.058-.293,2.5-2.134,3.167-2.92,3.241-.02,2.345-1.846,3.2-2.011l.42-.264,4.875-3.063,1.176-.738c1.613-.095,3.3-.242,4.83-.458,1.524-1.1,3.049-2.385,4.575-3.486l2.038-1.231.339.519c5.179-1.119,9.892-6.193,14.269-6.691,1.05-2.947,4.62-3.04,6.167-4.469,2.089,2.023,2.627-.452,4.48.1.939-.357,1.868-.537,2.8-.9,3.073-1.011,5.723-4.61,9.474-2.6.81-1.693,1.7-3.258,2.6-4.817.579.387,1.235.908,1.981,1.385l2.06-1.146c.564.756.938,2.332,1.861,2.352,1.892-1.418,1.882-2.961,1.838-6.12,1.187.077,2.291.015,3.308.006.539-.638,1.152-1.142,1.686-1.781-.06-1.052-.126-2.192-.186-3.247,1.568.932,3.139,1.681,4.7,2.61.725-1.091,1.446-2,2.168-2.914a26.483,26.483,0,0,0,2.56-2.239l.789-.4,3.415-1.744,2.809,1.189c1.943-1.333,2.831-4.58,6.285-3.2,2-.831,4.143-1.607,6.233-2.269,1.571-.591,3.715,1.3,5.559,1.441C404.486,122.668,404.934,123.491,405.451,124.447Z" fill="#eab2a8"/>
        </g>
        <g id="Group_381" data-name="Group 381">
          <path id="Path_451" data-name="Path 451" d="M369.7,124.171a17.56,17.56,0,0,1-2.488.438c-1.87-.062-.789,2.185-.527,3.8a19.752,19.752,0,0,0-2.836.63c-.134,1.132-.1,2.349-.237,3.477l1.106,1.871c.043,3.159.054,4.7-1.838,6.12-.923-.02-1.3-1.6-1.861-2.352l-2.06,1.146c-.746-.477-1.4-1-1.981-1.385-.9,1.559-1.789,3.124-2.6,4.817-3.751-2.008-6.4,1.591-9.474,2.6-.935.36-1.863.54-2.8.9-1.853-.548-2.392,1.927-4.48-.1-1.547,1.429-5.116,1.522-6.167,4.469-4.377.5-9.09,5.572-14.269,6.691l-.339-.519-2.038,1.231c-1.526,1.1-3.05,2.383-4.575,3.486-1.526.216-3.217.363-4.83.458l-1.176.738-4.875,3.063-.42.264c-.854.165.042,1.991-3.2,2.011-.665.786-.11,2.628-3.167,2.92-.584.381-1.079.705-1.662,1.085-.837.36,1.43,2.221-.179,4.574-2.747-.8-4.2,1.258-8.519,2.033-.819.728-1.64,1.63-2.461,2.353-1.064,5.14-3.481,1.954-5.526,3.7-3.579,3.935-6.909,7.554-10.546,10.9a70.521,70.521,0,0,1-12.26,9.43,73.931,73.931,0,0,1-2.212,7.136l-1.912,1.4c-.063,1.2,2.266,3.352.239,3.486-1.6,1.943-3.377,3.821-5.071,5.638l.974,1.216c-2.536,1.085-2.561,3.4-5.182,1.877-1.688,2.449-1.3,7.431-2.566,10.349.282.957.581,2.09.783,3.1,1.167.489,2.306.8,3.461,1.286l1.382,1.678a22.9,22.9,0,0,0-1.746,2.307c.525,1.552,1.777,4.115-.167,4.805a39.942,39.942,0,0,0-3.811,1.927l-.764.593c-.807.243-1.518.6-2.326.845-1.482,2.751-1.789,5.962-4.5,8.285-1.761,1.8-3.661,3.444-5.324,5.21l-.375.3-1.436-1.645a20.244,20.244,0,0,1,1.17-2.932c-.51-.587.329-1.84-1.175-2.836-2.249,2.74-6.218-.773-7.4,2.174-.426.551-.674,1.153-1.1,1.7l-6.105.167,3.849-4.952c2.624-3.385,6.059-7.071,10.754-7.6,2.324-1.037-.573-4.892,1.274-5.749.659-3.467,1.281-7,2.84-9.909-.486-1.2-.888-2.449-1.3-3.713a27.155,27.155,0,0,0,2.189-2.631l.318-.236,5.439.548-2.153-4.814c-1.2-.059-2.485-.062-3.768-.062l-1.385-1.684a3.279,3.279,0,0,0-.1-.9l3.409-2.593c1.067-.42,2.116-1.023,3.184-1.444a11.922,11.922,0,0,1-.975-2l2.329-1.711a44.567,44.567,0,0,1,2.885-4.047c.723-3.417,2.38-6.178,8.3-8.009,1.176-.276,1.4-1.939,2.362-1.676.858-1.174,1.712-2.356,2.656-3.587,1.4-.8,2.894-1.477,4.392-2.147,1.892-2.295,3.723-4.511,5.618-6.809.849-.2,1.605-.522,2.45-.725,1.539-.105.83-2.066,1.472-2.877,2.771-2.134,5.547-4.272,8.4-6.466,1.859-2.035,3.868-3.867,5.853-5.74-.182-.252-.27-.375-.455-.633l.84-.545c1.028-.113,2.134-.285,3.334-.324,1.409-1.3,3.789-1.735,4.323-3.756l1.731.729,1.425-3.72c.855-.173,1.622-.471,2.473-.644.152-1.011-.393-2.508.461-2.86.942-.039,1.8-.03,2.825-.125.942-.221,1.182-1.112,1.595-1.921a46.678,46.678,0,0,0,4.509-1.915l2.372-1.486-.785-1.166a20.905,20.905,0,0,1,2.029-2.183c.084.126.26.389.432.645a18.776,18.776,0,0,1,2.057-2.15l2.485-1.505c.858-1.249,4.026-.974,4.035-4.253l4.188.2c.267-1.8,2.65-1.61,2.839-3.534l3.244,1.535c.185-1.007.371-1.828.47-2.788a44.23,44.23,0,0,1,4.225-1.552l-.417-.659c.779-.453,1.643-.954,2.423-1.406l4.15-2.41c.251.4.5.8.743,1.195-.684,3.989-2.572,5.083-4.9,6.436l.746,1.18c4.863-.3,6.8-3.935,9.5-2.8,3.766-1.268,9.724-3.464,12.068-7.632l3.17,1.621c.275-.5.536-.834.815-1.339,1.02-.218,1.879-.516,2.9-.725l-1.512-2.544c.091-1.985.192-4.154.284-6.142-.834-.4-1.6-.771-2.431-1.171.485-1.141-1.67-2.812-.185-3.252a31.565,31.565,0,0,1,3.224.746c.12.992.41,2.071.624,3.021,1,.524,2.164,1.133,3.164,1.657,2.435-.942,4.513-3.114,9.181-1.367C370.38,122.774,370.062,123.423,369.7,124.171Z" fill="#e7a298"/>
        </g>
        <g id="Group_382" data-name="Group 382">
          <path id="Path_452" data-name="Path 452" d="M369.711,132.616c-.534.639-1.148,1.144-1.686,1.781-1.017.009-2.122.071-3.308-.006l-1.106-1.871c.134-1.129.1-2.346.237-3.477a19.752,19.752,0,0,1,2.836-.63,29.18,29.18,0,0,1,2.842.956C369.585,130.424,369.651,131.564,369.711,132.616Z" fill="#eec4bb"/>
        </g>
        <g id="Group_383" data-name="Group 383">
          <path id="Path_453" data-name="Path 453" d="M219.593,183.915a9.989,9.989,0,0,0-1.086,1.763c-1.759.912-3.606,1.885-5.274,2.916-.485-.608-.971-1.216-1.361-1.7-1.158.854-2.4,1.769-3.559,2.625a6.771,6.771,0,0,0-1.793-.588c-1.05-2.937,1.3-4.639,3.894-3.857l-.947-2.008c2.1-1.346,4.281-2.569,6.465-3.8,1.592-.971,3.191-1.766,4.779-2.742,1.044,1.166,2.164,2.27,3.191,3.255C222.442,181.242,220.973,182.519,219.593,183.915Z" fill="#eec4bb"/>
        </g>
        <g id="Group_384" data-name="Group 384">
          <path id="Path_454" data-name="Path 454" d="M211.853,272.181c5.058,4.5-5.2,4.043,2.332,9.529l2.873,2.472,1.981,2.2c-.75.594-1.4,1.159-2.126,1.775.5.987.939,1.867,1.434,2.856-.317,1.492-.63,2.982-.837,4.582a17.446,17.446,0,0,1-5.54-4.076,18.006,18.006,0,0,1,.7-2.635c-1.3-1.136-2.7-2.391-3.933-3.6l-.42-.459-2.516-2.76c-.812.686-1.7,1.435-2.51,2.12-.6-.51-1.272-.96-1.874-1.469-1.664-1.241-3.146-2.422-4.74-3.725a46.234,46.234,0,0,1,3.044-3.6l.368-.318,2.515,2.763a14.425,14.425,0,0,1,2.087.278c.228-1.622.564-3.13.8-4.753-1.755-1.369-3.44-2.8-5.227-4.341-.107-.119-.314-.348-.522-.578-.759-.987-1.446-2.039-2.126-3.09-.8-.147-1.694-.408-2.587-.665-1.119-1.092-2.21-2-3.328-3.093-.107-.119-.314-.347-.522-.576.365-.923.8-1.916,1.185-2.824,1.277-1.246,3.991.749,5.648,2.008l2.491,2.782c.668.453,1.265.971,1.936,1.429.45,1.237.9,2.475,1.43,3.648l2.279,1.957c.234.405.393.876.734,1.4C208.542,271.672,210.1,271.809,211.853,272.181Z" fill="#e29288"/>
        </g>
        <g id="Group_385" data-name="Group 385">
          <path id="Path_455" data-name="Path 455" d="M222.6,292.312l-4.251-1.3c-.5-.989-.938-1.868-1.434-2.856.731-.617,1.376-1.181,2.126-1.775.95.627,1.795,1.139,2.821,1.711A33.89,33.89,0,0,0,222.6,292.312Z" fill="#eec4bb"/>
        </g>
        <g id="Group_386" data-name="Group 386">
          <path id="Path_456" data-name="Path 456" d="M184.439,274.693c2.144,1.441,4.288,2.883,6.5,4.262q.484.522.953,1.029a19.334,19.334,0,0,0,1.218,2.03c2.189,2.216,4.558,4.485,6.933,6.759,2.027,1.333,4.842,2.818,3.6,3.875l-1.1.93-3.073-3.3c-3.14-1.826-6.773-2-7.241-6.5-4.357-1.4-9.415-5.057-8.54-8.452-1.529-2.365-2.951-4.624-4.554-6.935l1.133-.965a15,15,0,0,1,1.737.566C182.8,270.167,183.527,272.407,184.439,274.693Z" fill="#eec4bb"/>
        </g>
        <g id="Group_387" data-name="Group 387">
          <path id="Path_457" data-name="Path 457" d="M416.536,122.353c-1.373-1.762-2.065-5.578-5.6-5.585,1.256-.957,2.59-1.777,3.847-2.736,2.285.992,5.417,5.524,3.841,7.3Z" fill="#f3d7d0"/>
        </g>
        <g id="Group_388" data-name="Group 388">
          <path id="Path_458" data-name="Path 458" d="M401.364,86.5c.438,1.505.875,3.012,1.274,4.382-2.179,6.585-3.666-2.024-5.873,1.3l-2.159,1.058-3.715-.782,4.125-3.575,4.978-5Z" fill="#f3d7d0"/>
        </g>
        <g id="Group_389" data-name="Group 389">
          <path id="Path_459" data-name="Path 459" d="M386.561,94.57c.072,3.076,3.951,7.068-.069,6.781-1.933-.611-2.884-2.559-4.335-3.744C383.613,96.5,385.175,95.6,386.561,94.57Z" fill="#f3d7d0"/>
        </g>
        <g id="Group_390" data-name="Group 390">
          <path id="Path_460" data-name="Path 460" d="M405.232,140.333c-.681.348-1.365.695-2.807-.321l-2.486,1.261a18.075,18.075,0,0,1-2.1,1.94,18.668,18.668,0,0,0-1.5-1.681c-.152-.27-.306-.543-.386-.683l2.921-1.478a24.292,24.292,0,0,1,.575-2.734,12.189,12.189,0,0,0,1.538.789,23.1,23.1,0,0,0,2.461-2.117l.8.464C404.575,137.349,404.823,138.795,405.232,140.333Z" fill="#f3d7d0"/>
        </g>
        <g id="Group_391" data-name="Group 391">
          <path id="Path_461" data-name="Path 461" d="M387.616,112.47c-1.53,3.569-3.431,4.191-5.029,2.562C384.169,111.78,385.452,110.6,387.616,112.47Z" fill="#f3d7d0"/>
        </g>
        <g id="Group_392" data-name="Group 392">
          <path id="Path_462" data-name="Path 462" d="M363.9,92.621c-2.858.932-5.717,1.873-8.453,2.829l-1.671-.864a15.015,15.015,0,0,0-.932,2.255Q336.4,105,320.3,113.921c-.546-1.475-1.046-2.82-1.592-4.295,3.418-1.3,7.138-1.883,8.168-5.5,3.759-.317,4.168-5.185,7.471-6.675.821.974,1.25,2.694,2.365,2.959,3.253-1.3,1.978-9.552,7.4-5.775,1.04-1.264,1.916-2.614,2.882-4.013a33.612,33.612,0,0,1,3.762-.249,13.544,13.544,0,0,1,1.6.728c1.148-.258,2.216-.651,3.362-.911,1.7-.722,2.194-5.675,5.2-1.8.432-1.1.794-2.334,1.87-2.712.708,2.089,2.63,1.973,4.695,4.415C366.293,90.868,365.087,91.834,363.9,92.621Z" fill="#f3d7d0"/>
        </g>
        <g id="Group_393" data-name="Group 393">
          <path id="Path_463" data-name="Path 463" d="M377.891,151.16l-2.471,1.31-1.19-2.006,2.477-1.313Z" fill="#f3d7d0"/>
        </g>
        <g id="Group_394" data-name="Group 394">
          <path id="Path_464" data-name="Path 464" d="M369.386,156.643c-.218,2.439-.821,3.657-2.443,1.354Z" fill="#f3d7d0"/>
        </g>
        <g id="Group_395" data-name="Group 395">
          <path id="Path_465" data-name="Path 465" d="M359.222,159.6c-2.968,6.766-8.635,6.382-12.85,9.135-3.882,5.047-11.7,8.722-17.531,11.31-1.188-.918-1.667.281-2.42.549a3.215,3.215,0,0,0,.02.9c-3.61,3.376-7.73,5.594-11.669,7.975a42.6,42.6,0,0,0-5.618,3.923,22.73,22.73,0,0,0-4.582,5.384c-1.452-.717-2.138.654-3.118,1.111-1.208,4.125-6.764,5.477-9.981,8.45.626,3.142-3.9,3.009-4.464,5.65-2.261,1.159-3.536,3.322-4.963,5.288-1.41,1.99-2.987,3.762-5.927,4.116-.077-.894-1.2-3.156-.443-5.2-.939-1.24-1.789-2.359-2.732-3.6,1.883-1.7,3.769-3.231,5.688-4.885.639.692,1.454,1.457,2.173,2.1.162-1.24.317-2.661.567-3.953,2.083-1.6,4.071-3.318,6.056-5.044,1.58-.312,3.72-.825,3.043-3.75a19.772,19.772,0,0,1,2.824-.909,46.388,46.388,0,0,1,3.458-3.184,38.785,38.785,0,0,1,3.055-2.916l.411-.266c.63-.965,1.254-1.934,1.877-3.084.809-.711,1.53-1.547,2.335-2.266a24.555,24.555,0,0,1,2.369-2.4,24.962,24.962,0,0,1,3.17-1.068L317.9,178c.825-.518,1.649-1.034,2.393-1.5l2.414-1.462,1.584-.957c1.268.326,2-1.384,3.2.611,1.581-1.128,3.838-1.577,4.393-4.454,2.2,1.4,4.4.935,6.354-.149a27.529,27.529,0,0,0,4.864-3.768c4.375-2.512,8.039-3.406,12.923-6.544Z" fill="#f3d7d0"/>
        </g>
        <g id="Group_396" data-name="Group 396">
          <path id="Path_466" data-name="Path 466" d="M315.15,117.815l-5.913,3.446-3.733-.524c-1.307-3.738,3.109-2.353,2.152-5.573-.02-2.325,3.262-1.183,5.088-1.165l3.011-1.754c.4,1.029,1.356,1.01,2.869,2.655A44.594,44.594,0,0,0,315.15,117.815Z" fill="#f3d7d0"/>
        </g>
        <g id="Group_397" data-name="Group 397">
          <path id="Path_467" data-name="Path 467" d="M290.331,135.226a41.253,41.253,0,0,1-4.153,1.7l-2.078-.344c-1.289,2.473,1.065,4.113-.315,4.619a10.235,10.235,0,0,0-1.289,1.73c-.344.215-.779.489-1.206.758-1.73.725-3.37,1.4-5.017,2.245-2.884-.759-4.561,1.493-6.473,5.153-1.9.5-3.7,1.127-5.426,1.694a33.463,33.463,0,0,1-1.209,3.4c-1.7.947-3.527,1.732-5.3,2.766l-4.806,3.277a22.3,22.3,0,0,0-2.944.129c-.848.575-1.61,1.092-2.455,1.667a3.136,3.136,0,0,0,.04.917l-2.45,1.673c-1.692-.734-3.374-1.277-5.068-2-1.4.189-.494,2.249-1.969,2.332l-3.265,2.311-2.347,1.664a29.52,29.52,0,0,0,1.371,2.644l-1.25.89c-1.454.462-2.912.915-4.546,1.316-1.31,1.321-2.564,2.551-3.946,3.776l-.33.242c-1.028-.984-2.147-2.089-3.191-3.255.368-1.038.711-2.272,1.079-3.479a4.251,4.251,0,0,1,2.833-1.058,33.813,33.813,0,0,1,1.912-3.258c-.007-1.709,1.823-1.864,2.728-2.889.84-.6,1.68-1.192,2.44-1.73,3.732-1.909,7.4-3.875,11.1-5.809a8.55,8.55,0,0,1,.387-1.208c1.641-.555,3.274-1.107,5.005-1.534l1.614-1.1c3.406.312,4.344-.135,4.471-1.358.587-.591,1.094-1.291,1.688-1.87,2.44-.3-1.479-3.121.252-3.885,1.151.546,2.3.911,3.44,1.456,1.295-.843,5.586.432,3.332-3.112a4.136,4.136,0,0,0,4.125-2.706c2.081-.251,1.976-.927,2.8-3.7,2.482,3.028,2.909,2.574,2.53-.683,4.543.071,7.48-2.881,9.559-5.117,1.478-.377,3.91-.62,2.953-2.776,3.2-2.419,5.948-2.916,8.414-6.072-3.112-2.667,1.088-3.027,2.129-2.928,3.96,2.869,5.092-2.913,9.129-.443-1.32,1.165-.84,3.786-2.066,4.892C298.456,129.2,294.351,132.246,290.331,135.226Z" fill="#f3d7d0"/>
        </g>
        <g id="Group_398" data-name="Group 398">
          <path id="Path_468" data-name="Path 468" d="M273.894,225.714c-.537,2.469-2.812,5.012-5.289,3.711C268.04,226.972,270.391,226.841,273.894,225.714Z" fill="#f3d7d0"/>
        </g>
        <g id="Group_399" data-name="Group 399">
          <path id="Path_469" data-name="Path 469" d="M264.259,234.493c.063,2.258-2.105,3.849-3.562,3.561C259.261,236.408,260.629,235.02,264.259,234.493Z" fill="#f3d7d0"/>
        </g>
        <g id="Group_400" data-name="Group 400">
          <path id="Path_470" data-name="Path 470" d="M259.142,239.187c-.12,2.781-1.2,3.569-2.857,3.816-1.017.729-1.946,1.418-2.933,2.182-.081-.708-1.286-2.967,2.053-3.273Z" fill="#f3d7d0"/>
        </g>
        <g id="Group_401" data-name="Group 401">
          <path id="Path_471" data-name="Path 471" d="M250.434,247.388c-.053,2.97-1.119,3.776-2.689,3.99a36.14,36.14,0,0,0-2,3.458c-.779,1.162-1.613,2.4-2.395,3.567-2.3,1.582-1.308,4.981-4.272,7.1a33.474,33.474,0,0,1-2.224,3.719c-.8.83-2.312.24-3.494.774-.4-.89-.854-1.886-1.254-2.775l2.188-1.72a38.686,38.686,0,0,1,3.877-1.064c-.4-1.067-.785-1.958-1.16-2.845.9-.12,2.54-.411,1.182-2.91l.681-.536c1.137-.294,3.161-.711,1.963-3.492l.693-.522c1.167-.1,2.233-.327,3.221-.489,1.1-1.228-.47-2.376,2-3.465Z" fill="#f3d7d0"/>
        </g>
        <g id="Group_402" data-name="Group 402">
          <path id="Path_472" data-name="Path 472" d="M228.262,276.064c3.8,4.329-.561,4.263-1.97,5.41.78,3.177-2.914,4.175-.392,7.133-.942,1.367-1.772.438-4.041-.516-1.026-.572-1.871-1.083-2.821-1.711,1.136-1.733,2.174-3.579,3.14-5.368l1.116-.9.368-.3c.09-.474.359-.893.522-1.43C225.582,277.645,226.87,276.794,228.262,276.064Z" fill="#f3d7d0"/>
        </g>
        <g id="Group_403" data-name="Group 403">
          <path id="Path_473" data-name="Path 473" d="M222.6,292.312c1.367,1.085,3.083,2.284,2.507,2.77a9.084,9.084,0,0,1,1.484,4.442c-2.2-.179-4.581-2.239-8.557-3.36l2.291,3.762c-3.655-3.428-4.909,1.088-6.951-.842l-1.059-1.147c-1.921-.821-4.245-1.5-5.606-1.982-1.056-1.14-2.114-2.279-3.067-3.307,1.244-1.056-1.571-2.542-3.6-3.875-2.375-2.273-4.744-4.543-6.933-6.759a19.334,19.334,0,0,1-1.218-2.03l4.788-.992c1.593,1.3,3.076,2.484,4.74,3.725.6.509,1.277.959,1.874,1.469,1.32.743,2.735,1.54,4.053,2.28l4.626,5.051a17.446,17.446,0,0,0,5.54,4.076c.207-1.6.521-3.09.837-4.582Z" fill="#f3d7d0"/>
        </g>
        <g id="Group_404" data-name="Group 404">
          <path id="Path_474" data-name="Path 474" d="M171.336,256.44c1.1,1.927,1.562,3.169.558,3.411-2.407.2-3.969-1.325-5.478-3.1-.216-1.862,1.731-2.289,3.341-2.024Z" fill="#f3d7d0"/>
        </g>
        <g id="Group_405" data-name="Group 405">
          <path id="Path_475" data-name="Path 475" d="M390.081,92.847c0,1.906-2.245,3.864-3.52,1.723.651-1.534-2.27-4.609.021-5.035C387.775,90.686,388.966,91.834,390.081,92.847Z" fill="#eab2a8"/>
        </g>
        <g id="Group_406" data-name="Group 406">
          <path id="Path_476" data-name="Path 476" d="M379.636,98.025c.785,2.044-.918,1.862-1.766,1.78-1.571.276-3.322.644-5.056.836-1.263-3.9,1.247-5,3.386-5.925C377.4,95.847,378.606,96.982,379.636,98.025Z" fill="#eab2a8"/>
        </g>
        <g id="Group_407" data-name="Group 407">
          <path id="Path_477" data-name="Path 477" d="M235.586,251.239a39.942,39.942,0,0,1,3.811-1.927c1.943-.69.692-3.253.167-4.805.525,1.552,1.777,4.115-.167,4.805A39.942,39.942,0,0,0,235.586,251.239Z" fill="#eab2a8"/>
        </g>
        <g id="Group_408" data-name="Group 408">
          <path id="Path_478" data-name="Path 478" d="M236.226,253.5c-.633.9-2.3,1.019-.569,4.407-.17.7-.363,1.5-.533,2.2-.63.894-1.361,1.666-2,2.553a19.487,19.487,0,0,1-3.206.548c.155,1.655-1.565,2.02-1.43,4.085l-2.486,1.973a7.848,7.848,0,0,0-3.712-2.788l.375-.3c1.662-1.766,3.562-3.409,5.324-5.21,2.714-2.323,3.02-5.534,4.5-8.285.807-.242,1.518-.6,2.326-.845C235.327,252.432,235.827,253.025,236.226,253.5Z" fill="#eab2a8"/>
        </g>
        <g id="Group_409" data-name="Group 409">
          <path id="Path_479" data-name="Path 479" d="M219.039,286.38l-1.981-2.2,1.368-3.924c.35-1.481,2.123.075,3.753.755C221.213,282.8,220.175,284.647,219.039,286.38Z" fill="#eab2a8"/>
        </g>
        <g id="Group_410" data-name="Group 410">
          <path id="Path_480" data-name="Path 480" d="M410.871,76.4c.632,5.027-3.661,4.115-5.679,5.911-.878-1.477-1.918-3.054-2.888-4.491Z" fill="#e29288"/>
        </g>
        <g id="Group_411" data-name="Group 411">
          <path id="Path_481" data-name="Path 481" d="M355.447,95.449c-.332,1.059,1.673,3.513-2.6,1.391a15.015,15.015,0,0,1,.932-2.255Z" fill="#e29288"/>
        </g>
        <g id="Group_412" data-name="Group 412">
          <path id="Path_482" data-name="Path 482" d="M357.165,122.392c-.092,1.988-.192,4.157-.284,6.142l1.512,2.544c-1.023.209-1.882.507-2.9.725-.279.5-.54.834-.815,1.339l-3.17-1.621c-2.344,4.169-8.3,6.364-12.068,7.632-2.695-1.131-4.633,2.5-9.5,2.8l-.746-1.18c2.326-1.354,4.213-2.448,4.9-6.436-.248-.4-.492-.794-.743-1.195l-4.15,2.41c-.78.452-1.644.953-2.423,1.406l.417.659a44.23,44.23,0,0,0-4.225,1.552c-.1.96-.285,1.781-.47,2.788l-3.244-1.535c-.189,1.924-2.572,1.736-2.839,3.534l-4.188-.2a7.569,7.569,0,0,0-.335-1.433c3.76.273.461-5.555,4.123-2.491l2.062-1.243c1.211-.528,2.507-.921,3.634-1.39.792-1.181,1.5-2.491,2.213-3.809a32.475,32.475,0,0,1,3.7-.341,16.35,16.35,0,0,1,.9-2.331,36.121,36.121,0,0,0,3.586.44c.2-1.187,1.308-1.5,4.641-.87-.029.908-.061,1.8-.161,2.589,3.66.608,2.378-2.222,3.419-2.629,1.413-1.137,3.652-1.49,4.224-3.237l7.159-3.986c1.131-.633,2.182-1.208,3.332-1.813C355.562,121.621,356.33,121.992,357.165,122.392Z" fill="#e29288"/>
        </g>
        <g id="Group_413" data-name="Group 413">
          <path id="Path_483" data-name="Path 483" d="M305.711,149.523a18.776,18.776,0,0,0-2.057,2.15c-.173-.257-.348-.519-.432-.645a20.905,20.905,0,0,0-2.029,2.183l.785,1.166-2.372,1.486a46.678,46.678,0,0,1-4.509,1.915c-.413.809-.653,1.7-1.595,1.921-1.026.095-1.883.086-2.825.125.819-1.982-.245-3.888,2.656-5.344,1.707-.707,3.328-1.355,4.945-2.189l.42-.269c.936-1.124,1.94-2.328,2.878-3.452.947-.392,1.9-.6,2.839-.993l3.781.441Z" fill="#e29288"/>
        </g>
        <g id="Group_414" data-name="Group 414">
          <path id="Path_484" data-name="Path 484" d="M286.178,136.922a11.672,11.672,0,0,1,.461,4.128c-1.038.1-1.9.1-2.854.147,1.38-.506-.974-2.146.315-4.619Z" fill="#e29288"/>
        </g>
        <g id="Group_415" data-name="Group 415">
          <path id="Path_485" data-name="Path 485" d="M276.544,171.576c-1.985,1.873-3.994,3.705-5.853,5.74-2.851,2.194-5.627,4.332-8.4,6.466-.642.81.068,2.772-1.472,2.877-.845.2-1.6.527-2.45.725-1.9,2.3-3.726,4.514-5.618,6.809-1.5.671-2.992,1.351-4.392,2.147l2.5-4.625c2.453-1.726,1.665-4.436,6.2-6.07.869-1.349,1.752-2.506,2.635-3.677,1.268-1.988,2.422-2.962,3.523-5.026,1.668-.951,3.43-1.772,5.274-2.649.308-2.482,3.334-2.242,4.7-2.388a25,25,0,0,0,2.887-.963C276.274,171.2,276.363,171.324,276.544,171.576Z" fill="#e29288"/>
        </g>
        <g id="Group_416" data-name="Group 416">
          <path id="Path_486" data-name="Path 486" d="M244.061,169.108c-.347.05-.785-.03-1.136.018-.272,1.34-.458,2.616-.636,4.076l-.83.59a26.758,26.758,0,0,0-7.486-.234,29.52,29.52,0,0,1-1.371-2.644l2.347-1.664,3.265-2.311c1.475-.083.57-2.143,1.969-2.332,1.694.723,3.376,1.267,5.068,2Z" fill="#e29288"/>
        </g>
        <g id="Group_417" data-name="Group 417">
          <path id="Path_487" data-name="Path 487" d="M240.363,182.758l-.828.591-.477-.624c-2.54.854-1.544,2.812-3.353,4.281-.662.468-1.544,1.477-2.609-.057-2.38.743-1.776,2.838-1.706,4.9-4.291,1.42-6.207,5.527-9.793,7.194-3.5,1.8,1.877,6.529,3.783,9.376-.669,1.252-2.794-.425-4.108-.6-.668,1.1-1.256,2.122-1.84,3.159a24.354,24.354,0,0,1,.68,2.418c-.782.791-2.393,1.041-.363,3.99-.557.423-1.035.788-1.593,1.211l1.662,3.426a5.265,5.265,0,0,0-4.111,4.107c-.621.656-1.2,1.511-1.886,2.249-3.233-1.211-2.21,2.335-2.95,5.3l-.783.617-4.024-2.569c-1.109,1.469-2.137,2.88-3.143,4.467-.174,1.324-.273,2.584-.338,4.031a18.814,18.814,0,0,0-1.74,2.4l1.43,1.64a16.344,16.344,0,0,0-.437,2.37l-3.3,2.7c.6,2.328,1.118,4.711,1.831,7.145l-1.071.875c-2.816-2.719-3.17-2.224-3.555-1.912-.066,1.264,1.664,2.458,2.624,3.68.521,1.178.279,2.383-.35,1.089-1.656-1.259-4.371-3.253-5.648-2.008-.386.908-.821,1.9-1.185,2.824-2.3.114-2.9.623-3.509,1.137l-2.572,2.179c-1.049-1.146-2-2.18-3.044-3.328a17.065,17.065,0,0,0,.468-2.439c-2.455-2.4-4.92-4.8-7.406-7.382l-.524-.575,1.074-.912.384-.326c1.434-.815,2.869-1.628,4.2-2.554l.78-.636,2.179-1.787c.026-1.025-.7-2.443.108-2.9l1.476-1.219c1.22.009,2.41-.162,3.7-.213,1.218-1.205,3.361-1.958,3.916-4.224-1.152-.873-2.417-1.832-3.57-2.7-1.376.725-2.672,1.39-3.951,2.231-.473-2.221,1.916-3.178.2-4.987,1.206-1.391,2.323-2.73,3.646-3.99,1.728-2.956,2.122-6.235,4.606-10.386-2.753,2.572-4.4.5-5.945-.053a11.707,11.707,0,0,0-.618-2.293,29.588,29.588,0,0,1,3.341-.657c-1.214-1.426-2.323-2.728-3.431-4.032.441-.749.986-1.378,1.431-2.123a18.864,18.864,0,0,0,1.907,1.459c2.164-3.486,6.585.518,6.7-3.489l-.5-.6,3.1-2.361,2.206-3.443c-.629-1.088-1.257-2.177-1.967-3.2l5.475-4.185,5.358,3.354c.95,2.794-3.889,2.186-1.22,5.624l3.1.575c.711-.737,1.975-1.116,1.286-2.937,3.427-3.537,5.837-6.241,8.9-9.271l4.765-3.5c.755-.359,1.6-.6,2.354-.954,1.07-.95,2.128-2.078,3.2-3.027l3.263-.6.749-.53c.759-.345.162-1.634,3.3-1.379C239.457,179.4,240.186,180.027,240.363,182.758Z" fill="#db766d"/>
        </g>
        <g id="Group_418" data-name="Group 418">
          <path id="Path_488" data-name="Path 488" d="M235.186,179.177l-2.41,1.712c-1.07.948-2.128,2.077-3.2,3.027l-3.529-2.042c.4,1.031.767,1.958,1.175,3l-4.765,3.5c-1.376-.918-2.669-1.9-3.954-2.7a9.989,9.989,0,0,1,1.086-1.763c1.38-1.4,2.849-2.673,4.309-4.134l.33-.242c1.382-1.225,2.636-2.455,3.946-3.776,1.634-.4,3.092-.854,4.546-1.316Z" fill="#e29288"/>
        </g>
        <g id="Group_419" data-name="Group 419">
          <path id="Path_489" data-name="Path 489" d="M243.344,201.6c-5.916,1.831-7.573,4.592-8.3,8.009C235.772,206.2,237.428,203.434,243.344,201.6Z" fill="#e29288"/>
        </g>
        <g id="Group_420" data-name="Group 420">
          <path id="Path_490" data-name="Path 490" d="M209.18,200.006c-2.669-3.438,2.17-2.83,1.22-5.624l-5.358-3.354a14.55,14.55,0,0,1,1.478-2.1,6.771,6.771,0,0,1,1.793.588c.782.966,1.469,1.819,2.342,2.9,2.47-.848.477-3.821,2.578-3.822,1.668-1.031,3.515-2,5.274-2.916,1.284.8,2.578,1.777,3.954,2.7-3.062,3.03-5.472,5.734-8.9,9.271.689,1.82-.575,2.2-1.286,2.937Z" fill="#df837a"/>
        </g>
        <g id="Group_421" data-name="Group 421">
          <path id="Path_491" data-name="Path 491" d="M213.232,188.594c-2.1,0-.108,2.974-2.578,3.822-.873-1.082-1.56-1.934-2.342-2.9,1.158-.855,2.4-1.771,3.559-2.625C212.262,187.378,212.748,187.986,213.232,188.594Z" fill="#e29288"/>
        </g>
        <g id="Group_422" data-name="Group 422">
          <path id="Path_492" data-name="Path 492" d="M230.81,217.368c-1.068.42-2.117,1.023-3.184,1.444l-.885-1.088c.4-1.085-.144-2.235,3.094-2.353A11.922,11.922,0,0,0,230.81,217.368Z" fill="#e29288"/>
        </g>
        <g id="Group_423" data-name="Group 423">
          <path id="Path_493" data-name="Path 493" d="M231.618,228.864l-5.439-.548-.318.236a27.155,27.155,0,0,1-2.189,2.631c.564,1.14,1.128,2.279,1.611,3.479-1.515,2.5-.419,6.4-3.391,8.347,2.5,2.191-2.77,1.589.572,4.307-1.2,7.293-11.232,4.229-12.227,11.735-.732.8-2.383,1.145-2.167,2.569,1.868,1.082,2.876-.134,4.287,1.321l1.542,1.75c-.659,1.157-1.271,2.23-1.93,3.388a14.293,14.293,0,0,1-2.5-.77l-3.214-4.2c-.983-5.821-1.044-8.587.912-10.386.428-1.154.831-2.491,1.163-3.762a35.675,35.675,0,0,1-3.622.951c-.924-1.055-1.949-2.227-2.872-3.282a16.344,16.344,0,0,1,.437-2.37l2.242-1.807a19.869,19.869,0,0,1,2.776-1.193c1.26-2.185,1.655-4.472,3.3-6.373l-.5-.593.783-.617,4.449-3.518a20.96,20.96,0,0,1,1.779-2.367,10.642,10.642,0,0,1,2.009-.549,25.855,25.855,0,0,1,2.2-2.644,7.936,7.936,0,0,1,.3-1.205c.911-.3,1.8-.783,2.713-1.088l1.385,1.684c1.283,0,2.566,0,3.768.062Z" fill="#e29288"/>
        </g>
        <g id="Group_424" data-name="Group 424">
          <path id="Path_494" data-name="Path 494" d="M193.343,216.007c-2.485,4.151-2.878,7.43-4.606,10.386-1.323,1.261-2.44,2.6-3.646,3.99,1.716,1.808-.672,2.766-.2,4.987,1.278-.842,2.575-1.507,3.951-2.231,1.152.872,2.417,1.831,3.57,2.7-.555,2.266-2.7,3.019-3.916,4.224-1.293.051-2.483.222-3.7.213l-1.476,1.219c-.809.458-.083,1.876-.108,2.9l-2.179,1.787c-.726-1.235-1.52-2.583-2.315-3.936l-2.254,1.873-.309.261-1.458-1.618-3.023-3.352c-3.068-2.494-4.032-2.493-4.737-3.731a16.555,16.555,0,0,1,.435-2.418l3.678,1.8c1.656-1.36,3.8-2.314,3.049-5.315l-2.48-2.791,4.194-3.453c1.014-1.636,2.057-3.093,3.173-4.619.185-1.973,1.4-2.928,2.524-3.819.879-1.5,1.865-2.868,2.849-4.247l2.336-1.85c1.109,1.3,2.218,2.607,3.431,4.032a29.588,29.588,0,0,0-3.341.657,11.707,11.707,0,0,1,.618,2.293C188.946,216.506,190.589,218.579,193.343,216.007Z" fill="#df837a"/>
        </g>
        <g id="Group_425" data-name="Group 425">
          <path id="Path_495" data-name="Path 495" d="M171.614,226.96l2.48,2.791c.753,3-1.392,3.956-3.049,5.315l-3.678-1.8c.567-1.055,1.184-2.2,1.752-3.256C168.583,228.641,170.691,227.922,171.614,226.96Z" fill="#e29288"/>
        </g>
        <g id="Group_426" data-name="Group 426">
          <path id="Path_496" data-name="Path 496" d="M181.029,246.186l-.78.636c-1.331.926-2.765,1.739-4.2,2.554.006-1.64.012-3.283.1-4.993l.309-.261,2.254-1.873C179.509,243.6,180.3,244.951,181.029,246.186Z" fill="#e29288"/>
        </g>
        <g id="Group_427" data-name="Group 427">
          <path id="Path_497" data-name="Path 497" d="M171.669,239.414l3.023,3.352c-1.449.207-2.816.354-4.083.617a18.511,18.511,0,0,1-1.185-2.06c-.893-1.892-1.6-3.741-2.492-5.639C167.638,236.921,168.6,236.92,171.669,239.414Z" fill="#e29288"/>
        </g>
        <g id="Group_428" data-name="Group 428">
          <path id="Path_498" data-name="Path 498" d="M175.114,251.189c-1.7,2.467-1.6,5.242-3.778,5.251l-1.578-1.712c-.324-.945-.833-1.946-1.236-2.83,2.018-.491,4.062-.8,6.069-1.283Z" fill="#e29288"/>
        </g>
        <g id="Group_429" data-name="Group 429">
          <path id="Path_499" data-name="Path 499" d="M405.192,82.31c-.827,1.25-1.565,2.449-2.459,3.552l-1.368.633-1.37-2.62c.267-1.666.371-3.431.572-5.239l1.738-.818C403.274,79.256,404.314,80.833,405.192,82.31Z" fill="#e7a298"/>
        </g>
        <g id="Group_430" data-name="Group 430">
          <path id="Path_500" data-name="Path 500" d="M340.019,130.257c-1.041.407.24,3.237-3.419,2.629.1-.785.132-1.681.161-2.589A26.327,26.327,0,0,1,340.019,130.257Z" fill="#e7a298"/>
        </g>
        <g id="Group_431" data-name="Group 431">
          <path id="Path_501" data-name="Path 501" d="M219.447,268.792c-1.059,1.868-.855,4.718.33,7.356l3.518,3.96-1.116.9c-1.629-.68-3.4-2.236-3.753-.755l-1.368,3.924-2.873-2.472c-7.535-5.486,2.726-5.029-2.332-9.529-.494.608-.888,1.328-1.386,1.931-.971-1.81-2.468-1.592-3.588-2.691-.341-.524-.5-.995-.734-1.4l2.944-2.407.377-.306a14.293,14.293,0,0,0,2.5.77c3.828,3.294,4.417.606,5.7.161A7.209,7.209,0,0,0,219.447,268.792Z" fill="#e7a298"/>
        </g>
        <g id="Group_432" data-name="Group 432">
          <path id="Path_502" data-name="Path 502" d="M176.151,244.384c-.09,1.709-.1,3.352-.1,4.993l-.384.326c-1.661-2.077-3.4-4.245-5.055-6.319,1.266-.263,2.633-.41,4.083-.617Z" fill="#e7a298"/>
        </g>
        <g id="Group_433" data-name="Group 433">
          <path id="Path_503" data-name="Path 503" d="M208.318,284.825l.42.459c-.44.374-.954.809-1.394,1.181-1.317-.74-2.732-1.537-4.053-2.28.813-.686,1.7-1.435,2.51-2.12Z" fill="#e7a298"/>
        </g>
        <g id="Group_434" data-name="Group 434">
          <path id="Path_504" data-name="Path 504" d="M229.579,183.916c-.755.354-1.6.6-2.354.954-.408-1.038-.771-1.966-1.175-3Z" fill="#df837a"/>
        </g>
        <g id="Group_435" data-name="Group 435">
          <path id="Path_505" data-name="Path 505" d="M201.534,198.414l-2.206,3.443-3.1,2.361.5.6c-.114,4.007-4.536,0-6.7,3.489a18.864,18.864,0,0,1-1.907-1.459c1.595-3.046,2.137-5.287,4.41-6.256,2.374-1.816,4.665-3.567,7.035-5.378C200.276,196.237,200.9,197.326,201.534,198.414Z" fill="#df837a"/>
        </g>
        <g id="Group_436" data-name="Group 436">
          <path id="Path_506" data-name="Path 506" d="M209.2,219.745l-2.3,1.8c-1.155-.279-2.33-.737-3.407-1.074-5.191,1.526-3.331,7.584-8.677,7.854l-1.016-1.178c1.119-1.486,2.167-2.905,3.191-4.506,1.575-2.83,5.562-5.017,8.812-6.953Z" fill="#df837a"/>
        </g>
        <g id="Group_437" data-name="Group 437">
          <path id="Path_507" data-name="Path 507" d="M210.59,234.885c-1.647,1.9-2.042,4.188-3.3,6.373a19.869,19.869,0,0,0-2.776,1.193l-2.242,1.807-1.43-1.64a18.814,18.814,0,0,1,1.74-2.4c.065-1.447.164-2.707.338-4.031,1.007-1.588,2.035-3,3.143-4.467l4.024,2.569Z" fill="#df837a"/>
        </g>
        <g id="Group_438" data-name="Group 438">
          <path id="Path_508" data-name="Path 508" d="M208.327,248.958c.564,3.354-.041,3.848-1.163,3.762-1.957,1.8-1.9,4.565-.912,10.386l-3.816,1.31c-.671-.458-1.268-.975-1.936-1.429l-2.491-2.782c.629,1.294.87.089.35-1.089-.96-1.222-2.69-2.416-2.624-3.68.384-.312.738-.807,3.555,1.912l1.071-.875c-.713-2.434-1.235-4.817-1.831-7.145l3.3-2.7c.923,1.055,1.948,2.227,2.872,3.282A35.675,35.675,0,0,0,208.327,248.958Z" fill="#df837a"/>
        </g>
        <g id="Group_439" data-name="Group 439">
          <path id="Path_509" data-name="Path 509" d="M199.741,268.446l-.75.63c.363,1.978.738,4.026,1.1,6l-.368.318a46.234,46.234,0,0,0-3.044,3.6l-4.788.992q-.47-.506-.953-1.029c-2.21-1.379-4.354-2.821-6.5-4.262-.912-2.286-1.643-4.526-2.44-6.7a15,15,0,0,0-1.737-.566l-1.133.965c-2.935.046-4.546-3.282-6.675-5.138-.177-1.074-.383-2.326-.56-3.4,1-.242.537-1.484-.558-3.411,2.177-.009,2.08-2.784,3.778-5.251,2.486,2.578,4.951,4.982,7.406,7.382a17.065,17.065,0,0,1-.468,2.439c1.049,1.148,2,2.182,3.044,3.328l2.572-2.179c.6-.515,1.214-1.023,3.509-1.137.209.23.416.458.522.576,1.118,1.089,2.209,2,3.328,3.093.893.257,1.792.518,2.587.665C198.294,266.406,198.981,267.458,199.741,268.446Z" fill="#df837a"/>
        </g>
        <g id="Group_440" data-name="Group 440">
          <path id="Path_510" data-name="Path 510" d="M212.671,288.882a18.006,18.006,0,0,0-.7,2.635l-4.626-5.051c.44-.372.954-.807,1.394-1.181C209.967,286.491,211.375,287.746,212.671,288.882Z" fill="#df837a"/>
        </g>
        <g id="Group_441" data-name="Group 441">
          <path id="Path_511" data-name="Path 511" d="M259.111,159.795c-.434,2.177-.959,4.226-1.382,6.394l-.422.29a14.468,14.468,0,0,1-1.673-.743l-2.575-3.516,4.806-3.277A7.869,7.869,0,0,1,259.111,159.795Z" fill="#db766d"/>
        </g>
        <g id="Group_442" data-name="Group 442">
          <path id="Path_512" data-name="Path 512" d="M209.466,267.308l-.377.306-2.944,2.407-2.279-1.957c-.527-1.173-.98-2.412-1.43-3.648l3.816-1.31Z" fill="#db766d"/>
        </g>
        <g id="Group_443" data-name="Group 443">
          <path id="Path_513" data-name="Path 513" d="M205.43,277.489c-.3.251-.518.44-.738.629a14.425,14.425,0,0,0-2.087-.278l-2.515-2.763c-.362-1.975-.737-4.023-1.1-6l.75-.63c.209.23.416.459.522.578,1.787,1.541,3.472,2.973,5.227,4.341C205.475,274.8,205.366,276.12,205.43,277.489Z" fill="#db766d"/>
        </g>
        <g id="Group_444" data-name="Group 444">
          <path id="Path_514" data-name="Path 514" d="M222.295,266.475a28.056,28.056,0,0,1-.362,3.1c1.26,1.2,2.6,2.479,3.862,3.68l-2.531,2.056c-.08,1.067.824,1.945.921,3.064-.164.537-.432.956-.522,1.43l-.368.3-3.518-3.96c-1.185-2.638-1.389-5.488-.33-7.356a7.209,7.209,0,0,1-1.774-.554l-1.8,1.468c-.524,2.032-2.711,0-3.9-1.628.659-1.159,1.271-2.231,1.93-3.388l-1.542-1.75c.426-.551.674-1.153,1.1-1.7,1.179-2.947,5.148.566,7.4-2.174,1.5,1,.665,2.249,1.175,2.836a20.244,20.244,0,0,0-1.17,2.932Z" fill="#eab2a8"/>
        </g>
        <g id="Group_445" data-name="Group 445">
          <path id="Path_515" data-name="Path 515" d="M225.8,273.255l2.467,2.809c-1.392.729-2.68,1.58-4.077,2.311-.1-1.119-1-2-.921-3.064Z" fill="#eec4bb"/>
        </g>
        <g id="Group_446" data-name="Group 446">
          <path id="Path_516" data-name="Path 516" d="M366.943,158l-2.447,1.352C365.334,159.065,363.211,156.862,366.943,158Z" fill="#f3d7d0"/>
        </g>
        <g id="Group_447" data-name="Group 447">
          <path id="Path_517" data-name="Path 517" d="M233.365,269.993a5.724,5.724,0,0,1-5.1,6.072l-2.467-2.809a46.538,46.538,0,0,1,4.465-2.608C231.246,270.465,232.3,270.227,233.365,269.993Z" fill="#f3d7d0"/>
        </g>
        <g id="Group_448" data-name="Group 448">
          <path id="Path_518" data-name="Path 518" d="M236.466,239.237c-.141,3.042-.992,3.689-1.847,4.338C229.29,239.619,233.308,238.318,236.466,239.237Z" fill="#eab2a8"/>
        </g>
        <g id="Group_449" data-name="Group 449">
          <path id="Path_519" data-name="Path 519" d="M369.525,129.369a29.18,29.18,0,0,0-2.842-.956c-.263-1.619-1.343-3.866.527-3.8a17.56,17.56,0,0,0,2.488-.438C371.26,126.866,368.158,126.043,369.525,129.369Z" fill="#eab2a8"/>
        </g>
        <g id="Group_450" data-name="Group 450">
          <path id="Path_520" data-name="Path 520" d="M290.677,159.823c-.854.353-.309,1.849-.461,2.86-.851.173-1.617.471-2.473.644l-1.425,3.72-1.731-.729c-.534,2.021-2.914,2.461-4.323,3.756-1.2.039-2.306.212-3.334.324.672-.441.278-1.856.332-2.823,1.847-1.207,3.78-2.472,5.625-3.678.672-.438,1.344-.884,4.413-1.208C288.141,161.977,287.415,160.041,290.677,159.823Z" fill="#e29288"/>
        </g>
      </g>
    </g>
  </g>
</svg>
